<svg width="25" height="24" viewBox="0 0 25 24" fill="none" xmlns="http://www.w3.org/2000/svg">
<path d="M19.4876 8.17007C19.3799 8.06104 19.2353 8 19.0847 8C18.9342 8 18.7896 8.06104 18.6819 8.17007L12.6523 14.2613L6.62401 8.17007C6.5163 8.06104 6.37171 8 6.22115 8C6.07059 8 5.926 8.06104 5.8183 8.17007C5.76578 8.22306 5.72403 8.28642 5.69553 8.35641C5.66703 8.4264 5.65234 8.5016 5.65234 8.57757C5.65234 8.65353 5.66703 8.72873 5.69553 8.79872C5.72403 8.86871 5.76578 8.93207 5.8183 8.98507L12.2314 15.4626C12.344 15.5763 12.4951 15.64 12.6523 15.64C12.8096 15.64 12.9607 15.5763 13.0733 15.4626L19.4864 8.98507C19.5389 8.93207 19.5807 8.86871 19.6092 8.79872C19.6377 8.72873 19.6523 8.65353 19.6523 8.57757C19.6523 8.5016 19.6377 8.4264 19.6092 8.35641C19.5807 8.28642 19.5389 8.22306 19.4864 8.17007H19.4876Z" fill="#383E45"/>
</svg>
