<svg xmlns="http://www.w3.org/2000/svg" width="376" height="388" fill="none" viewBox="0 0 376 388">
  <g style="mix-blend-mode:screen">
    <path fill="#EBEBEB" d="M32.252 151.356c0-.735.097-2.685.097-3.498 0-3.559-1.268-5.168-4.582-5.247-1.566-.096-2.484-1.023-2.484-2.335a2.347 2.347 0 0 1 1.544-2.207c.3-.109.62-.155.94-.136 3.314-.14 4.582-1.749 4.582-5.308 0-.831-.096-2.781-.096-3.498 0-4.722 1.993-7.748 9.549-9.401a2.11 2.11 0 0 1 2.553 1.373 2.109 2.109 0 0 1-1.233 2.624c-4.73 1.46-5.413 2.973-5.413 6.287 0 .971.096 2.624.096 3.603 0 3.804-1.853 5.658-5.072 6.681 3.271 1.067 5.072 2.877 5.072 6.672 0 1.032-.096 2.624-.096 3.612 0 3.314.682 4.827 5.413 6.287a2.109 2.109 0 0 1 .23 3.819 2.106 2.106 0 0 1-1.55.177c-7.556-1.705-9.55-4.73-9.55-9.505Zm28.561-22.283c0 .734-.096 2.684-.096 3.498 0 3.602 1.311 5.168 4.626 5.308a2.33 2.33 0 0 1 1.748.632 2.338 2.338 0 0 1 .738 1.707 2.345 2.345 0 0 1-2.486 2.339c-3.315.096-4.626 1.705-4.626 5.247 0 .831.096 2.781.096 3.498 0 4.774-2.003 7.8-9.55 9.453a2.052 2.052 0 0 1-2.48-1.053 2.047 2.047 0 0 1-.204-.95 2.019 2.019 0 0 1 1.417-1.994c4.678-1.46 5.36-2.973 5.36-6.287 0-.979-.096-2.623-.096-3.612 0-3.795 1.845-5.649 5.063-6.672-3.262-1.075-5.063-2.877-5.063-6.681 0-1.023.096-2.623.096-3.603 0-3.314-.682-4.827-5.36-6.287a2.096 2.096 0 0 1-1.271-2.603 2.1 2.1 0 0 1 2.538-1.393c7.547 1.705 9.55 4.731 9.55 9.453Zm93.883-41.207a2.886 2.886 0 0 1 0 4.084 2.94 2.94 0 0 1-2.003.822 3.025 3.025 0 0 1-2.081-.822l-12.75-12.916a.36.36 0 0 1-.227-.28.604.604 0 0 0-.14-.087 1.233 1.233 0 0 1-.131-.368.22.22 0 0 1-.093-.069.221.221 0 0 1-.047-.106c-.044-.096-.044-.227-.088-.27a.518.518 0 0 1-.096-.228v-1.128c0-.088.096-.14.096-.184 0-.043 0-.227.088-.358.087-.132 0-.053 0-.097 0-.043.14-.314.227-.402a.09.09 0 0 1 .008-.036.096.096 0 0 1 .02-.032.097.097 0 0 1 .032-.02.093.093 0 0 1 .036-.008.795.795 0 0 1 .272-.315l12.749-12.933a2.974 2.974 0 0 1 4.084 0 2.891 2.891 0 0 1 .627 3.147 2.91 2.91 0 0 1-.627.937L143.896 77.04l10.8 10.826Zm11.569 1.462 11.115-26.452a2.501 2.501 0 0 1 1.38-1.343 2.51 2.51 0 0 1 2.713.572 2.437 2.437 0 0 1 .489 2.677l-11.115 26.496a2.523 2.523 0 0 1-2.317 1.504 2.26 2.26 0 0 1-.875-.183 2.45 2.45 0 0 1-1.39-3.27Zm165.048 168.677 11.682-.236 5.754-.105c1.916 0 3.813 0 5.719-.044l-.384.385-.053-9.777.437.429-11.604-.053c-3.856 0-7.713-.096-11.578-.14l.245-.236c0 1.6-.079 3.209-.122 4.836l-.096 4.941Zm0 0-.123-4.836c0-1.635-.096-3.288-.114-4.941v-.236h.237c3.865-.044 7.721-.14 11.578-.14l11.577-.052h.438v10.589h-.394c-1.95 0-3.909 0-5.85-.043l-5.824-.105-11.525-.236Zm12.915 12.341 11.683-.236 5.754-.105h5.719l-.384.385-.044-9.786.428.437-11.578-.052c-3.856 0-7.712-.096-11.578-.14l.245-.245c0 1.609-.078 3.218-.113 4.845l-.132 4.897Zm0 0-.122-4.836c0-1.635-.096-3.288-.114-4.941v-.236h.236c3.866 0 7.722-.14 11.578-.14l11.543-.052h.446v.437l-.043 9.785v.394h-.403c-1.95 0-3.9 0-5.85-.044l-5.824-.105-11.447-.262Zm-25.849 0 11.683-.236 5.754-.105h5.719l-.385.385-.035-9.83.438.438-11.578-.053c-3.857 0-7.722-.096-11.578-.14l.236-.245c0 1.609-.07 3.219-.114 4.845l-.14 4.941Zm0 0-.122-4.836c-.044-1.635-.096-3.288-.114-4.941v-.236h.236c3.857 0 7.722-.14 11.578-.14l11.596-.052h.437v10.598h-.385c-1.95 0-3.909 0-5.85-.043l-5.824-.105-11.552-.245Zm-298.43 0 11.674-.236 5.754-.105h5.728l-.394.385-.043-9.786.437.437-11.552-.096c-3.865 0-7.722-.096-11.578-.14l.236-.245c0 1.609-.078 3.219-.113 4.845l-.15 4.941Zm0 0-.131-4.836c0-1.635-.097-3.288-.114-4.941v-.236h.245c3.856 0 7.713-.14 11.578-.14l11.578-.052h.437v.437l-.052 9.785v.394h-.385c-1.95 0-3.91 0-5.86-.044l-5.823-.079-11.473-.288Zm0-219.692 11.674-.245 5.754-.096c1.915 0 3.821 0 5.728-.053l-.394.394-.043-9.785.437.437-11.552-.053c-3.865 0-7.722-.105-11.578-.148l.236-.236c0 1.6-.078 3.209-.113 4.844l-.15 4.941Zm0 0-.131-4.845c0-1.626-.097-3.279-.114-4.94v-.219h.245c3.856 0 7.713-.14 11.578-.149l11.578-.052h.437v.437l-.052 9.785v.394h-.385c-1.95 0-3.91 0-5.86-.052l-5.823-.097-11.473-.262ZM7.068 62.99l11.674-.245 5.754-.096c1.915 0 3.813 0 5.728-.053l-.394.394v-9.786l.438.437-11.657-.052c-3.865 0-7.722-.105-11.578-.149l.236-.236c0 1.6-.079 3.21-.114 4.845l-.087 4.94Zm0 0-.166-4.854c0-1.626-.096-3.28-.114-4.94v-.237h.28c3.856-.043 7.713-.14 11.578-.148l11.578-.053h.437v.437l-.052 9.786v.402h-.385c-1.959 0-3.91 0-5.86-.052l-5.823-.097-11.473-.245Zm337.16-12.327 11.683-.244 5.754-.096c1.915-.044 3.813 0 5.719-.044l-.384.384-.044-9.785.428.437-11.578-.052c-3.856 0-7.712-.096-11.578-.14l.245-.245c0 1.6-.078 3.218-.113 4.845l-.132 4.94Zm0 0-.122-4.835c0-1.636-.096-3.288-.114-4.95v-.227h.236c3.866-.044 7.722-.14 11.578-.14l11.543-.07h.446v.437l-.043 9.785v.394h-.403c-1.95 0-3.9 0-5.85-.052l-5.824-.097-11.447-.245Zm-125.355 65.638-11.674.245-5.754.096h-5.728l.394-.385.043 9.786-.437-.438 11.578.053c3.865 0 7.722.096 11.578.14l-.236.245c0-1.601.079-3.218.114-4.845l.122-4.897Zm0 0 .131 4.836c0 1.635.097 3.288.114 4.949v.263h-.245c-3.856.043-7.713.14-11.578.14l-11.578.061h-.437v-.437l.052-9.786v-.393h.385c1.95 0 3.909 0 5.859.052l5.824.096 11.473.219Zm-12.916-12.343-11.674.245-5.754.096h-5.728l.394-.384.044 9.785-.438-.437 11.578.052c3.857 0 7.722.096 11.578.14l-.236.245c0-1.6.07-3.218.114-4.845l.122-4.897Zm0 0 .123 4.836c.043 1.635.105 3.288.113 4.95v.236h-.244c-3.857 0-7.722.14-11.578.14l-11.578.061h-.438v-.437l.053-9.786v-.349h.428c1.95 0 3.909 0 5.859.052l5.824.096 11.438.201Z"/>
    <path fill="#C7C7C7" d="M339.384.422h-.875v130.497h.875V.422Z"/>
    <path fill="#EBEBEB" d="m302.744 165.81 2.912 6.401h66.591l2.903-6.401-28.351-19.624h-15.705l-28.35 19.624Z"/>
    <path fill="#DBDBDB" d="m329.126 127.281 1.968 18.906h15.705l1.968-18.906h-19.641Zm-26.374 38.541 2.912 6.402h66.591l2.903-6.402h-72.406Z"/>
    <path fill="#C7C7C7" d="M255.776.422h-.875V84.03h.875V.422Z"/>
    <path fill="#EBEBEB" d="m219.136 118.933 2.912 6.401h66.59l2.904-6.401-28.351-19.624h-15.705l-28.35 19.624Z"/>
    <path fill="#DBDBDB" d="m245.518 80.404 1.968 18.907h15.705l1.968-18.907h-19.641Zm-26.382 38.526 2.912 6.401h66.59l2.904-6.401h-72.406Z"/>
    <path fill="#EBEBEB" d="M42.65 356.396h-.874V246.65L18.4 214.749v-59.901h.875v59.613l23.374 31.9v110.035Z"/>
    <path fill="#EBEBEB" d="M18.838 155.316a2.522 2.522 0 0 1-2.333-1.549 2.518 2.518 0 1 1 2.333 1.549Zm0-4.154a1.642 1.642 0 0 0-1.621 1.963 1.65 1.65 0 0 0 1.294 1.294 1.642 1.642 0 0 0 1.69-.705 1.646 1.646 0 0 0-1.363-2.552Zm17.787 205.234h-.875V250.507l-23.374-31.91v-41.896h.874v41.616l23.375 31.901v106.178Z"/>
    <path fill="#EBEBEB" d="M12.813 177.177a2.523 2.523 0 0 1-2.47-3.01 2.518 2.518 0 1 1 2.47 3.01Zm0-4.154a1.644 1.644 0 1 0 1.519 1.008 1.638 1.638 0 0 0-1.519-1.008Zm35.635 37.849h-.875v145.52h.875v-145.52Z"/>
    <path fill="#EBEBEB" d="M48.01 211.308a2.517 2.517 0 0 1-2.47-3.01 2.521 2.521 0 0 1 1.98-1.979 2.523 2.523 0 0 1 3.01 2.47 2.518 2.518 0 0 1-2.52 2.519Zm0-4.154a1.645 1.645 0 1 0 1.52 1.007 1.634 1.634 0 0 0-1.52-1.007Zm6.026 149.24h-.875v-74.068l.053-.096 15.819-29.837v-53.552h.874v53.771l-.052.096-15.82 29.837v73.849Z"/>
    <path fill="#EBEBEB" d="M69.461 199.276a2.516 2.516 0 0 1-2.47-3.009 2.518 2.518 0 1 1 2.47 3.009Zm0-4.153a1.643 1.643 0 1 0 1.644 1.635 1.639 1.639 0 0 0-1.015-1.513 1.632 1.632 0 0 0-.629-.122Zm-9.872 161.272h-.875V285.52l.053-.105 18.652-32.985v-35.233h.874v35.46l-.052.105-18.652 32.985v70.648Z"/>
    <path fill="#EBEBEB" d="M77.9 217.633a2.52 2.52 0 1 1 0-5.038 2.52 2.52 0 0 1 0 5.038Zm0-4.154a1.65 1.65 0 0 0-1.519 1.015 1.645 1.645 0 0 0 2.886 1.543 1.646 1.646 0 0 0-1.367-2.558Zm254.742 142.91h-.875v-57.566l.088-.114 23.287-31.787v-33.379h.874v33.668l-.087.113-23.287 31.787v57.278Z"/>
    <path fill="#EBEBEB" d="M355.579 234.019a2.523 2.523 0 0 1-2.327-1.555 2.524 2.524 0 0 1 .546-2.744 2.517 2.517 0 0 1 3.875.381 2.52 2.52 0 0 1-2.094 3.918Zm0-4.154a1.644 1.644 0 1 0 1.519 1.008 1.639 1.639 0 0 0-1.519-1.008Zm-16.921 126.524h-.874v-53.71l23.383-31.9v-15.382h.874v15.661l-.087.123-23.296 31.787v53.421Z"/>
    <path fill="#EBEBEB" d="M361.604 255.871a2.502 2.502 0 0 1-2.318-1.55 2.507 2.507 0 0 1 1.829-3.422 2.513 2.513 0 0 1 2.999 2.462 2.518 2.518 0 0 1-2.51 2.51Zm0-4.145a1.64 1.64 0 0 0-1.511 1.009 1.634 1.634 0 1 0 1.511-1.009Zm-34.76 11.617h-.875v93.053h.875v-93.053Z"/>
    <path fill="#EBEBEB" d="M326.407 263.779a2.513 2.513 0 0 1-2.333-1.549 2.517 2.517 0 1 1 2.333 1.549Zm0-4.154a1.652 1.652 0 0 0-1.526 1.011 1.642 1.642 0 0 0 1.198 2.246 1.647 1.647 0 0 0 1.963-1.621 1.643 1.643 0 0 0-1.635-1.636Zm-5.151 96.766h-.874v-47.614l-15.872-29.933v-53.772h.874v53.553l15.872 29.933v47.833Z"/>
    <path fill="#EBEBEB" d="M304.947 225.508a2.515 2.515 0 0 1-2.47-3.01 2.518 2.518 0 1 1 2.47 3.01Zm0-4.154a1.646 1.646 0 0 0-1.611 1.968 1.64 1.64 0 0 0 1.296 1.29 1.648 1.648 0 0 0 1.687-.707c.179-.271.274-.59.272-.915a1.629 1.629 0 0 0-.482-1.16 1.645 1.645 0 0 0-1.162-.476Zm10.756 135.039h-.874v-44.414l-18.705-33.09v-35.46h.874v35.232l18.705 33.09v44.642Z"/>
    <path fill="#EBEBEB" d="M296.561 243.865a2.514 2.514 0 0 1-2.334-1.551 2.522 2.522 0 0 1 .545-2.748 2.514 2.514 0 0 1 2.748-.545 2.516 2.516 0 0 1 1.551 2.334 2.518 2.518 0 0 1-2.51 2.51Zm0-4.154a1.642 1.642 0 0 0-1.622 1.959 1.64 1.64 0 0 0 1.289 1.297 1.645 1.645 0 1 0 .333-3.256ZM187.209 387.578c97.335 0 176.24-6.288 176.24-14.044s-78.905-14.044-176.24-14.044c-97.335 0-176.241 6.288-176.241 14.044s78.906 14.044 176.241 14.044Z"/>
    <path fill="#DBDBDB" d="M16.206 356.531h105.916l-21.119-122.846h-79.2l-5.597 122.846Z"/>
    <path fill="#A6A6A6" d="M16.206 356.531h9.287l5.212-122.846h-8.902l-5.597 122.846Z"/>
    <path fill="#263238" d="m4.217 357.009 45.752-.219 45.744-.079 91.496-.14 91.495.14 45.744.079 45.752.219-45.752.209-45.744.079-91.495.14-91.496-.14-45.744-.079-45.752-.209Z"/>
    <path fill="#455A64" d="M202.092 355.444h-6.278v4.101h6.278v-4.101Zm8.15-.27h-6.278v4.101h6.278v-4.101Zm8.141-.27h-6.278v4.101h6.278v-4.101Zm8.151-.278h-6.279v4.101h6.279v-4.101Zm8.141-.271h-6.279v4.102h6.279v-4.102Zm8.15-.27h-6.279v4.101h6.279v-4.101Zm8.141-.27h-6.278v4.101h6.278v-4.101Zm8.15-.27h-6.278v4.101h6.278v-4.101Zm8.142-.27h-6.279v4.101h6.279v-4.101Z"/>
    <path fill="#37474F" d="M268.797 361.898h-74.523v-4.985l74.523-2.081v7.066Z"/>
    <path fill="#455A64" d="M341.535 342.22h-123.02l19.562-91.592h123.02l-19.562 91.592Z"/>
    <path fill="#37474F" d="M346.082 342.22h-123.02l19.562-91.592h123.029l-19.571 91.592Z"/>
    <path fill="#263238" d="M304.169 298.338a9.252 9.252 0 0 1-8.815 7.608 6.338 6.338 0 0 1-5.045-2.252 6.336 6.336 0 0 1-1.356-5.356 9.264 9.264 0 0 1 8.815-7.608 6.338 6.338 0 0 1 5.045 2.252 6.336 6.336 0 0 1 1.356 5.356Zm-15.443-30.259-2.965 13.904h-2.684l2.964-13.904h2.685Zm5.728 0-2.965 13.904h-2.693l2.964-13.904h2.694Zm5.719 0-2.965 13.904h-2.684l2.964-13.904h2.685Zm5.727 0-2.964 13.904h-2.693l2.964-13.904h2.693Zm5.72 0-2.965 13.904h-2.685l2.965-13.904h2.685Zm5.727 0-2.964 13.904h-2.693l2.964-13.904h2.693Z"/>
    <path fill="#455A64" d="M309.538 366.136h-60.504v-4.696l60.504-1.959v6.655Z"/>
    <path fill="#455A64" d="M325.996 366.127h-32.487l-19.57-51.314h32.486l19.571 51.314Z"/>
    <path fill="#263238" d="M331.339 366.127h-32.487l-19.562-51.314h32.487l19.562 51.314Z"/>
    <path fill="#37474F" d="M208.004 367.387h-62.385c-5.326 0 2.378-15.155 21.809-20.987 19.431-5.833 46.706 15.303 40.576 20.987Z"/>
    <path fill="#263238" d="M183.527 367.384c.06-1.725.354-3.435.875-5.081a21.534 21.534 0 0 1 2.098-4.748 17.244 17.244 0 0 1 3.306-4.023 14.876 14.876 0 0 1 4.372-2.737c-.673.542-1.434.927-2.046 1.522l-.962.813-.874.875a21.54 21.54 0 0 0-3.026 3.987 29.878 29.878 0 0 0-2.212 4.512 36.413 36.413 0 0 0-1.531 4.88Z"/>
    <path fill="#263238" d="M190.916 352.965a40.087 40.087 0 0 1 10.389 5.185 22.625 22.625 0 0 1 4.372 3.935 13.564 13.564 0 0 1 1.618 2.475c.428.884.678 1.844.735 2.825a8.235 8.235 0 0 0-1.111-2.624 13.503 13.503 0 0 0-1.749-2.23 29.627 29.627 0 0 0-4.372-3.664c-1.548-1.119-3.183-2.116-4.827-3.104a76.47 76.47 0 0 0-2.51-1.425 213.2 213.2 0 0 0-2.545-1.373ZM99.674 176.463c-2.973-5.763-13.624-17.726-26.313-11.325-18.092 9.138-10.712 46.837-17.087 60.968-11.543 25.605-6.427 46.4 8.64 45.805 16.895-.673 27.65-21.949 16.939-58.642-6.708-22.946-3.017-34.979 1.749-35.53 4.765-.551 8.893 4.548 8.893 4.548l7.18-5.824Z"/>
    <path fill="#263238" d="M98.397 174.341a38.79 38.79 0 0 0-6.068-7.057 22.797 22.797 0 0 0-8.08-4.862 15.608 15.608 0 0 0-9.567-.131 20.1 20.1 0 0 0-8.22 4.915 22.586 22.586 0 0 0-5.01 8.132 41.49 41.49 0 0 0-2.09 9.191 83.144 83.144 0 0 0 .34 18.6 124.076 124.076 0 0 1 1.006-18.417 44.379 44.379 0 0 1 2.291-8.744 21.269 21.269 0 0 1 4.705-7.494 18.78 18.78 0 0 1 7.485-4.574 14.471 14.471 0 0 1 8.657-.14 23.166 23.166 0 0 1 7.932 4.215 37.73 37.73 0 0 1 3.498 3.017 63.67 63.67 0 0 1 3.121 3.349Zm-19.929 26.201c.805 3.708 2.02 7.311 3.096 10.949 1.075 3.638 2.239 7.232 3.244 10.869 1.006 3.638 1.889 7.294 2.519 10.993.678 3.673.997 7.405.953 11.14.003 3.691-.69 7.35-2.046 10.783a31.93 31.93 0 0 1-6.122 9.155 23.61 23.61 0 0 1-9.208 6.017 21.079 21.079 0 0 1-5.457 1.189c-.937.07-1.878.07-2.815 0a9.732 9.732 0 0 1-2.781-.464c1.795.671 3.708.969 5.623.875a22.087 22.087 0 0 0 5.692-.875 23.258 23.258 0 0 0 5.308-2.308 25.912 25.912 0 0 0 4.6-3.551 30.264 30.264 0 0 0 3.77-4.424l.804-1.207.76-1.242c.507-.844.957-1.72 1.347-2.623a30.518 30.518 0 0 0 2.274-11.368c.105-7.757-1.67-15.304-3.918-22.553-1.128-3.638-2.413-7.214-3.734-10.765-1.32-3.55-2.728-6.952-3.909-10.59Z"/>
    <path fill="#FFC727" d="M100.793 176.267c-.253-1.749-1.915-3.796-3.104-3.909-1.19-.114-8.963 4.975-9.304 7.267-.341 2.291 3.734 3.497 3.734 3.497l8.674-6.855Z"/>
    <path fill="#AD6359" d="M101.554 257.655c25.788 15.609 62.044 31.621 74.715 29.251 10.266-1.906 48.708-29.854 50.623-31.481 4.731-3.996-17.83-39.701-23.541-36.334-7.197 4.232-34.637 30.886-37.759 30.895-3.253 0-26.471-3.104-53.107-6.996-18.407-2.614-26.933 5.011-10.931 14.665Z"/>
    <path fill="#AD6359" d="M209.805 207.023c6.165-3.148 12.968-7.249 20.174-8.071 7.205-.822 14.42 7.87 14.778 10.581.359 2.711-.087 20.008-7.266 20.987-7.18.98-4.583-12.627-5.055-14.078-.472-1.452-.988-3.323-2.326-3.009-1.338.315-23.549 14.726-23.549 14.726l3.244-21.136Z"/>
    <path fill="#AD6359" d="M210.4 207.945c.402-.053 18.634-10.205 25.831-11.027 7.197-.822 14.429 7.87 14.788 10.581.358 2.711-.097 20.008-7.276 20.987-7.179.98-4.573-12.627-5.046-14.079-.472-1.451-.997-3.323-2.334-3.008-1.338.315-23.55 14.726-23.55 14.726l-2.413-18.18Z"/>
    <path fill="#263238" d="M241.19 227.878c-1.041-1.015-1.417-2.703-1.749-4.084a14.878 14.878 0 0 1-.35-4.617 24.64 24.64 0 0 0 .35-4.067 7.986 7.986 0 0 0-1.513-3.664c-.682-.935-1.697-.446-2.554 0a34.026 34.026 0 0 0-3.672 2.291c-1.286.875-2.545 1.749-3.813 2.624a38.556 38.556 0 0 0-3.865 2.851c-.088.078 0 .244.113.183a38.344 38.344 0 0 0 3.428-2.125 242.93 242.93 0 0 1 3.857-2.431c1.207-.743 2.378-1.548 3.603-2.273.428-.254 1.276-.875 1.819-.814.542.062 1.014 1.356 1.189 1.749a6.806 6.806 0 0 1 .271 3.918 20.754 20.754 0 0 0-.219 4.031c.04 1.274.309 2.53.796 3.708a15.042 15.042 0 0 0 2.125 2.859c.087.158.297-.026.184-.139Z"/>
    <path fill="#AD6359" d="M190.129 229.826s17.49-20.786 21.145-24.94c7.354-8.333 40.444-27.292 45.254-28.455 4.809-1.163 7.87 8.596-14.464 22.15-11.796 7.145-13.064 14.613-12.295 18.557.77 3.944 5.544 10.843 12.243 9.767 6.698-1.075 9.689-11.368 15.688-13.3 5.998-1.933 3.445 9.89 0 16.973-3.446 7.083-10.686 13.493-16.178 16.449-5.492 2.956-22.352 13.03-22.352 13.03l-29.041-30.231Z"/>
    <path fill="#263238" d="M249.646 221.097c-2.256 2.291-4.775 5.195-8.072 5.754-3.296.56-5.929-1.338-7.87-3.917-1.941-2.58-3.34-5.684-2.991-9.007a15.668 15.668 0 0 1 3.586-8.107 37.922 37.922 0 0 1 8.255-7.232c.131-.096 0-.288-.166-.201-2.895 1.749-11.937 6.996-12.724 15.68-.323 3.559 1.119 6.497 3.113 9.173 1.837 2.466 4.373 4.739 7.608 4.573 3.996-.21 6.996-3.874 9.479-6.646.097-.122-.105-.183-.218-.07Z"/>
    <path fill="#FFC727" d="m162.286 247.265-29.854 28.341s-19.833-8.797-34.743-19.404c-14.91-10.608.472-17.166 25.089-14.586 24.616 2.579 39.508 5.649 39.508 5.649Z"/>
    <path fill="#fff" d="m125.314 272.23-.394-.193v-.174a22.841 22.841 0 0 0-1.408-6.996 6.036 6.036 0 0 0-2.116-2.737 4.37 4.37 0 0 0-1.609-.621 13.094 13.094 0 0 0-1.749-.061 24.077 24.077 0 0 0-6.996 1.408 35.99 35.99 0 0 0-1.854.708l-.341-.201a46.44 46.44 0 0 1 2.082-.814 24.755 24.755 0 0 1 7.118-1.451c.613-.02 1.226.003 1.836.07.622.1 1.217.326 1.749.664a6.386 6.386 0 0 1 2.256 2.895 22.884 22.884 0 0 1 1.452 7.109l-.026.394Zm20.436-27.747-.131.358c-1.093 2.912-2.466 5.842-4.845 7.871a8.178 8.178 0 0 1-4.197 1.819 8.323 8.323 0 0 1-4.504-.875c-2.824-1.347-5.142-3.55-7.345-5.763-2.204-2.212-4.171-4.468-6.288-6.672h-.157c2.125 2.248 4.171 4.574 6.34 6.804a27.817 27.817 0 0 0 7.372 5.85 8.024 8.024 0 0 0 8.945-.98c2.431-2.098 3.813-5.063 4.932-7.975.053-.14.105-.271.149-.411l-.271-.026Zm-15.74 29.994c1.556.735 2.448 1.128 2.448 1.128-.804-.411-1.644-.769-2.475-1.128h.027Z"/>
    <path fill="#263238" d="M125.043 270.414c6.025-6.55 12.513-12.689 19.107-18.679a154.511 154.511 0 0 1 5.71-4.958.06.06 0 0 1 .073.007.06.06 0 0 1 .02.033.066.066 0 0 1-.006.039c-3.078 3.2-6.287 6.287-9.479 9.383-3.192 3.096-6.418 6.191-9.706 9.208-1.854 1.705-3.699 3.41-5.597 5.081-.044.113-.201-.035-.122-.114Z"/>
    <path fill="#000" d="m144.84 263.823-12.408 11.779s-19.833-8.797-34.743-19.405c-6.069-4.319-7.118-7.966-4.573-10.589l51.724 18.215Z" opacity=".1"/>
    <path fill="#FFC727" d="M142.838 356.695H43.035s21.678-83.721 41.738-107.297c.446-.542.875-1.049 1.382-1.53a4.25 4.25 0 0 1 .27-.289 21.115 21.115 0 0 1 5.361-4.145c.35-.192.7-.367 1.067-.533 7.731-3.551 15.889-.604 21.783 4.433 1.872 1.601 23.025 29.129 24.896 39.622 1.618 9.261-4.643 19.239-4.643 19.239l7.949 50.5Z"/>
    <path fill="#263238" d="M119.874 302.585a86.542 86.542 0 0 0-12.566 2.16c-2.055.543-4.066 1.181-6.077 1.863-1.006.332-2.011.638-3.026.944a13.648 13.648 0 0 1-3.244.639.074.074 0 0 0-.038.029.077.077 0 0 0-.015.045c0 .016.005.032.014.046.01.013.023.023.039.028 1.047.049 2.096.022 3.14-.078a23.448 23.448 0 0 0 2.981-.595c2.081-.533 4.145-1.163 6.226-1.749 4.198-1.119 8.386-2.238 12.663-3.052.192.035.14-.297-.097-.28Zm10.581 3.682a94.381 94.381 0 0 0-10.554-.42c-1.749 0-3.498.175-5.247.359-.831.096-1.67.192-2.501.306-.831.114-1.819.376-2.737.49-.096 0-.096.157 0 .148.874-.078 1.749 0 2.623-.043l2.624-.088c1.748-.061 3.497-.096 5.246-.175 3.498-.148 6.996-.262 10.538-.288.21 0 .192-.271.008-.289Z"/>
    <path fill="#000" d="M110.343 292.504a1.356 1.356 0 0 1 .577 1.749 1.021 1.021 0 0 1-.77.429 1.582 1.582 0 0 1-1.032-.271l-7.485-5.107c-.061 0-.096-.053-.14-.105h-.07a.847.847 0 0 1-.114-.158.148.148 0 0 1-.087-.07s-.053-.096-.079-.113a.347.347 0 0 1-.07-.097l-.043-.139a.45.45 0 0 1-.062-.114.31.31 0 0 0 0-.096l-.043-.14v-.245a.943.943 0 0 1 0-.184v-.043a.25.25 0 0 1 .078-.149l3.813-6.121a1.31 1.31 0 0 1 1.81-.158 1.352 1.352 0 0 1 .577 1.749l-3.226 5.133 6.366 4.25Zm5.334.145 1.172-11.911a.918.918 0 0 1 .468-.67.943.943 0 0 1 .404-.114.943.943 0 0 1 .413.076 1.373 1.373 0 0 1 1.015 1.356l-1.172 11.927a.874.874 0 0 1-.813.744 1.06 1.06 0 0 1-.42 0 1.373 1.373 0 0 1-1.067-1.408Zm15.163-6.11a.703.703 0 0 1-.096.149l-3.813 6.121a1.072 1.072 0 0 1-.795.437 1.606 1.606 0 0 1-1.015-.279 1.348 1.348 0 0 1-.577-1.749l3.227-5.133-6.305-4.277a1.354 1.354 0 0 1-.577-1.749 1.313 1.313 0 0 1 1.81-.157l7.477 5.107c.065.035.126.076.183.122.058.054.111.112.158.175.036.062.077.12.122.175v.053l.044.14.052.096v.297a1.882 1.882 0 0 0 0 .184v.061l.105.227Z" opacity=".1"/>
    <path fill="#fff" d="M137.023 319.713c-.138.084-.281.16-.429.227l-.874.385c-.28.122-.577.201-.875.306-.57.189-1.155.332-1.749.428a9.1 9.1 0 0 1-3.664-.236 5.535 5.535 0 0 1-1.635-.874 6.46 6.46 0 0 1-1.233-1.391 11.58 11.58 0 0 1-1.478-3.349 33.892 33.892 0 0 1-1.04-7.188v-1.732c-.123-4.258.087-8.508.314-12.749.263-4.819.613-9.62.717-14.447 0-2.116.053-4.241-.069-6.348v-.857a22.841 22.841 0 0 0-1.408-6.996 6.05 6.05 0 0 0-2.117-2.737 4.356 4.356 0 0 0-1.609-.621 13.094 13.094 0 0 0-1.749-.061 24.077 24.077 0 0 0-6.995 1.408 46.855 46.855 0 0 0-4.495 1.88l-.341.157c-2.755 1.329-5.413 2.868-8.045 4.434-4.145 2.466-8.22 5.054-12.505 7.293-1.46.752-2.938 1.469-4.451 2.099l-.175.078c-.653.268-1.318.522-1.994.761a23.762 23.762 0 0 1-7.1 1.443 13.08 13.08 0 0 1-3.953-.525c0-.061 0-.113.07-.166 1.263.352 2.572.514 3.882.481a23.607 23.607 0 0 0 6.996-1.46 53.38 53.38 0 0 0 1.959-.752l.184-.079a59.076 59.076 0 0 0 4.442-2.107c4.259-2.239 8.325-4.836 12.47-7.32 2.562-1.521 5.159-3.034 7.87-4.372l.332-.166a50.11 50.11 0 0 1 4.731-2.003 24.728 24.728 0 0 1 7.118-1.451c.613-.02 1.227.003 1.837.069a4.651 4.651 0 0 1 1.749.665 6.387 6.387 0 0 1 2.256 2.895 22.884 22.884 0 0 1 1.452 7.109c0 .254 0 .507.043.761.009.093.009.187 0 .28.123 2.072.123 4.145.088 6.208-.097 4.836-.429 9.62-.691 14.464-.219 4.058-.429 8.115-.35 12.164v.472c0 .604 0 1.198.061 1.802a33.312 33.312 0 0 0 1.006 7.1c.298 1.15.776 2.245 1.417 3.245.325.488.717.929 1.163 1.311.449.378.961.674 1.512.875a8.75 8.75 0 0 0 3.498.236 11.91 11.91 0 0 0 1.749-.411c.28-.105.56-.184.875-.297l.804-.368.525-.271-.096.298Zm2.431-33.125a76.646 76.646 0 0 0-5.483 6.121c-3.393 4.189-6.48 8.605-9.619 13.012l-.394.56-1.163 1.644c-2.151 3.034-4.329 6.077-6.637 8.998-.061.079-.123.166-.193.245-1.521 1.915-3.095 3.778-4.774 5.553a43.41 43.41 0 0 1-7.04 6.182c-.631.457-1.288.878-1.967 1.259-.665.42-1.373.752-2.064 1.111a6.645 6.645 0 0 1-4.45.682 9.093 9.093 0 0 1-3.997-2.212 21.776 21.776 0 0 1-3.087-3.498 58.872 58.872 0 0 1-4.757-8.08c-2.807-5.614-5.195-11.43-7.66-17.201a171.437 171.437 0 0 0-8.098-17.035 59.484 59.484 0 0 0-.945-1.583l-.183.455c.27.437.533.875.787 1.329a168.744 168.744 0 0 1 8.036 17.009c2.484 5.763 4.88 11.578 7.704 17.201a60.395 60.395 0 0 0 4.81 8.132 22.397 22.397 0 0 0 3.148 3.542 9.36 9.36 0 0 0 4.171 2.282 6.997 6.997 0 0 0 4.67-.717c.708-.358 1.425-.699 2.09-1.119.664-.42 1.346-.822 1.994-1.277a45.416 45.416 0 0 0 7.083-6.244c1.661-1.749 3.235-3.637 4.739-5.544.07-.079.132-.166.193-.245 2.326-2.947 4.503-6.007 6.663-9.068l.945-1.338.384-.56c3.166-4.512 6.297-9.042 9.768-13.326a75.008 75.008 0 0 1 5.343-5.982.544.544 0 0 0-.017-.288Zm-47.921 63.163c-3.9-4.915-7.73-9.917-11.954-14.569-4.224-4.652-8.902-9.042-14.63-11.77a21.248 21.248 0 0 0-4.486-1.452 20.82 20.82 0 0 0-2.344-.35 21.379 21.379 0 0 0-2.36-.044 19.52 19.52 0 0 0-2.624.228l-.053.157a19.053 19.053 0 0 1 2.624-.227 23.493 23.493 0 0 1 2.343.052 20.46 20.46 0 0 1 2.309.368 20.8 20.8 0 0 1 4.442 1.46c5.667 2.72 10.328 7.127 14.525 11.744 4.198 4.617 8.028 9.619 11.92 14.577 1.8 2.274 3.62 4.548 5.5 6.769h.402a517.685 517.685 0 0 1-5.614-6.943Zm47.956-14.342c-.604 1.609-1.19 3.21-1.749 4.819-2.003 5.517-3.935 11.062-6.218 16.466h.438c2.264-5.361 4.188-10.852 6.191-16.318a678.877 678.877 0 0 1 1.513-4.101l-.175-.866Zm-9.121 8.745c-.079-.455-.149-.918-.245-1.382l-.315-1.364c-.183-.874-.472-1.801-.725-2.702a48.504 48.504 0 0 0-4.469-10.24 72.795 72.795 0 0 0-8.203-11.368 2.61 2.61 0 0 1-.209-.236c-1.749-2.02-3.586-3.962-5.44-5.877-5.246-5.325-10.703-10.353-15.95-15.626a152.593 152.593 0 0 1-7.608-8.151 93.803 93.803 0 0 1-3.55-4.319 27.578 27.578 0 0 1-2.527-4.224.994.994 0 0 1-.105-.219 3.245 3.245 0 0 1-.175-.35 26.763 26.763 0 0 1-2.396-10.782 35.184 35.184 0 0 1 1.679-10.966c.13-.428.28-.874.428-1.285l-.2.315c-.112.315-.217.629-.316.944a35.324 35.324 0 0 0-1.749 10.992 27.028 27.028 0 0 0 2.37 10.861c.053.123.105.236.166.35a.742.742 0 0 0 .114.219 28.478 28.478 0 0 0 2.527 4.276 29.676 29.676 0 0 0 1.75 2.203c.62.717 1.18 1.435 1.792 2.134 2.43 2.825 4.993 5.527 7.608 8.176 5.246 5.247 10.729 10.328 15.915 15.645a134.57 134.57 0 0 1 5.457 5.929c.078.078.14.157.21.236a71.654 71.654 0 0 1 8.115 11.272 48.687 48.687 0 0 1 4.442 10.231c.245.874.525 1.749.708 2.685l.315 1.355c.088.455.158.918.245 1.373.868 4.225.25 8.621-1.749 12.444h.42a19.046 19.046 0 0 0 1.661-12.505l.009-.044Zm4.932-67.334-.481-.236c-3.113-1.487-6.287-2.807-9.488-4.067l-.385-.157c-2.772-1.093-5.561-2.151-8.325-3.244-3.043-1.216-6.068-2.466-9.007-3.9l-1.11-.56-.35-.184a42.406 42.406 0 0 1-6.9-4.372 22.737 22.737 0 0 1-6.33-7.337 17.023 17.023 0 0 1-1.645-4.556 16.16 16.16 0 0 1-.245-4.451 4.088 4.088 0 0 0-.367.227 16.777 16.777 0 0 0 .271 4.285 17.68 17.68 0 0 0 1.697 4.653 23.115 23.115 0 0 0 6.427 7.424 44.088 44.088 0 0 0 6.76 4.258l.341.175 1.32.665c2.956 1.443 5.99 2.685 9.033 3.891 2.807 1.111 5.641 2.169 8.448 3.28l.385.148c3.165 1.242 6.296 2.536 9.365 4.005l.787.376c-.07-.008-.14-.131-.201-.253v-.07Z"/>
    <path fill="#AD6359" d="M81.135 251.55c-17.297 17.822-58.921 85.147-46.093 97.941 12.829 12.793 84.421 4.792 104.167 1.005 6.593-1.268-9.252-44.711-16.353-45.735-5.92-.874-40.864 5.929-42.07 4.373-.98-1.242 6.042-17.49 13.843-43.724 8.998-30.169-5.85-21.739-13.494-13.86Zm75.59 47.423c14.866.192 18.661 2.527 31.297-3.979 8.29-4.267 14.577-.804 9.007 7.136-9.112 12.986-28.35 16.772-35.399 16.16l-4.905-19.317Z"/>
    <path fill="#AD6359" d="M115.904 307.093s17.743-6.594 33.615-7.958c10.975-.944 35.084-.332 54.147 26.453 4.521 6.349 6.462 18.609-4.696 10.913-7.922-5.456-11.289-11.324-16.484-13.659 0 0 .621 15.889-5.92 20.165a144.042 144.042 0 0 1-17.891 9.978 30.984 30.984 0 0 1-2.169-3.183s-6.489 3.428-17.297.708l-23.305-43.417Z"/>
    <path fill="#AD6359" d="M160.1 299.907c4.661 3.41 14.411 10.808 20.288 19.632 6.523 9.794 16.449 30.431 9.164 35.171-5.343 3.498-9.82-4.066-9.82-4.066s2.3 9.391-3.209 11.481c-5.02 1.898-8.142-4.145-8.142-4.145s.42 5.938-4.766 6.839c-6.243 1.075-6.121-11.543-13.37-15.916-1.592-.979 9.855-48.996 9.855-48.996Z"/>
    <path fill="#263238" d="M168.915 324.701c3.856 3.926 10.327 15.093 10.965 25.726 0 .245-.166.385-.218.167a115.836 115.836 0 0 0-10.817-25.832c-.053-.053 0-.105.07-.061Zm-9.689 6.869c2.981 3.734 9.129 15.53 9.409 26.339 0 .236-.184.367-.236.149a123.869 123.869 0 0 0-9.27-26.427.064.064 0 0 1 .004-.036.057.057 0 0 1 .024-.027.059.059 0 0 1 .034-.01.07.07 0 0 1 .035.012Zm23.278-8.824c4.538 2.125 7.267 4.923 10.852 8.316a65.552 65.552 0 0 0 5.518 4.801c1.749 1.338 4.372 3.358 6.699 2.029 1.285-.735 1.521-2.396 1.46-3.743a10.483 10.483 0 0 0-1.093-4.372c0-.061.087-.131.122-.061a14.123 14.123 0 0 1 1.426 3.812 6.433 6.433 0 0 1-.132 3.769c-1.101 2.51-4.241 2.379-6.313 1.329a21.03 21.03 0 0 1-3.498-2.378 137.7 137.7 0 0 1-3.043-2.623c-2.02-1.863-3.935-3.848-5.938-5.737a61.715 61.715 0 0 0-6.191-4.993c-.044-.061.044-.193.131-.149Z"/>
    <path fill="#263238" d="M189.902 340.965c-.813-2.895-5.745-15.181-7.512-18.119a.066.066 0 0 1-.004-.048.067.067 0 0 1 .027-.04.067.067 0 0 1 .047-.012.066.066 0 0 1 .044.021c3.166 4.075 7.687 14.298 8.622 17.49.936 3.191 1.924 7.17 1.417 10.493-.752 4.958-4.189 5.396-5.439 5.448a6.467 6.467 0 0 1-4.11-1.329 13.19 13.19 0 0 1-3.28-4.18c-.043-.079.062-.157.114-.079 1.417 2.213 3.979 4.582 6.725 4.635a4.54 4.54 0 0 0 3.323-1.189 5.894 5.894 0 0 0 1.399-3.874 27.594 27.594 0 0 0-1.373-9.217Z"/>
    <path fill="#263238" d="M168.626 357.909c.595.691 1.705 2.965 3.9 3.752a5.176 5.176 0 0 0 4.81-.332 6.497 6.497 0 0 0 2.466-4.233 41.577 41.577 0 0 0-.079-6.401c0-.105.114-.131.131 0 .497 2.279.653 4.619.464 6.943a6.835 6.835 0 0 1-2.624 4.652 5.143 5.143 0 0 1-5.36.289c-.875-.463-3.349-2.676-3.892-4.565-.035-.078.158-.14.184-.105Zm-17.743-9.831a12.27 12.27 0 0 1 1.836 2.099 50.855 50.855 0 0 1 1.706 2.378 28.865 28.865 0 0 1 2.711 5.247c.752 1.837 1.381 3.848 2.842 5.247a4.688 4.688 0 0 0 5.404.962 4.583 4.583 0 0 0 2.081-2.256 9.044 9.044 0 0 0 .875-3.332.07.07 0 0 1 .02-.049.067.067 0 0 1 .049-.021.07.07 0 0 1 .07.07 16.057 16.057 0 0 1-.227 3.104 5.47 5.47 0 0 1-1.373 2.466 5.248 5.248 0 0 1-5.352 1.12c-2.011-.7-3.296-2.484-4.162-4.373-.962-2.072-1.697-4.223-2.755-6.252-.559-1.067-1.101-2.143-1.749-3.166-.647-1.023-1.504-1.985-2.107-3.121-.044-.088.044-.193.131-.123Z"/>
    <path fill="#263238" d="M144.438 351.433a43.004 43.004 0 0 0 8.238-.438c.087 0 .166.237.087.263a18.708 18.708 0 0 1-4.136.699 14.064 14.064 0 0 1-4.189-.376c-.078-.017-.078-.157 0-.148Zm-99.427-27.331a106.661 106.661 0 0 1 13.484-7.363 102.928 102.928 0 0 1 14.254-5.246c2.772-.822 5.58-1.513 8.378-2.213a.075.075 0 0 1 .033-.004.084.084 0 0 1 .03.012c.01.007.018.015.023.025a.07.07 0 0 1-.022.09.06.06 0 0 1-.031.012.063.063 0 0 1-.033-.004 130.696 130.696 0 0 0-14.394 5.09 482.636 482.636 0 0 0-13.94 5.99c-2.623 1.18-5.158 2.483-7.72 3.751a.091.091 0 0 1-.037-.022.095.095 0 0 1-.025-.034.105.105 0 0 1 0-.084Z"/>
    <path fill="#FFC727" d="m45.606 293.68 41.161-.569s8.045-20.156 11.307-38.161c3.262-18.006-11.64-12.776-27.45 6.261-15.81 19.037-25.018 32.469-25.018 32.469Z"/>
    <path fill="#fff" d="M94.104 271.409c0 .131-.07.262-.114.393-2.754 1.671-5.518 3.315-8.377 4.81-1.46.752-2.939 1.469-4.451 2.099l-.175.078c-.653.269-1.318.522-1.994.761a23.762 23.762 0 0 1-7.1 1.443 13.223 13.223 0 0 1-6.752-1.688l-.21-.113-.664-.403a18.538 18.538 0 0 1-4.451-4.179l.061-.088a18.654 18.654 0 0 0 4.066 3.856c.311.224.635.428.971.613l.096.061a13.182 13.182 0 0 0 6.882 1.749 23.609 23.609 0 0 0 6.996-1.461 51.82 51.82 0 0 0 1.959-.752l.184-.078a59.086 59.086 0 0 0 4.442-2.108c2.92-1.556 5.797-3.27 8.63-4.993Zm-25.99 12.514a47.705 47.705 0 0 0-2.973-4.618l-.227-.314a28.664 28.664 0 0 0-2.335-2.72 14.17 14.17 0 0 0-2.475-2.038l-.227.289c.883.58 1.699 1.258 2.431 2.02.577.586 1.12 1.198 1.635 1.836l.324.411a44.228 44.228 0 0 1 3.498 5.335c1.696 2.982 3.2 6.06 4.617 9.19h.455c-1.443-3.2-2.982-6.348-4.722-9.391Zm19.09 3.331a90.043 90.043 0 0 1-3.55-4.32 27.52 27.52 0 0 1-2.527-4.223 1.016 1.016 0 0 1-.105-.219 3.245 3.245 0 0 1-.175-.35 26.763 26.763 0 0 1-2.396-10.782 35.184 35.184 0 0 1 1.679-10.966 50.224 50.224 0 0 1 3.165-7.721.415.415 0 0 0-.105.078 49.894 49.894 0 0 0-3.148 7.617 35.326 35.326 0 0 0-1.749 10.992 27.028 27.028 0 0 0 2.37 10.861c.053.123.105.236.166.35a.736.736 0 0 0 .114.218 28.438 28.438 0 0 0 2.527 4.277c.542.76 1.128 1.486 1.75 2.203.62.717 1.18 1.434 1.792 2.134.437.507.874 1.006 1.32 1.504 0-.079.062-.157.097-.245l-1.225-1.408Zm5.72-34.384a17.023 17.023 0 0 1-1.645-4.556 16.33 16.33 0 0 1-.28-3.97 3.119 3.119 0 0 0-.35.123 16.296 16.296 0 0 0 .29 3.908 17.683 17.683 0 0 0 1.696 4.653 21.794 21.794 0 0 0 4.643 5.92l.079-.359a21.341 21.341 0 0 1-4.434-5.719Z"/>
    <path fill="#263238" d="M85.07 292.937c.228 0 1.68-.219 1.68-.219.113-.533 2.623-8.981 3.279-10.808 1.329-3.743 2.877-7.416 4.372-11.088a.109.109 0 0 1 .12-.043.11.11 0 0 1 .073.104c-.989 3.165-1.924 6.357-2.939 9.514.297-.446.586-.874.875-1.347.577-.935 1.084-1.897 1.626-2.85a.085.085 0 0 1 .047-.043.085.085 0 0 1 .063.003.08.08 0 0 1 .042.047.08.08 0 0 1-.003.062 16.053 16.053 0 0 1-1.889 3.752c-.331.5-.697.976-1.093 1.425-.087.263-.166.534-.254.796-.62 1.845-3.812 10.975-3.97 10.975h-1.985c-.122 0-.157-.28-.044-.28Zm-32.652-7.092c8.885-.49 17.813-.367 26.715-.061 2.518.087 5.037.233 7.555.437.07 0 .079.114 0 .114-4.433.157-8.884.122-13.327.122-4.442 0-8.928 0-13.388-.175-2.518-.079-5.028-.149-7.546-.271a.09.09 0 0 1-.046-.029.09.09 0 0 1-.02-.051.086.086 0 0 1 .057-.086Z"/>
    <path fill="#AD6359" d="M96.395 243.752c.306 1.749 7.94 13.563 15.924 13.668 2.623 0 3.384-14.158 3.384-14.158l.298-1.032 4.153-14.437-16.571-12.077-2.405-1.609s-.874 4.032-1.906 9.069c-.053.227-.105.463-.149.717-.043.253-.14.551-.183.813a95.523 95.523 0 0 0-.481 2.282c-.114.586-.228 1.155-.333 1.749-.105.595-.21 1.216-.323 1.837a96.16 96.16 0 0 0-1.408 13.178Z"/>
    <path fill="#263238" d="M99.272 223.141A30.203 30.203 0 0 0 116 242.23l4.154-14.437-16.571-12.077-2.405-1.609s-.874 3.997-1.906 9.034Z"/>
    <path fill="#AD6359" d="M138.579 198.806c7.46 25.36-6.882 32.679-12.347 34.28-4.967 1.451-22.046 5.78-32.093-18.661-10.048-24.442-.612-35.924 10.563-39.85 11.176-3.926 26.409-1.119 33.877 24.231Z"/>
    <path fill="#263238" d="M133.709 195.484c-.605.062-1.212.094-1.819.096a2.954 2.954 0 0 1-1.88-.245.948.948 0 0 1-.298-1.111 2.367 2.367 0 0 1 2.081-1.128c.845-.1 1.696.119 2.388.612a1.005 1.005 0 0 1-.472 1.776Zm-17.07 4.769c.577-.236 1.075-.542 1.626-.831a3.007 3.007 0 0 0 1.496-1.163.947.947 0 0 0-.298-1.11 2.324 2.324 0 0 0-1.191-.285 2.33 2.33 0 0 0-1.17.363 3.39 3.39 0 0 0-1.749 1.749 1.012 1.012 0 0 0 .242 1.042 1.006 1.006 0 0 0 1.044.235Zm4.696 5.26c0-.061-.114.123-.088.193.569 1.705.927 3.76-.463 4.792v.096c1.862-.831 1.364-3.55.551-5.081Z"/>
    <path fill="#263238" d="M119.262 204.176c-2.842.612-1.408 6.243 1.216 5.675 2.623-.568 1.145-6.191-1.216-5.675Z"/>
    <path fill="#263238" d="M118.23 204.749c-.411.446-.752 1.128-1.329 1.338-.577.21-1.338-.219-1.924-.665-.061-.052-.096 0-.078.088.253 1.084.953 2.081 2.151 1.95s1.6-1.268 1.6-2.422c0-.21-.253-.464-.42-.289Zm13.31-2.247c0-.07.157.053.175.123.376 1.749 1.102 3.716 2.824 3.909.053 0 .07.087 0 .096-1.994.175-2.929-2.396-2.999-4.128Z"/>
    <path fill="#263238" d="M132.65 200.294c2.764-.875 4.373 4.678 1.811 5.509-2.563.831-4.093-4.757-1.811-5.509Z"/>
    <path fill="#263238" d="M133.927 200.324c.525.175 1.111.586 1.653.463.542-.122.874-.874 1.119-1.556 0-.07.088 0 .105 0 .341 1.058.306 2.273-.664 2.772-.971.498-1.828-.263-2.388-1.251-.105-.149-.043-.498.175-.428Zm-8.762 19.935c.507.323 1.049.804 1.696.725a4.73 4.73 0 0 0 1.811-.83.057.057 0 0 1 .034-.007.06.06 0 0 1 .052.042.06.06 0 0 1 .001.035 2.41 2.41 0 0 1-2.038 1.425 1.935 1.935 0 0 1-1.748-1.277c-.009-.096.148-.157.192-.113Zm5.806-8.784s1.05 2.501 1.373 3.725c0 .114-4.188 2.221-6.943-.271a.133.133 0 0 1-.044-.081.134.134 0 0 1 .093-.144.13.13 0 0 1 .091.006 9.012 9.012 0 0 0 5.719.105c0-.358-1.941-4.224-1.749-4.285a11.149 11.149 0 0 1 2.947-.113c-2.038-5.247-4.897-10.179-6.847-15.452a.174.174 0 0 1 .083-.201c.034-.02.074-.027.113-.02a.17.17 0 0 1 .101.054c3.367 4.924 5.842 10.94 8.089 16.336.289.664-2.483.419-3.026.341Z"/>
    <path fill="#263238" d="M130.937 215.233a6.634 6.634 0 0 1-1.802 2.772 3.03 3.03 0 0 1-1.653.691c-1.329.104-1.749-1.006-1.854-2.038a6.925 6.925 0 0 1 0-1.653c1.7.642 3.56.722 5.309.228Z"/>
    <path fill="#FF99BA" d="M129.135 218.004a3.025 3.025 0 0 1-1.653.691c-1.329.105-1.749-1.005-1.854-2.037 1.356-.324 2.991.113 3.507 1.346Z"/>
    <path fill="#263238" d="M95.39 217.626a10.914 10.914 0 0 0 4.45-9.82 28.447 28.447 0 0 0 9.803-11.237c-.079.568-.647 4.678-1.006 6.76 15.986-6.043 18.837-19.606 18.837-19.606 6.313 4.372 8.001 7.625 9.085 9.191 0 0-1.696-10.162-8.124-16.021-7.87-7.179-16.291-4.049-16.291-4.049a23.737 23.737 0 0 0-21.564 11.098c-8.649 13.624 4.81 33.684 4.81 33.684Z"/>
    <path fill="#263238" d="M120.749 198.349a30.83 30.83 0 0 1-7.923 4.626 26.23 26.23 0 0 0 10.817-9.506 24.787 24.787 0 0 0 2.685-5.623 17.197 17.197 0 0 0 1.067-6.689.13.13 0 0 1 .131-.131.13.13 0 0 1 .131.131 20.348 20.348 0 0 1-.148 6.751 18.597 18.597 0 0 1-2.694 6.121 21.133 21.133 0 0 1-4.057 4.372"/>
    <path fill="#FFC727" d="M119.962 214.762a7.757 7.757 0 1 1 5.929-10.721 7.776 7.776 0 0 1-4.075 10.188 7.67 7.67 0 0 1-1.854.533Zm-2.248-14.306a6.728 6.728 0 0 0-5.58 5.473 6.722 6.722 0 0 0 7.392 7.851 6.722 6.722 0 0 0 5.799-5.242 6.73 6.73 0 0 0-.387-4.086 6.738 6.738 0 0 0-7.224-3.996Zm19.37 9.427c-2.929.463-6.069-2.125-7.153-6.026a9.3 9.3 0 0 1 .114-5.666 4.828 4.828 0 0 1 3.358-3.366 4.826 4.826 0 0 1 4.617 1.136 9.291 9.291 0 0 1 3.034 4.783c1.154 4.119-.402 8.168-3.498 9.034l-.472.105Zm-3.017-14.141c-.13.021-.258.05-.385.088a4.129 4.129 0 0 0-2.623 2.719 8.325 8.325 0 0 0-.088 5.029c.997 3.567 3.848 5.902 6.375 5.194 2.528-.708 3.752-4.18 2.755-7.748a8.227 8.227 0 0 0-2.685-4.25 4.309 4.309 0 0 0-3.349-1.032Z"/>
    <path fill="#FFC727" d="m125.882 204.975-.874-.586c.874-1.268 3.13-3.279 5.5-1.836l-.542.874c-2.099-1.285-3.97 1.434-4.084 1.548ZM93.124 216.2l-1.023-.21c.105-.472 1.023-4.652 3.157-5.64 1.994-.918 15.741-3.402 16.318-3.498l.183 1.014c-3.943.709-14.533 2.72-16.064 3.437-1.53.717-2.334 3.752-2.57 4.897Z"/>
    <path fill="#AD6359" d="M98.887 213.387s-7.284-6.934-10.546-4.18c-3.262 2.755 3.358 13.616 7.993 14.35a4.469 4.469 0 0 0 3.438-.606 4.482 4.482 0 0 0 1.957-2.891l-2.842-6.673Z"/>
    <path fill="#263238" d="M90.291 212.278a.058.058 0 0 0-.028.022.066.066 0 0 0-.01.035.06.06 0 0 0 .01.034.07.07 0 0 0 .028.023c3.27.612 5.422 3.095 7.127 5.771-1.128-.936-2.475-1.303-3.752.07-.07.07 0 .184.114.149a2.765 2.765 0 0 1 3.157.332c.704.638 1.34 1.347 1.898 2.116.2.236.656 0 .49-.297a.388.388 0 0 1 0-.061c-.744-3.865-4.81-8.649-9.034-8.194Zm2.825 33.33a86.054 86.054 0 0 0 3.261 3.909c1.137 1.285 2.274 2.509 3.498 3.672 2.44 2.309 5.055 4.539 8.115 5.824a8.942 8.942 0 0 0 4.74.787 2.869 2.869 0 0 0 2.002-.962c.51-.62.901-1.328 1.155-2.09.508-1.595.802-3.25.874-4.923a26.527 26.527 0 0 0 0-5.072 23.08 23.08 0 0 1 .455 5.098 18.873 18.873 0 0 1-.7 5.107 6.29 6.29 0 0 1-1.224 2.379 3.348 3.348 0 0 1-1.119.874 4.887 4.887 0 0 1-1.329.376 9.693 9.693 0 0 1-5.203-.769 21.175 21.175 0 0 1-4.434-2.702 33.209 33.209 0 0 1-3.813-3.498 50.797 50.797 0 0 1-6.278-8.01Z"/>
    <path fill="#fff" d="M339.847 60.443h-81.885v52.232h81.885V60.443Z"/>
    <path fill="#EBEBEB" d="M340.363 113.225h-82.917V59.926h82.917v53.299Zm-81.885-1.032h80.888V60.967h-80.888v51.226Z"/>
    <path fill="#455A64" d="M339.847 60.443h-81.885v9.881h81.885v-9.881Z"/>
    <path fill="#EBEBEB" d="M340.363 70.84h-82.917V59.926h82.917V70.84Zm-81.885-1.032h80.888v-8.841h-80.888v8.84Z"/>
    <path fill="#FFC727" d="M267.231 65.462a2.477 2.477 0 0 1-1.539 2.288 2.483 2.483 0 1 1 1.539-2.288Z"/>
    <path fill="#EBEBEB" d="M277.384 65.462a2.486 2.486 0 0 1-2.973 2.426 2.484 2.484 0 1 1 2.973-2.426Z"/>
    <path fill="#fff" d="M287.537 65.462a2.486 2.486 0 0 1-2.974 2.426 2.481 2.481 0 0 1-1.946-1.953 2.486 2.486 0 0 1 1.057-2.547 2.484 2.484 0 0 1 3.863 2.074Z"/>
    <path fill="#EBEBEB" d="M272.093 89.856a10.11 10.11 0 0 1 10.101-9.864 10.273 10.273 0 0 1 6.348 2.142 1.58 1.58 0 0 1 .237 2.174 1.585 1.585 0 0 1-2.161.336 6.8 6.8 0 0 0-4.424-1.513 7.311 7.311 0 0 0-4.915 1.933 6.82 6.82 0 0 0-2.002 4.792 6.693 6.693 0 0 0 2.002 4.783 7.285 7.285 0 0 0 4.958 1.985 6.9 6.9 0 0 0 4.425-1.513 1.671 1.671 0 0 1 2.204.298 1.62 1.62 0 0 1-.28 2.203 10.276 10.276 0 0 1-6.349 2.143 10.063 10.063 0 0 1-10.144-9.9Zm21.46 5.116a1.433 1.433 0 0 1 2.011-.193 8.974 8.974 0 0 0 5.247 2.116 5.963 5.963 0 0 0 3.445-1.014 2.487 2.487 0 0 0 1.181-1.985 1.59 1.59 0 0 0-.245-.875 2.632 2.632 0 0 0-.804-.787 11.014 11.014 0 0 0-3.769-1.294h-.053a15.057 15.057 0 0 1-3.55-1.067 5.964 5.964 0 0 1-2.554-2.15 4.166 4.166 0 0 1-.638-2.257 5.071 5.071 0 0 1 2.204-4.014 8.14 8.14 0 0 1 4.73-1.46c2.177.11 4.269.878 5.999 2.203a1.414 1.414 0 0 1 .385 1.95 1.381 1.381 0 0 1-1.95.412c-1.408-.936-2.755-1.75-4.434-1.75a5.249 5.249 0 0 0-3.078.936 2.2 2.2 0 0 0-1.049 1.75c-.013.27.054.537.192.769.198.286.451.53.744.717a9.39 9.39 0 0 0 3.445 1.207h.053c1.307.232 2.581.623 3.795 1.163a6.436 6.436 0 0 1 2.754 2.282c.43.703.657 1.511.656 2.335a5.307 5.307 0 0 1-2.361 4.267 8.647 8.647 0 0 1-5.098 1.566 11.887 11.887 0 0 1-7.04-2.746 1.479 1.479 0 0 1-.544-.995 1.457 1.457 0 0 1 .326-1.087Zm18.075.001a1.433 1.433 0 0 1 2.011-.193 8.974 8.974 0 0 0 5.247 2.116 5.964 5.964 0 0 0 3.446-1.014 2.498 2.498 0 0 0 1.18-1.985 1.573 1.573 0 0 0-.245-.875 2.617 2.617 0 0 0-.83-.822 11.007 11.007 0 0 0-3.769-1.294h-.053a15.052 15.052 0 0 1-3.55-1.067 5.963 5.963 0 0 1-2.554-2.15 4.165 4.165 0 0 1-.638-2.257 5.07 5.07 0 0 1 2.204-4.014 8.138 8.138 0 0 1 4.757-1.425c2.177.11 4.269.878 5.999 2.204a1.417 1.417 0 0 1 .384 1.95 1.367 1.367 0 0 1-.887.62 1.386 1.386 0 0 1-1.063-.21c-1.408-.935-2.754-1.748-4.433-1.748a5.246 5.246 0 0 0-3.078.883 2.201 2.201 0 0 0-1.05 1.749c-.013.27.054.537.193.77.197.285.45.53.743.716a9.39 9.39 0 0 0 3.445 1.207h.053c1.307.233 2.582.623 3.795 1.163a6.44 6.44 0 0 1 2.755 2.283c.43.702.657 1.51.655 2.335a5.307 5.307 0 0 1-2.361 4.267 8.647 8.647 0 0 1-5.098 1.565 11.884 11.884 0 0 1-7.039-2.746 1.47 1.47 0 0 1-.219-2.028Z"/>
    <path fill="#fff" d="M177.152 108.258H95.267v52.232h81.885v-52.232Z"/>
    <path fill="#EBEBEB" d="M177.668 161.005H94.751v-53.264h82.917v53.264Zm-81.885-1.032h80.853v-51.2H95.783v51.2Z"/>
    <path fill="#455A64" d="M177.152 108.258H95.267v9.881h81.885v-9.881Z"/>
    <path fill="#EBEBEB" d="M177.668 118.654H94.751v-10.913h82.917v10.913Zm-81.885-1.058h80.853v-8.823H95.783v8.823Z"/>
    <path fill="#FFC727" d="M104.536 113.268a2.485 2.485 0 0 1-2.968 2.436 2.484 2.484 0 1 1 2.968-2.436Z"/>
    <path fill="#EBEBEB" d="M114.689 113.268a2.486 2.486 0 0 1-2.968 2.436 2.479 2.479 0 0 1-1.81-3.386 2.481 2.481 0 0 1 4.05-.806 2.48 2.48 0 0 1 .728 1.756Z"/>
    <path fill="#fff" d="M124.841 113.268a2.49 2.49 0 0 1-4.254 1.771 2.495 2.495 0 0 1-.539-2.72 2.493 2.493 0 0 1 2.31-1.534 2.482 2.482 0 0 1 2.483 2.483Z"/>
    <path fill="#EBEBEB" d="M110.553 137.713a10.1 10.1 0 0 1 10.1-9.899c2.298-.014 4.536.74 6.357 2.143a1.58 1.58 0 0 1 .216 2.164 1.582 1.582 0 0 1-2.149.337 6.843 6.843 0 0 0-4.424-1.513 7.242 7.242 0 0 0-4.95 1.985 6.77 6.77 0 0 0-2.011 4.783 6.694 6.694 0 0 0 2.011 4.792 7.273 7.273 0 0 0 4.95 1.977 6.897 6.897 0 0 0 4.468-1.522 1.67 1.67 0 0 1 2.204.306 1.625 1.625 0 0 1-.271 2.204 10.322 10.322 0 0 1-6.358 2.142 10.077 10.077 0 0 1-7.107-2.863 10.077 10.077 0 0 1-3.036-7.036Zm26.382 1.696h-3.944a1.517 1.517 0 0 1-1.512-1.522 1.528 1.528 0 0 1 1.512-1.513h3.909v-3.821a1.575 1.575 0 0 1 3.14 0v3.821h3.908a1.528 1.528 0 0 1 1.513 1.513c.001.2-.037.397-.112.582a1.53 1.53 0 0 1-.82.824 1.521 1.521 0 0 1-.581.116h-3.873v3.821a1.575 1.575 0 0 1-3.14 0v-3.821Zm17.044-.003h-3.909a1.519 1.519 0 0 1-1.406-1.517 1.518 1.518 0 0 1 1.406-1.517h3.909v-3.822a1.534 1.534 0 0 1 1.565-1.565 1.56 1.56 0 0 1 1.449.965c.078.19.118.394.116.6v3.822h3.909a1.528 1.528 0 0 1 1.513 1.513 1.503 1.503 0 0 1-.44 1.075 1.516 1.516 0 0 1-1.073.446h-3.891v3.822a1.56 1.56 0 0 1-.965 1.448c-.19.078-.395.118-.6.117a1.537 1.537 0 0 1-1.566-1.565l-.017-3.822Z"/>
    <g opacity=".6">
      <path fill="#fff" d="M328.96 120.036H192.403v95.667H328.96v-95.667Z"/>
      <path fill="#EBEBEB" d="M329.485 216.219H191.887v-96.707h137.598v96.707Zm-136.557-1.031H328.47v-94.636H192.928v94.636Z"/>
      <path fill="#455A64" d="M328.96 120.036H192.403v9.882H328.96v-9.882Z"/>
      <path fill="#EBEBEB" d="M329.485 130.425H191.887v-10.913h137.598v10.913Zm-136.557-1.032H328.47v-8.841H192.928v8.841Z"/>
      <path fill="#FFC727" d="M201.681 125.048a2.492 2.492 0 1 1-4.983 0 2.492 2.492 0 0 1 4.983 0Z"/>
      <path fill="#EBEBEB" d="M211.834 125.048a2.492 2.492 0 1 1-4.983 0 2.492 2.492 0 0 1 4.983 0Z"/>
      <path fill="#fff" d="M221.986 125.048a2.492 2.492 0 1 1-4.983 0 2.492 2.492 0 0 1 4.983 0Z"/>
      <path fill="#EBEBEB" d="M208.283 149.558h-5.281v1.932h5.281v-1.932Zm64.431 0h-60.583v1.932h60.583v-1.932Z"/>
      <path fill="#FFC727" d="M285.989 149.558h-10.03v1.932h10.03v-1.932Z"/>
      <path fill="#A6A6A6" d="M305.516 149.558h-17.341v1.932h17.341v-1.932Z"/>
      <path fill="#EBEBEB" d="M213.565 154.723h-5.282v1.933h5.282v-1.933Z"/>
      <path fill="#A6A6A6" d="M257.035 154.723h-39.753v1.933h39.753v-1.933Zm-6.935 15.488h-37.969v1.933H250.1v-1.933Z"/>
      <path fill="#FFC727" d="M243.918 159.888h-26.636v1.933h26.636v-1.933Z"/>
      <path fill="#A6A6A6" d="M292.827 165.054h-10.161v1.932h10.161v-1.932Zm-3.41-5.166h-42.543v1.933h42.543v-1.933Z"/>
      <path fill="#FFC727" d="M262.911 175.376h-50.78v1.933h50.78v-1.933Zm51.664-20.653h-27.519v1.933h27.519v-1.933Z"/>
      <path fill="#EBEBEB" d="M284.869 154.723h-25.333v1.933h25.333v-1.933Zm23.646 5.165h-17.096v1.933h17.096v-1.933Zm-94.95 0h-5.282v1.933h5.282v-1.933Z"/>
      <path fill="#A6A6A6" d="M208.283 165.054h-5.281v1.932h5.281v-1.932Z"/>
      <path fill="#EBEBEB" d="M243.341 165.054h-31.21v1.932h31.21v-1.932Zm42.648 5.157h-33.737v1.933h33.737v-1.933Z"/>
      <path fill="#FFC727" d="M309.643 170.211h-21.468v1.933h21.468v-1.933Zm-29.434-5.157h-33.694v1.932h33.694v-1.932Z"/>
      <path fill="#EBEBEB" d="M208.283 170.211h-5.281v1.933h5.281v-1.933Zm0 5.165h-5.281v1.933h5.281v-1.933Z"/>
      <path fill="#FFC727" d="M206.263 144.48a.463.463 0 0 1-.315.788.473.473 0 0 1-.332-.132l-2.037-2.063a.066.066 0 0 1-.006-.027c0-.009.002-.018.006-.026v-.096a.162.162 0 0 1 0-.044v-.113a.641.641 0 0 0 0-.062v-.07s0-.043.043-.052l2.038-2.064a.464.464 0 0 1 .786.324.447.447 0 0 1-.139.323l-1.749 1.749 1.705 1.565Zm1.846.225 1.748-4.224a.417.417 0 0 1 .223-.217.411.411 0 0 1 .435.093.392.392 0 0 1 .109.274.388.388 0 0 1-.032.147l-1.749 4.242a.407.407 0 0 1-.367.236.466.466 0 0 1-.149 0 .403.403 0 0 1-.234-.226.395.395 0 0 1 .016-.325Zm6.016-1.699v.052l-2.038 2.064a.466.466 0 0 1-.332.131.466.466 0 0 1-.324-.131.459.459 0 0 1-.136-.328c0-.061.012-.121.036-.177a.453.453 0 0 1 .1-.151l1.749-1.749-1.749-1.749a.448.448 0 0 1 0-.647.472.472 0 0 1 .656 0l2.038 2.064a.151.151 0 0 1 0 .052.817.817 0 0 1 0 .07.206.206 0 0 0 0 .07v.429Z"/>
    </g>
    <path fill="#FFC727" d="M109.914 89.003H54.132v20.655h55.782V89.003Z"/>
    <path fill="#fff" d="M62.16 103.61v-9.147a.875.875 0 1 1 1.748 0v3.725h4.023v-3.725a.875.875 0 1 1 1.749 0v9.147a.875.875 0 0 1-1.749 0v-3.726h-4.023v3.726a.875.875 0 0 1-1.748 0Zm17.672-8.288h-2.474v8.281a.876.876 0 0 1-1.493.619.876.876 0 0 1-.256-.619v-8.29H73.16a.874.874 0 1 1 0-1.749h6.629a.874.874 0 0 1 .874.875.874.874 0 0 1-.83.883Zm12.758-.859v9.147a.875.875 0 0 1-1.748 0v-6.533l-2.239 3.105a.874.874 0 0 1-.7.358.876.876 0 0 1-.716-.358l-2.221-3.105v6.533a.875.875 0 0 1-1.75 0v-9.147a.874.874 0 0 1 .875-.875.814.814 0 0 1 .682.359l3.096 4.285 3.148-4.242a.874.874 0 0 1 .7-.358.874.874 0 0 1 .874.83Zm3.761 9.147v-9.147a.875.875 0 1 1 1.75 0v8.272h4.205a.876.876 0 1 1 0 1.749h-5.08a.874.874 0 0 1-.875-.874Z"/>
    <path fill="#FFC727" d="M198.997 200.216h-31.14v20.655h31.14v-20.655Z"/>
    <path fill="#fff" d="M176.313 212.545a2.071 2.071 0 0 0 4.04-.63v-5.998a.872.872 0 0 1 1.353-.445.868.868 0 0 1 .317.445v5.972a3.734 3.734 0 0 1-7.293 1.137.798.798 0 0 1 .043-.627.803.803 0 0 1 .482-.405.824.824 0 0 1 1.058.551Zm7.809.484a.775.775 0 0 1 1.093-.105 4.91 4.91 0 0 0 2.877 1.154 3.298 3.298 0 0 0 1.88-.551 1.356 1.356 0 0 0 .638-1.084.868.868 0 0 0-.131-.481 1.393 1.393 0 0 0-.455-.455 6.1 6.1 0 0 0-2.055-.708 7.913 7.913 0 0 1-1.932-.586 3.17 3.17 0 0 1-1.399-1.172 2.278 2.278 0 0 1-.35-1.233 2.794 2.794 0 0 1 1.207-2.195 4.465 4.465 0 0 1 2.623-.796 5.883 5.883 0 0 1 3.279 1.207.758.758 0 0 1 .328.79.74.74 0 0 1-.118.277.762.762 0 0 1-.486.338c-.1.02-.203.02-.303 0a.771.771 0 0 1-.278-.119 4.367 4.367 0 0 0-2.422-.962 2.81 2.81 0 0 0-1.679.516 1.177 1.177 0 0 0-.577.944.748.748 0 0 0 .105.42c.108.158.248.292.411.393.577.344 1.216.57 1.88.665a8.44 8.44 0 0 1 2.072.63 3.418 3.418 0 0 1 1.505 1.25c.239.383.366.825.367 1.277a2.91 2.91 0 0 1-1.294 2.326 4.713 4.713 0 0 1-2.781.874 6.428 6.428 0 0 1-3.857-1.504.796.796 0 0 1-.148-1.11Z"/>
    <path fill="#DBDBDB" d="M62.028 346.877s19.116-8.806 19.116-20.611c0-11.806-24.791-19.414-24.791-28.639 0-9.226 10.808-14.665 10.808-14.665s-17.078 5.841-17.078 17.489 16.344 19.58 17.91 27.004c2.168 10.345-5.965 19.422-5.965 19.422Z" opacity=".6"/>
    <path fill="#DBDBDB" d="M62.973 346.877s-19.125-6.926-19.125-16.204 24.8-15.268 24.8-22.517c0-7.25-10.817-11.526-10.817-11.526s17.087 4.582 17.087 13.764c0 9.182-18.775 15.487-20.113 22.946-1.32 7.311 8.168 13.537 8.168 13.537Z" opacity=".6"/>
    <path fill="#37474F" d="M71.324 376.573h-18.19v2.842h18.19v-2.842Z"/>
    <path fill="#263238" d="M71.324 376.573h-18.19v1.871h18.19v-1.871Z"/>
    <path fill="#37474F" d="M31.553 368.942a10.286 10.286 0 0 0 10.24 4.373 9.955 9.955 0 0 0 1.845-.534 12.994 12.994 0 0 0 2.571-1.346l-2.309-3.428a8.39 8.39 0 0 1-1.364.769c-4.372 1.968-7.074-1.443-7.616-2.23-2.492-3.498-3.385-11.508-.875-14.586.166-.227.875-.586 3.83 0 .534.123 1.155.263 1.846.455a7.437 7.437 0 0 0 1.661.358l.07-2.063.201-2.047c-.184 0-.48-.122-.874-.227a26.18 26.18 0 0 0-4.137-.874c-2.15-.228-4.372 0-5.797 1.749-4.084 5.071-2.423 15.242.708 19.631Z"/>
    <path fill="#263238" d="M43.892 368.014c-.43.299-.887.556-1.364.77l1.102 4.005a12.995 12.995 0 0 0 2.57-1.347l-2.308-3.428Zm-7.232-20.43 1.224 4.372c.534.122 1.154.262 1.845.455a7.437 7.437 0 0 0 1.662.358l.07-2.064.2-2.046c-.183 0-.48-.122-.874-.227a26.157 26.157 0 0 0-4.127-.848Z"/>
    <path fill="#37474F" d="M86.426 342.251s-2.186 18.539-5.955 26.348c-3.77 7.809-9.033 8.666-12.295 8.666H56.283c-3.27 0-8.526-.874-12.295-8.666-3.769-7.791-5.955-26.348-5.955-26.348h48.393Z"/>
    <path fill="#455A64" d="M83.838 357.652a84.623 84.623 0 0 1-1.242 4.984H41.863a78.202 78.202 0 0 1-1.242-4.984h43.217Zm-1.802 6.874c-.28.874-.568 1.749-.874 2.492H43.297a37.341 37.341 0 0 1-.874-2.492h39.613Zm2.737-11.562c-.148.813-.306 1.644-.48 2.492H40.166c-.175-.875-.333-1.679-.481-2.492h45.087Z"/>
  </g>
</svg>