<svg xmlns="http://www.w3.org/2000/svg" fill="currentColor" viewBox="0 0 36 36">
  <path d="M14.404 9.075a2.208 2.208 0 0 0-2.067-.605 2.25 2.25 0 0 0-1.631 1.435L3.126 30.73a2.264 2.264 0 0 0 2.883 2.883l20.827-7.58a2.25 2.25 0 0 0 1.434-1.63 2.207 2.207 0 0 0-.605-2.068l-13.26-13.26Zm-.843 19.392L8.273 23.18l1.842-5.09 8.536 8.535-5.09 1.842ZM5.25 31.491l2.165-5.977 3.811 3.811-5.976 2.166Zm15.736-5.724L10.973 15.755l1.842-5.09 13.261 13.26-5.09 1.842ZM21.366 12c.02-.76.202-1.509.534-2.194.745-1.49 2.151-2.306 3.965-2.306.943 0 1.547-.323 1.927-1.013a3.13 3.13 0 0 0 .323-1.251 1.111 1.111 0 0 1 1.125-1.111 1.125 1.125 0 0 1 1.125 1.125c0 1.814-1.195 4.5-4.5 4.5-.942 0-1.547.323-1.926 1.012-.194.39-.304.817-.324 1.252a1.112 1.112 0 0 1-1.125 1.111A1.125 1.125 0 0 1 21.365 12ZM17.99 7.5V4.125a1.125 1.125 0 1 1 2.25 0V7.5a1.125 1.125 0 1 1-2.25 0Zm14.302 11.573a1.14 1.14 0 0 1 0 1.604 1.153 1.153 0 0 1-1.603 0l-2.25-2.25a1.139 1.139 0 0 1 1.603-1.604l2.25 2.25Zm.675-6.004-3.375 1.125a1.125 1.125 0 1 1-.703-2.137l3.375-1.126a1.123 1.123 0 0 1 1.473 1.153 1.126 1.126 0 0 1-.77.985Z"/>
</svg>
