<svg viewBox="0 0 32 32" fill="currentColor" xmlns="http://www.w3.org/2000/svg">
<path fill-rule="evenodd" clip-rule="evenodd" d="M8.41667 6.5C7.35812 6.5 6.5 7.35812 6.5 8.41667V9.75C6.5 10.8085 7.35812 11.6667 8.41667 11.6667H11.0833C12.1419 11.6667 13 10.8085 13 9.75V8.41667C13 7.35812 12.1419 6.5 11.0833 6.5H8.41667ZM5 8.41667C5 6.52969 6.52969 5 8.41667 5H11.0833C12.9703 5 14.5 6.52969 14.5 8.41667V9.75C14.5 11.637 12.9703 13.1667 11.0833 13.1667H8.41667C6.52969 13.1667 5 11.637 5 9.75V8.41667Z"/>
<path fill-rule="evenodd" clip-rule="evenodd" d="M8.41667 18.5C7.35812 18.5 6.5 19.3581 6.5 20.4167V24.4167C6.5 25.4752 7.35812 26.3333 8.41667 26.3333H11.0833C12.1419 26.3333 13 25.4752 13 24.4167V20.4167C13 19.3581 12.1419 18.5 11.0833 18.5H8.41667ZM5 20.4167C5 18.5297 6.52969 17 8.41667 17H11.0833C12.9703 17 14.5 18.5297 14.5 20.4167V24.4167C14.5 26.3036 12.9703 27.8333 11.0833 27.8333H8.41667C6.52969 27.8333 5 26.3036 5 24.4167V20.4167Z"/>
<path fill-rule="evenodd" clip-rule="evenodd" d="M21.7499 6.5C20.6914 6.5 19.8333 7.35812 19.8333 8.41667V12.4167C19.8333 13.4752 20.6914 14.3333 21.7499 14.3333H24.4166C25.4751 14.3333 26.3333 13.4752 26.3333 12.4167V8.41667C26.3333 7.35812 25.4751 6.5 24.4166 6.5H21.7499ZM18.3333 8.41667C18.3333 6.52969 19.8629 5 21.7499 5H24.4166C26.3036 5 27.8333 6.52969 27.8333 8.41667V12.4167C27.8333 14.3036 26.3036 15.8333 24.4166 15.8333H21.7499C19.8629 15.8333 18.3333 14.3036 18.3333 12.4167V8.41667Z"/>
<path fill-rule="evenodd" clip-rule="evenodd" d="M21.7499 21.1667C20.6914 21.1667 19.8333 22.0248 19.8333 23.0833V24.4167C19.8333 25.4752 20.6914 26.3333 21.7499 26.3333H24.4166C25.4751 26.3333 26.3333 25.4752 26.3333 24.4167V23.0833C26.3333 22.0248 25.4751 21.1667 24.4166 21.1667H21.7499ZM18.3333 23.0833C18.3333 21.1963 19.8629 19.6667 21.7499 19.6667H24.4166C26.3036 19.6667 27.8333 21.1963 27.8333 23.0833V24.4167C27.8333 26.3036 26.3036 27.8333 24.4166 27.8333H21.7499C19.8629 27.8333 18.3333 26.3036 18.3333 24.4167V23.0833Z"/>
</svg>
