<svg width="24" height="24" viewBox="0 0 24 24" fill="none" xmlns="http://www.w3.org/2000/svg">
<g clip-path="url(#clip0_616_13398)">
<path d="M6.99998 9.99985H9.99998V6.99985L6.49998 3.49985C7.61961 2.96513 8.87748 2.79066 10.1004 3.00048C11.3233 3.21029 12.451 3.79407 13.3284 4.67143C14.2058 5.54878 14.7895 6.67656 14.9994 7.89946C15.2092 9.12235 15.0347 10.3802 14.5 11.4999L20.5 17.4999C20.8978 17.8977 21.1213 18.4372 21.1213 18.9999C21.1213 19.5625 20.8978 20.102 20.5 20.4999C20.1022 20.8977 19.5626 21.1212 19 21.1212C18.4374 21.1212 17.8978 20.8977 17.5 20.4999L11.5 14.4999C10.3803 15.0346 9.12248 15.209 7.89958 14.9992C6.67668 14.7894 5.5489 14.2056 4.67155 13.3283C3.79419 12.4509 3.21041 11.3232 3.0006 10.1003C2.79078 8.87735 2.96525 7.61948 3.49998 6.49985L6.99998 9.99985Z" stroke="#181B21" stroke-width="1.5" stroke-linecap="round" stroke-linejoin="round"/>
</g>
<defs>
<clipPath id="clip0_616_13398">
<rect width="24" height="24" fill="white"/>
</clipPath>
</defs>
</svg>
