<svg xmlns="http://www.w3.org/2000/svg" fill="currentColor" viewBox="0 0 20 20">
  <path fill-rule="evenodd" d="M2.833 5.833a.5.5 0 0 1 .5-.5h13.334a.5.5 0 0 1 0 1H3.333a.5.5 0 0 1-.5-.5Zm5.5 2.834a.5.5 0 0 1 .5.5v5a.5.5 0 0 1-1 0v-5a.5.5 0 0 1 .5-.5Zm3.334 0a.5.5 0 0 1 .5.5v5a.5.5 0 1 1-1 0v-5a.5.5 0 0 1 .5-.5Z" clip-rule="evenodd"/>
  <path fill-rule="evenodd" d="M4.125 5.335a.5.5 0 0 1 .54.457l.833 10A1.167 1.167 0 0 0 6.666 17h6.667a1.167 1.167 0 0 0 1.169-1.208l.833-10a.5.5 0 0 1 .997.083l-.832 9.98A2.167 2.167 0 0 1 13.333 18H6.667A2.167 2.167 0 0 1 4.5 15.855l-.832-9.98a.5.5 0 0 1 .457-.54Z" clip-rule="evenodd"/>
  <path fill-rule="evenodd" d="M8.333 3A.333.333 0 0 0 8 3.333v2.5a.5.5 0 1 1-1 0v-2.5A1.333 1.333 0 0 1 8.333 2h3.334A1.333 1.333 0 0 1 13 3.333v2.5a.5.5 0 0 1-1 0v-2.5A.333.333 0 0 0 11.667 3H8.333Z" clip-rule="evenodd"/>
</svg>
