<svg xmlns="http://www.w3.org/2000/svg" fill="currentColor" viewBox="0 0 32 32">
  <path fill-rule="evenodd" d="M18.667 3.25a.75.75 0 0 1 .75.75v5.333a.583.583 0 0 0 .583.584h5.334a.75.75 0 0 1 0 1.5H20a2.083 2.083 0 0 1-2.083-2.084V4a.75.75 0 0 1 .75-.75Z" clip-rule="evenodd"/>
  <path fill-rule="evenodd" d="M9.334 4.75a1.917 1.917 0 0 0-1.917 1.917v10.666a.75.75 0 0 1-1.5 0V6.667A3.417 3.417 0 0 1 9.334 3.25h9.333a.75.75 0 0 1 .53.22l6.667 6.666c.14.141.22.332.22.53v14.667a3.417 3.417 0 0 1-3.417 3.417h-7.334a.75.75 0 0 1 0-1.5h7.334a1.917 1.917 0 0 0 1.916-1.917V10.977L18.357 4.75H9.334Z" clip-rule="evenodd"/>
  <path d="M10.725 24.093a.15.15 0 0 1 .11.049l.3.333a2.22 2.22 0 0 1-.788.594c-.309.14-.68.211-1.113.211a2.61 2.61 0 0 1-1.038-.2 2.307 2.307 0 0 1-.793-.56 2.54 2.54 0 0 1-.507-.86 3.298 3.298 0 0 1-.176-1.102c0-.4.062-.767.187-1.101a2.47 2.47 0 0 1 .529-.857c.227-.24.499-.426.815-.56.318-.133.668-.2 1.05-.2.374 0 .705.062.994.185.291.124.545.288.76.494l-.25.356a.252.252 0 0 1-.062.063.17.17 0 0 1-.095.022c-.047 0-.102-.024-.166-.07a2.021 2.021 0 0 0-.245-.156 1.79 1.79 0 0 0-.379-.16 1.925 1.925 0 0 0-.561-.07 1.86 1.86 0 0 0-.73.14c-.22.095-.41.23-.57.405-.159.175-.282.39-.37.645a2.634 2.634 0 0 0-.132.864c0 .326.045.618.135.875.093.255.22.47.378.645a1.674 1.674 0 0 0 1.27.542c.155 0 .293-.009.415-.026.123-.02.235-.048.338-.085a1.36 1.36 0 0 0 .294-.145c.09-.06.18-.13.271-.211a.28.28 0 0 1 .059-.041.14.14 0 0 1 .07-.019Zm3.924-3.337a.271.271 0 0 1-.074.089.169.169 0 0 1-.099.026.273.273 0 0 1-.15-.06 2.17 2.17 0 0 0-.213-.137 1.425 1.425 0 0 0-.301-.137 1.255 1.255 0 0 0-.422-.063 1.25 1.25 0 0 0-.415.063.849.849 0 0 0-.298.167.723.723 0 0 0-.18.256.83.83 0 0 0-.058.315.58.58 0 0 0 .106.36c.074.094.17.175.287.244.117.067.25.125.4.175.151.05.306.101.462.156.157.054.31.116.459.185.152.067.286.153.404.26.117.103.211.232.282.385.074.151.11.336.11.556a1.8 1.8 0 0 1-.12.66 1.538 1.538 0 0 1-.904.894c-.22.087-.47.13-.752.13-.169 0-.333-.017-.492-.052a2.426 2.426 0 0 1-.448-.137 2.071 2.071 0 0 1-.727-.508l.22-.364a.223.223 0 0 1 .074-.07.191.191 0 0 1 .103-.03c.051 0 .11.027.176.082.069.054.152.115.25.182.1.064.22.123.36.178.139.054.308.081.506.081.164 0 .31-.022.44-.067a.906.906 0 0 0 .327-.189c.09-.081.16-.18.206-.296a1.03 1.03 0 0 0 .07-.386.63.63 0 0 0-.11-.386.853.853 0 0 0-.283-.252 2.06 2.06 0 0 0-.4-.17l-.463-.145a4.905 4.905 0 0 1-.459-.178 1.514 1.514 0 0 1-.4-.26 1.252 1.252 0 0 1-.286-.404 1.478 1.478 0 0 1-.107-.597 1.426 1.426 0 0 1 .43-1.02c.14-.136.31-.244.514-.326.205-.084.44-.126.705-.126.296 0 .566.047.81.14.248.095.463.23.647.409l-.188.367Zm.541-.856h.606c.066 0 .12.017.161.051a.268.268 0 0 1 .095.13l1.447 3.66c.034.087.066.183.095.29.032.103.061.212.088.326.025-.114.05-.223.077-.327a2.87 2.87 0 0 1 .096-.289l1.442-3.66a.27.27 0 0 1 .088-.126.257.257 0 0 1 .166-.056h.609l-2.144 5.322h-.682l-2.144-5.322Z"/>
  <path fill-rule="evenodd" d="m10.983 24.008.382.423.195-.322a.423.423 0 0 1 .343-.19c.119 0 .222.06.302.126a1.853 1.853 0 0 0 .556.329 1.2 1.2 0 0 0 .434.068c.146 0 .27-.02.375-.056a.708.708 0 0 0 .256-.146l.002-.002a.587.587 0 0 0 .154-.223.83.83 0 0 0 .055-.311.435.435 0 0 0-.07-.266l-.004-.005a.651.651 0 0 0-.217-.193 1.857 1.857 0 0 0-.362-.154 123.04 123.04 0 0 0-.461-.144l-.004-.001a5.098 5.098 0 0 1-.477-.185 1.712 1.712 0 0 1-.453-.294l-.002-.002a1.453 1.453 0 0 1-.332-.468l-.001-.002a1.675 1.675 0 0 1-.124-.678 1.627 1.627 0 0 1 .49-1.163c.16-.156.354-.278.579-.368.233-.096.494-.141.78-.141.317 0 .612.05.882.154.272.103.51.254.714.451l.106.103-.258.505a.47.47 0 0 1-.13.153l-.002.002a.367.367 0 0 1-.215.063.468.468 0 0 1-.266-.096l-.004-.003a1.971 1.971 0 0 0-.193-.124l-.006-.004a1.236 1.236 0 0 0-.26-.117l-.003-.002a1.06 1.06 0 0 0-.354-.05c-.14 0-.255.018-.35.05l-.001.002a.652.652 0 0 0-.228.126.523.523 0 0 0-.129.183.63.63 0 0 0-.043.24c0 .111.026.185.065.237.055.07.13.136.228.193.104.06.224.112.362.158.153.05.308.102.466.157.162.056.32.12.475.192.17.074.322.172.455.293.139.122.249.273.33.448.09.185.13.402.13.642 0 .259-.045.503-.135.733-.088.228-.218.43-.39.602v.001a1.864 1.864 0 0 1-.625.404h-.002a2.245 2.245 0 0 1-.825.144c-.182 0-.36-.019-.533-.056h-.002l.043-.196-.04.196h-.001a2.621 2.621 0 0 1-.484-.149l-.004-.001a2.777 2.777 0 0 1-.427-.236l-.004-.003a2.276 2.276 0 0 1-.362-.317l-.087-.094a2.421 2.421 0 0 1-.842.627c-.341.155-.742.229-1.196.229a2.81 2.81 0 0 1-1.117-.216 2.51 2.51 0 0 1-.862-.609 2.74 2.74 0 0 1-.547-.928v-.001a3.498 3.498 0 0 1-.188-1.168c0-.421.066-.813.2-1.171a2.67 2.67 0 0 1 .571-.925c.247-.26.542-.462.882-.606A2.89 2.89 0 0 1 9.3 19.64c.397 0 .756.066 1.074.201.312.133.585.31.819.533l.125.119-.348.495a.457.457 0 0 1-.112.113l-.003.003a.367.367 0 0 1-.207.056.489.489 0 0 1-.284-.11l-.003-.002a1.82 1.82 0 0 0-.221-.14l-.005-.002a1.588 1.588 0 0 0-.336-.14l.06-.192c.151.047.277.1.377.16.103.056.185.108.246.155.064.047.12.07.166.07a.17.17 0 0 0 .095-.021.252.252 0 0 0 .062-.063l.25-.356a2.512 2.512 0 0 0-.76-.494 2.508 2.508 0 0 0-.995-.185c-.381 0-.731.067-1.05.2-.315.134-.587.32-.814.56a2.47 2.47 0 0 0-.529.857c-.125.334-.187.7-.187 1.101 0 .4.059.768.176 1.102.12.333.289.62.507.86.22.24.484.426.793.56.31.133.657.2 1.038.2.434 0 .804-.07 1.113-.211.31-.141.573-.34.789-.594l-.301-.333a.15.15 0 0 0-.11-.049.14.14 0 0 0-.07.019.28.28 0 0 0-.059.04c-.09.082-.18.153-.271.212a1.36 1.36 0 0 1-.294.145 1.877 1.877 0 0 1-.338.085c-.122.017-.26.026-.415.026a1.79 1.79 0 0 1-.7-.137 1.655 1.655 0 0 1-.57-.405 1.938 1.938 0 0 1-.378-.645 2.625 2.625 0 0 1-.135-.875c0-.321.044-.61.132-.864.088-.255.211-.47.37-.645.16-.176.35-.31.57-.404a1.86 1.86 0 0 1 .73-.141c.222 0 .41.023.561.07l-.059.191a1.728 1.728 0 0 0-.502-.061c-.24 0-.457.042-.653.125a1.4 1.4 0 0 0-.498.354c-.14.153-.25.344-.33.576-.08.23-.122.496-.122.8 0 .307.043.575.125.807.085.233.198.424.337.578a1.46 1.46 0 0 0 1.122.475c.147 0 .275-.007.385-.023.111-.018.21-.043.3-.075l.001-.001c.09-.032.174-.073.25-.123.082-.053.164-.117.248-.193l.002-.001a.487.487 0 0 1 .097-.068.35.35 0 0 1 .416.066l.006.007Zm2.942 1.142a1.538 1.538 0 0 0 .903-.894 1.78 1.78 0 0 0 .121-.66c0-.22-.036-.405-.11-.556a1.154 1.154 0 0 0-.282-.385 1.492 1.492 0 0 0-.404-.26 4.963 4.963 0 0 0-.459-.185 26.05 26.05 0 0 0-.462-.156 2.215 2.215 0 0 1-.4-.174 1.006 1.006 0 0 1-.287-.245.58.58 0 0 1-.106-.36.83.83 0 0 1 .059-.315.723.723 0 0 1 .18-.256.849.849 0 0 1 .297-.167 1.25 1.25 0 0 1 .415-.063c.163 0 .304.021.422.063.117.04.217.085.3.137.086.05.157.096.213.138.057.04.107.059.151.059a.169.169 0 0 0 .1-.026.271.271 0 0 0 .072-.09l.188-.366a1.872 1.872 0 0 0-.646-.408 2.247 2.247 0 0 0-.811-.141c-.265 0-.5.042-.705.126a1.56 1.56 0 0 0-.514.326 1.426 1.426 0 0 0-.43 1.02c0 .237.036.436.107.597.073.16.169.296.286.404.118.107.251.193.4.26.15.067.302.126.46.178l.462.145c.149.047.282.103.4.17a.861.861 0 0 1 .282.252.63.63 0 0 1 .11.386c0 .14-.023.27-.07.386a.787.787 0 0 1-.205.296.906.906 0 0 1-.327.19c-.13.044-.276.066-.44.066-.198 0-.367-.027-.507-.081a2.043 2.043 0 0 1-.609-.36c-.066-.055-.125-.082-.176-.082a.191.191 0 0 0-.103.03.223.223 0 0 0-.073.07l-.22.364a2.071 2.071 0 0 0 .726.508m2.66-5.392h.903a.468.468 0 0 1 .444.31l1.437 3.638 1.432-3.634a.47.47 0 0 1 .148-.211l.004-.003a.457.457 0 0 1 .29-.1h.905l-2.305 5.722h-.953l-2.304-5.722Zm4.404.382-1.442 3.66a2.68 2.68 0 0 0-.096.29 8.163 8.163 0 0 0-.077.326 5.226 5.226 0 0 0-.1-.373l-.002-.003a2.68 2.68 0 0 0-.081-.24l-1.447-3.66a.268.268 0 0 0-.095-.13.244.244 0 0 0-.161-.052h-.606l2.144 5.322h.682l2.144-5.322h-.61a.257.257 0 0 0-.165.056.27.27 0 0 0-.088.126Z" clip-rule="evenodd"/>
</svg>
