<svg width="26" height="26" viewBox="0 0 26 26" fill="none" xmlns="http://www.w3.org/2000/svg">
<mask id="mask0_616_13390" style="mask-type:alpha" maskUnits="userSpaceOnUse" x="0" y="0" width="26" height="26">
<rect width="26" height="26" fill="#D9D9D9"/>
</mask>
<g mask="url(#mask0_616_13390)">
<path d="M15.1254 6.04244L14.8098 5.36206L15.1254 6.04244C15.7263 5.76377 16.3559 5.625 17.0219 5.625C18.2375 5.625 19.213 6.02082 20.002 6.80252L20.5298 6.26975L20.002 6.80252C20.7905 7.58383 21.1875 8.54712 21.1875 9.74557C21.1875 10.3375 21.0873 10.9167 20.8851 11.4865C20.6871 12.0425 20.3259 12.6875 19.7734 13.424L19.7733 13.4243C19.2215 14.1605 18.4666 15.007 17.4995 15.9652C16.5288 16.9269 15.2955 18.076 13.7971 19.4137C13.7969 19.4139 13.7967 19.4141 13.7965 19.4143L13 20.1218L12.2035 19.4143C12.2034 19.4142 12.2033 19.414 12.2031 19.4139C10.7046 18.0761 9.47122 16.927 8.50054 15.9652C7.53344 15.007 6.77851 14.1605 6.22672 13.4243L6.22656 13.424C5.67418 12.6876 5.31334 12.0428 5.11604 11.4871L5.11584 11.4865C4.91295 10.9166 4.8125 10.3375 4.8125 9.74557C4.8125 8.54712 5.20951 7.58383 5.99804 6.80252C6.78697 6.02082 7.76251 5.625 8.97813 5.625C9.64413 5.625 10.2737 5.76377 10.8746 6.04244C11.4766 6.32164 11.9936 6.71339 12.4308 7.223L13 7.88656L13.5692 7.223C14.0064 6.71339 14.5234 6.32164 15.1254 6.04244Z" stroke="#181B21" stroke-width="1.5"/>
</g>
</svg>
