<svg xmlns="http://www.w3.org/2000/svg" fill="currentColor" viewBox="0 0 32 32">
  <path d="M23.4 3h-4c-2 0-3.8.8-5.2 2.2-1.4 1.4-2.2 3.2-2.2 5.2v1.9H8.8c-.5 0-.8.4-.8.8v5.3c0 .4.3.8.8.8H12v8.6c0 .4.3.8.8.8h5.3c.4 0 .8-.3.8-.8v-8.6h3.2c.3 0 .6-.2.7-.6l1.3-5.3c.1-.2 0-.5-.1-.6-.1-.2-.4-.3-.6-.3h-4.6v-2c0-.2.1-.3.2-.4.1-.1.3-.2.4-.2h4c.4 0 .8-.3.8-.8V3.8c0-.5-.4-.8-.8-.8Zm-.7 5.3h-3.2c-.6 0-1.1.2-1.5.6-.4.4-.7 1-.7 1.5v2.7c0 .4.3.8.8.8h4.4l-1 3.8h-3.4c-.4 0-.8.3-.8.8V27h-3.8v-8.6c0-.4-.3-.8-.8-.8H9.5v-3.8h3.2c.4 0 .8-.3.8-.8v-2.6c0-1.6.6-3.1 1.7-4.2s2.6-1.7 4.2-1.7h3.2v3.8h.1Z"/>
</svg>
