<svg viewBox="0 0 30 30" fill="currentColor" xmlns="http://www.w3.org/2000/svg">
<path d="M24.8 21.5H24.2C23.8 20.1 22.5 19 21 19C19.5 19 18.2 20.1 17.8 21.5H4.8C4.4 21.5 4 21.8 4 22.3C4 22.8 4.3 23 4.8 23H17.9C18.2 24.4 19.5 25.5 21.1 25.5C22.7 25.5 23.9 24.4 24.3 23H24.9C25.3 23 25.7 22.7 25.7 22.2C25.7 21.7 25.2 21.5 24.8 21.5ZM21 24C20 24 19.2 23.2 19.2 22.2C19.2 21.2 20 20.4 21 20.4C22 20.4 22.8 21.2 22.8 22.2C22.8 23.2 22 24 21 24Z"/>
<path d="M4.8 8H14.1C14.4 9.4 15.7 10.5 17.3 10.5C18.8 10.5 20.1 9.4 20.5 8H24.8C25.2 8 25.6 7.7 25.6 7.2C25.6 6.8 25.3 6.4 24.8 6.4H20.5C20.1 5.1 18.8 4 17.2 4C15.6 4 14.4 5.1 14 6.5H4.8C4.3 6.5 4 6.8 4 7.2C4 7.7 4.3 8 4.8 8ZM17.2 5.5C18.2 5.5 19 6.3 19 7.3C19 8.3 18.2 9.1 17.2 9.1C16.2 9.1 15.4 8.3 15.4 7.3C15.5 6.3 16.3 5.5 17.2 5.5Z"/>
<path d="M24.8 14H12.9C12.6 12.6 11.3 11.5 9.8 11.5C8.3 11.5 6.9 12.6 6.6 14H4.8C4.3 14 4 14.3 4 14.8C4 15.2 4.3 15.6 4.8 15.6H6.6C6.9 16.9 8.2 18 9.8 18C11.4 18 12.6 16.9 13 15.5H24.8C25.2 15.5 25.6 15.2 25.6 14.7C25.5 14.3 25.2 14 24.8 14ZM9.8 16.5C8.8 16.5 8 15.7 8 14.7C8 13.8 8.8 13 9.8 13C10.8 13 11.6 13.8 11.6 14.8C11.5 15.7 10.7 16.5 9.8 16.5Z"/>
</svg>
