<svg width="24" height="24" viewBox="0 0 24 24" fill="none" xmlns="http://www.w3.org/2000/svg">
<g clip-path="url(#clip0_621_16554)">
<path d="M3 21.0003H7L20 8.0003C20.5304 7.46987 20.8284 6.75045 20.8284 6.0003C20.8284 5.25016 20.5304 4.53074 20 4.0003C19.4696 3.46987 18.7501 3.17188 18 3.17188C17.2499 3.17188 16.5304 3.46987 16 4.0003L3 17.0003V21.0003Z" stroke="#181B21" stroke-width="1.5" stroke-linecap="round" stroke-linejoin="round"/>
<path d="M14.5 5.5L18.5 9.5" stroke="#181B21" stroke-width="1.5" stroke-linecap="round" stroke-linejoin="round"/>
<path d="M12 8L7 3L3 7L8 12" stroke="#181B21" stroke-width="1.5" stroke-linecap="round" stroke-linejoin="round"/>
<path d="M7 8L5.5 9.5" stroke="#181B21" stroke-width="1.5" stroke-linecap="round" stroke-linejoin="round"/>
<path d="M16 12L21 17L17 21L12 16" stroke="#181B21" stroke-width="1.5" stroke-linecap="round" stroke-linejoin="round"/>
<path d="M16 17L14.5 18.5" stroke="#181B21" stroke-width="1.5" stroke-linecap="round" stroke-linejoin="round"/>
</g>
<defs>
<clipPath id="clip0_621_16554">
<rect width="24" height="24" fill="white"/>
</clipPath>
</defs>
</svg>
