<svg viewBox="0 0 32 32" fill="currentColor" xmlns="http://www.w3.org/2000/svg">
<path d="M25.3 7.7C24.1 6.6 22.7 6 20.9 6C20 6 19 6.2 18.2 6.6C17.3 7 16.6 7.6 16 8.3C15.4 7.6 14.6 7 13.8 6.6C12.9 6.2 12 6 11.1 6C9.3 6 7.9 6.6 6.7 7.7C5.6 8.9 5 10.3 5 12C5 12.8 5.1 13.7 5.4 14.5C5.7 15.3 6.2 16.2 6.9 17.1C7.6 18 8.6 19.1 9.8 20.3C11 21.5 12.5 22.9 14.4 24.6L16 26L17.6 24.6C19.5 22.9 21 21.5 22.2 20.3C23.4 19.1 24.4 18 25.1 17.1C25.8 16.2 26.3 15.3 26.6 14.5C26.9 13.7 27 12.8 27 12C27 10.3 26.4 8.9 25.3 7.7ZM25.2 13.9C25 14.6 24.5 15.3 23.9 16.1C23.2 17 22.3 18 21.2 19.2C20 20.4 18.5 21.8 16.7 23.4L16 24L15.4 23.5C13.6 21.9 12 20.4 10.9 19.3C9.7 18.2 8.8 17.1 8.2 16.2C7.5 15.3 7.1 14.6 6.8 13.9C6.6 13.3 6.5 12.7 6.5 12C6.5 10.7 6.9 9.6 7.8 8.8C8.7 7.9 9.7 7.5 11.1 7.5C11.8 7.5 12.5 7.7 13.2 8C13.9 8.3 14.4 8.7 14.9 9.3L16 10.6L17.1 9.3C17.6 8.7 18.1 8.3 18.8 8C19.5 7.7 20.2 7.5 20.9 7.5C22.2 7.5 23.3 7.9 24.2 8.8C25.1 9.7 25.5 10.7 25.5 12C25.5 12.7 25.4 13.3 25.2 13.9Z"/>
</svg>
