<svg viewBox="0 0 24 24" fill="crrentColor" xmlns="http://www.w3.org/2000/svg">
<path d="M12 21.3L10.6 20C8.9 18.5 7.5 17.2 6.4 16.1C5.3 15 4.4 14 3.8 13.1C3.1 12.3 2.6 11.5 2.4 10.8C2.1 10 2 9.3 2 8.5C2 6.9 2.5 5.6 3.6 4.6C4.6 3.6 6 3 7.5 3C8.4 3 9.2 3.2 10 3.6C10.8 4 11.5 4.5 12 5.1C12.6 4.4 13.2 3.9 14 3.6C14.8 3.2 15.6 3 16.5 3C18.1 3 19.4 3.5 20.4 4.6C21.4 5.6 22 7 22 8.5C22 9.3 21.9 10 21.6 10.7C21.3 11.4 20.9 12.2 20.2 13.1C19.6 14 18.7 15 17.6 16.1C16.5 17.2 15.1 18.5 13.4 20L12 21.3ZM7.5 4.5C6.3 4.5 5.4 4.9 4.6 5.6C3.9 6.4 3.5 7.3 3.5 8.5C3.5 9.1 3.6 9.7 3.8 10.3C4 10.8 4.4 11.5 5 12.3C5.6 13.1 6.4 14.1 7.5 15.1C8.6 16.2 10 17.5 11.6 19L12 19.4L12.4 19C14.1 17.5 15.5 16.2 16.5 15.1C17.5 14.1 18.4 13.1 19 12.3C19.6 11.5 19.9 10.9 20.2 10.3C20.4 9.7 20.5 9.1 20.5 8.5C20.5 7.3 20.1 6.4 19.4 5.6C18.6 4.8 17.7 4.5 16.5 4.5C15.8 4.5 15.2 4.6 14.7 4.9C14.1 5.2 13.6 5.6 13.2 6.1L12 7.4L10.9 6.1C10.4 5.6 9.9 5.2 9.3 4.9C8.8 4.6 8.2 4.5 7.5 4.5Z"/>
</svg>
