<svg xmlns="http://www.w3.org/2000/svg" fill="currentColor" viewBox="0 0 32 32">
  <path d="M9.154 5h9.692c.571 0 1.12.232 1.523.644.404.413.631.973.631 1.556v1.1c0 .292-.113.572-.315.778a1.066 1.066 0 0 1-.762.322c-.285 0-.56-.116-.761-.322a1.112 1.112 0 0 1-.316-.778V7.2H9.154v17.6h9.692v-1.1c0-.292.114-.572.316-.778a1.065 1.065 0 0 1 1.523 0c.202.206.315.486.315.778v1.1c0 .584-.227 1.143-.63 1.556a2.131 2.131 0 0 1-1.524.644H9.154c-.571 0-1.12-.232-1.523-.644A2.224 2.224 0 0 1 7 24.8V7.2c0-.583.227-1.143.63-1.556A2.131 2.131 0 0 1 9.155 5Z"/>
  <path d="M21.34 20.68a1.049 1.049 0 0 0 1.508 0l3.839-3.925a1.112 1.112 0 0 0 0-1.547l-3.839-3.926a1.055 1.055 0 0 0-1.472.038 1.108 1.108 0 0 0-.037 1.506l2.007 2.061H14.07a1.06 1.06 0 0 0-.757.32 1.112 1.112 0 0 0 0 1.548c.201.205.473.32.757.32h9.276l-2.008 2.061c-.2.205-.311.483-.311.772 0 .29.113.567.313.772Z"/>
</svg>