<svg viewBox="0 0 22 22" fill="currentColor" xmlns="http://www.w3.org/2000/svg">
<path fill-rule="evenodd" clip-rule="evenodd" d="M12.8964 4.8368C13.4322 4.30101 14.1589 4 14.9167 4C15.6744 4 16.4011 4.30101 16.9369 4.8368C17.4727 5.3726 17.7737 6.09929 17.7737 6.85702C17.7737 7.61475 17.4727 8.34145 16.9369 8.87724L8.18689 17.6272C8.09312 17.721 7.96594 17.7737 7.83333 17.7737H4.5C4.22386 17.7737 4 17.5498 4 17.2737V13.9404C4 13.8077 4.05268 13.6806 4.14645 13.5868L12.8964 4.8368ZM14.9167 5C14.4242 5 13.9518 5.19565 13.6036 5.54391L5 14.1475V16.7737H7.62623L16.2298 8.17014C16.578 7.82188 16.7737 7.34954 16.7737 6.85702C16.7737 6.36451 16.578 5.89217 16.2298 5.54391C15.8815 5.19565 15.4092 5 14.9167 5Z"/>
</svg>
