<svg viewBox="0 0 24 24" fill="currentColor" xmlns="http://www.w3.org/2000/svg">
<path fill-rule="evenodd" clip-rule="evenodd" d="M10.5 3C8.51088 3 6.60322 3.79018 5.1967 5.1967C3.79018 6.60322 3 8.51088 3 10.5C3 12.4891 3.79018 14.3968 5.1967 15.8033C6.60322 17.2098 8.51088 18 10.5 18C12.4801 18 14.3794 17.217 15.7841 15.8225C15.7917 15.8143 15.7995 15.8062 15.8075 15.7983C15.8148 15.791 15.8221 15.784 15.8295 15.777C17.2196 14.3731 18 12.4768 18 10.5C18 8.51088 17.2098 6.60322 15.8033 5.1967C14.3968 3.79018 12.4891 3 10.5 3ZM17.8904 16.4693C19.2491 14.7873 20 12.6823 20 10.5C20 7.98044 18.9991 5.56408 17.2175 3.78249C15.4359 2.00089 13.0196 1 10.5 1C7.98044 1 5.56408 2.00089 3.78249 3.78249C2.00089 5.56408 1 7.98044 1 10.5C1 13.0196 2.00089 15.4359 3.78249 17.2175C5.56408 18.9991 7.98044 20 10.5 20C12.6856 20 14.7936 19.2469 16.4769 17.8843L20.2923 21.7065C20.6824 22.0973 21.3156 22.0979 21.7065 21.7077C22.0973 21.3176 22.0979 20.6844 21.7077 20.2935L17.8904 16.4693Z"/>
</svg>
