<svg viewBox="0 0 24 24" fill="currentColor" xmlns="http://www.w3.org/2000/svg">
<path d="M21.9 11.6C21.8 11.5 21.8 11.4 21.7 11.3L14.7 4.3C14.3 3.9 13.7 3.9 13.3 4.3C13.1 4.5 13 4.7 13 5V7.9H12.8V8.1C11.4 8.2 8.7 8.7 6.4 10.2C3.5 12.1 2 15.1 2 19C2 19.2 2.1 19.4 2.2 19.6C2.3 19.8 2.5 19.9 2.7 20C2.8 20 2.9 20 3 20C3.1 20 3.2 20 3.3 20C3.5 19.9 3.7 19.8 3.8 19.6C4.8 18.4 6.1 17.5 7.6 16.8C9 16.2 10.5 15.9 12 15.9C12.1 15.9 12.1 15.9 12.2 15.9H13V19C13 19.2 13.1 19.4 13.2 19.6C13.3 19.8 13.5 19.9 13.6 20C13.8 20 14 20 14.2 20C14.4 20 14.5 19.9 14.7 19.8L21.7 12.8C21.8 12.7 21.9 12.6 21.9 12.5C22 12.3 22 12.1 22 12C22 11.9 22 11.7 21.9 11.6ZM14.8 14.3C14.6 14.1 14.4 14 14.2 14C13.6 13.9 13 13.9 12.4 13.9H12.1C9.4 13.9 6.6 14.8 4.4 16.4C5 13.8 6.7 11.9 9.4 10.9C11.5 10 13.6 10 14 10C14.3 10 14.5 9.9 14.7 9.7C14.9 9.5 15 9.3 15 9V7.4L19.6 12L15 16.6V15C15 14.8 14.9 14.5 14.8 14.3Z"/>
</svg>
