<svg xmlns="http://www.w3.org/2000/svg" fill="currentColor" viewBox="0 0 32 32">
  <path fill-rule="evenodd" d="M8 6.083A1.917 1.917 0 0 0 6.083 8v16c0 1.058.859 1.917 1.917 1.917h16A1.917 1.917 0 0 0 25.917 24V8A1.917 1.917 0 0 0 24 6.083H8ZM4.583 8A3.417 3.417 0 0 1 8 4.583h16A3.417 3.417 0 0 1 27.417 8v16A3.417 3.417 0 0 1 24 27.417H8A3.417 3.417 0 0 1 4.583 24V8Z" clip-rule="evenodd"/>
  <path fill-rule="evenodd" d="M12 4.583a.75.75 0 0 1 .75.75v21.334a.75.75 0 0 1-1.5 0V5.333a.75.75 0 0 1 .75-.75Z" clip-rule="evenodd"/>
</svg>