<svg xmlns="http://www.w3.org/2000/svg" fill="currentColor" viewBox="0 0 32 32">
  <path d="M29.926 5.283c-.2-.2-.5-.2-.8-.1-.9.5-1.9.7-2.9 1-.2.1-.4.1-.6.2-1.6-1.5-3.8-1.8-6.3-.8-2.5.9-4 3.2-4 5.7v.6c-3.7-.2-7.1-2-9.3-5.1-.1-.2-.4-.3-.6-.3-.3 0-.5.2-.6.4-.1.1-2.6 4.6-1.1 9.1.8 2.5 2.7 4.5 5.5 6-2.3 1.4-4.3 1.9-6.4 1.8-.3 0-.7.2-.8.6-.1.3.1.7.4.9 3.2 1.8 6.6 2.7 9.7 2.7 1.5 0 2.9-.2 4.2-.6 5.3-1.5 9.2-5.5 10.7-10.8.5-1.7.7-3.4.7-5.1.1-.2.4-.7.6-1.2.6-1.2 1.5-2.9 1.8-4.1.1-.4 0-.7-.2-.9Zm-2.9 4.1c-.6 1.2-.8 1.5-.8 1.8 0 1.6-.2 3.2-.6 4.8-1.4 4.8-4.9 8.4-9.7 9.8-3.2.9-6.7.6-10.3-.8 2.2-.5 4-1.5 5.6-2.5.2-.2.4-.4.3-.7-.1-.3-.2-.5-.5-.6-3-1.4-5-3.3-5.8-5.7-.9-2.7-.2-5.4.4-6.9 2.6 3.1 6.4 4.8 10.5 4.7.4 0 .7-.3.7-.7v-1.4c0-1.9 1.2-3.6 3-4.3 1.2-.5 3.5-1 5 .8.2.2.5.3.8.2.3-.1.6-.2 1-.3.5-.1 1-.3 1.5-.4-.3.8-.8 1.6-1.1 2.2Z"/>
</svg>
