<svg width="430" height="383" viewBox="0 0 430 383" fill="none" xmlns="http://www.w3.org/2000/svg">
<path d="M27.7357 322.001H18.5557" stroke="#263238" stroke-width="1.1133" stroke-miterlimit="10"/>
<path d="M399.576 322.001H42.2559" stroke="#263238" stroke-width="1.1133" stroke-miterlimit="10"/>
<path d="M265.135 360.381C281.919 360.381 295.525 356.638 295.525 352.021C295.525 347.404 281.919 343.661 265.135 343.661C248.351 343.661 234.745 347.404 234.745 352.021C234.745 356.638 248.351 360.381 265.135 360.381Z" fill="#263238"/>
<path d="M108.065 371.012C76.4353 371.012 71.7653 366.442 71.3053 362.752C71.2009 361.983 71.2766 361.201 71.5265 360.467C71.7764 359.733 72.1937 359.067 72.7453 358.522C81.2653 349.582 130.365 353.362 198.305 358.592C207.785 359.322 217.585 360.072 227.635 360.822C296.285 365.922 323.925 365.262 329.635 358.362C330.795 356.952 331.035 355.192 330.395 352.812C327.675 342.862 291.315 342.812 277.545 343.592C277.23 343.608 276.921 343.5 276.686 343.29C276.45 343.081 276.306 342.787 276.285 342.472C276.276 342.316 276.297 342.16 276.349 342.012C276.4 341.865 276.48 341.729 276.584 341.613C276.689 341.497 276.815 341.402 276.956 341.335C277.097 341.268 277.249 341.229 277.405 341.222C282.675 340.912 328.975 338.582 332.685 352.222C333.535 355.362 333.145 357.872 331.465 359.912C325.055 367.692 298.815 368.522 227.465 363.222C217.405 362.472 207.605 361.722 198.125 360.992C133.365 355.992 82.2053 352.062 74.4653 360.192C74.1593 360.482 73.9271 360.841 73.7879 361.24C73.6488 361.638 73.6068 362.064 73.6653 362.482C73.9553 364.842 79.6653 370.122 125.665 368.282C151.395 367.282 177.245 364.452 177.505 364.422C177.806 364.41 178.101 364.512 178.329 364.709C178.558 364.905 178.703 365.181 178.736 365.48C178.769 365.78 178.687 366.081 178.507 366.322C178.327 366.564 178.062 366.728 177.765 366.782C177.505 366.782 151.575 369.622 125.765 370.652C119.125 370.892 113.245 371.012 108.065 371.012Z" fill="white" stroke="#263238" stroke-width="1.1133" stroke-miterlimit="10"/>
<path d="M253.835 359.361C273.613 359.361 289.645 343.329 289.645 323.551C289.645 303.774 273.613 287.741 253.835 287.741C234.058 287.741 218.025 303.774 218.025 323.551C218.025 343.329 234.058 359.361 253.835 359.361Z" fill="white"/>
<mask id="mask0_9048_114811" style="mask-type:luminance" maskUnits="userSpaceOnUse" x="218" y="287" width="72" height="73">
<path d="M253.835 359.361C273.613 359.361 289.645 343.329 289.645 323.551C289.645 303.774 273.613 287.741 253.835 287.741C234.058 287.741 218.025 303.774 218.025 323.551C218.025 343.329 234.058 359.361 253.835 359.361Z" fill="white"/>
</mask>
<g mask="url(#mask0_9048_114811)">
<path d="M253.835 359.361C260.352 359.366 266.746 357.591 272.328 354.229C277.911 350.867 282.47 346.044 285.513 340.282C288.557 334.52 289.97 328.036 289.6 321.53C289.231 315.023 287.092 308.742 283.415 303.361C283.025 318.961 274.415 341.991 229.635 349.911C236.227 355.991 244.867 359.365 253.835 359.361Z" fill="#FFE19A"/>
<path opacity="0.3" d="M253.835 359.361C260.352 359.366 266.746 357.591 272.328 354.229C277.911 350.867 282.47 346.044 285.513 340.282C288.557 334.52 289.97 328.036 289.6 321.53C289.231 315.023 287.092 308.742 283.415 303.361C283.025 318.961 274.415 341.991 229.635 349.911C236.227 355.991 244.867 359.365 253.835 359.361Z" fill="white"/>
<path d="M271.455 337.591C265.069 331.379 257.315 326.751 248.815 324.081M271.455 337.591H273.355C277.57 333.413 281.2 328.683 284.145 323.531C267.375 305.811 251.065 307.621 251.065 307.621C251.065 307.621 267.425 305.811 284.195 323.551C285.115 321.901 285.885 320.351 286.515 318.921C279.535 309.141 267.515 302.471 261.065 301.471L259.565 301.111M271.455 337.591C256.725 337.381 245.525 335.101 237.155 332.051C237.695 309.431 245.765 294.361 249.985 287.981C251.33 287.825 252.682 287.745 254.035 287.741C255.265 287.741 256.465 287.811 257.665 287.921M259.565 301.111C257.254 300.691 254.888 300.657 252.565 301.011M259.565 301.111L263.835 289.111C261.817 288.534 259.753 288.136 257.665 287.921M257.665 287.921C254.895 292.391 247.765 306.671 247.765 335.001M279.545 330.301C265.285 316.401 249.545 315.671 249.545 315.671" stroke="#263238" stroke-width="1.1133" stroke-linecap="round" stroke-linejoin="round"/>
<path d="M237.115 332.111C237.655 309.491 245.725 294.421 249.945 288.041C246.643 288.411 243.409 289.239 240.335 290.501C232.756 301.62 228.475 314.654 227.985 328.101C230.922 329.669 233.974 331.009 237.115 332.111Z" stroke="#263238" stroke-width="1.1133" stroke-linecap="round" stroke-linejoin="round"/>
<path d="M240.335 290.472C234.151 293.021 228.803 297.249 224.894 302.677C220.985 308.105 218.672 314.518 218.215 321.192C221.159 323.899 224.444 326.212 227.985 328.072C228.475 314.625 232.756 301.59 240.335 290.472Z" stroke="#263238" stroke-width="1.1133" stroke-linecap="round" stroke-linejoin="round"/>
<path d="M286.465 318.922C287.245 317.2 287.913 315.429 288.465 313.622C286.97 308.521 284.365 303.815 280.835 299.842L278.065 309.082L280.785 299.842C278.577 297.364 276.036 295.203 273.235 293.422L270.185 304.832L273.255 293.472C270.327 291.599 267.14 290.167 263.795 289.222L259.525 301.222C266.065 302.162 276.175 306.012 286.465 318.922Z" stroke="#263238" stroke-width="1.1133" stroke-linecap="round" stroke-linejoin="round"/>
<path d="M255.815 351.201C259.981 348.681 263.955 345.857 267.705 342.751C269.755 341.031 273.515 337.621 273.635 337.621C273.515 337.621 280.695 329.521 283.075 325.291C283.075 325.351 284.135 323.611 284.075 323.551C284.015 323.491 284.935 322.041 284.875 321.981C285.458 321.001 285.966 319.978 286.395 318.921C287.174 317.199 287.842 315.429 288.395 313.621C289.35 316.889 289.835 320.276 289.835 323.681C289.835 324.241 289.835 324.721 289.835 325.241C274.715 346.471 263.065 355.571 255.735 359.561C255.145 359.561 254.545 359.561 253.935 359.561C250.268 359.562 246.623 359.002 243.125 357.901C247.481 355.914 251.718 353.677 255.815 351.201ZM255.815 351.201H256.075" stroke="#263238" stroke-width="1.1133" stroke-linecap="round" stroke-linejoin="round"/>
<path d="M289.835 325.241C274.715 346.471 263.065 355.571 255.795 359.471C264.71 359.022 273.138 355.266 279.432 348.937C285.727 342.607 289.436 334.159 289.835 325.241Z" stroke="#263238" stroke-width="1.1133" stroke-linecap="round" stroke-linejoin="round"/>
<path d="M225.955 346.041C230.392 351.619 236.391 355.748 243.185 357.901C247.541 355.914 251.778 353.677 255.875 351.201C247.335 352.781 233.975 348.861 225.955 346.041Z" stroke="#263238" stroke-width="1.1133" stroke-linecap="round" stroke-linejoin="round"/>
<path d="M255.876 351.201C260.042 348.682 264.016 345.857 267.766 342.751C241.976 345.391 226.066 337.401 219.306 332.861C220.581 337.669 222.846 342.158 225.956 346.041C233.976 348.861 247.336 352.781 255.876 351.201Z" stroke="#263238" stroke-width="1.1133" stroke-linecap="round" stroke-linejoin="round"/>
<path d="M271.455 337.611H273.355C271.665 339.311 269.815 341.031 267.765 342.751C241.975 345.391 226.065 337.401 219.305 332.881C218.516 329.885 218.116 326.8 218.115 323.701C218.115 322.871 218.155 322.061 218.215 321.241C220.395 323.291 224.825 327.871 237.115 332.131C245.525 335.121 256.725 337.401 271.455 337.611ZM271.455 337.611C271.595 337.741 271.735 337.871 271.865 338.011" stroke="#263238" stroke-width="1.1133" stroke-linecap="round" stroke-linejoin="round"/>
</g>
<path d="M253.835 359.361C273.613 359.361 289.645 343.329 289.645 323.551C289.645 303.774 273.613 287.741 253.835 287.741C234.058 287.741 218.025 303.774 218.025 323.551C218.025 343.329 234.058 359.361 253.835 359.361Z" stroke="#263238" stroke-width="1.1133" stroke-linecap="round" stroke-linejoin="round"/>
<path d="M271.416 259.466C270.932 259.366 270.499 259.291 270.111 259.235C271.435 258.743 272.745 258.244 274.047 257.748C280.743 255.199 287.251 252.722 294.471 251.463C299.613 250.575 305.16 250.061 310.02 252.005C313.459 253.382 315.784 255.993 317.257 258.288C317.992 259.433 318.509 260.491 318.842 261.262C319.009 261.647 319.129 261.96 319.207 262.174C319.245 262.281 319.274 262.364 319.292 262.419C319.294 262.426 319.297 262.432 319.298 262.438C319.347 264.033 318.914 265.297 318.174 266.31C317.417 267.345 316.319 268.146 315.018 268.755C312.409 269.979 309.083 270.391 306.425 270.451L306.436 270.951L306.425 270.451C299.837 270.598 293.219 268.414 287.394 265.581C279.418 261.691 274.429 260.09 271.416 259.466Z" fill="#FFE19A" stroke="#181B21"/>
<path d="M273.998 221.634C274.354 221.8 274.748 221.998 275.183 222.234C277.889 223.703 282.203 226.677 288.715 232.704C293.477 237.097 299.188 241.099 305.51 242.859L273.998 221.634ZM273.998 221.634C275.423 221.545 276.835 221.446 278.238 221.347C285.387 220.844 292.324 220.356 299.596 221.237C304.786 221.866 310.282 223.006 314.344 226.251L314.344 226.252C317.232 228.558 318.69 231.728 319.424 234.352C319.791 235.661 319.974 236.824 320.065 237.659C320.111 238.076 320.133 238.41 320.145 238.638C320.15 238.752 320.153 238.84 320.155 238.898C320.155 238.905 320.155 238.912 320.155 238.919C319.738 240.46 318.956 241.545 317.953 242.3C316.929 243.072 315.647 243.519 314.226 243.726C311.375 244.141 308.074 243.572 305.51 242.859L273.998 221.634Z" fill="#FFE19A" stroke="#181B21"/>
<path d="M336.282 242.342L336.282 242.342C340.109 236.09 344.805 230.958 349.647 225.666C350.593 224.632 351.545 223.592 352.497 222.536C352.406 222.916 352.316 223.345 352.231 223.831C351.699 226.862 351.345 232.09 352.017 240.939L352.017 240.939C352.514 247.399 352.092 254.359 349.525 260.426L349.524 260.43C348.51 262.883 346.913 265.825 344.814 267.802C343.769 268.787 342.618 269.514 341.371 269.837C340.15 270.154 338.806 270.092 337.329 269.46C337.325 269.456 337.32 269.452 337.315 269.448C337.27 269.411 337.204 269.354 337.119 269.278C336.948 269.126 336.701 268.9 336.405 268.603C335.811 268.009 335.018 267.138 334.224 266.033C332.634 263.818 331.065 260.693 331.056 256.99C331.056 251.789 333.558 246.782 336.282 242.342Z" fill="#FFE19A" stroke="#181B21"/>
<path d="M364.921 269.293L364.921 269.293C368.575 265.609 373.903 263.834 378.963 262.617L378.963 262.617C386.08 260.901 393.022 260.583 400.174 260.255C401.583 260.191 403 260.126 404.428 260.05C404.096 260.254 403.73 260.494 403.328 260.777C400.812 262.546 396.872 265.997 391.096 272.735L391.095 272.737C386.883 277.704 381.675 282.289 375.567 284.778L375.566 284.778C373.117 285.782 369.911 286.728 367.029 286.643C365.594 286.601 364.265 286.304 363.153 285.655C362.065 285.02 361.157 284.033 360.557 282.551C360.556 282.545 360.556 282.539 360.555 282.533C360.55 282.475 360.543 282.388 360.536 282.274C360.522 282.046 360.508 281.712 360.507 281.292C360.505 280.453 360.558 279.276 360.777 277.933C361.215 275.242 362.31 271.922 364.921 269.293Z" fill="#FFE19A" stroke="#181B21"/>
<path d="M346.814 245.203L346.814 245.202C344.131 240.751 343.716 235.156 343.766 229.945C343.841 222.632 345.236 215.818 346.672 208.8C346.955 207.419 347.239 206.031 347.515 204.629C347.632 205.002 347.775 205.416 347.951 205.875C349.051 208.749 351.433 213.414 356.557 220.659C360.292 225.954 363.486 232.139 364.47 238.671C364.822 241.31 364.941 244.657 364.15 247.429C363.755 248.811 363.141 250.024 362.241 250.938C361.36 251.833 360.182 252.465 358.601 252.675C358.595 252.675 358.588 252.674 358.581 252.672C358.524 252.663 358.438 252.649 358.325 252.627C358.101 252.585 357.773 252.518 357.366 252.416C356.551 252.212 355.423 251.873 354.174 251.333C351.671 250.25 348.721 248.376 346.814 245.203Z" fill="#FFE19A" stroke="#181B21"/>
<path d="M427.557 217.561C427.19 217.696 426.774 217.835 426.302 217.976C423.355 218.855 418.205 219.814 409.336 220.18L427.557 217.561ZM427.557 217.561C426.604 218.647 425.666 219.732 424.734 220.811C420.062 226.219 415.523 231.472 409.786 235.977L410.095 236.37L409.786 235.977C405.694 239.191 401.01 242.28 395.85 242.873C392.17 243.278 388.884 242.075 386.498 240.748C385.308 240.087 384.35 239.399 383.691 238.878C383.362 238.617 383.108 238.399 382.938 238.247C382.853 238.171 382.788 238.111 382.746 238.071C382.741 238.067 382.736 238.062 382.732 238.058M427.557 217.561L382.732 238.058M382.732 238.058C381.935 236.677 381.717 235.359 381.889 234.117C382.065 232.848 382.652 231.624 383.507 230.474C385.223 228.164 387.954 226.233 390.269 224.937L390.269 224.937L390.273 224.935C396.005 221.67 402.865 220.448 409.336 220.18L382.732 238.058Z" fill="#FFE19A" stroke="#181B21"/>
<path d="M396.911 189.111C397.19 188.707 397.426 188.338 397.627 188.004C397.568 189.403 397.519 190.793 397.471 192.174C397.219 199.36 396.975 206.336 395.328 213.488L395.328 213.489C394.161 218.568 392.444 223.906 388.79 227.609C386.189 230.244 382.882 231.373 380.195 231.839C378.855 232.072 377.679 232.137 376.839 232.145C376.42 232.149 376.085 232.138 375.857 232.126C375.743 232.12 375.656 232.114 375.598 232.11C375.591 232.109 375.585 232.109 375.579 232.109C374.09 231.531 373.093 230.639 372.447 229.562C371.788 228.461 371.477 227.138 371.421 225.702C371.309 222.821 372.225 219.595 373.21 217.115L373.211 217.114C375.62 210.988 380.204 205.731 385.075 201.467C391.758 195.621 395.168 191.645 396.911 189.111Z" fill="#FFE19A" stroke="#181B21"/>
<path d="M345.895 313.21L331.595 278.02L315.105 237.33" stroke="#181B21" stroke-width="1.1133" stroke-linecap="round" stroke-linejoin="round"/>
<path d="M349.195 307.16L363.485 258.23L378.885 227.99" stroke="#181B21" stroke-width="1.1133" stroke-linecap="round" stroke-linejoin="round"/>
<path d="M354.686 287.921L368.986 279.671" stroke="#181B21" stroke-width="1.1133" stroke-linecap="round" stroke-linejoin="round"/>
<path d="M363.486 258.23L356.336 242.28" stroke="#181B21" stroke-width="1.1133" stroke-linecap="round" stroke-linejoin="round"/>
<path d="M372.436 242.36L389.876 234.58" stroke="#181B21" stroke-width="1.1133" stroke-linecap="round" stroke-linejoin="round"/>
<path d="M334.346 284.621L340.396 260.431" stroke="#181B21" stroke-width="1.1133" stroke-linecap="round" stroke-linejoin="round"/>
<path d="M326.325 266.23L312.355 258.78" stroke="#181B21" stroke-width="1.1133" stroke-linecap="round" stroke-linejoin="round"/>
<path d="M353.226 330.8H341.306C339.357 330.799 337.47 330.119 335.969 328.876C334.469 327.632 333.449 325.905 333.086 323.99L328.846 301.66H365.686L361.456 323.99C361.09 325.905 360.069 327.633 358.566 328.876C357.064 330.119 355.176 330.8 353.226 330.8Z" fill="#D3D4D5" stroke="#181B21" stroke-width="1.1133" stroke-linecap="round" stroke-linejoin="round"/>
<path d="M190.215 283.75C167.955 283.75 154.575 264 149.825 246.63L149.665 246.02C149.412 245.178 149.332 244.294 149.428 243.419C149.525 242.545 149.797 241.7 150.228 240.933C150.659 240.166 151.24 239.495 151.937 238.958C152.634 238.421 153.431 238.03 154.283 237.809C155.134 237.588 156.021 237.54 156.891 237.67C157.76 237.799 158.595 238.102 159.345 238.562C160.095 239.021 160.745 239.627 161.255 240.344C161.765 241.06 162.126 241.872 162.315 242.73L162.435 243.18C166.045 256.4 175.875 271.51 191.645 270.64C194.611 270.538 197.521 269.812 200.188 268.512C202.855 267.211 205.219 265.364 207.125 263.09C215.775 253.17 219.645 231.6 218.785 220.72C218.704 220.022 218.764 219.315 218.962 218.64C219.16 217.966 219.492 217.338 219.939 216.795C220.385 216.252 220.936 215.804 221.559 215.479C222.182 215.154 222.864 214.957 223.565 214.901C224.266 214.845 224.97 214.931 225.637 215.154C226.304 215.377 226.919 215.732 227.445 216.197C227.972 216.663 228.399 217.23 228.701 217.865C229.004 218.499 229.175 219.188 229.205 219.89C230.205 232 228.885 258.03 216.975 271.68C213.927 275.27 210.168 278.189 205.936 280.254C201.704 282.319 197.09 283.486 192.385 283.68C191.655 283.73 190.925 283.75 190.215 283.75Z" fill="white"/>
<mask id="mask1_9048_114811" style="mask-type:luminance" maskUnits="userSpaceOnUse" x="149" y="214" width="81" height="70">
<path d="M190.215 283.75C167.955 283.75 154.575 264 149.825 246.63L149.665 246.02C149.412 245.178 149.332 244.294 149.428 243.419C149.525 242.545 149.797 241.7 150.228 240.933C150.659 240.166 151.24 239.495 151.937 238.958C152.634 238.421 153.431 238.03 154.283 237.809C155.134 237.588 156.021 237.54 156.891 237.67C157.76 237.799 158.595 238.102 159.345 238.562C160.095 239.021 160.745 239.627 161.255 240.344C161.765 241.06 162.126 241.872 162.315 242.73L162.435 243.18C166.045 256.4 175.875 271.51 191.645 270.64C194.611 270.538 197.521 269.812 200.188 268.512C202.855 267.211 205.219 265.364 207.125 263.09C215.775 253.17 219.645 231.6 218.785 220.72C218.704 220.022 218.764 219.315 218.962 218.64C219.16 217.966 219.492 217.338 219.939 216.795C220.385 216.252 220.936 215.804 221.559 215.479C222.182 215.154 222.864 214.957 223.565 214.901C224.266 214.845 224.97 214.931 225.637 215.154C226.304 215.377 226.919 215.732 227.445 216.197C227.972 216.663 228.399 217.23 228.701 217.865C229.004 218.499 229.175 219.188 229.205 219.89C230.205 232 228.885 258.03 216.975 271.68C213.927 275.27 210.168 278.189 205.936 280.254C201.704 282.319 197.09 283.486 192.385 283.68C191.655 283.73 190.925 283.75 190.215 283.75Z" fill="white"/>
</mask>
<g mask="url(#mask1_9048_114811)">
<path d="M223.575 215.09C222.194 215.203 220.913 215.859 220.015 216.914C219.117 217.97 218.674 219.339 218.785 220.72C219.205 226.03 218.495 233.88 216.655 241.72C219.283 241.609 221.911 241.948 224.425 242.72C223.83 250.244 221.188 257.461 216.785 263.59C207.075 277.08 192.515 281.39 181.185 279.77C176.115 279.05 170.305 276.39 165.415 273.66C172.05 280.131 180.947 283.758 190.215 283.77C190.925 283.77 191.655 283.77 192.385 283.71C197.09 283.516 201.704 282.349 205.936 280.284C210.168 278.219 213.927 275.3 216.975 271.71C228.885 258.06 230.165 232.03 229.205 219.92C229.156 219.232 228.971 218.561 228.66 217.945C228.35 217.329 227.921 216.781 227.397 216.331C226.874 215.882 226.266 215.541 225.61 215.328C224.954 215.115 224.263 215.034 223.575 215.09Z" fill="#FFE19A"/>
<path opacity="0.5" d="M223.575 215.09C222.194 215.203 220.913 215.859 220.015 216.914C219.117 217.97 218.674 219.339 218.785 220.72C219.205 226.03 218.495 233.88 216.655 241.72C219.283 241.609 221.911 241.948 224.425 242.72C223.83 250.244 221.188 257.461 216.785 263.59C207.075 277.08 192.515 281.39 181.185 279.77C176.115 279.05 170.305 276.39 165.415 273.66C172.05 280.131 180.947 283.758 190.215 283.77C190.925 283.77 191.655 283.77 192.385 283.71C197.09 283.516 201.704 282.349 205.936 280.284C210.168 278.219 213.927 275.3 216.975 271.71C228.885 258.06 230.165 232.03 229.205 219.92C229.156 219.232 228.971 218.561 228.66 217.945C228.35 217.329 227.921 216.781 227.397 216.331C226.874 215.882 226.266 215.541 225.61 215.328C224.954 215.115 224.263 215.034 223.575 215.09Z" fill="white"/>
</g>
<path d="M190.215 283.75C167.955 283.75 154.575 264 149.825 246.63L149.665 246.02C149.412 245.178 149.332 244.294 149.428 243.419C149.525 242.545 149.797 241.7 150.228 240.933C150.659 240.166 151.24 239.495 151.937 238.958C152.634 238.421 153.431 238.03 154.283 237.809C155.134 237.588 156.021 237.54 156.891 237.67C157.76 237.799 158.595 238.102 159.345 238.562C160.095 239.021 160.745 239.627 161.255 240.344C161.765 241.06 162.126 241.872 162.315 242.73L162.435 243.18C166.045 256.4 175.875 271.51 191.645 270.64C194.611 270.538 197.521 269.812 200.188 268.512C202.855 267.211 205.219 265.364 207.125 263.09C215.775 253.17 219.645 231.6 218.785 220.72C218.704 220.022 218.764 219.315 218.962 218.64C219.16 217.966 219.492 217.338 219.939 216.795C220.385 216.252 220.936 215.804 221.559 215.479C222.182 215.154 222.864 214.957 223.565 214.901C224.266 214.845 224.97 214.931 225.637 215.154C226.304 215.377 226.919 215.732 227.445 216.197C227.972 216.663 228.399 217.23 228.701 217.865C229.004 218.499 229.175 219.188 229.205 219.89C230.205 232 228.885 258.03 216.975 271.68C213.927 275.27 210.168 278.189 205.936 280.254C201.704 282.319 197.09 283.486 192.385 283.68C191.655 283.73 190.925 283.75 190.215 283.75Z" stroke="#263238" stroke-width="1.1133" stroke-linecap="round" stroke-linejoin="round"/>
<path d="M177.376 270.221C177.906 267.771 172.046 271.601 167.136 275.171C168.952 276.706 170.907 278.068 172.976 279.241C174.726 276.391 176.866 272.581 177.376 270.221Z" fill="#FFE19A" stroke="#263238" stroke-width="1.1133" stroke-linecap="round" stroke-linejoin="round"/>
<path d="M190.216 283.751C190.926 283.751 191.656 283.751 192.386 283.691C194.51 283.572 196.621 283.274 198.696 282.801C195.936 279.201 192.136 274.441 191.046 274.081C189.796 273.661 187.386 279.791 186.046 283.511C187.43 283.672 188.822 283.753 190.216 283.751Z" fill="#FFE19A" stroke="#263238" stroke-width="1.1133" stroke-linecap="round" stroke-linejoin="round"/>
<path d="M162.435 243.181L162.315 242.731C162.126 241.872 161.765 241.06 161.255 240.344C160.745 239.627 160.095 239.021 159.345 238.562C158.595 238.103 157.76 237.799 156.891 237.67C156.021 237.54 155.134 237.588 154.283 237.809C153.431 238.031 152.634 238.421 151.937 238.958C151.24 239.495 150.659 240.167 150.228 240.933C149.797 241.7 149.525 242.545 149.428 243.42C149.332 244.294 149.412 245.178 149.665 246.021L149.825 246.631C151.493 252.731 154.054 258.55 157.425 263.901L169.335 258.231C166.212 253.634 163.88 248.547 162.435 243.181Z" fill="#FFE19A" stroke="#263238" stroke-width="1.1133" stroke-linecap="round" stroke-linejoin="round"/>
<path d="M216.976 271.68C217.891 270.621 218.74 269.505 219.516 268.34C215.736 267.05 210.076 265.27 207.976 265.46C205.486 265.69 208.866 273.69 210.606 277.46C212.948 275.79 215.086 273.85 216.976 271.68Z" fill="#FFE19A" stroke="#263238" stroke-width="1.1133" stroke-linecap="round" stroke-linejoin="round"/>
<path d="M217.186 250.31C216.786 251.11 221.676 254.67 224.976 256.96C226.023 253.845 226.865 250.665 227.496 247.44C223.496 248.24 217.576 249.53 217.186 250.31Z" fill="#FFE19A" stroke="#263238" stroke-width="1.1133" stroke-linecap="round" stroke-linejoin="round"/>
<path d="M229.116 235.521C229.336 232.671 229.446 229.951 229.456 227.451C226.016 229.341 221.936 231.961 221.936 233.681C221.936 235.401 225.756 235.611 229.116 235.521Z" fill="#FFE19A" stroke="#263238" stroke-width="1.1133" stroke-linecap="round" stroke-linejoin="round"/>
<path d="M175.276 158.151C175.276 158.151 165.566 186.271 170.796 208.151C172.345 214.554 175.352 220.512 179.583 225.561C183.813 230.611 189.153 234.615 195.186 237.261C195.186 237.261 180.996 242.261 184.186 249.951C187.376 257.641 199.606 252.691 203.596 250.201C207.586 247.711 212.596 240.251 213.296 235.271C213.741 232.727 213.908 230.141 213.796 227.561C213.796 227.561 229.966 225.821 240.916 216.861C240.916 216.861 250.626 224.571 257.596 223.081C264.566 221.591 274.516 209.141 273.516 197.951C272.516 186.761 266.066 186.771 262.126 188.471C260.081 189.244 258.215 190.429 256.646 191.951C256.646 191.951 262.366 184.951 256.646 175.281C254.958 172.444 252.646 170.029 249.886 168.219C247.126 166.408 243.99 165.25 240.716 164.831C240.716 164.831 237.716 148.901 228.776 142.931C219.836 136.961 187.966 130.781 175.276 158.151Z" fill="white"/>
<mask id="mask2_9048_114811" style="mask-type:luminance" maskUnits="userSpaceOnUse" x="169" y="137" width="105" height="118">
<path d="M175.276 158.151C175.276 158.151 165.566 186.271 170.796 208.151C172.345 214.554 175.352 220.512 179.583 225.561C183.813 230.611 189.153 234.615 195.186 237.261C195.186 237.261 180.996 242.261 184.186 249.951C187.376 257.641 199.606 252.691 203.596 250.201C207.586 247.711 212.596 240.251 213.296 235.271C213.741 232.727 213.908 230.141 213.796 227.561C213.796 227.561 229.966 225.821 240.916 216.861C240.916 216.861 250.626 224.571 257.596 223.081C264.566 221.591 274.516 209.141 273.516 197.951C272.516 186.761 266.066 186.771 262.126 188.471C260.081 189.244 258.215 190.429 256.646 191.951C256.646 191.951 262.366 184.951 256.646 175.281C254.958 172.444 252.646 170.029 249.886 168.219C247.126 166.408 243.99 165.25 240.716 164.831C240.716 164.831 237.716 148.901 228.776 142.931C219.836 136.961 187.966 130.781 175.276 158.151Z" fill="white"/>
</mask>
<g mask="url(#mask2_9048_114811)">
<path d="M249.206 167.821C244.589 175.521 238.201 182.008 230.573 186.743C222.944 191.477 214.295 194.322 205.346 195.041C185.546 196.781 174.446 192.881 169.346 190.171C169.965 179.291 171.981 168.536 175.346 158.171C188.036 130.801 219.886 137.021 228.846 142.991C237.806 148.961 240.786 164.891 240.786 164.891C243.767 165.265 246.636 166.263 249.206 167.821ZM262.126 188.471C260.08 189.244 258.215 190.428 256.646 191.951C257.857 190.281 258.655 188.348 258.976 186.311C245.526 193.011 246.576 207.311 244.906 207.311C242.846 207.311 241.826 200.121 241.826 200.121C241.826 200.121 239.256 210.391 223.826 217.591C208.396 224.791 190.946 219.131 190.946 219.131C190.946 219.131 194.546 227.351 185.296 226.321C182.7 226.072 180.211 225.163 178.066 223.681C182.501 229.594 188.393 234.259 195.166 237.221C195.166 237.221 180.976 242.221 184.166 249.911C187.356 257.601 199.596 252.651 203.576 250.161C207.556 247.671 212.576 240.211 213.276 235.231C213.721 232.686 213.888 230.101 213.776 227.521C213.776 227.521 229.946 225.781 240.896 216.821C240.896 216.821 250.606 224.531 257.576 223.041C264.546 221.551 274.496 209.101 273.496 197.911C272.496 186.721 266.066 186.771 262.126 188.471Z" fill="#FFE19A"/>
<path opacity="0.5" d="M249.206 167.821C244.589 175.521 238.201 182.008 230.573 186.743C222.944 191.477 214.295 194.322 205.346 195.041C185.546 196.781 174.446 192.881 169.346 190.171C169.965 179.291 171.981 168.536 175.346 158.171C188.036 130.801 219.886 137.021 228.846 142.991C237.806 148.961 240.786 164.891 240.786 164.891C243.767 165.265 246.636 166.263 249.206 167.821ZM262.126 188.471C260.08 189.244 258.215 190.428 256.646 191.951C257.857 190.281 258.655 188.348 258.976 186.311C245.526 193.011 246.576 207.311 244.906 207.311C242.846 207.311 241.826 200.121 241.826 200.121C241.826 200.121 239.256 210.391 223.826 217.591C208.396 224.791 190.946 219.131 190.946 219.131C190.946 219.131 194.546 227.351 185.296 226.321C182.7 226.072 180.211 225.163 178.066 223.681C182.501 229.594 188.393 234.259 195.166 237.221C195.166 237.221 180.976 242.221 184.166 249.911C187.356 257.601 199.596 252.651 203.576 250.161C207.556 247.671 212.576 240.211 213.276 235.231C213.721 232.686 213.888 230.101 213.776 227.521C213.776 227.521 229.946 225.781 240.896 216.821C240.896 216.821 250.606 224.531 257.576 223.041C264.546 221.551 274.496 209.101 273.496 197.911C272.496 186.721 266.066 186.771 262.126 188.471Z" fill="white"/>
<path d="M213.845 227.581C208.479 227.724 203.15 226.634 198.27 224.396C193.39 222.158 189.089 218.831 185.695 214.671" stroke="#263238" stroke-width="1.1133" stroke-linecap="round" stroke-linejoin="round"/>
</g>
<path d="M175.276 158.151C175.276 158.151 165.566 186.271 170.796 208.151C172.345 214.554 175.352 220.512 179.583 225.561C183.813 230.611 189.153 234.615 195.186 237.261C195.186 237.261 180.996 242.261 184.186 249.951C187.376 257.641 199.606 252.691 203.596 250.201C207.586 247.711 212.596 240.251 213.296 235.271C213.741 232.727 213.908 230.141 213.796 227.561C213.796 227.561 229.966 225.821 240.916 216.861C240.916 216.861 250.626 224.571 257.596 223.081C264.566 221.591 274.516 209.141 273.516 197.951C272.516 186.761 266.066 186.771 262.126 188.471C260.081 189.244 258.215 190.429 256.646 191.951C256.646 191.951 262.366 184.951 256.646 175.281C254.958 172.444 252.646 170.029 249.886 168.219C247.126 166.408 243.99 165.25 240.716 164.831C240.716 164.831 237.716 148.901 228.776 142.931C219.836 136.961 187.966 130.781 175.276 158.151Z" stroke="#263238" stroke-width="1.1133" stroke-linecap="round" stroke-linejoin="round"/>
<path d="M256.646 191.991C256.646 191.991 251.426 195.481 248.936 206.181" stroke="#263238" stroke-width="1.1133" stroke-linecap="round" stroke-linejoin="round"/>
<path d="M266.236 196.571C265.626 198.391 263.956 199.481 262.516 198.991C261.076 198.501 260.416 196.631 261.026 194.811C261.636 192.991 263.306 191.901 264.746 192.391C266.186 192.881 266.856 194.751 266.236 196.571Z" fill="white" stroke="#263238" stroke-width="1.1133" stroke-linecap="round" stroke-linejoin="round"/>
<path d="M271.386 199.811C270.776 201.631 269.106 202.721 267.666 202.231C266.226 201.741 265.556 199.871 266.176 198.051C266.796 196.231 268.456 195.141 269.896 195.631C271.336 196.121 272.006 197.991 271.386 199.811Z" fill="white" stroke="#263238" stroke-width="1.1133" stroke-linecap="round" stroke-linejoin="round"/>
<path d="M272.485 204.661C272.286 204.996 271.995 205.267 271.648 205.443C271.3 205.62 270.91 205.694 270.522 205.657C270.134 205.62 269.764 205.474 269.456 205.235C269.147 204.997 268.913 204.676 268.78 204.309C268.647 203.943 268.621 203.546 268.704 203.166C268.787 202.785 268.977 202.436 269.251 202.158C269.524 201.881 269.871 201.687 270.251 201.599C270.631 201.511 271.028 201.533 271.395 201.661C271.927 201.927 272.336 202.386 272.538 202.944C272.741 203.502 272.722 204.117 272.485 204.661Z" fill="white" stroke="#263238" stroke-width="1.1133" stroke-linecap="round" stroke-linejoin="round"/>
<path d="M265.916 211.321C264.116 214.571 260.516 216.011 257.866 214.541C255.216 213.071 254.536 209.261 256.336 206.011C258.136 202.761 261.736 201.321 264.386 202.791C267.036 204.261 267.716 208.071 265.916 211.321Z" fill="white" stroke="#263238" stroke-width="1.1133" stroke-linecap="round" stroke-linejoin="round"/>
<path d="M195.186 237.28C198.538 238.841 202.348 239.108 205.886 238.03" stroke="#263238" stroke-width="1.1133" stroke-linecap="round" stroke-linejoin="round"/>
<path d="M184.235 249.971C184.235 249.971 185.235 245.741 191.445 242.761" stroke="#263238" stroke-width="1.1133" stroke-linecap="round" stroke-linejoin="round"/>
<path d="M190.456 253.711C190.456 253.711 192.946 247.711 197.176 245.001" stroke="#263238" stroke-width="1.1133" stroke-linecap="round" stroke-linejoin="round"/>
<path d="M92.3257 184.871C91.2679 184.027 90.4247 182.945 89.8651 181.712C89.3054 180.48 89.0452 179.133 89.1057 177.781V154.071H27.9457C26.4517 154.127 24.9633 153.859 23.5825 153.286C22.2017 152.713 20.9611 151.848 19.9457 150.751C17.9453 148.635 16.8477 145.823 16.8857 142.911C16.8776 140.545 17.5738 138.23 18.8857 136.261L77.4657 44.201C81.8657 37.4077 87.7124 34.011 95.0057 34.011C98.9268 33.8778 102.755 35.2194 105.736 37.771C108.596 40.271 110.026 43.9877 110.026 48.921V138.411H125.586C126.66 138.346 127.736 138.519 128.737 138.916C129.737 139.314 130.638 139.926 131.376 140.711C132.691 142.253 133.414 144.214 133.414 146.241C133.414 148.268 132.691 150.229 131.376 151.771C130.638 152.556 129.737 153.168 128.737 153.566C127.736 153.963 126.66 154.136 125.586 154.071H109.916V177.781C109.981 179.123 109.734 180.461 109.194 181.691C108.654 182.922 107.837 184.01 106.806 184.871C104.793 186.559 102.242 187.47 99.6157 187.441C96.9602 187.462 94.381 186.553 92.3257 184.871ZM89.0657 138.411V56.011L37.7757 138.411H89.0657Z" fill="#D3D4D5"/>
<path d="M177.196 185.351C171.201 182.735 165.893 178.768 161.686 173.761C157.46 168.47 154.16 162.503 151.926 156.111C149.394 149.206 147.613 142.048 146.616 134.761C145.575 126.827 145.074 118.832 145.116 110.831C145.116 58.1174 163.116 31.7607 199.116 31.7607C235.116 31.7607 253.072 58.1174 252.986 110.831C253.021 118.794 252.537 126.751 251.536 134.651C250.571 141.939 248.807 149.099 246.276 156.001C244.042 162.393 240.742 168.36 236.516 173.651C232.303 178.665 226.997 182.647 221.006 185.291C214.117 188.336 206.646 189.838 199.116 189.691C191.582 189.842 184.104 188.361 177.196 185.351ZM209.756 170.221C212.768 168.936 215.502 167.078 217.806 164.751C220.138 162.267 222.056 159.424 223.486 156.331C225.063 153.054 226.338 149.639 227.296 146.131C228.304 142.308 229.039 138.418 229.496 134.491C230.036 130.157 230.396 126.187 230.576 122.581C230.756 118.974 230.842 115.057 230.836 110.831C230.836 106.397 230.749 102.304 230.576 98.5507C230.402 94.7974 230.026 90.7707 229.446 86.4707C228.948 82.5462 228.196 78.6581 227.196 74.8307C226.249 71.3572 224.974 67.9819 223.386 64.7507C221.945 61.7064 220.024 58.914 217.696 56.4807C215.406 54.2002 212.687 52.3955 209.696 51.1707C202.858 48.531 195.283 48.531 188.446 51.1707C185.477 52.3808 182.778 54.1688 180.506 56.4307C178.195 58.8534 176.278 61.6238 174.826 64.6407C173.224 67.8428 171.963 71.2047 171.066 74.6707C170.089 78.5211 169.355 82.4287 168.866 86.3707C168.286 90.7307 167.909 94.7907 167.736 98.5507C167.562 102.311 167.472 106.404 167.466 110.831C167.466 115.051 167.556 118.984 167.736 122.631C167.916 126.277 168.272 130.277 168.806 134.631C169.267 138.557 170.002 142.447 171.006 146.271C171.95 149.778 173.212 153.192 174.776 156.471C176.19 159.545 178.091 162.371 180.406 164.841C182.692 167.153 185.41 168.994 188.406 170.261C195.25 173.047 202.912 173.047 209.756 170.261V170.221Z" fill="#D3D4D5"/>
<path d="M345.646 184.871C344.588 184.027 343.745 182.945 343.185 181.712C342.626 180.48 342.366 179.133 342.426 177.781V154.071H281.266C279.772 154.127 278.284 153.859 276.903 153.286C275.522 152.713 274.281 151.848 273.266 150.751C271.266 148.635 270.168 145.823 270.206 142.911C270.198 140.545 270.894 138.23 272.206 136.261L330.786 44.2011C335.146 37.4078 340.976 34.0111 348.276 34.0111C352.218 33.8627 356.07 35.2053 359.066 37.7711C361.926 40.2711 363.356 43.9878 363.356 48.9211V138.411H378.916C379.991 138.346 381.067 138.519 382.067 138.916C383.068 139.314 383.969 139.927 384.706 140.711C386.022 142.253 386.745 144.214 386.745 146.241C386.745 148.268 386.022 150.229 384.706 151.771C383.969 152.556 383.068 153.168 382.067 153.566C381.067 153.963 379.991 154.136 378.916 154.071H363.236V177.781C363.301 179.123 363.054 180.461 362.514 181.692C361.975 182.922 361.157 184.01 360.126 184.871C358.113 186.559 355.563 187.47 352.936 187.441C350.28 187.462 347.701 186.553 345.646 184.871ZM342.426 138.411V56.0111L291.136 138.411H342.426Z" fill="#D3D4D5"/>
<path d="M155.116 143.97C155.116 143.97 144.666 158.65 143.176 173.58C141.686 188.51 143.426 198.46 147.906 202.2C152.386 205.94 156.856 204.44 159.346 200.95C161.836 197.46 157.856 185.27 157.856 185.27C157.856 185.27 162.086 173.58 168.556 165.37C175.026 157.16 176.266 155.91 176.266 155.91C176.266 155.91 165.066 143.22 155.116 143.97Z" fill="white"/>
<mask id="mask3_9048_114811" style="mask-type:luminance" maskUnits="userSpaceOnUse" x="142" y="143" width="35" height="62">
<path d="M155.116 143.97C155.116 143.97 144.666 158.65 143.176 173.58C141.686 188.51 143.426 198.46 147.906 202.2C152.386 205.94 156.856 204.44 159.346 200.95C161.836 197.46 157.856 185.27 157.856 185.27C157.856 185.27 162.086 173.58 168.556 165.37C175.026 157.16 176.266 155.91 176.266 155.91C176.266 155.91 165.066 143.22 155.116 143.97Z" fill="white"/>
</mask>
<g mask="url(#mask3_9048_114811)">
<path d="M155.116 143.97C152.836 147.34 150.814 150.876 149.066 154.55C154.066 156.55 161.816 160.65 166.736 167.91C167.336 167.04 167.956 166.18 168.596 165.37C175.066 157.16 176.306 155.91 176.306 155.91C176.306 155.91 165.066 143.22 155.116 143.97Z" fill="#FFE19A"/>
<path opacity="0.5" d="M155.116 143.97C152.836 147.34 150.814 150.876 149.066 154.55C154.066 156.55 161.816 160.65 166.736 167.91C167.336 167.04 167.956 166.18 168.596 165.37C175.066 157.16 176.306 155.91 176.306 155.91C176.306 155.91 165.066 143.22 155.116 143.97Z" fill="white"/>
</g>
<path d="M155.116 143.97C155.116 143.97 144.666 158.65 143.176 173.58C141.686 188.51 143.426 198.46 147.906 202.2C152.386 205.94 156.856 204.44 159.346 200.95C161.836 197.46 157.856 185.27 157.856 185.27C157.856 185.27 162.086 173.58 168.556 165.37C175.026 157.16 176.266 155.91 176.266 155.91C176.266 155.91 165.066 143.22 155.116 143.97Z" stroke="#263238" stroke-width="1.1133" stroke-linecap="round" stroke-linejoin="round"/>
<path d="M147.905 202.201C146.683 198.939 146.09 195.474 146.155 191.991" stroke="#263238" stroke-width="1.1133" stroke-linecap="round" stroke-linejoin="round"/>
<path d="M154.616 203.691C154.616 203.691 152.136 199.461 151.886 192.241" stroke="#263238" stroke-width="1.1133" stroke-linecap="round" stroke-linejoin="round"/>
<path d="M158.356 170.591C158.356 167.971 153.356 162.851 146.406 160.591C145.471 163.027 144.7 165.522 144.096 168.061C146.796 168.523 149.418 169.361 151.886 170.551C155.616 172.581 158.356 173.581 158.356 170.591Z" fill="#FFE19A" stroke="#263238" stroke-width="1.1133" stroke-linecap="round" stroke-linejoin="round"/>
<path d="M154.505 144.86C152.893 147.318 151.411 149.858 150.065 152.47C152.17 153.027 154.188 153.868 156.065 154.97C163.775 159.44 165.265 159.97 162.785 153.47C161.285 149.39 157.705 146.62 154.505 144.86Z" fill="#FFE19A" stroke="#263238" stroke-width="1.1133" stroke-linecap="round" stroke-linejoin="round"/>
<path d="M236.966 136.721C236.966 136.721 248.806 150.301 251.756 165.021C254.706 179.741 253.956 189.811 249.856 193.961C245.756 198.111 241.166 197.071 238.346 193.841C235.526 190.611 238.346 178.101 238.346 178.101C238.346 178.101 232.986 166.871 225.746 159.331C218.506 151.791 217.136 150.681 217.136 150.681C217.136 150.681 226.986 136.951 236.966 136.721Z" fill="white"/>
<mask id="mask4_9048_114811" style="mask-type:luminance" maskUnits="userSpaceOnUse" x="217" y="136" width="37" height="61">
<path d="M236.966 136.721C236.966 136.721 248.806 150.301 251.756 165.021C254.706 179.741 253.956 189.811 249.856 193.961C245.756 198.111 241.166 197.071 238.346 193.841C235.526 190.611 238.346 178.101 238.346 178.101C238.346 178.101 232.986 166.871 225.746 159.331C218.506 151.791 217.136 150.681 217.136 150.681C217.136 150.681 226.986 136.951 236.966 136.721Z" fill="white"/>
</mask>
<g mask="url(#mask4_9048_114811)">
<path d="M236.966 136.721C226.966 136.951 217.086 150.721 217.086 150.721C217.086 150.721 218.446 151.841 225.696 159.371C227.052 160.799 228.327 162.301 229.516 163.871C233.3 157.479 238.706 152.201 245.186 148.571C242.801 144.386 240.051 140.42 236.966 136.721Z" fill="#FFE19A"/>
<path opacity="0.5" d="M236.966 136.721C226.966 136.951 217.086 150.721 217.086 150.721C217.086 150.721 218.446 151.841 225.696 159.371C227.052 160.799 228.327 162.301 229.516 163.871C233.3 157.479 238.706 152.201 245.186 148.571C242.801 144.386 240.051 140.42 236.966 136.721Z" fill="white"/>
</g>
<path d="M236.966 136.721C236.966 136.721 248.806 150.301 251.756 165.021C254.706 179.741 253.956 189.811 249.856 193.961C245.756 198.111 241.166 197.071 238.346 193.841C235.526 190.611 238.346 178.101 238.346 178.101C238.346 178.101 232.986 166.871 225.746 159.331C218.506 151.791 217.136 150.681 217.136 150.681C217.136 150.681 226.986 136.951 236.966 136.721Z" stroke="#263238" stroke-width="1.1133" stroke-linecap="round" stroke-linejoin="round"/>
<path d="M249.855 193.961C250.752 190.598 251.003 187.096 250.595 183.641" stroke="#263238" stroke-width="1.1133" stroke-linecap="round" stroke-linejoin="round"/>
<path d="M243.315 196.1C243.315 196.1 245.385 191.65 244.925 184.44" stroke="#263238" stroke-width="1.1133" stroke-linecap="round" stroke-linejoin="round"/>
<path d="M236.356 163.531C236.106 160.921 240.576 155.341 247.276 152.451C248.434 154.782 249.437 157.187 250.276 159.651C247.639 160.386 245.115 161.48 242.776 162.901C239.276 165.251 236.656 166.471 236.356 163.531Z" fill="#FFE19A" stroke="#263238" stroke-width="1.1133" stroke-linecap="round" stroke-linejoin="round"/>
<path d="M237.655 137.551C239.495 139.82 241.211 142.187 242.795 144.641C240.748 145.399 238.814 146.431 237.045 147.711C229.815 152.931 228.375 153.571 230.215 146.891C231.365 142.721 234.645 139.611 237.655 137.551Z" fill="#FFE19A" stroke="#263238" stroke-width="1.1133" stroke-linecap="round" stroke-linejoin="round"/>
<path d="M154.136 131.271C154.136 131.271 151.056 141.661 152.216 145.891C153.376 150.121 158.756 146.281 164.146 150.891C169.536 155.501 174.526 163.821 194.936 165.361C215.346 166.901 227.666 155.891 231.936 149.731C236.206 143.571 235.786 136.261 243.096 135.881C250.406 135.501 244.256 121.251 241.946 118.941C241.946 118.941 256.186 97.771 256.186 92.381C256.186 86.991 242.716 88.141 226.186 93.151C226.186 93.151 213.866 86.601 191.536 90.451C169.206 94.301 162.666 100.851 162.666 100.851C162.666 100.851 134.946 104.311 133.026 107.771C131.106 111.231 136.816 125.881 154.136 131.271Z" fill="white"/>
<mask id="mask5_9048_114811" style="mask-type:luminance" maskUnits="userSpaceOnUse" x="132" y="88" width="125" height="78">
<path d="M154.136 131.271C154.136 131.271 151.056 141.661 152.216 145.891C153.376 150.121 158.756 146.281 164.146 150.891C169.536 155.501 174.526 163.821 194.936 165.361C215.346 166.901 227.666 155.891 231.936 149.731C236.206 143.571 235.786 136.261 243.096 135.881C250.406 135.501 244.256 121.251 241.946 118.941C241.946 118.941 256.186 97.771 256.186 92.381C256.186 86.991 242.716 88.141 226.186 93.151C226.186 93.151 213.866 86.601 191.536 90.451C169.206 94.301 162.666 100.851 162.666 100.851C162.666 100.851 134.946 104.311 133.026 107.771C131.106 111.231 136.816 125.881 154.136 131.271Z" fill="white"/>
</mask>
<g mask="url(#mask5_9048_114811)">
<path d="M243.065 135.891C250.385 135.501 244.225 121.261 241.915 118.951C241.915 118.951 244.625 114.951 247.675 109.951C239.405 105.631 231.285 103.231 229.125 105.661C224.475 110.881 227.005 120.881 229.125 130.661C231.245 140.441 222.775 144.611 216.855 153.071C210.935 161.531 202.485 152.221 202.485 152.221C199.485 164.491 186.835 156.451 186.835 156.451C177.115 153.451 160.625 143.771 164.005 137.001C167.385 130.231 168.235 123.891 162.315 118.401C156.395 112.911 132.785 108.341 132.785 108.341C131.545 112.511 137.535 126.171 154.145 131.341C154.145 131.341 151.065 141.731 152.225 145.961C153.385 150.191 158.765 146.351 164.155 150.961C169.545 155.571 174.535 163.891 194.945 165.431C215.355 166.971 227.675 155.961 231.945 149.801C236.215 143.641 235.745 136.271 243.065 135.891Z" fill="#FFE19A"/>
<path opacity="0.5" d="M243.065 135.891C250.385 135.501 244.225 121.261 241.915 118.951C241.915 118.951 244.625 114.951 247.675 109.951C239.405 105.631 231.285 103.231 229.125 105.661C224.475 110.881 227.005 120.881 229.125 130.661C231.245 140.441 222.775 144.611 216.855 153.071C210.935 161.531 202.485 152.221 202.485 152.221C199.485 164.491 186.835 156.451 186.835 156.451C177.115 153.451 160.625 143.771 164.005 137.001C167.385 130.231 168.235 123.891 162.315 118.401C156.395 112.911 132.785 108.341 132.785 108.341C131.545 112.511 137.535 126.171 154.145 131.341C154.145 131.341 151.065 141.731 152.225 145.961C153.385 150.191 158.765 146.351 164.155 150.961C169.545 155.571 174.535 163.891 194.945 165.431C215.355 166.971 227.675 155.961 231.945 149.801C236.215 143.641 235.745 136.271 243.065 135.891Z" fill="white"/>
<path d="M212.955 138.211C213.245 140.651 207.825 143.281 200.875 144.091C193.925 144.901 188.045 143.581 187.755 141.091C187.465 138.601 192.885 136.031 199.845 135.221C206.805 134.411 212.675 135.781 212.955 138.211Z" fill="#FFE19A"/>
<path opacity="0.5" d="M212.955 138.211C213.245 140.651 207.825 143.281 200.875 144.091C193.925 144.901 188.045 143.581 187.755 141.091C187.465 138.601 192.885 136.031 199.845 135.221C206.805 134.411 212.675 135.781 212.955 138.211Z" fill="white"/>
</g>
<path d="M154.136 131.271C154.136 131.271 151.056 141.661 152.216 145.891C153.376 150.121 158.756 146.281 164.146 150.891C169.536 155.501 174.526 163.821 194.936 165.361C215.346 166.901 227.666 155.891 231.936 149.731C236.206 143.571 235.786 136.261 243.096 135.881C250.406 135.501 244.256 121.251 241.946 118.941C241.946 118.941 256.186 97.771 256.186 92.381C256.186 86.991 242.716 88.141 226.186 93.151C226.186 93.151 213.866 86.601 191.536 90.451C169.206 94.301 162.666 100.851 162.666 100.851C162.666 100.851 134.946 104.311 133.026 107.771C131.106 111.231 136.816 125.881 154.136 131.271Z" stroke="#263238" stroke-width="1.1133" stroke-miterlimit="10"/>
<path d="M233.756 100.471C223.756 107.191 227.286 113.911 231.756 117.641C234.486 119.921 238.886 119.641 241.896 119.001C241.896 119.001 256.136 97.8308 256.136 92.4408C256.146 92.3908 243.706 93.7008 233.756 100.471Z" fill="#FFE19A" stroke="#263238" stroke-width="1.1133" stroke-miterlimit="10"/>
<path d="M132.776 108.271C131.536 112.441 137.526 126.101 154.136 131.271C154.136 131.271 166.816 130.031 162.586 119.831C158.636 110.311 138.666 107.941 132.776 108.271Z" fill="#FFE19A" stroke="#263238" stroke-width="1.1133" stroke-miterlimit="10"/>
<path d="M191.475 90.4711C190.165 90.7011 188.905 90.9411 187.695 91.1811C189.695 101.281 192.985 118.101 195.925 118.101C198.865 118.101 201.115 99.6611 202.075 89.3311C198.521 89.4807 194.98 89.8615 191.475 90.4711Z" fill="#FFE19A" stroke="#263238" stroke-width="1.1133" stroke-miterlimit="10"/>
<path d="M180.006 115.101C183.066 113.301 182.606 99.7707 182.116 92.4307C178.957 93.2153 175.849 94.187 172.806 95.3407C173.916 102.211 176.736 117.021 180.006 115.101Z" fill="#FFE19A" stroke="#263238" stroke-width="1.1133" stroke-miterlimit="10"/>
<path d="M209.616 108.881C212.746 109.981 214.506 98.7308 215.496 90.0708C212.335 89.5555 209.139 89.2847 205.936 89.2607C205.836 96.3707 206.226 107.691 209.616 108.881Z" fill="#FFE19A" stroke="#263238" stroke-width="1.1133" stroke-miterlimit="10"/>
<path d="M205.426 147.821C202.506 147.053 199.402 147.436 196.756 148.891C196.64 148.958 196.541 149.051 196.468 149.163C196.394 149.275 196.348 149.402 196.332 149.536C196.316 149.669 196.332 149.803 196.378 149.929C196.424 150.055 196.498 150.169 196.596 150.261L201.906 155.261C202.005 155.354 202.126 155.422 202.257 155.46C202.388 155.497 202.526 155.503 202.66 155.477C202.794 155.45 202.92 155.393 203.027 155.308C203.134 155.224 203.219 155.115 203.276 154.991L205.996 148.991C206.044 148.877 206.068 148.755 206.065 148.631C206.062 148.508 206.033 148.386 205.979 148.275C205.924 148.164 205.847 148.066 205.752 147.988C205.656 147.909 205.545 147.852 205.426 147.821Z" fill="#FFE19A" stroke="#263238" stroke-width="1.1133" stroke-linecap="round" stroke-linejoin="round"/>
<path d="M192.805 139.47C193.535 141.4 193.245 143.3 192.155 143.71C191.065 144.12 189.585 142.9 188.845 140.98C188.105 139.06 188.405 137.15 189.495 136.74C190.585 136.33 192.065 137.55 192.805 139.47Z" fill="#263238"/>
<path d="M207.286 138.101C206.906 140.101 207.526 141.951 208.676 142.161C209.826 142.371 211.066 140.911 211.446 138.881C211.826 136.851 211.206 135.041 210.056 134.821C208.906 134.601 207.666 136.081 207.286 138.101Z" fill="#263238"/>
<path d="M203.276 154.981C203.276 154.981 196.176 164.621 189.706 154.921" stroke="#263238" stroke-width="1.1133" stroke-linecap="round" stroke-linejoin="round"/>
<path d="M201.905 155.25C201.905 155.25 206.625 160.14 211.605 157.4C216.585 154.66 213.605 150.4 213.605 150.4" stroke="#263238" stroke-width="1.1133" stroke-linecap="round" stroke-linejoin="round"/>
<path d="M180.256 131.771C180.256 131.771 181.996 125.551 190.206 127.041" stroke="#263238" stroke-width="3.33991" stroke-linecap="round" stroke-linejoin="round"/>
<path d="M205.136 126.05C205.136 126.05 211.356 122.32 217.076 128.29" stroke="#263238" stroke-width="3.33991" stroke-linecap="round" stroke-linejoin="round"/>
<path d="M175.525 148.451L181.495 149.941" stroke="#263238" stroke-width="1.1133" stroke-miterlimit="10" stroke-linecap="round"/>
<path d="M180.745 152.181L175.525 153.171" stroke="#263238" stroke-width="1.1133" stroke-miterlimit="10" stroke-linecap="round"/>
<path d="M181.746 154.921L178.016 156.911" stroke="#263238" stroke-width="1.1133" stroke-miterlimit="10" stroke-linecap="round"/>
<path d="M219.565 145.711L224.795 144.461" stroke="#263238" stroke-width="1.1133" stroke-miterlimit="10" stroke-linecap="round"/>
<path d="M220.565 148.201H224.045" stroke="#263238" stroke-width="1.1133" stroke-miterlimit="10" stroke-linecap="round"/>
<path d="M221.306 150.69L226.036 151.93" stroke="#263238" stroke-width="1.1133" stroke-miterlimit="10" stroke-linecap="round"/>
</svg>
