<svg version="1.1" xmlns="http://www.w3.org/2000/svg">
  <defs>
    <symbol id="marker" viewBox="0 0 30 30">
      <path d="M21.7537 20.3708C19.721 23.7223 17.3171 26.9143 15.846 28.7855C15.4373 29.3013 14.6998 29.3013 14.2911 28.7855C12.82 26.9143 10.4161 23.7223 8.38339 20.3708C7.36671 18.6946 6.45163 16.9927 5.79273 15.4063C5.1288 13.8078 4.75 12.385 4.75 11.25C4.75 5.44173 9.38345 0.75 15.0685 0.75C20.7536 0.75 25.3871 5.44173 25.3871 11.25C25.3871 12.385 25.0083 13.8078 24.3444 15.4063C23.6855 16.9927 22.7704 18.6946 21.7537 20.3708ZM10.629 11.25C10.629 13.721 12.6079 15.75 15.0685 15.75C17.5292 15.75 19.5081 13.721 19.5081 11.25C19.5081 8.77897 17.5292 6.75 15.0685 6.75C12.6079 6.75 10.629 8.77897 10.629 11.25Z"/>
    </symbol>
    <symbol id="data" viewBox="0 0 30 30">
      <path fill-rule="evenodd" clip-rule="evenodd" d="M15.5 6.25C15.5 5.83579 15.8358 5.5 16.25 5.5H26.25C26.6642 5.5 27 5.83579 27 6.25C27 6.66421 26.6642 7 26.25 7H16.25C15.8358 7 15.5 6.66421 15.5 6.25Z"/>
      <path fill-rule="evenodd" clip-rule="evenodd" d="M15.5 11.25C15.5 10.8358 15.8358 10.5 16.25 10.5H22.5C22.9142 10.5 23.25 10.8358 23.25 11.25C23.25 11.6642 22.9142 12 22.5 12H16.25C15.8358 12 15.5 11.6642 15.5 11.25Z"/>
      <path fill-rule="evenodd" clip-rule="evenodd" d="M15.5 18.75C15.5 18.3358 15.8358 18 16.25 18H26.25C26.6642 18 27 18.3358 27 18.75C27 19.1642 26.6642 19.5 26.25 19.5H16.25C15.8358 19.5 15.5 19.1642 15.5 18.75Z"/>
      <path fill-rule="evenodd" clip-rule="evenodd" d="M15.5 23.75C15.5 23.3358 15.8358 23 16.25 23H22.5C22.9142 23 23.25 23.3358 23.25 23.75C23.25 24.1642 22.9142 24.5 22.5 24.5H16.25C15.8358 24.5 15.5 24.1642 15.5 23.75Z"/>
      <path fill-rule="evenodd" clip-rule="evenodd" d="M5 5.75C4.72386 5.75 4.5 5.97386 4.5 6.25V11.25C4.5 11.5261 4.72386 11.75 5 11.75H10C10.2761 11.75 10.5 11.5261 10.5 11.25V6.25C10.5 5.97386 10.2761 5.75 10 5.75H5ZM3 6.25C3 5.14543 3.89543 4.25 5 4.25H10C11.1046 4.25 12 5.14543 12 6.25V11.25C12 12.3546 11.1046 13.25 10 13.25H5C3.89543 13.25 3 12.3546 3 11.25V6.25Z"/>
      <path fill-rule="evenodd" clip-rule="evenodd" d="M5 18.25C4.72386 18.25 4.5 18.4739 4.5 18.75V23.75C4.5 24.0261 4.72386 24.25 5 24.25H10C10.2761 24.25 10.5 24.0261 10.5 23.75V18.75C10.5 18.4739 10.2761 18.25 10 18.25H5ZM3 18.75C3 17.6454 3.89543 16.75 5 16.75H10C11.1046 16.75 12 17.6454 12 18.75V23.75C12 24.8546 11.1046 25.75 10 25.75H5C3.89543 25.75 3 24.8546 3 23.75V18.75Z"/>
    </symbol>
    <symbol id="activity" viewBox="0 0 30 30">
      <path fill-rule="evenodd" clip-rule="evenodd" d="M3.75 3C4.16421 3 4.5 3.33579 4.5 3.75V25.5H26.25C26.6642 25.5 27 25.8358 27 26.25C27 26.6642 26.6642 27 26.25 27H3.75C3.33579 27 3 26.6642 3 26.25V3.75C3 3.33579 3.33579 3 3.75 3Z"/>
      <path fill-rule="evenodd" clip-rule="evenodd" d="M11.25 9.5C10.2835 9.5 9.5 10.2835 9.5 11.25C9.5 12.2165 10.2835 13 11.25 13C12.2165 13 13 12.2165 13 11.25C13 10.2835 12.2165 9.5 11.25 9.5ZM8 11.25C8 9.45507 9.45507 8 11.25 8C13.0449 8 14.5 9.45507 14.5 11.25C14.5 13.0449 13.0449 14.5 11.25 14.5C9.45507 14.5 8 13.0449 8 11.25Z"/>
      <path fill-rule="evenodd" clip-rule="evenodd" d="M23.75 7C22.7835 7 22 7.7835 22 8.75C22 9.7165 22.7835 10.5 23.75 10.5C24.7165 10.5 25.5 9.7165 25.5 8.75C25.5 7.7835 24.7165 7 23.75 7ZM20.5 8.75C20.5 6.95507 21.9551 5.5 23.75 5.5C25.5449 5.5 27 6.95507 27 8.75C27 10.5449 25.5449 12 23.75 12C21.9551 12 20.5 10.5449 20.5 8.75Z"/>
      <path fill-rule="evenodd" clip-rule="evenodd" d="M17.5 17C16.5335 17 15.75 17.7835 15.75 18.75C15.75 19.7165 16.5335 20.5 17.5 20.5C18.4665 20.5 19.25 19.7165 19.25 18.75C19.25 17.7835 18.4665 17 17.5 17ZM14.25 18.75C14.25 16.9551 15.7051 15.5 17.5 15.5C19.2949 15.5 20.75 16.9551 20.75 18.75C20.75 20.5449 19.2949 22 17.5 22C15.7051 22 14.25 20.5449 14.25 18.75Z"/>
      <path fill-rule="evenodd" clip-rule="evenodd" d="M12.2271 12.6929C12.5485 12.4317 13.0209 12.4806 13.2821 12.8021L16.2071 16.4021C16.4683 16.7235 16.4194 17.1959 16.0979 17.4571C15.7765 17.7183 15.3041 17.6694 15.0429 17.3479L12.1179 13.7479C11.8567 13.4265 11.9056 12.9541 12.2271 12.6929Z"/>
      <path fill-rule="evenodd" clip-rule="evenodd" d="M22.8008 10.2897C23.1531 10.5076 23.262 10.9698 23.0441 11.3221L19.4978 17.0546C19.2799 17.4068 18.8177 17.5157 18.4654 17.2978C18.1132 17.0799 18.0043 16.6177 18.2222 16.2654L21.7684 10.5329C21.9863 10.1807 22.4486 10.0718 22.8008 10.2897Z"/>
    </symbol>
    <symbol id="collections" viewBox="0 0 30 30">
      <path fill-rule="evenodd" clip-rule="evenodd" d="M7.5 5.75C6.5335 5.75 5.75 6.5335 5.75 7.5V8.75C5.75 9.7165 6.5335 10.5 7.5 10.5H10C10.9665 10.5 11.75 9.7165 11.75 8.75V7.5C11.75 6.5335 10.9665 5.75 10 5.75H7.5ZM4.25 7.5C4.25 5.70507 5.70507 4.25 7.5 4.25H10C11.7949 4.25 13.25 5.70507 13.25 7.5V8.75C13.25 10.5449 11.7949 12 10 12H7.5C5.70507 12 4.25 10.5449 4.25 8.75V7.5Z"/>
      <path fill-rule="evenodd" clip-rule="evenodd" d="M7.5 17C6.5335 17 5.75 17.7835 5.75 18.75V22.5C5.75 23.4665 6.5335 24.25 7.5 24.25H10C10.9665 24.25 11.75 23.4665 11.75 22.5V18.75C11.75 17.7835 10.9665 17 10 17H7.5ZM4.25 18.75C4.25 16.9551 5.70507 15.5 7.5 15.5H10C11.7949 15.5 13.25 16.9551 13.25 18.75V22.5C13.25 24.2949 11.7949 25.75 10 25.75H7.5C5.70507 25.75 4.25 24.2949 4.25 22.5V18.75Z"/>
      <path fill-rule="evenodd" clip-rule="evenodd" d="M20 5.75C19.0335 5.75 18.25 6.5335 18.25 7.5V11.25C18.25 12.2165 19.0335 13 20 13H22.5C23.4665 13 24.25 12.2165 24.25 11.25V7.5C24.25 6.5335 23.4665 5.75 22.5 5.75H20ZM16.75 7.5C16.75 5.70507 18.2051 4.25 20 4.25H22.5C24.2949 4.25 25.75 5.70507 25.75 7.5V11.25C25.75 13.0449 24.2949 14.5 22.5 14.5H20C18.2051 14.5 16.75 13.0449 16.75 11.25V7.5Z"/>
      <path fill-rule="evenodd" clip-rule="evenodd" d="M20 19.5C19.0335 19.5 18.25 20.2835 18.25 21.25V22.5C18.25 23.4665 19.0335 24.25 20 24.25H22.5C23.4665 24.25 24.25 23.4665 24.25 22.5V21.25C24.25 20.2835 23.4665 19.5 22.5 19.5H20ZM16.75 21.25C16.75 19.4551 18.2051 18 20 18H22.5C24.2949 18 25.75 19.4551 25.75 21.25V22.5C25.75 24.2949 24.2949 25.75 22.5 25.75H20C18.2051 25.75 16.75 24.2949 16.75 22.5V21.25Z"/>
    </symbol>
    <symbol id="settings" viewBox="0 0 30 30">
      <path d="M24.8 12.2C24.6 12.1 24.4 12 24.2 11.9C24 11.8 23.9 11.6 23.8 11.4C23.7 11.2 23.7 11 23.7 10.8C23.7 10.6 23.8 10.4 23.9 10.2C24.6 9 24.4 7.6 23.5 6.6C22.5 5.6 21.1 5.5 19.9 6.2C19.7 6.3 19.5 6.4 19.3 6.4C19.1 6.4 18.9 6.4 18.7 6.3C18.5 6.2 18.3 6.1 18.2 5.9C18.1 5.7 18 5.5 17.9 5.3C17.5 3.9 16.4 3 15 3C13.6 3 12.5 3.9 12.2 5.2C12.1 5.7 11.8 6 11.4 6.2C10.9 6.4 10.5 6.3 10.1 6.1C8.9 5.4 7.5 5.5 6.5 6.5C5.5 7.5 5.4 8.9 6.1 10.1C6.2 10.3 6.3 10.5 6.3 10.7C6.3 10.9 6.3 11.1 6.2 11.3C6.1 11.6 6 11.7 5.8 11.9C5.6 12 5.4 12.1 5.2 12.2C3.9 12.5 3 13.6 3 15C3 16.4 3.9 17.5 5.2 17.8C5.4 17.9 5.6 18 5.8 18.1C6 18.2 6.1 18.4 6.2 18.6C6.3 18.8 6.3 19 6.3 19.2C6.3 19.4 6.2 19.6 6.1 19.8C5.4 21 5.6 22.4 6.5 23.4C7.5 24.4 8.9 24.5 10.1 23.8C10.3 23.7 10.5 23.6 10.7 23.6C10.9 23.6 11.1 23.6 11.3 23.7C11.5 23.8 11.7 23.9 11.8 24.1C11.9 24.3 12 24.5 12.1 24.7C12.5 26.1 13.6 27 15 27C16.4 27 17.5 26.1 17.8 24.8C17.9 24.6 18 24.4 18.1 24.2C18.2 24 18.4 23.9 18.6 23.8C18.8 23.7 19 23.7 19.2 23.7C19.4 23.7 19.6 23.8 19.8 23.9C21 24.6 22.4 24.4 23.4 23.5C24.4 22.5 24.5 21.1 23.8 19.9C23.7 19.7 23.6 19.5 23.6 19.3C23.6 19.1 23.6 18.9 23.7 18.7C23.8 18.5 23.9 18.3 24.1 18.2C24.3 18.1 24.5 18 24.7 17.9C26 17.6 26.9 16.4 26.9 15.1C26.9 13.8 26.1 12.5 24.8 12.2ZM24.4 16.4C24 16.5 23.5 16.7 23.2 17C22.9 17.3 22.6 17.7 22.4 18.1C22.2 18.5 22.2 19 22.2 19.4C22.2 19.9 22.4 20.3 22.6 20.7C23 21.4 22.8 22 22.4 22.4C22 22.8 21.4 23 20.7 22.6C20.3 22.4 19.9 22.2 19.4 22.2C18.9 22.2 18.5 22.2 18.1 22.4C17.7 22.6 17.3 22.8 17 23.2C16.7 23.5 16.5 24 16.4 24.4C16.2 25.2 15.6 25.5 15 25.5C14.5 25.5 13.8 25.2 13.6 24.4C13.5 24 13.3 23.5 13 23.2C12.7 22.9 12.3 22.6 11.9 22.4C11.5 22.3 11.2 22.2 10.8 22.2C10.7 22.2 10.7 22.2 10.6 22.2C10.1 22.2 9.7 22.4 9.3 22.6C8.6 23 8 22.8 7.6 22.4C7.2 22 7 21.4 7.4 20.7C7.6 20.3 7.8 19.9 7.8 19.4C7.8 18.9 7.8 18.5 7.6 18.1C7.4 17.7 7.2 17.3 6.8 17C6.4 16.7 6 16.5 5.6 16.4C4.8 16.2 4.5 15.6 4.5 15C4.5 14.4 4.8 13.8 5.6 13.6C6 13.5 6.4 13.3 6.8 13C7.1 12.7 7.4 12.3 7.6 11.9C7.7 11.5 7.8 11 7.8 10.6C7.8 10.1 7.6 9.7 7.4 9.3C6.9 8.6 7.2 8 7.6 7.6C8 7.2 8.6 7 9.3 7.4C10.1 7.9 11.1 8 11.9 7.6C12.8 7.2 13.4 6.5 13.6 5.6C13.8 4.8 14.4 4.5 15 4.5C15.5 4.5 16.2 4.8 16.4 5.6C16.5 6 16.7 6.4 17 6.8C17.3 7.1 17.7 7.4 18.1 7.6C18.5 7.8 19 7.8 19.4 7.8C19.9 7.8 20.3 7.6 20.7 7.4C21.4 7 22 7.2 22.4 7.6C22.8 8 23 8.6 22.6 9.3C22.4 9.7 22.2 10.1 22.2 10.6C22.2 11.1 22.2 11.5 22.4 11.9C22.6 12.3 22.8 12.7 23.2 13C23.5 13.3 24 13.5 24.4 13.6C25.2 13.8 25.5 14.4 25.5 15C25.5 15.6 25.2 16.2 24.4 16.4Z"/>
      <path d="M15 10.5C12.5 10.5 10.5 12.5 10.5 15C10.5 17.5 12.5 19.5 15 19.5C17.5 19.5 19.5 17.5 19.5 15C19.5 12.5 17.5 10.5 15 10.5ZM15 18C13.3 18 12 16.7 12 15C12 13.3 13.3 12 15 12C16.7 12 18 13.3 18 15C18 16.7 16.7 18 15 18Z"/>
    </symbol>
    <symbol id="login" viewBox="0 0 30 30">
      <path fill-rule="evenodd" clip-rule="evenodd" d="M22.7387 4.31648C22.1395 3.68717 21.3187 3.32635 20.4546 3.32635H11.8372C10.9731 3.32635 10.1523 3.68717 9.55303 4.31648C8.95498 4.94454 8.62504 5.78887 8.62504 6.66201V9.24768C8.62504 9.66189 8.96083 9.99768 9.37504 9.99768C9.78925 9.99768 10.125 9.66189 10.125 9.24768V6.66201C10.125 6.16364 10.3139 5.69262 10.6393 5.35087C10.9636 5.01036 11.3953 4.82635 11.8372 4.82635H20.4546C20.8965 4.82635 21.3282 5.01036 21.6524 5.35087C21.9778 5.69262 22.1667 6.16364 22.1667 6.66201V22.176C22.1667 22.6744 21.9778 23.1454 21.6524 23.4872C21.3282 23.8277 20.8965 24.0117 20.4546 24.0117H11.8372C11.3953 24.0117 10.9636 23.8277 10.6393 23.4872C10.3139 23.1454 10.125 22.6744 10.125 22.176V19.5904C10.125 19.1761 9.78925 18.8404 9.37504 18.8404C8.96083 18.8404 8.62504 19.1761 8.62504 19.5904V22.176C8.62504 23.0492 8.95498 23.8935 9.55303 24.5216C10.1523 25.1509 10.9731 25.5117 11.8372 25.5117H20.4546C21.3187 25.5117 22.1395 25.1509 22.7387 24.5216C23.3368 23.8935 23.6667 23.0492 23.6667 22.176V6.66201C23.6667 5.78887 23.3368 4.94454 22.7387 4.31648Z"/>
      <path fill-rule="evenodd" clip-rule="evenodd" d="M13.6098 9.71656C13.2976 9.98871 13.2651 10.4625 13.5372 10.7747L16.0598 13.669H2.08337C1.66916 13.669 1.33337 14.0048 1.33337 14.419C1.33337 14.8332 1.66916 15.169 2.08337 15.169H16.0598L13.5372 18.0633C13.2651 18.3756 13.2976 18.8493 13.6098 19.1215C13.9221 19.3936 14.3958 19.3611 14.668 19.0489L18.2738 14.9118C18.5199 14.6294 18.5199 14.2086 18.2738 13.9262L14.668 9.78917C14.3958 9.47691 13.9221 9.4444 13.6098 9.71656Z"/>
    </symbol>
    <symbol id="signup" viewBox="0 0 32 32">
      <path d="M11.8 15.2C15.2 15.2 17.9 12.5 17.9 9.1C17.9 5.7 15.1 3 11.8 3C8.4 3 5.7 5.7 5.7 9.1C5.7 12.5 8.4 15.2 11.8 15.2ZM11.8 4.5C14.3 4.5 16.4 6.6 16.4 9.1C16.4 11.6 14.3 13.7 11.8 13.7C9.3 13.7 7.2 11.6 7.2 9.1C7.2 6.6 9.2 4.5 11.8 4.5ZM18.7 20.8C19.8 21.9 20.5 23.5 20.5 25.1V27.8C20.5 28.2 20.2 28.6 19.7 28.6C19.2 28.6 19 28.2 19 27.8V25.1C19 23.9 18.5 22.7 17.7 21.9C16.8 21 15.7 20.6 14.5 20.6H9.1C7.9 20.6 6.7 21.1 5.9 21.9C5 22.8 4.6 23.9 4.6 25.1V27.8C4.6 28.2 4.3 28.6 3.8 28.6C3.3 28.6 3 28.2 3 27.8V25.1C3 23.5 3.6 21.9 4.8 20.8C5.9 19.6 7.5 19 9.1 19H14.4C16 19 17.6 19.6 18.7 20.8ZM29.8 14.4C29.8 14.8 29.5 15.2 29 15.2H25.8V18.4C25.8 18.8 25.5 19.2 25 19.2C24.5 19.2 24.2 18.9 24.2 18.4V15.2H21C20.6 15.2 20.2 14.9 20.2 14.4C20.2 13.9 20.5 13.6 21 13.6H24.2V10.4C24.2 10 24.5 9.6 25 9.6C25.5 9.6 25.8 9.9 25.8 10.4V13.6H29C29.5 13.7 29.8 14 29.8 14.4Z" />
    </symbol>
    <symbol id="logout" viewBox="0 0 32 32">
      <path d="M9.154 5h9.692c.571 0 1.12.232 1.523.644.404.413.631.973.631 1.556v1.1c0 .292-.113.572-.315.778a1.066 1.066 0 0 1-.762.322c-.285 0-.56-.116-.761-.322a1.112 1.112 0 0 1-.316-.778V7.2H9.154v17.6h9.692v-1.1c0-.292.114-.572.316-.778a1.065 1.065 0 0 1 1.523 0c.202.206.315.486.315.778v1.1c0 .584-.227 1.143-.63 1.556a2.131 2.131 0 0 1-1.524.644H9.154c-.571 0-1.12-.232-1.523-.644A2.224 2.224 0 0 1 7 24.8V7.2c0-.583.227-1.143.63-1.556A2.131 2.131 0 0 1 9.155 5Z"/>
      <path d="M21.34 20.68a1.049 1.049 0 0 0 1.508 0l3.839-3.925a1.112 1.112 0 0 0 0-1.547l-3.839-3.926a1.055 1.055 0 0 0-1.472.038 1.108 1.108 0 0 0-.037 1.506l2.007 2.061H14.07a1.06 1.06 0 0 0-.757.32 1.112 1.112 0 0 0 0 1.548c.201.205.473.32.757.32h9.276l-2.008 2.061c-.2.205-.311.483-.311.772 0 .29.113.567.313.772Z"/>
    </symbol>
  </defs>
</svg>
