<svg width="294" height="304" viewBox="0 0 294 304" fill="none" xmlns="http://www.w3.org/2000/svg">
<path d="M130.069 114.793L114.356 143.715L76.2572 122.331L87.9324 100.867L91.997 93.4267L99.2362 97.5043L130.069 114.793Z" fill="#EBEBEB"/>
<path d="M84.1777 123.357L97.3352 99.5545L98.3099 100.115L85.1975 123.91L84.1777 123.357Z" fill="#DBDBDB"/>
<path d="M86.6409 124.721L99.7532 100.927L100.745 101.461L87.6156 125.282L86.6409 124.721Z" fill="#DBDBDB"/>
<path d="M89.0579 126.093L102.188 102.272L103.19 102.851L90.0501 126.627L89.0579 126.093Z" fill="#DBDBDB"/>
<path d="M91.4928 127.438L104.604 103.644L105.624 104.196L92.4951 128.017L91.4928 127.438Z" fill="#DBDBDB"/>
<path d="M93.9104 128.81L107.04 104.989L108.059 105.542L94.9302 129.362L93.9104 128.81Z" fill="#DBDBDB"/>
<path d="M96.3436 130.155L109.501 106.352L110.476 106.913L97.3634 130.708L96.3436 130.155Z" fill="#DBDBDB"/>
<path d="M98.8065 131.518L111.919 107.724L112.911 108.258L99.7812 132.079L98.8065 131.518Z" fill="#DBDBDB"/>
<path d="M101.224 132.891L114.354 109.07L115.374 109.622L102.216 133.425L101.224 132.891Z" fill="#DBDBDB"/>
<path d="M103.659 134.236L116.788 110.415L117.79 110.994L104.661 134.815L103.659 134.236Z" fill="#DBDBDB"/>
<path d="M106.076 135.607L119.205 111.786L120.225 112.339L107.096 136.159L106.076 135.607Z" fill="#DBDBDB"/>
<path d="M108.51 136.953L121.667 113.15L122.642 113.711L109.529 137.505L108.51 136.953Z" fill="#DBDBDB"/>
<path d="M110.972 138.316L124.085 114.521L125.077 115.056L111.947 138.877L110.972 138.316Z" fill="#DBDBDB"/>
<path d="M147.878 118.7L119.541 135.645L96.3527 98.7233L117.4 86.1507L129.109 88.8306L147.878 118.7Z" fill="#EBEBEB"/>
<path d="M117.874 86.0526L129.559 88.7289L122.302 93.0699L117.874 86.0526Z" fill="#DBDBDB"/>
<path d="M103.219 103.362L119.113 93.9079L119.7 94.8607L103.807 104.315L103.219 103.362Z" fill="#DBDBDB"/>
<path d="M104.649 105.762L120.56 96.2809L121.148 97.2337L105.237 106.714L104.649 105.762Z" fill="#DBDBDB"/>
<path d="M106.098 108.136L121.99 98.6815L122.622 99.6259L106.685 109.088L106.098 108.136Z" fill="#DBDBDB"/>
<path d="M107.546 110.465L130.85 96.6035L131.465 97.5744L108.133 111.418L107.546 110.465Z" fill="#DBDBDB"/>
<path d="M108.976 112.865L132.298 98.9775L132.912 99.9484L109.608 113.81L108.976 112.865Z" fill="#DBDBDB"/>
<path d="M110.424 115.239L133.728 101.378L134.36 102.322L111.038 116.21L110.424 115.239Z" fill="#DBDBDB"/>
<path d="M111.871 117.613L135.203 103.77L135.791 104.723L112.486 118.584L111.871 117.613Z" fill="#DBDBDB"/>
<path d="M113.302 120.012L136.651 106.143L137.239 107.096L113.934 120.957L113.302 120.012Z" fill="#DBDBDB"/>
<path d="M114.776 122.404L138.099 108.516L138.686 109.469L115.363 123.357L114.776 122.404Z" fill="#DBDBDB"/>
<path d="M116.224 124.778L139.53 110.917L140.134 111.843L116.812 125.731L116.224 124.778Z" fill="#DBDBDB"/>
<path d="M117.672 127.152L140.977 113.291L141.565 114.244L118.259 128.105L117.672 127.152Z" fill="#DBDBDB"/>
<path d="M119.103 129.552L142.425 115.664L143.013 116.617L119.708 130.478L119.103 129.552Z" fill="#DBDBDB"/>
<path d="M149.724 121.038L122.317 93.753L91.0062 124.691L118.396 152.003L149.724 121.038Z" fill="#FFC235"/>
<path d="M124.27 130.874L142.114 113.28L121.852 110.789L124.27 130.874Z" fill="#FFC235"/>
<g opacity="0.3">
<path d="M124.27 130.874L142.114 113.28L121.852 110.789L124.27 130.874Z" fill="white"/>
</g>
<path d="M115.29 139.699L131.175 124.029L115.814 124.505L115.29 139.699Z" fill="#FFC235"/>
<g opacity="0.5">
<path d="M115.29 139.699L131.175 124.029L115.814 124.505L115.29 139.699Z" fill="white"/>
</g>
<path d="M149.628 120.879L118.021 151.982L110.245 144.26L141.862 113.202L149.628 120.879Z" fill="#FFC235"/>
<g opacity="0.5">
<path d="M149.628 120.879L118.021 151.982L110.245 144.26L141.862 113.202L149.628 120.879Z" fill="white"/>
</g>
<path opacity="0.9" d="M107.806 130.667C109.849 129.312 109.784 126.376 107.734 124.945C106.586 124.149 105.015 124.125 103.898 124.889C101.871 126.217 101.892 129.162 103.987 130.584C105.134 131.38 106.689 131.431 107.806 130.667Z" fill="white"/>
<path d="M83.5738 181.619C83.4974 181.379 83.433 181.136 83.3807 180.89L82.6683 181.069C82.7207 181.314 82.7851 181.557 82.8615 181.798L83.5738 181.619Z" fill="#E2E2E3"/>
<path d="M88.2112 139.445L87.5699 139.039C87.3581 139.437 87.1251 139.852 86.8711 140.283L87.5046 140.653C87.735 140.226 87.9705 139.824 88.2112 139.445ZM86.8491 141.927L86.18 141.564C85.9681 141.962 85.7614 142.385 85.5599 142.831L86.229 143.194C86.4305 142.748 86.6372 142.325 86.8491 141.927ZM85.609 144.461L84.9553 144.172C84.7723 144.589 84.5919 145.019 84.4141 145.461L85.0754 145.787C85.2533 145.345 85.4311 144.903 85.609 144.461ZM84.5775 147.106L83.8883 146.824C83.7342 147.261 83.5708 147.713 83.3981 148.179L84.1227 148.455C84.2717 147.993 84.4233 147.544 84.5775 147.106ZM83.668 149.804L82.9866 149.557C82.8377 150.019 82.7005 150.479 82.5752 150.936L83.2921 151.175C83.4122 150.693 83.5376 150.236 83.668 149.804ZM82.9162 152.546L82.207 152.343C82.1054 152.796 81.9945 153.262 81.8744 153.744L82.6191 153.939C82.7155 153.463 82.8146 152.998 82.9162 152.546ZM82.3219 155.333L81.6205 155.167C81.5241 155.644 81.4395 156.118 81.3667 156.59L82.0603 156.719C82.1568 156.243 82.244 155.78 82.3219 155.333ZM81.8775 158.128L81.1561 158.043C81.107 158.51 81.0486 158.992 80.981 159.488L81.7025 159.574C81.7464 159.082 81.8048 158.6 81.8775 158.128ZM81.5985 161.005L80.877 160.92C80.8279 161.387 80.7933 161.864 80.773 162.351L81.4944 162.437C81.5147 161.95 81.5494 161.473 81.5985 161.005ZM81.4615 163.854L80.7123 163.812C80.7157 164.295 80.7191 164.777 80.7226 165.259L81.4363 165.308C81.4328 164.826 81.4412 164.341 81.4615 163.854ZM81.4743 166.712L80.7406 166.743C80.7678 167.22 80.7949 167.698 80.822 168.176L81.5557 168.144C81.5286 167.667 81.5015 167.189 81.4743 166.712ZM81.637 169.577L80.9111 169.645C80.9619 170.118 81.0153 170.603 81.0712 171.1L81.7972 171.033C81.7412 170.535 81.6878 170.05 81.637 169.577ZM81.9496 172.451L81.2236 172.519C81.3033 173.012 81.3803 173.492 81.4548 173.96L82.173 173.856C82.0985 173.388 82.0241 172.92 81.9496 172.451ZM83.3742 179.528C83.2472 179.045 83.1228 178.574 83.0009 178.115L82.2905 178.256C82.4175 178.739 82.5419 179.21 82.6638 179.669L83.3742 179.528ZM82.412 175.334L81.6938 175.438C81.7971 175.926 81.8978 176.402 81.996 176.865L82.7064 176.724C82.6083 176.261 82.5101 175.797 82.412 175.334Z" fill="#E2E2E3"/>
<path d="M89.7513 137.65L89.1293 137.198C88.9979 137.402 88.8665 137.607 88.7351 137.812L89.3493 138.228C89.4807 138.023 89.6146 137.83 89.7513 137.65Z" fill="#E2E2E3"/>
<path d="M85.128 139.743L85.5566 140.347L89.4778 137.544L88.2999 142.292L89.012 142.458L90.6399 135.745L85.128 139.743Z" fill="#E2E2E3"/>
<path d="M140.658 95.765L140.852 96.4961C140.88 96.4521 141.097 96.4096 141.566 96.3176L141.407 95.5794C140.902 95.6785 140.658 95.765 140.658 95.765Z" fill="#E2E2E3"/>
<path d="M143.011 95.8263C143.452 95.7655 143.944 95.7075 144.487 95.6525L144.4 94.8941C143.833 94.9539 143.329 95.0142 142.887 95.0751L143.011 95.8263ZM145.98 95.5531C146.426 95.517 146.914 95.4987 147.444 95.498L147.43 94.7254C146.881 94.7556 146.369 94.7787 145.893 94.7947L145.98 95.5531ZM148.96 95.5102C149.436 95.4942 149.93 95.5006 150.44 95.5295L150.47 94.787C149.935 94.7628 149.427 94.7464 148.946 94.7376L148.96 95.5102ZM151.944 95.6605C152.431 95.6941 152.92 95.7401 153.412 95.7986L153.478 95.0489C152.957 94.9704 152.453 94.9143 151.966 94.8807L151.944 95.6605ZM154.932 96.0039C155.4 96.0671 155.882 96.1403 156.379 96.2235L156.482 95.4667C155.985 95.3835 155.49 95.3126 154.998 95.2542L154.932 96.0039ZM157.871 96.4732C158.349 96.586 158.84 96.6964 159.342 96.8045L159.481 96.0405C158.979 95.9325 158.479 95.8368 157.982 95.7536L157.871 96.4732ZM160.814 97.1357C161.292 97.2485 161.773 97.3737 162.257 97.5113L162.44 96.7774C161.932 96.6446 161.439 96.5217 160.961 96.4089L160.814 97.1357ZM163.708 97.9241C164.172 98.0912 164.649 98.256 165.138 98.4184L165.358 97.6773C164.869 97.5149 164.382 97.365 163.899 97.2274L163.708 97.9241ZM166.561 98.8755C167.026 99.0427 167.493 99.2222 167.963 99.4142L168.191 98.7104C167.72 98.5184 167.253 98.3388 166.788 98.1717L166.561 98.8755ZM169.337 99.9971C169.807 100.189 170.268 100.396 170.719 100.617L171.027 99.9365C170.552 99.7197 170.091 99.513 169.645 99.3163L169.337 99.9971ZM172.064 101.245C172.516 101.466 172.967 101.688 173.418 101.909L173.726 101.228C173.275 101.007 172.824 100.785 172.372 100.564L172.064 101.245ZM174.743 102.618C175.175 102.869 175.62 103.118 176.076 103.364L176.429 102.713C175.967 102.442 175.523 102.194 175.096 101.967L174.743 102.618Z" fill="#E2E2E3"/>
<path d="M177.304 103.898C177.51 104.037 177.712 104.164 177.912 104.279L178.306 103.663C178.077 103.528 177.86 103.392 177.654 103.252L177.304 103.898Z" fill="#E2E2E3"/>
<path d="M175.432 99.7199L174.887 100.173L178.037 104.006L173.239 103.071L173.134 103.822L179.898 105.137L175.432 99.7199Z" fill="#E2E2E3"/>
<path fill-rule="evenodd" clip-rule="evenodd" d="M294 114.232V294.745C294 299.729 290.043 303.763 285.134 303.763H197.465C192.557 303.763 188.561 299.729 188.561 294.745V114.232C188.561 109.209 192.557 105.176 197.465 105.176H285.134C290.043 105.176 294 109.209 294 114.232ZM288.483 121.043C288.483 112.215 284.906 110.921 280.53 110.921H264.815C263.864 110.921 263.141 111.949 263.141 113.243V113.775C263.141 116.819 261.505 116.819 259.45 116.819H223.111C221.095 116.819 219.458 116.819 219.458 113.775V113.243C219.458 111.949 218.697 110.921 217.784 110.921H202.069C197.693 110.921 194.117 111.378 194.117 121.043V289.151C194.117 293.907 197.693 297.751 202.069 297.751H280.53C284.906 297.751 288.483 293.907 288.483 289.151V121.043Z" fill="#383E45"/>
<path d="M246.246 113.053H236.353C236.011 113.053 235.744 112.786 235.744 112.444C235.744 112.101 236.011 111.835 236.353 111.835H246.246C246.589 111.835 246.855 112.101 246.855 112.444C246.855 112.786 246.589 113.053 246.246 113.053Z" fill="#263238"/>
<path d="M288.483 121.043V289.152C288.483 293.908 284.906 297.751 280.53 297.751H202.069C197.694 297.751 194.117 293.908 194.117 289.152V121.043C194.117 111.378 197.694 110.922 202.069 110.922H217.784C218.698 110.922 219.459 111.949 219.459 113.243V113.776C219.459 116.82 221.095 116.82 223.112 116.82H259.45C261.505 116.82 263.141 116.82 263.141 113.776V113.243C263.141 111.949 263.864 110.922 264.815 110.922H280.53C284.906 110.922 288.483 112.216 288.483 121.043Z" fill="white"/>
<path d="M288.483 121.043V133.6H194.117V121.043C194.117 111.378 197.694 110.922 202.069 110.922H217.784C218.698 110.922 219.459 111.949 219.459 113.243V113.776C219.459 116.82 221.095 116.82 223.112 116.82H259.45C261.505 116.82 263.141 116.82 263.141 113.776V113.243C263.141 111.949 263.864 110.922 264.815 110.922H280.53C284.906 110.922 288.483 112.216 288.483 121.043Z" fill="#FFC235"/>
<path d="M215.083 114.689C215.032 114.74 214.981 114.79 214.93 114.841C214.905 114.866 214.88 114.892 214.854 114.917C214.436 114.537 213.941 114.308 213.37 114.308C212.8 114.308 212.305 114.537 211.924 114.917C211.899 114.892 211.874 114.866 211.848 114.841C211.798 114.79 211.747 114.74 211.696 114.689C211.747 114.613 211.81 114.549 211.886 114.499C212.013 114.397 212.153 114.308 212.305 114.232C212.508 114.131 212.711 114.067 212.914 114.042C213.015 114.017 213.117 113.991 213.218 113.966C213.256 113.966 213.447 113.966 213.447 113.966C213.523 113.991 213.599 114.004 213.675 114.004C213.852 114.029 214.03 114.067 214.208 114.118C214.334 114.169 214.461 114.232 214.588 114.308C214.689 114.359 214.804 114.435 214.93 114.537C214.981 114.587 215.032 114.638 215.083 114.689Z" fill="white"/>
<path d="M212.381 115.412C212.305 115.336 212.229 115.247 212.153 115.146C212.432 114.892 212.762 114.74 213.142 114.689C213.713 114.613 214.169 114.765 214.588 115.146C214.512 115.247 214.436 115.336 214.36 115.412C214.081 115.133 213.751 114.993 213.37 114.993C212.99 114.993 212.66 115.133 212.381 115.412Z" fill="white"/>
<path d="M214.131 115.641C214.055 115.717 213.967 115.793 213.865 115.869C213.738 115.742 213.573 115.679 213.37 115.679C213.168 115.679 213.003 115.742 212.876 115.869C212.8 115.793 212.724 115.717 212.647 115.641C213.028 115.26 213.713 115.222 214.131 115.641Z" fill="white"/>
<path d="M213.599 116.097C213.599 116.212 213.485 116.326 213.37 116.326C213.256 116.326 213.18 116.212 213.18 116.097C213.18 115.983 213.256 115.869 213.37 115.869C213.485 115.869 213.599 115.983 213.599 116.097Z" fill="white"/>
<path d="M200.281 115.146C200.281 114.803 200.547 114.537 200.89 114.537C201.232 114.537 201.537 114.803 201.537 115.146C201.537 115.488 201.232 115.755 200.89 115.755C200.547 115.755 200.281 115.488 200.281 115.146Z" fill="white"/>
<path d="M202.26 115.146C202.26 114.803 202.526 114.537 202.868 114.537C203.211 114.537 203.477 114.803 203.477 115.146C203.477 115.488 203.211 115.755 202.868 115.755C202.526 115.755 202.26 115.488 202.26 115.146Z" fill="white"/>
<path d="M204.2 115.146C204.2 114.803 204.505 114.537 204.847 114.537C205.19 114.537 205.456 114.803 205.456 115.146C205.456 115.488 205.19 115.755 204.847 115.755C204.505 115.755 204.2 115.488 204.2 115.146Z" fill="white"/>
<path d="M206.179 115.146C206.179 114.803 206.445 114.537 206.788 114.537C207.168 114.537 207.435 114.803 207.435 115.146C207.435 115.488 207.168 115.755 206.788 115.755C206.445 115.755 206.179 115.488 206.179 115.146Z" fill="white"/>
<path d="M208.157 115.146C208.157 114.803 208.424 114.537 208.766 114.537C209.109 114.537 209.413 114.803 209.413 115.146C209.413 115.488 209.109 115.755 208.766 115.755C208.424 115.755 208.157 115.488 208.157 115.146Z" fill="white"/>
<path fill-rule="evenodd" clip-rule="evenodd" d="M281.405 116.515H276.306V114.156H281.405V116.515ZM276.573 116.249H281.139V114.423H276.573V116.249Z" fill="white"/>
<path d="M279.997 114.537H276.725V116.097H279.997V114.537Z" fill="white"/>
<path d="M281.862 115.945H281.405V114.689H281.862V115.945Z" fill="white"/>
<path d="M224.748 192.883L219.839 188.088C228.477 179.261 241.871 176.787 253.134 181.886C262.57 186.186 269.115 195.242 270.256 205.592L263.445 206.315C262.57 198.4 257.547 191.437 250.28 188.126C241.642 184.207 231.369 186.11 224.748 192.883Z" fill="#FFC235"/>
<path d="M257.091 201.977L264.663 219.556L276.078 204.222L257.091 201.977Z" fill="#FFC235"/>
<g opacity="0.2">
<path d="M224.748 192.883L219.839 188.088C228.477 179.261 241.871 176.787 253.134 181.886C262.57 186.186 269.115 195.242 270.256 205.592L263.445 206.315C262.57 198.4 257.547 191.437 250.28 188.126C241.642 184.207 231.369 186.11 224.748 192.883Z" fill="black"/>
<path d="M257.091 201.977L264.663 219.556L276.078 204.222L257.091 201.977Z" fill="black"/>
</g>
<path d="M229.466 234.092C220.03 229.792 213.485 220.736 212.343 210.424L219.154 209.663C220.029 217.578 225.052 224.541 232.32 227.851C241.414 231.999 252.297 229.602 258.803 222.03L264.016 226.52C255.531 236.337 241.3 239.457 229.466 234.092Z" fill="#FFC235"/>
<path d="M225.509 214.001L217.936 196.46L206.521 211.794L225.509 214.001Z" fill="#FFC235"/>
<path d="M1.3897 276.518C3.10198 277.165 53.1768 278.687 55.1173 277.546C55.3076 277.431 56.6394 270.05 57.2862 264.342C57.2862 264.266 58.6561 263.353 60.7489 261.983C67.3316 257.645 80.9918 248.893 80.9918 248.893L55.7262 227.547L31.8683 251.671L30.7268 252.813L25.6661 257.949C25.6661 257.949 5.34697 267.919 3.33028 269.403C1.35164 270.887 -0.360635 275.871 1.3897 276.518Z" fill="#D3766A"/>
<path d="M1.3897 276.518C3.10198 277.165 53.1768 278.687 55.1173 277.545C55.3076 277.431 56.6394 270.05 57.2862 264.342C57.2862 264.266 58.6561 263.353 60.7489 261.983L30.7268 252.812L25.6661 257.949C25.6661 257.949 5.34697 267.919 3.33028 269.403C1.35164 270.887 -0.360635 275.871 1.3897 276.518Z" fill="white"/>
<path d="M0.742921 276.557C2.53131 277.203 53.6715 278.535 55.6502 277.356C56.4112 276.937 56.7917 273.322 57.2863 264.342L24.7529 258.482C24.7529 258.482 4.73825 267.767 2.72156 269.289C0.704875 270.849 -1.04546 275.948 0.742921 276.557Z" fill="#FFC235"/>
<path opacity="0.1" d="M6.64087 277.013C20.5294 277.66 54.0521 278.307 55.6502 277.356C56.3732 276.937 56.7917 273.322 57.2864 264.342L37.5 260.766C30.9553 264.076 14.4413 272.866 6.64087 277.013Z" fill="black"/>
<path d="M1.54186 274.539C10.1033 274.577 44.6914 275.414 53.1767 276.099C53.2528 276.099 53.2528 276.137 53.1767 276.137C44.6914 276.327 10.1033 275.186 1.54186 274.691C1.35161 274.691 1.35161 274.539 1.54186 274.539Z" fill="#263238"/>
<path d="M6.03183 267.538C8.08657 267.5 10.0272 268.527 11.1306 269.783C12.158 270.963 13.0332 272.637 12.919 274.387C12.919 274.463 12.8049 274.463 12.8049 274.387C12.4244 271.039 9.4564 267.995 6.03183 267.652C5.99378 267.652 5.99378 267.538 6.03183 267.538Z" fill="#263238"/>
<path d="M21.214 260.271C24.6386 260.347 28.5958 261.64 30.6506 264.494C30.7267 264.608 30.5745 264.722 30.4603 264.684C27.4163 263.01 24.4863 261.716 21.1379 260.727C20.9096 260.651 20.9476 260.271 21.214 260.271Z" fill="#263238"/>
<path d="M18.5507 261.26C21.9752 261.298 25.8945 262.592 27.9873 265.483C28.0634 265.598 27.8731 265.712 27.797 265.636C24.7149 263.961 21.823 262.706 18.4746 261.678C18.2082 261.602 18.2843 261.26 18.5507 261.26Z" fill="#263238"/>
<path d="M15.8489 262.211C19.2735 262.249 23.2307 263.581 25.2855 266.435C25.3616 266.549 25.2094 266.663 25.1333 266.587C22.0512 264.913 19.1213 263.657 15.7728 262.63C15.5445 262.553 15.6206 262.211 15.8489 262.211Z" fill="#263238"/>
<path d="M13.1853 263.162C16.6099 263.238 20.5671 264.532 22.6219 267.386C22.698 267.5 22.5458 267.614 22.4316 267.576C19.3876 265.902 16.4577 264.608 13.1092 263.619C12.8809 263.543 12.9189 263.162 13.1853 263.162Z" fill="#263238"/>
<path d="M51.198 267.881C55.0791 267.995 54.8889 273.969 51.0458 273.854C47.2027 273.74 47.3548 267.766 51.198 267.881Z" fill="white"/>
<path fill-rule="evenodd" clip-rule="evenodd" d="M17.7516 251.024C19.5019 249.654 21.6708 251.1 22.6982 252.622C24.3724 255.096 25.4759 258.52 25.59 261.488C25.59 261.564 25.5139 261.602 25.4759 261.564C25.3998 261.831 25.0953 262.021 24.867 261.831C22.4698 260.08 19.6541 258.52 17.8657 256.085C16.8383 254.639 16.0773 252.356 17.7516 251.024ZM21.7469 258.444C22.9265 259.319 24.106 260.156 25.2476 261.108C24.6768 259.357 24.1821 257.607 23.4211 255.971C23.0787 255.172 22.6982 254.335 22.2416 253.612C21.5186 252.47 18.2462 249.502 17.7896 253.231C17.5613 255.286 20.3771 257.379 21.7469 258.444Z" fill="#263238"/>
<path fill-rule="evenodd" clip-rule="evenodd" d="M34.0753 262.972C31.0693 263.352 28.0253 262.439 25.0954 261.906C24.791 261.83 24.7148 261.488 24.8671 261.259C24.829 261.221 24.791 261.183 24.829 261.107C27.074 259.167 30.3083 257.606 33.2763 257.112C35.0647 256.807 37.6141 257.378 37.8424 259.623C38.0326 261.754 35.8257 262.743 34.0753 262.972ZM36.2062 261.069C38.6034 258.215 34.1895 257.835 32.8577 258.101C32.0206 258.291 31.1454 258.596 30.3464 258.862C28.6341 259.471 26.9979 260.308 25.3617 261.107C26.8077 261.259 28.2536 261.564 29.6995 261.792C31.4118 262.058 34.8744 262.667 36.2062 261.069Z" fill="#263238"/>
<path d="M16.6481 262.516C18.6648 261.412 20.6815 260.271 22.7362 259.243C23.7255 258.749 24.6387 258.254 25.4378 257.531C26.2749 256.732 27.036 255.895 27.8731 255.096C31.1835 251.861 34.4558 248.589 37.8043 245.355C39.6307 243.643 41.4191 241.854 43.2075 240.104C43.2456 240.066 43.3217 240.104 43.2836 240.18C43.1695 240.332 40.1635 243.643 38.7175 245.126C37.0814 246.839 35.4452 248.475 33.809 250.111C32.1601 251.76 30.5239 253.409 28.9004 255.058C28.0633 255.895 27.2262 256.719 26.3891 257.531C25.6281 258.292 24.829 258.901 23.8777 259.396C21.5186 260.537 19.1214 261.602 16.7242 262.668C16.6481 262.706 16.572 262.592 16.6481 262.516Z" fill="#263238"/>
<path d="M37.9948 240.484L41.6476 245.012L59.8739 267.804C59.8739 267.804 87.1563 249.768 95.185 243.756C95.4514 243.566 124.979 266.511 147.086 271.647C164.057 275.605 175.967 269.669 183.387 254.03L155.686 240.256C132.513 227.547 106.638 207.76 90.4287 209.016C72.8112 210.348 37.9948 240.484 37.9948 240.484Z" fill="#455A64"/>
<path d="M44.121 239.152C47.8499 243.566 46.8225 242.272 50.5515 246.724C52.3399 248.931 61.4721 259.928 62.8419 262.249C62.88 262.287 62.8039 262.363 62.7658 262.325C60.7491 260.498 51.8453 249.311 50.0949 247.104C46.4801 242.538 47.5455 243.832 43.9687 239.228C43.9307 239.152 44.0448 239.038 44.121 239.152Z" fill="#263238"/>
<path d="M44.5394 248.665L59.8739 267.805C59.8739 267.805 87.1563 249.768 95.185 243.756C95.4513 243.566 124.979 266.511 147.086 271.648C164.057 275.605 175.967 269.669 183.387 254.03L155.686 240.256C152.604 238.582 149.483 236.755 146.363 234.891C121.326 238.315 66.5328 245.697 44.5394 248.665Z" fill="#263238"/>
<path d="M7.8967 284.395C9.64704 285.004 59.6838 286.145 61.6244 284.965C61.8527 284.851 63.1083 277.431 63.7172 271.724C63.7172 271.648 65.087 270.734 67.1417 269.327C73.6865 264.951 87.2706 256.085 87.2706 256.085L61.8146 234.967L38.147 259.281L37.0436 260.423L32.0209 265.598C32.0209 265.598 11.7779 275.757 9.79924 277.279C7.8206 278.763 6.14637 283.786 7.8967 284.395Z" fill="#D3766A"/>
<path d="M7.8967 284.395C9.64704 285.004 59.6838 286.145 61.6244 284.966C61.8527 284.851 63.1083 277.432 63.7172 271.724C63.7172 271.648 65.087 270.735 67.1417 269.327L37.0436 260.423L32.0209 265.598C32.0209 265.598 11.7779 275.757 9.79924 277.279C7.8206 278.763 6.14637 283.786 7.8967 284.395Z" fill="white"/>
<path d="M7.24991 284.471C9.0383 285.08 60.1785 285.993 62.1571 284.776C62.9182 284.319 63.2987 280.742 63.7172 271.724L31.1077 266.169C31.1077 266.169 11.2072 275.606 9.15245 277.166C7.17381 278.726 5.49958 283.824 7.24991 284.471Z" fill="#FFC235"/>
<path d="M8.04864 282.417C16.6101 282.379 51.2362 282.912 59.6835 283.52C59.7596 283.52 59.7596 283.558 59.6835 283.558C51.1982 283.825 16.6101 282.988 8.04864 282.569C7.85838 282.569 7.85838 282.417 8.04864 282.417Z" fill="#263238"/>
<path d="M12.5004 275.377C14.5171 275.339 16.4958 276.328 17.5992 277.584C18.6266 278.764 19.5018 280.4 19.4257 282.188C19.4257 282.226 19.3115 282.226 19.3115 282.188C18.893 278.802 15.887 275.834 12.5004 275.491C12.4243 275.491 12.4243 275.377 12.5004 275.377Z" fill="#263238"/>
<path d="M27.6068 267.995C31.0314 267.995 34.9887 269.289 37.0815 272.143C37.1576 272.257 37.0054 272.371 36.8912 272.295C33.8091 270.659 30.8792 269.403 27.5307 268.414C27.3024 268.338 27.3405 267.995 27.6068 267.995Z" fill="#263238"/>
<path d="M24.9053 268.984C28.3679 268.984 32.3252 270.278 34.3799 273.132C34.494 273.246 34.3038 273.36 34.2277 273.284C31.1456 271.648 28.2157 270.392 24.8672 269.403C24.6008 269.327 24.677 268.984 24.9053 268.984Z" fill="#263238"/>
<path d="M22.2416 269.974C25.7042 269.974 29.6615 271.267 31.7162 274.121C31.7923 274.235 31.6401 274.349 31.564 274.273C28.4819 272.637 25.552 271.382 22.2035 270.392C21.9372 270.316 22.0133 269.974 22.2416 269.974Z" fill="#263238"/>
<path d="M19.578 270.963C23.0025 270.963 26.9598 272.257 29.0526 275.11C29.1287 275.225 28.9765 275.339 28.9004 275.263C25.8183 273.626 22.8884 272.371 19.5019 271.381C19.2736 271.305 19.3497 270.963 19.578 270.963Z" fill="#263238"/>
<path d="M57.6669 275.339C61.5101 275.415 61.3959 281.389 57.5528 281.313C53.6716 281.236 53.7858 275.263 57.6669 275.339Z" fill="white"/>
<path fill-rule="evenodd" clip-rule="evenodd" d="M24.0301 258.786C25.8185 257.379 27.9493 258.824 29.0148 260.308C30.689 262.782 31.8305 266.206 31.9827 269.174C31.9827 269.25 31.9066 269.25 31.8686 269.25C31.7925 269.517 31.4881 269.707 31.2598 269.517C28.8245 267.804 26.0468 266.244 24.2204 263.809C23.155 262.401 22.3559 260.118 24.0301 258.786ZM28.1396 266.13C29.2811 267.043 30.4988 267.843 31.6403 268.756C31.0315 267.043 30.5368 265.293 29.7758 263.657C29.4333 262.858 29.0528 262.059 28.5581 261.298C27.8352 260.156 24.5248 257.226 24.1062 260.955C23.8779 263.01 26.7317 265.103 28.1396 266.13Z" fill="#263238"/>
<path fill-rule="evenodd" clip-rule="evenodd" d="M40.468 270.583C37.5 271.001 34.4179 270.088 31.488 269.593C31.1836 269.517 31.1075 269.175 31.2597 268.947C31.1836 268.908 31.1836 268.832 31.2216 268.794C33.4286 266.816 36.6629 265.256 39.6309 264.723C41.4192 264.419 43.9686 264.951 44.197 267.196C44.4253 269.289 42.2183 270.354 40.468 270.583ZM42.5988 268.68C44.958 265.75 40.5441 265.446 39.2123 265.75C38.3752 265.902 37.5381 266.207 36.701 266.511C34.9887 267.12 33.3905 267.995 31.7544 268.794C33.2003 268.947 34.6462 269.213 36.0921 269.441C37.8044 269.708 41.267 270.278 42.5988 268.68Z" fill="#263238"/>
<path d="M23.0409 270.278C25.0576 269.137 27.0743 267.995 29.091 266.93C30.0803 266.435 30.9935 265.94 31.7926 265.179C32.6297 264.418 33.3907 263.581 34.1898 262.744C37.5002 259.472 40.7726 256.199 44.083 252.927C45.8714 251.177 47.6217 249.388 49.4101 247.638C49.4481 247.6 49.5242 247.638 49.4862 247.676C49.372 247.866 46.4041 251.215 44.9582 252.699C43.36 254.411 41.7238 256.047 40.0877 257.721C38.4642 259.396 36.8407 261.057 35.2172 262.706C34.4054 263.543 33.581 264.367 32.7439 265.179C31.9828 265.94 31.2218 266.587 30.2325 267.082C27.9114 268.223 25.5142 269.327 23.117 270.392C23.0409 270.43 22.9648 270.316 23.0409 270.278Z" fill="#263238"/>
<path d="M188.219 249.274C188.219 249.274 190.997 269.517 180.114 277.621C172.276 283.443 162.344 283.633 153.783 282.035C130.192 277.583 111.356 248.056 103.556 246.153C99.5227 245.202 66.3044 275.262 66.3044 275.262L42.5988 250.225C49.1435 245.05 88.3358 208.788 107.285 209.625C120.26 210.195 151.919 238.581 152.718 238.315C154.049 237.858 159.909 235.347 159.909 235.347L188.219 249.274Z" fill="#455A64"/>
<path d="M47.7356 247.904C50.7035 250.644 53.4812 253.612 56.297 256.541C59.0747 259.433 61.8524 262.325 64.592 265.293C66.1141 266.967 67.6741 268.642 69.1581 270.354C69.1962 270.392 69.1201 270.468 69.082 270.43C66.1521 267.614 63.3364 264.722 60.5206 261.792C57.7302 258.901 54.9652 255.996 52.2255 253.079C50.6655 251.405 49.1054 249.73 47.6594 247.98C47.5833 247.942 47.6975 247.866 47.7356 247.904Z" fill="#263238"/>
<path d="M168.661 245.316C168.737 245.202 168.889 245.278 168.851 245.392C168.014 248.284 168.242 251.633 169.498 254.372C170.982 257.492 173.798 259.814 176.271 262.135C176.537 262.363 176.195 262.743 175.929 262.553C174.292 261.526 172.77 260.232 171.401 258.862C170.183 257.645 169.118 256.199 168.433 254.563C167.253 251.519 167.291 248.246 168.661 245.316Z" fill="#263238"/>
<path d="M152.185 240.293C152.946 239.799 153.745 239.342 154.506 238.847C156.332 237.706 158.159 236.564 160.023 235.499C160.214 235.385 160.404 235.689 160.214 235.803C158.882 236.716 157.55 237.554 156.18 238.429C155.495 238.885 154.798 239.329 154.087 239.761C153.441 240.179 152.68 240.56 152.147 241.092C151.576 241.663 151.842 242.386 152.527 242.69C153.136 242.957 153.783 242.805 154.392 242.614C155.762 242.12 157.017 241.206 158.235 240.483C158.996 240.027 159.757 239.583 160.518 239.152C161.317 238.695 162.154 238.277 162.953 237.82C163.029 237.782 163.067 237.858 163.029 237.896C162.268 238.467 161.545 239.038 160.784 239.57C160.023 240.128 159.262 240.674 158.501 241.206C157.791 241.714 157.055 242.196 156.294 242.652C155.648 243.033 154.963 243.413 154.24 243.566C153.06 243.832 151.272 243.413 151.158 241.929C151.081 241.206 151.614 240.674 152.185 240.293Z" fill="#263238"/>
<path d="M44.3491 248.399C45.9853 246.877 47.6976 245.393 49.3718 243.947C51.0714 242.475 52.771 241.03 54.4706 239.609C57.9333 236.755 61.3959 233.939 64.9346 231.2C68.4733 228.46 72.1262 225.835 75.8551 223.361C79.5461 220.888 83.3131 218.567 87.1943 216.474C89.1729 215.447 91.1516 214.419 93.2063 213.506C95.1849 212.631 97.2016 211.718 99.2563 211.033C99.8144 210.855 100.373 210.665 100.931 210.462C101.007 210.424 101.083 210.576 101.007 210.614C99.9793 210.995 98.952 211.489 97.9626 211.946C96.9479 212.403 95.9459 212.872 94.9566 213.354C92.978 214.293 91.012 215.282 89.0588 216.322C85.1522 218.402 81.3345 220.66 77.6055 223.095C73.8765 225.492 70.2617 228.08 66.723 230.781C63.1462 233.47 59.6202 236.235 56.1449 239.076C52.6822 241.892 49.2957 244.746 45.8331 247.562C45.4019 247.917 44.9579 248.259 44.5013 248.589C44.3872 248.703 44.1969 248.513 44.3491 248.399Z" fill="#263238"/>
<path d="M67.9405 267.119C75.8931 260.194 97.3537 242.614 102.148 239.761C103.099 239.19 104.317 239.038 105.42 239.342C106.6 239.723 107.513 240.636 108.426 241.435C109.543 242.373 110.646 243.325 111.737 244.289C113.969 246.217 116.201 248.157 118.434 250.11C122.657 253.763 126.843 257.454 131.067 261.031C134.872 264.265 138.753 267.347 143.015 269.973C151.081 274.92 161.431 278.344 170.716 274.767C175.015 273.131 178.326 269.935 180.495 265.902C182.663 261.868 183.691 257.34 184.414 252.888C184.566 251.797 184.706 250.707 184.832 249.616C184.87 249.54 184.947 249.578 184.947 249.616C184.147 258.101 182.359 267.88 174.939 273.131C167.025 278.725 156.332 277.203 148.037 273.398C138.753 269.06 131.143 261.944 123.495 255.285C119.055 251.43 114.603 247.561 110.139 243.68C109.073 242.729 108.008 241.777 106.904 240.864C105.763 239.951 104.469 239.266 103.099 239.989C98.6094 242.348 69.1581 266.472 68.0927 267.309C67.9785 267.386 67.8263 267.195 67.9405 267.119Z" fill="#263238"/>
<path d="M160.936 196.23C157.778 209.129 150.092 229.22 143.281 229.106C137.079 228.992 123.228 217.995 117.444 214.38C111.585 210.766 124.636 196.573 127.946 198.856C133.121 202.433 140.846 208.787 142.139 208.368C143.737 207.874 145.83 203.878 155.077 192.083C158.882 187.25 162.306 190.713 160.936 196.23Z" fill="#D3766A"/>
<path d="M121.744 193.414C119.005 192.425 115.923 191.093 112.878 191.169C109.872 191.207 107.323 195.241 107.323 196.382C107.323 197.524 108.465 204.677 111.509 204.677C114.553 204.677 112.726 199.198 112.84 198.551C112.955 197.942 113.069 197.105 113.639 197.181C114.21 197.219 124.256 201.976 124.256 201.976L121.744 193.414Z" fill="#D3766A"/>
<path d="M121.516 193.833C121.364 193.833 113.221 190.599 110.177 190.675C107.133 190.713 104.621 194.747 104.621 195.888C104.621 197.03 105.763 204.183 108.807 204.183C111.851 204.183 110.025 198.704 110.139 198.057C110.253 197.41 110.367 196.611 110.938 196.687C111.509 196.725 121.516 201.482 121.516 201.482V193.833Z" fill="#D3766A"/>
<path d="M109.834 203.802C110.215 203.346 110.291 202.623 110.329 202.014C110.405 201.367 110.367 200.72 110.215 200.073C110.101 199.503 109.872 198.97 109.872 198.399C109.834 197.867 110.025 197.258 110.291 196.801C110.519 196.383 110.976 196.497 111.356 196.649C111.927 196.839 112.46 197.144 112.993 197.41C113.576 197.689 114.159 197.981 114.743 198.285C115.314 198.589 115.961 198.856 116.493 199.236C116.531 199.274 116.493 199.351 116.455 199.351C115.922 199.16 115.428 198.894 114.933 198.628C114.35 198.374 113.766 198.108 113.183 197.828C112.65 197.6 112.117 197.334 111.547 197.106C111.356 197.029 110.976 196.801 110.748 196.877C110.519 196.915 110.405 197.486 110.367 197.676C110.215 198.247 110.291 198.742 110.481 199.312C110.633 199.845 110.748 200.416 110.786 200.987C110.824 201.481 110.786 202.052 110.671 202.547C110.519 203.041 110.177 203.422 109.91 203.879C109.91 203.917 109.796 203.879 109.834 203.802Z" fill="#263238"/>
<path d="M131.181 201.786C131.181 201.786 122.734 194.1 120.983 192.578C117.483 189.534 102.681 183.484 100.626 183.255C98.5333 183.065 97.8103 187.289 107.856 191.664C113.145 193.986 114.096 197.03 113.982 198.704C113.906 200.378 112.27 203.536 109.454 203.46C106.638 203.384 104.812 199.237 102.186 198.78C99.5987 198.323 101.311 203.08 103.137 205.857C104.964 208.597 108.312 210.88 110.748 211.793C113.183 212.706 120.755 215.941 120.755 215.941L131.181 201.786Z" fill="#D3766A"/>
<path d="M105.953 201.443C107.019 202.28 108.236 203.345 109.606 203.421C111.052 203.459 112.003 202.508 112.688 201.329C113.373 200.149 113.754 198.779 113.411 197.409C113.145 196.192 112.384 195.126 111.471 194.251C110.367 193.186 109.035 192.387 107.665 191.702C107.589 191.664 107.665 191.588 107.703 191.626C108.997 192.196 113.069 193.871 113.868 197.409C114.21 198.893 113.754 200.187 113.069 201.405C112.46 202.546 111.547 203.612 110.177 203.726C108.503 203.878 107.057 202.508 105.877 201.481C105.801 201.443 105.877 201.405 105.953 201.443Z" fill="#263238"/>
<path d="M131.181 200.72L118.586 220.278C118.586 220.278 138.563 231.465 144.194 229.677C149.864 227.85 158.387 211.641 161.926 197.41C165.427 183.217 156.713 188.658 153.326 193.034C149.94 197.448 142.596 207.607 142.178 207.455C141.759 207.341 131.181 200.72 131.181 200.72Z" fill="#FFC235"/>
<path fill-rule="evenodd" clip-rule="evenodd" d="M125.701 209.206C126.539 209.472 127.338 209.814 128.099 210.195C129.773 211.032 131.333 212.098 132.741 213.277C133.147 213.582 133.54 213.911 133.92 214.266C133.717 214.317 133.527 214.368 133.35 214.419C133.045 214.14 132.741 213.873 132.436 213.62C131.029 212.478 129.507 211.413 127.87 210.614C127.109 210.195 126.272 209.891 125.435 209.586L125.701 209.206ZM140.541 221.192C142.634 223.513 144.727 225.834 147.01 227.889C146.908 227.99 146.794 228.079 146.667 228.155C144.346 226.1 142.254 223.817 140.199 221.534C138.03 219.137 135.899 216.702 133.502 214.571C133.679 214.52 133.87 214.469 134.073 214.419C136.394 216.511 138.486 218.871 140.541 221.192ZM121.135 216.321C121.211 216.397 121.275 216.461 121.326 216.511C121.224 216.537 121.11 216.549 120.983 216.549L121.135 216.321ZM124.332 219.822C126.31 221.991 128.289 224.198 130.458 226.176C130.052 225.999 129.633 225.808 129.202 225.606C127.376 223.893 125.663 221.991 123.989 220.126C122.962 218.985 121.934 217.843 120.869 216.74C121.097 216.74 121.313 216.727 121.516 216.702C122.467 217.729 123.38 218.756 124.332 219.822ZM121.516 216.702C121.465 216.626 121.402 216.562 121.326 216.511C122.442 216.461 123.545 216.372 124.636 216.245C127.604 215.865 130.496 215.18 133.35 214.419C133.4 214.469 133.451 214.507 133.502 214.533C130.61 215.294 127.68 216.017 124.674 216.397C123.609 216.549 122.581 216.664 121.516 216.702ZM134.073 214.419C134.022 214.368 133.971 214.317 133.92 214.266C134.428 214.14 134.935 214 135.442 213.848C139.019 212.859 142.596 211.831 146.249 211.298C148.113 211.07 149.978 210.956 151.842 211.032C153.555 211.146 155.267 211.451 156.903 211.983C156.852 212.11 156.814 212.224 156.789 212.326C155.153 211.793 153.479 211.489 151.804 211.375C149.978 211.222 148.113 211.337 146.287 211.565C142.634 212.059 139.057 213.087 135.519 214.038C135.037 214.165 134.555 214.292 134.073 214.419ZM142.748 206.999C143.458 206.796 144.156 206.555 144.841 206.276C146.515 205.591 148.151 204.678 149.673 203.65C152.756 201.634 155.495 199.122 158.273 196.725C158.653 196.395 159.034 196.065 159.414 195.736C159.491 195.761 159.554 195.774 159.605 195.774C159.199 196.129 158.806 196.484 158.425 196.839C155.647 199.274 152.908 201.786 149.826 203.879C148.266 204.906 146.667 205.819 144.917 206.542C144.055 206.897 143.154 207.202 142.215 207.455C142.33 207.417 142.482 207.265 142.748 206.999ZM162.725 192.958C162.725 193.034 162.712 193.098 162.687 193.148C161.799 193.884 160.924 194.645 160.061 195.431C159.985 195.393 159.909 195.393 159.833 195.355C160.784 194.556 161.736 193.757 162.725 192.958ZM153.326 193.072C155.495 193.909 157.626 194.746 159.833 195.355C159.719 195.469 159.567 195.622 159.414 195.736C157.246 195.089 155.115 194.29 153.022 193.453C153.123 193.326 153.225 193.199 153.326 193.072ZM159.605 195.774C159.757 195.647 159.909 195.533 160.061 195.431C160.442 195.533 160.822 195.634 161.203 195.736C161.558 195.812 161.913 195.888 162.268 195.964C162.243 196.116 162.217 196.268 162.192 196.421C161.812 196.345 161.444 196.268 161.089 196.192C160.581 196.065 160.087 195.926 159.605 195.774ZM127.566 206.352C127.921 206.479 128.276 206.593 128.631 206.694C132.132 207.684 135.861 208.064 139.514 207.646C140.275 207.544 141.023 207.405 141.759 207.227C141.987 207.379 142.127 207.468 142.177 207.493C141.315 207.722 140.44 207.887 139.552 207.988C135.861 208.483 132.094 208.102 128.517 207.113C128.111 206.986 127.705 206.859 127.3 206.732L127.566 206.352Z" fill="white"/>
<path opacity="0.1" d="M132.665 227.089C137.193 228.954 141.683 230.286 144.004 229.715C144.08 229.689 144.143 229.677 144.194 229.677C149.864 227.85 158.387 211.641 161.926 197.41C162.535 194.898 162.801 192.996 162.725 191.588C162.725 191.512 162.725 191.436 162.725 191.36C162.725 191.258 162.712 191.157 162.687 191.055C162.687 191.005 162.687 190.954 162.687 190.903C162.661 190.802 162.649 190.7 162.649 190.599L132.665 227.089Z" fill="black"/>
<path d="M125.587 218.338C125.993 217.653 126.399 216.968 126.805 216.283C127.642 214.875 132.513 206.694 134.415 204.221C134.491 204.145 134.567 204.221 134.567 204.297C133.197 207.151 128.137 215.218 127.3 216.511C126.868 217.196 126.437 217.881 126.006 218.566C125.549 219.213 125.055 219.86 124.598 220.545C124.56 220.583 124.446 220.545 124.484 220.469C124.902 219.784 125.207 219.023 125.587 218.338Z" fill="#263238"/>
<path d="M189.513 251.747C189.399 251.899 145.526 238.125 145.069 237.592C144.423 236.869 151.69 196.002 156.979 189.229C158.121 187.821 165.427 185.12 169.156 189.267C183.653 205.439 189.969 251.29 189.513 251.747Z" fill="#FFC235"/>
<path fill-rule="evenodd" clip-rule="evenodd" d="M146.477 227.394C147.086 227.952 147.707 228.485 148.342 228.992C150.32 230.666 152.527 232.112 154.848 233.254C154.645 233.305 154.455 233.355 154.278 233.406C152.033 232.303 149.978 230.933 148.037 229.335C147.479 228.878 146.934 228.409 146.401 227.927C146.426 227.749 146.452 227.572 146.477 227.394ZM157.816 234.471C159.567 235.042 161.393 235.423 163.219 235.499C165.046 235.613 166.872 235.461 168.699 235.156C172.123 234.548 175.434 233.368 178.744 232.226C178.77 232.277 178.808 232.328 178.858 232.379C175.548 233.558 172.237 234.776 168.737 235.385C166.91 235.727 165.046 235.917 163.181 235.803C161.355 235.727 159.49 235.385 157.702 234.814C156.637 234.471 155.609 234.053 154.62 233.558C154.823 233.507 155.013 233.457 155.191 233.406C156.053 233.812 156.928 234.167 157.816 234.471ZM179.315 232.036C181.446 231.275 183.577 230.552 185.784 229.981C185.784 230.032 185.796 230.083 185.822 230.134C183.615 230.704 181.484 231.465 179.353 232.226C179.302 232.176 179.264 232.125 179.239 232.074C179.264 232.049 179.29 232.036 179.315 232.036ZM145.412 233.977C145.906 234.053 146.439 234.091 146.972 234.129C148.798 234.243 150.663 234.091 152.451 233.786C153.06 233.66 153.669 233.533 154.278 233.406C154.379 233.457 154.493 233.507 154.62 233.558C153.91 233.736 153.199 233.888 152.489 234.015C150.701 234.357 148.836 234.509 146.972 234.433C146.439 234.408 145.906 234.357 145.374 234.281C145.374 234.18 145.386 234.078 145.412 233.977ZM155.191 233.406C155.089 233.355 154.975 233.305 154.848 233.254C157.626 232.569 160.366 231.58 163.067 230.666C166.568 229.449 170.069 228.269 173.721 227.622C174.064 227.546 174.406 227.508 174.749 227.432C174.774 227.508 174.812 227.572 174.863 227.622C174.483 227.673 174.115 227.724 173.76 227.774C170.107 228.421 166.606 229.601 163.105 230.819C160.518 231.732 157.892 232.683 155.191 233.406ZM184.794 227.508C184.921 227.533 185.061 227.559 185.213 227.584C185.238 227.686 185.264 227.774 185.289 227.851C185.111 227.825 184.934 227.8 184.756 227.774C181.674 227.204 178.516 227.166 175.434 227.546C175.383 227.495 175.332 227.445 175.282 227.394C178.44 226.937 181.674 226.975 184.794 227.508ZM149.864 211.032C150.498 211.007 151.145 211.007 151.804 211.032C153.669 211.146 155.533 211.489 157.284 212.098C160.822 213.315 164.057 215.294 166.834 217.767C169.612 220.24 171.933 223.132 174.254 226.024C174.609 226.481 174.952 226.937 175.282 227.394C175.104 227.419 174.926 227.432 174.749 227.432C174.444 227.077 174.153 226.709 173.874 226.329C171.591 223.437 169.27 220.545 166.53 218.11C163.79 215.636 160.632 213.658 157.169 212.44C155.419 211.831 153.631 211.489 151.766 211.337C151.107 211.286 150.447 211.273 149.788 211.299C149.813 211.197 149.838 211.108 149.864 211.032ZM178.858 232.379C179.036 232.328 179.201 232.277 179.353 232.226C180.038 232.962 180.761 233.66 181.522 234.319C182.892 235.537 184.376 236.64 186.012 237.439C186.494 237.668 186.988 237.883 187.496 238.086C187.521 238.289 187.559 238.479 187.61 238.657C187.001 238.429 186.392 238.124 185.822 237.858C184.147 237.021 182.625 235.917 181.217 234.7C180.38 233.964 179.594 233.19 178.858 232.379ZM174.863 227.622C175.066 227.597 175.256 227.572 175.434 227.546C176.651 229.106 177.869 230.628 179.239 232.074C179.061 232.125 178.896 232.176 178.744 232.226C177.374 230.742 176.119 229.182 174.863 227.622ZM154.772 193.643C156.446 194.252 158.121 194.861 159.833 195.355C159.681 195.469 159.529 195.584 159.414 195.698C157.778 195.241 156.18 194.67 154.582 194.1C154.658 193.922 154.721 193.77 154.772 193.643ZM161.165 195.698C162.953 196.116 164.78 196.383 166.606 196.421C167.519 196.421 168.432 196.345 169.346 196.23C170.221 196.078 171.134 195.964 172.047 195.774C172.529 195.647 173.024 195.52 173.531 195.393C173.607 195.52 173.671 195.647 173.721 195.774C173.214 195.926 172.681 196.066 172.123 196.192C171.705 196.307 171.21 196.383 170.792 196.459C170.335 196.535 169.84 196.649 169.384 196.687C168.47 196.839 167.519 196.915 166.606 196.877C164.741 196.877 162.877 196.611 161.051 196.154C160.569 196.053 160.087 195.926 159.605 195.774C159.731 195.647 159.871 195.52 160.023 195.393C160.404 195.52 160.784 195.622 161.165 195.698ZM152.033 202.242C154.239 200.53 156.294 198.666 158.387 196.839C158.793 196.484 159.199 196.129 159.605 195.774C159.529 195.748 159.465 195.723 159.414 195.698C159.034 196.027 158.653 196.357 158.273 196.687C156.256 198.475 154.239 200.226 152.147 201.862C152.121 201.989 152.083 202.116 152.033 202.242ZM167.063 189.952C167.621 189.572 168.191 189.216 168.775 188.887C168.724 188.836 168.673 188.798 168.623 188.772C168.065 189.102 167.507 189.445 166.948 189.8C164.437 191.474 162.116 193.377 159.833 195.355C159.909 195.355 159.947 195.393 160.023 195.393C162.268 193.453 164.551 191.55 167.063 189.952Z" fill="white"/>
<path d="M172.884 202.318C170.639 215.484 159.567 240.141 152.375 242.462C144.042 245.126 115.085 235.879 109.416 231.732C107.133 230.057 119.195 215.484 122.011 216.511C133.806 220.849 144.27 223.056 145.754 222.029C148.113 220.469 157.626 206.846 163.79 198.361C171.553 187.745 173.912 196.421 172.884 202.318Z" fill="#D3766A"/>
<path d="M110.139 232.112C108.883 231.656 100.017 225.225 97.3918 222.181C95.7175 220.279 92.8637 216.93 90.5807 211.603C87.9552 205.477 86.6995 201.025 87.3464 199.008C88.0693 196.649 88.2977 196.307 94.4238 206.466C97.8864 212.212 101.197 212.859 104.051 212.821C115.808 212.592 124.408 217.349 124.408 217.349C124.408 217.349 115.123 233.863 110.139 232.112Z" fill="#D3766A"/>
<path d="M95.4893 188.925L110.291 208.026C110.71 208.521 110.557 209.13 109.987 209.32L99.4846 212.669C98.8758 212.859 98.0767 212.593 97.6582 212.06L82.8564 192.996C82.4379 192.464 82.5901 191.855 83.1608 191.665L93.6628 188.316C94.2717 188.126 95.0707 188.392 95.4893 188.925Z" fill="#263238"/>
<path fill-rule="evenodd" clip-rule="evenodd" d="M96.4023 188.62L111.204 207.722C111.623 208.254 111.47 208.825 110.9 209.016L100.398 212.402C99.7888 212.592 98.9897 212.288 98.5712 211.793L83.7695 192.692C83.3509 192.159 83.5031 191.588 84.0739 191.398L94.5758 188.011C95.1847 187.821 95.9837 188.088 96.4023 188.62ZM96.2881 189.572C95.5652 188.62 95.0325 188.62 94.4997 188.811L92.6353 189.419C92.5211 189.419 92.5211 189.572 92.5972 189.724L92.6733 189.762C92.9016 190.104 92.7114 190.142 92.4831 190.218L88.1072 191.626C87.8789 191.702 87.6887 191.779 87.4223 191.436L87.3843 191.398C87.2701 191.246 87.0799 191.17 87.0038 191.208L85.1012 191.817C84.5685 191.969 84.188 192.159 84.9871 193.186L98.7995 210.956C99.18 211.489 99.903 211.755 100.436 211.565L109.834 208.559C110.367 208.407 110.481 207.836 110.101 207.341L96.2881 189.572Z" fill="#455A64"/>
<path d="M90.5805 190.333L89.4009 190.714C89.3629 190.752 89.2868 190.714 89.2487 190.675C89.2487 190.637 89.2487 190.599 89.2868 190.599L90.4663 190.219C90.5044 190.181 90.5805 190.219 90.5805 190.257C90.6185 190.295 90.6185 190.333 90.5805 190.333Z" fill="#263238"/>
<path d="M96.2881 189.572L110.101 207.342C110.481 207.837 110.367 208.407 109.834 208.56L100.436 211.566C99.9029 211.756 99.18 211.49 98.7995 210.957L84.987 193.187C84.1879 192.16 84.5685 191.97 85.1012 191.817L87.0037 191.209C87.1179 191.17 87.2701 191.247 87.3842 191.399L87.4223 191.437C87.6886 191.779 87.8789 191.703 88.1072 191.627L92.483 190.219C92.7113 190.143 92.9016 190.105 92.6733 189.763L92.5972 189.725C92.5211 189.572 92.5211 189.42 92.6352 189.42L94.4997 188.811C95.0324 188.621 95.5651 188.621 96.2881 189.572Z" fill="white"/>
<path d="M96.2881 189.572L97.3155 190.904L86.0144 194.519L84.987 193.187C84.1879 192.16 84.5685 191.97 85.1012 191.817L87.0037 191.209C87.1179 191.17 87.2701 191.247 87.3842 191.399L87.4223 191.437C87.6886 191.779 87.8789 191.703 88.1072 191.627L92.483 190.219C92.7113 190.143 92.9016 190.105 92.6733 189.763L92.5972 189.725C92.5211 189.572 92.5211 189.42 92.6352 189.42L94.4997 188.811C95.0324 188.621 95.5651 188.621 96.2881 189.572Z" fill="#FFC235"/>
<path d="M86.9657 191.703C86.9657 191.728 86.9657 191.741 86.9657 191.741C86.8896 191.716 86.8135 191.716 86.7374 191.741C86.6613 191.767 86.6233 191.805 86.6233 191.855C86.6233 191.855 86.6106 191.855 86.5852 191.855C86.5852 191.83 86.5852 191.817 86.5852 191.817C86.5852 191.792 86.5979 191.779 86.6233 191.779C86.6233 191.754 86.6359 191.741 86.6613 191.741C86.6613 191.716 86.674 191.703 86.6994 191.703H86.7374C86.7628 191.703 86.7882 191.703 86.8135 191.703C86.8389 191.703 86.8642 191.703 86.8896 191.703C86.915 191.703 86.9277 191.703 86.9277 191.703C86.953 191.703 86.9657 191.703 86.9657 191.703Z" fill="white"/>
<path d="M86.6991 191.893C86.6991 191.893 86.6864 191.893 86.6611 191.893C86.6611 191.842 86.6864 191.804 86.7372 191.779C86.8133 191.753 86.8894 191.753 86.9655 191.779C86.9655 191.804 86.9655 191.817 86.9655 191.817C86.8894 191.791 86.8387 191.791 86.8133 191.817C86.7625 191.817 86.7245 191.842 86.6991 191.893Z" fill="white"/>
<path d="M86.9275 191.856C86.9275 191.856 86.9275 191.868 86.9275 191.894C86.9021 191.868 86.8767 191.868 86.8514 191.894C86.826 191.894 86.8133 191.906 86.8133 191.932C86.788 191.932 86.7753 191.919 86.7753 191.894C86.7753 191.856 86.8514 191.818 86.9275 191.856Z" fill="white"/>
<path d="M86.9282 191.932C86.9282 191.932 86.9154 191.945 86.8898 191.97C86.8898 191.97 86.877 191.958 86.8514 191.932C86.8514 191.932 86.8514 191.919 86.8514 191.894C86.877 191.894 86.9026 191.906 86.9282 191.932Z" fill="white"/>
<path d="M85.2535 192.349C85.2155 192.311 85.2155 192.273 85.2535 192.235C85.2916 192.235 85.3677 192.235 85.4057 192.273C85.4057 192.311 85.4057 192.349 85.3677 192.388C85.3296 192.388 85.2535 192.388 85.2535 192.349Z" fill="white"/>
<path d="M85.4818 192.273C85.4438 192.235 85.4438 192.197 85.4818 192.159C85.5579 192.159 85.596 192.159 85.634 192.197C85.6721 192.235 85.634 192.273 85.596 192.311C85.5579 192.311 85.5199 192.311 85.4818 192.273Z" fill="white"/>
<path d="M85.71 192.197C85.672 192.159 85.71 192.121 85.7481 192.083C85.7861 192.083 85.8242 192.083 85.8623 192.121C85.9003 192.159 85.8622 192.197 85.8242 192.235C85.7861 192.235 85.7481 192.235 85.71 192.197Z" fill="white"/>
<path d="M85.9384 192.121C85.9004 192.083 85.9384 192.045 85.9765 192.007C86.0145 192.007 86.0526 192.007 86.0906 192.045C86.1287 192.083 86.1287 192.121 86.0906 192.159C86.0145 192.159 85.9765 192.159 85.9384 192.121Z" fill="white"/>
<path d="M86.1667 192.045C86.1667 192.007 86.1667 191.969 86.2047 191.931C86.2428 191.931 86.3189 191.931 86.3189 191.969C86.3569 192.007 86.3569 192.045 86.3189 192.083C86.2808 192.083 86.2047 192.083 86.1667 192.045Z" fill="white"/>
<path fill-rule="evenodd" clip-rule="evenodd" d="M95.0706 189.344L94.4618 189.534L94.2715 189.305L94.8803 189.115L95.0706 189.344ZM94.4618 189.496L94.9945 189.305L94.8423 189.115L94.3096 189.305L94.4618 189.496Z" fill="white"/>
<path d="M94.728 189.191L94.3475 189.344L94.4616 189.496L94.8802 189.382L94.728 189.191Z" fill="white"/>
<path d="M95.0706 189.267L95.0325 189.306L94.9184 189.153H94.9564L95.0706 189.267Z" fill="white"/>
<path d="M94.538 199.618L93.5867 199.313C93.8911 198.019 95.299 197.258 97.0493 197.373C98.5333 197.449 100.055 198.172 101.045 199.199L100.284 199.541C99.5226 198.742 98.3431 198.21 97.2396 198.134C95.8698 198.058 94.8044 198.628 94.538 199.618Z" fill="#FFC235"/>
<path d="M99.18 199.313L101.501 200.911L101.615 198.818L99.18 199.313Z" fill="#FFC235"/>
<g opacity="0.2">
<path d="M94.538 199.618L93.5867 199.313C93.8911 198.019 95.299 197.258 97.0493 197.373C98.5333 197.449 100.055 198.172 101.045 199.199L100.284 199.541C99.5226 198.742 98.3431 198.21 97.2396 198.134C95.8698 198.058 94.8044 198.628 94.538 199.618Z" fill="black"/>
<path d="M99.18 199.313L101.501 200.911L101.615 198.818L99.18 199.313Z" fill="black"/>
</g>
<path d="M98.4949 203.803C97.0109 203.689 95.4889 203.004 94.4996 201.939L95.2606 201.596C96.0216 202.396 97.2012 202.966 98.3427 203.004C99.7506 203.118 100.854 202.434 101.044 201.368L102.034 201.673C101.805 203.042 100.359 203.918 98.4949 203.803Z" fill="#FFC235"/>
<path d="M96.3642 201.825L94.0431 200.265L93.929 202.319L96.3642 201.825Z" fill="#FFC235"/>
<path d="M102.643 212.744C105.573 212.782 95.9458 206.808 95.7936 203.422C95.6795 200.035 98.9518 201.101 101.539 203.003C110.519 209.624 117.33 209.281 121.896 215.598C126.424 221.914 102.643 212.744 102.643 212.744Z" fill="#D3766A"/>
<path d="M111.585 208.636C113.487 209.207 115.39 209.815 117.102 210.805C118.738 211.756 119.994 213.088 121.135 214.572C121.173 214.648 121.097 214.724 121.021 214.648C118.624 211.68 115.009 210.158 111.547 208.75C111.509 208.712 111.509 208.636 111.585 208.636Z" fill="#263238"/>
<path d="M145.145 221.23C142.824 221.839 126.805 217.463 126.805 217.463L117.749 239.266C117.749 239.266 145.716 245.773 152.223 243.49C158.767 241.245 168.927 219.061 172.199 206.2C175.282 194.1 171.172 186.185 162.535 198.742C162.535 198.742 146.325 220.888 145.145 221.23Z" fill="#FFC235"/>
<path fill-rule="evenodd" clip-rule="evenodd" d="M140.085 220.659C140.237 220.837 140.389 221.015 140.541 221.192C143.015 223.932 145.488 226.671 148.342 228.993C150.32 230.667 152.527 232.113 154.848 233.254C154.645 233.305 154.455 233.356 154.278 233.406C152.033 232.303 149.978 230.933 148.037 229.335C145.183 226.976 142.672 224.236 140.199 221.497C139.894 221.167 139.59 220.837 139.286 220.507C139.565 220.558 139.831 220.609 140.085 220.659ZM157.816 234.472C158.527 234.7 159.25 234.903 159.985 235.081C159.909 235.182 159.846 235.284 159.795 235.385C159.085 235.233 158.387 235.043 157.702 234.814C156.637 234.472 155.609 234.053 154.62 233.559C154.823 233.508 155.013 233.457 155.191 233.406C156.053 233.812 156.928 234.167 157.816 234.472ZM125.359 220.926C127.49 223.285 129.659 225.606 132.094 227.623C134.91 229.982 138.106 231.922 141.607 233.064C143.319 233.673 145.145 234.015 146.972 234.129C148.798 234.244 150.663 234.091 152.451 233.787C153.06 233.66 153.669 233.533 154.278 233.406C154.379 233.457 154.493 233.508 154.62 233.559C153.91 233.736 153.199 233.888 152.489 234.015C150.701 234.358 148.836 234.51 146.972 234.434C145.107 234.358 143.243 233.977 141.492 233.406C137.954 232.265 134.681 230.324 131.828 227.965C129.392 225.986 127.223 223.703 125.131 221.42L125.359 220.926ZM155.229 233.406C155.102 233.356 154.988 233.292 154.886 233.216C157.398 232.607 159.909 231.732 162.382 230.895C162.357 230.971 162.319 231.047 162.268 231.123C159.947 231.922 157.626 232.76 155.229 233.406ZM153.326 211.185C154.671 211.362 156.003 211.667 157.322 212.098C160.822 213.278 164.057 215.256 166.834 217.768C167.24 218.097 167.621 218.44 167.976 218.795C167.925 218.947 167.862 219.099 167.786 219.252C167.38 218.846 166.974 218.452 166.568 218.072C163.828 215.637 160.67 213.658 157.207 212.44C155.876 211.984 154.506 211.641 153.098 211.451C153.174 211.375 153.25 211.286 153.326 211.185ZM164.399 196.269C165.135 196.345 165.883 196.396 166.644 196.421C167.557 196.421 168.47 196.345 169.346 196.231C170.259 196.079 171.172 195.926 172.085 195.736C172.339 195.685 172.605 195.622 172.884 195.546C172.935 195.673 172.973 195.812 172.999 195.964C172.719 196.041 172.44 196.104 172.161 196.155C171.705 196.307 171.248 196.345 170.792 196.459C170.335 196.535 169.878 196.611 169.422 196.687C168.509 196.802 167.557 196.878 166.644 196.878C165.782 196.852 164.919 196.789 164.057 196.687C164.158 196.535 164.272 196.396 164.399 196.269Z" fill="white"/>
<path d="M131.6 242.044C132.259 242.171 132.931 242.298 133.616 242.424L131.6 242.044Z" fill="#EBEBEB"/>
<path d="M141.835 221.002C141.201 220.9 140.541 220.773 139.856 220.621L141.835 221.002Z" fill="#EBEBEB"/>
<path d="M152.566 242.843C158.045 240.028 164.78 225.378 166.074 222.524C166.911 220.66 167.672 218.795 168.433 216.931C169.917 213.164 171.286 209.359 172.58 205.554C172.618 205.478 172.694 205.516 172.694 205.554C171.971 208.522 171.096 211.452 170.107 214.305C170.754 213.24 171.363 212.136 171.895 210.995C171.895 210.957 172.009 210.995 171.971 211.033C171.477 212.403 170.754 213.697 169.917 214.876C168.877 217.768 167.71 220.609 166.416 223.399C166.074 224.199 158.273 242.12 152.147 243.795C150.016 244.365 142.748 243.871 141.226 243.49C141.15 243.49 141.15 243.414 141.226 243.414C143.319 243.338 150.625 243.833 152.566 242.843Z" fill="#263238"/>
<path d="M123.799 236.603C124.078 235.868 124.357 235.119 124.636 234.358C125.169 232.874 128.555 223.932 130.001 221.155C130.039 221.078 130.153 221.155 130.153 221.231C129.316 224.275 125.74 233.064 125.169 234.51C124.864 235.271 124.547 236.02 124.218 236.755C123.913 237.478 123.533 238.201 123.19 238.924C123.19 239 123.038 238.962 123.076 238.886C123.342 238.163 123.533 237.364 123.799 236.603Z" fill="#263238"/>
<path d="M126.767 217.501C128.099 217.539 140.123 220.317 142.786 220.926C143.395 221.078 144.08 221.306 144.727 221.192C145.412 221.078 145.868 220.507 146.325 220.013C147.162 219.023 156.561 206.619 157.246 206.01C157.512 205.782 157.702 205.744 157.474 206.124C157.055 206.809 147.923 219.061 147.086 220.013C146.325 220.926 145.602 221.877 144.308 221.801C143.738 221.801 127.528 218.148 126.729 217.806C126.539 217.768 126.577 217.463 126.767 217.501Z" fill="#263238"/>
<path d="M158.273 196.687C160.708 196.649 166.15 192.654 166.949 188.925C166.987 188.696 165.997 186.489 164.856 183.75C164.171 182.076 163.486 180.211 162.953 178.461C162.839 178.118 152.756 184.435 152.756 184.435C152.756 184.435 154.963 187.783 155.838 190.827C155.914 191.081 155.965 191.322 155.99 191.55C155.99 191.601 155.99 191.652 155.99 191.702C156.18 193.11 155.648 196.763 158.273 196.687Z" fill="#D3766A"/>
<path d="M155.99 191.55C155.99 191.601 155.99 191.652 155.99 191.703C156.345 191.627 156.726 191.525 157.132 191.398C163.562 189.344 162.839 180.744 162.573 178.575C160.708 179.45 152.756 184.435 152.756 184.435C152.756 184.435 154.963 187.783 155.838 190.828C155.914 191.081 155.965 191.322 155.99 191.55Z" fill="#263238"/>
<path d="M160.899 164.23C163.144 167.845 164.095 179.717 161.964 182.989C158.882 187.745 152.337 189.838 147.923 185.805C143.662 181.885 142.71 166.361 145.222 163.241C148.913 158.636 157.588 158.903 160.899 164.23Z" fill="#D3766A"/>
<path d="M151.462 174.123C151.462 174.085 151.5 174.161 151.5 174.199C151.538 174.998 151.728 175.911 152.489 176.101C152.489 176.139 152.527 176.177 152.489 176.177C151.576 176.101 151.348 174.884 151.462 174.123Z" fill="#263238"/>
<path d="M152.109 173.248C153.365 173.019 153.707 175.607 152.489 175.797C151.348 175.987 151.005 173.4 152.109 173.248Z" fill="#263238"/>
<path d="M147.048 174.656C147.01 174.618 146.972 174.694 146.972 174.732C147.124 175.531 147.124 176.444 146.439 176.825C146.401 176.825 146.401 176.863 146.439 176.863C147.314 176.635 147.276 175.379 147.048 174.656Z" fill="#263238"/>
<path d="M146.211 173.895C144.917 173.971 145.145 176.558 146.363 176.482C147.543 176.444 147.314 173.857 146.211 173.895Z" fill="#263238"/>
<path d="M152.946 171.916C152.603 171.878 152.261 171.802 151.919 171.688C151.538 171.612 151.196 171.574 150.891 171.269C150.739 171.117 150.777 170.775 150.929 170.584C151.272 170.204 151.766 170.204 152.261 170.28C152.794 170.394 153.174 170.584 153.517 171.003C153.821 171.422 153.441 171.992 152.946 171.916Z" fill="#263238"/>
<path d="M145.069 172.715C145.412 172.639 145.716 172.487 146.059 172.335C146.439 172.183 146.744 172.107 147.01 171.764C147.124 171.574 147.048 171.231 146.896 171.079C146.477 170.775 145.983 170.813 145.488 171.003C144.993 171.193 144.651 171.46 144.385 171.916C144.118 172.335 144.613 172.868 145.069 172.715Z" fill="#263238"/>
<path d="M153.288 181.277C153.136 181.467 152.946 181.771 152.68 181.809C152.413 181.885 152.071 181.809 151.804 181.733C151.766 181.733 151.728 181.733 151.766 181.771C151.995 182.038 152.451 182.19 152.832 182.076C153.174 181.962 153.326 181.619 153.364 181.277C153.364 181.239 153.326 181.239 153.288 181.277Z" fill="#263238"/>
<path d="M152.147 178.994C151.804 179.717 151.195 180.173 150.511 180.402C150.168 180.516 149.864 180.554 149.521 180.592C149.445 180.592 149.382 180.592 149.331 180.592C149.28 180.592 149.217 180.592 149.141 180.592C149.065 180.554 148.988 180.516 148.988 180.402C148.963 180.376 148.95 180.351 148.95 180.326V180.25C148.874 179.641 148.798 178.689 148.798 178.689C148.608 178.842 147.505 179.489 147.505 179.184C147.314 176.482 147.162 173.515 147.543 170.813C147.543 170.737 147.695 170.737 147.695 170.813C147.961 173.4 147.771 175.988 147.999 178.575C148.342 178.385 148.912 178.043 149.217 178.005C149.331 178.043 149.293 179.831 149.369 180.097C149.369 180.097 149.369 180.11 149.369 180.135C150.434 180.135 151.157 179.717 152.071 178.918C152.109 178.88 152.185 178.918 152.147 178.994Z" fill="#263238"/>
<path d="M149.864 180.211C149.864 180.211 150.473 180.896 151.272 181.048C151.538 181.124 151.842 181.124 152.147 181.01C152.756 180.782 152.718 180.173 152.527 179.678C152.375 179.298 152.147 178.955 152.147 178.955C152.147 178.955 151.31 179.944 149.864 180.211Z" fill="#263238"/>
<path d="M151.272 181.048C151.538 181.124 151.842 181.124 152.147 181.01C152.756 180.781 152.718 180.172 152.527 179.678C151.842 179.83 151.234 180.401 151.272 181.048Z" fill="#FF9BBC"/>
<path d="M162.763 173.705C159.795 174.161 158.311 168.91 158.311 168.91C158.311 168.91 153.098 168.91 151.728 165.219C151.728 165.219 147.428 169.101 143.395 168.339C139.362 167.617 139.438 163.203 139.704 162.213C139.971 161.224 142.368 162.556 142.368 162.556C142.368 162.556 142.216 160.082 142.824 159.74C143.433 159.398 144.384 160.729 144.384 160.729C144.384 160.729 148.989 158.294 153.441 157.685C157.892 157.038 160.822 161.148 160.822 161.148C160.822 161.148 163.296 161.262 164.323 162.784C165.388 164.344 164.665 173.362 162.763 173.705Z" fill="#263238"/>
<path d="M159.529 168.72C155.686 169.9 152.642 167.731 151.424 164.078C151.424 164.002 151.348 164.04 151.348 164.078C152.071 167.579 155.99 170.927 159.605 168.911C159.681 168.834 159.643 168.72 159.529 168.72Z" fill="#263238"/>
<path d="M160.708 161.11C160.67 161.11 160.67 161.186 160.708 161.186C161.888 161.491 163.22 161.681 164.171 162.556C165.274 163.622 165.35 165.22 165.236 166.666C165.046 168.873 164.437 171.841 162.725 173.401C162.611 173.515 162.763 173.667 162.877 173.553C164.932 171.841 165.655 168.036 165.541 165.448C165.427 162.594 163.41 161.263 160.708 161.11Z" fill="#263238"/>
<path d="M147.619 167.046C146.059 168.378 143.471 168.834 141.569 167.921C139.286 166.818 139.324 164.383 139.895 162.252C139.895 162.138 139.742 162.061 139.704 162.176C138.753 164.116 139.096 166.78 141.036 167.997C143.053 169.253 146.097 168.72 147.809 167.236C147.961 167.122 147.733 166.894 147.619 167.046Z" fill="#263238"/>
<path fill-rule="evenodd" clip-rule="evenodd" d="M153.326 178.081C151.234 178.119 149.521 176.444 149.521 174.352C149.483 172.259 151.157 170.546 153.25 170.508C155.343 170.47 157.055 172.145 157.093 174.237C157.093 176.026 155.914 177.51 154.278 177.966C153.973 178.043 153.656 178.081 153.326 178.081ZM150.016 174.352C150.016 176.14 151.538 177.586 153.326 177.586C155.153 177.548 156.599 176.064 156.561 174.237C156.561 172.449 155.077 171.003 153.25 171.003C152.971 171.003 152.705 171.041 152.451 171.117C151.043 171.498 149.978 172.792 150.016 174.352Z" fill="#455A64"/>
<path fill-rule="evenodd" clip-rule="evenodd" d="M145.412 179.223C143.89 179.451 142.368 177.929 142.064 175.874C141.949 174.885 142.102 173.896 142.482 173.135C142.901 172.335 143.547 171.803 144.309 171.727C145.07 171.613 145.869 171.917 146.477 172.564C147.086 173.173 147.505 174.086 147.657 175.037C147.961 177.016 147.048 178.804 145.678 179.147C145.577 179.172 145.488 179.197 145.412 179.223ZM142.939 173.363C142.596 174.048 142.444 174.923 142.596 175.798C142.825 177.586 144.08 178.88 145.336 178.69C146.63 178.538 147.429 176.902 147.162 175.113C147.048 174.238 146.668 173.439 146.135 172.906C145.602 172.374 144.993 172.107 144.385 172.221C144.334 172.221 144.27 172.234 144.194 172.259C143.7 172.374 143.243 172.792 142.939 173.363Z" fill="#455A64"/>
<path d="M149.712 174.771L149.978 174.314C149.331 173.934 147.923 173.477 147.124 174.581L147.543 174.885C148.266 173.896 149.635 174.733 149.712 174.771Z" fill="#455A64"/>
<path d="M166.53 173.286L166.949 172.981C166.796 172.791 165.579 171.117 164.437 171.117C163.372 171.079 156.713 172.677 156.447 172.753L156.561 173.248C158.463 172.791 163.6 171.612 164.437 171.612C165.16 171.612 166.226 172.829 166.53 173.286Z" fill="#455A64"/>
<path d="M160.518 174.352C160.518 174.352 162.192 170.052 164.095 170.546C165.997 171.079 165.35 176.901 163.562 178.081C161.812 179.298 160.632 177.662 160.632 177.662L160.518 174.352Z" fill="#D3766A"/>
<path d="M163.866 172.221C163.904 172.221 163.942 172.259 163.904 172.259C162.649 173.172 162.23 174.618 162.078 176.064C162.344 175.455 162.839 175.036 163.638 175.379C163.676 175.379 163.676 175.455 163.638 175.455C163.029 175.455 162.649 175.645 162.382 176.216C162.192 176.597 162.078 177.053 162.002 177.472C161.964 177.586 161.736 177.586 161.736 177.434C161.736 177.408 161.736 177.396 161.736 177.396C161.279 175.645 162.04 172.868 163.866 172.221Z" fill="#263238"/>
<path d="M155.115 191.436C155.153 191.436 155.153 191.436 155.153 191.436C154.848 193.757 154.316 199.084 157.816 198.97C159.224 198.932 160.594 198.133 161.698 197.296C162.877 196.459 163.943 195.469 164.894 194.404C165.959 193.186 167.063 191.931 167.938 190.599C167.976 190.523 168.052 190.599 168.014 190.637C167.063 192.007 166.302 193.415 165.236 194.67C164.209 195.888 163.105 197.03 161.812 197.905C160.594 198.742 159.148 199.579 157.664 199.541C156.256 199.503 155.305 198.552 154.963 197.144C154.544 195.355 154.734 193.263 155.115 191.436Z" fill="#263238"/>
</svg>
