<svg width="299" height="321" viewBox="0 0 299 321" fill="none" xmlns="http://www.w3.org/2000/svg">
<path fill-rule="evenodd" clip-rule="evenodd" d="M121.368 10.4207V218.156C121.368 223.876 116.78 228.52 111.117 228.52H10.1942C4.58739 228.52 0 223.876 0 218.156V10.4207C0 4.64402 4.58739 0 10.1942 0H111.117C116.78 0 121.368 4.64402 121.368 10.4207ZM114.968 18.2929C114.968 8.09871 110.89 6.56959 105.793 6.56959H87.7267C86.6507 6.56959 85.8011 7.75891 85.8011 9.28804V9.91102C85.8011 13.3657 83.9322 13.3657 81.6102 13.3657H39.7573C37.4353 13.3657 35.5097 13.3657 35.5097 9.91102V9.28804C35.5097 7.75891 34.6603 6.56959 33.6409 6.56959H15.5178C10.4774 6.56959 6.39972 7.13593 6.39972 18.2929V211.699C6.39972 217.193 10.4774 221.61 15.5178 221.61H105.793C110.89 221.61 114.968 217.193 114.968 211.699V18.2929Z" fill="#383E45"/>
<path d="M66.3757 9.06137H54.9922C54.5957 9.06137 54.256 8.72155 54.256 8.32511C54.256 7.9853 54.5957 7.64551 54.9922 7.64551H66.3757C66.7721 7.64551 67.112 7.9853 67.112 8.32511C67.112 8.72155 66.7721 9.06137 66.3757 9.06137Z" fill="white"/>
<path d="M114.964 18.2926V211.699C114.964 217.193 110.887 221.61 105.79 221.61H15.5144C10.474 221.61 6.3963 217.193 6.3963 211.699V18.2926C6.3963 7.13567 10.474 6.56934 15.5144 6.56934H33.6374C34.6569 6.56934 35.5063 7.75865 35.5063 9.28778V9.91076C35.5063 13.3655 37.4319 13.3655 39.7539 13.3655H81.6068C83.9288 13.3655 85.7977 13.3655 85.7977 9.91076V9.28778C85.7977 7.75865 86.6472 6.56934 87.7233 6.56934H105.79C110.887 6.56934 114.964 8.09845 114.964 18.2926Z" fill="white"/>
<path d="M114.964 18.2926V32.6778H6.3963V18.2926C6.3963 7.13567 10.474 6.56934 15.5144 6.56934H33.6374C34.6569 6.56934 35.5063 7.75865 35.5063 9.28778V9.91076C35.5063 13.3655 37.4319 13.3655 39.7539 13.3655H81.6068C83.9288 13.3655 85.7977 13.3655 85.7977 9.91076V9.28778C85.7977 7.75865 86.6472 6.56934 87.7233 6.56934H105.79C110.887 6.56934 114.964 8.09845 114.964 18.2926Z" fill="#FFC235"/>
<path d="M16.646 25.6546L13.4745 22.653L16.646 19.6514L17.1557 20.1611L14.5505 22.653L17.1557 25.1449L16.646 25.6546Z" fill="white"/>
<path fill-rule="evenodd" clip-rule="evenodd" d="M105.167 25.9378H102.901V25.1449C102.901 25.0694 102.883 25.0316 102.845 25.0316C102.769 24.9938 102.675 24.9372 102.562 24.8617C102.524 24.8617 102.486 24.8617 102.448 24.8617L101.769 25.2582L100.636 23.3326L101.316 22.9361C101.353 22.8984 101.372 22.8417 101.372 22.7662C101.372 22.7285 101.372 22.6907 101.372 22.653C101.372 22.6152 101.372 22.5775 101.372 22.5397C101.372 22.4642 101.353 22.4076 101.316 22.3698L100.636 21.9734L101.769 20.0478L102.448 20.4442C102.486 20.4442 102.524 20.4442 102.562 20.4442C102.675 20.3687 102.769 20.3121 102.845 20.2743C102.883 20.2743 102.901 20.2366 102.901 20.1611V19.3682H105.167V20.1611C105.167 20.2366 105.186 20.2743 105.223 20.2743C105.299 20.3121 105.393 20.3687 105.507 20.4442C105.544 20.4442 105.582 20.4442 105.62 20.4442L106.299 20.0478L107.432 21.9734L106.753 22.3698C106.715 22.4076 106.696 22.4642 106.696 22.5397C106.696 22.5775 106.696 22.6152 106.696 22.653C106.696 22.6907 106.696 22.7285 106.696 22.7662C106.696 22.8417 106.715 22.8984 106.753 22.9361L107.432 23.3326L106.299 25.2582L105.62 24.8617C105.582 24.8617 105.544 24.8617 105.507 24.8617C105.393 24.9372 105.299 24.9938 105.223 25.0316C105.186 25.0316 105.167 25.0694 105.167 25.1449V25.9378ZM103.468 25.3714H104.6V25.0882C104.6 24.8617 104.77 24.6352 104.997 24.5219C105.035 24.4841 105.091 24.4464 105.167 24.4086C105.393 24.2387 105.677 24.2387 105.903 24.352L106.073 24.4653L106.639 23.5025L106.469 23.3892C106.243 23.2759 106.13 22.9928 106.13 22.7662V22.653V22.5397C106.13 22.2565 106.243 22.03 106.469 21.9167L106.639 21.8035L106.073 20.784L105.903 20.8973C105.677 21.0672 105.393 21.0106 105.167 20.8973C105.091 20.8595 105.035 20.8218 104.997 20.784C104.77 20.6708 104.6 20.4442 104.6 20.1611V19.9345H103.468V20.1611C103.468 20.4442 103.298 20.6708 103.071 20.784C103.034 20.8218 102.977 20.8595 102.901 20.8973C102.675 21.0106 102.392 21.0672 102.165 20.8973L101.995 20.784L101.429 21.8035L101.599 21.9167C101.825 22.03 101.939 22.2565 101.939 22.5397V22.653V22.7662C101.939 22.9928 101.825 23.2759 101.599 23.3892L101.429 23.5025L101.995 24.4653L102.165 24.352C102.392 24.2387 102.675 24.2387 102.901 24.4086C102.977 24.4464 103.034 24.4841 103.071 24.5219C103.298 24.6352 103.468 24.8617 103.468 25.0882V25.3714ZM104.034 24.352C103.128 24.352 102.335 23.6158 102.335 22.7096C102.335 21.7468 103.128 21.0106 104.034 21.0106C104.94 21.0106 105.733 21.7468 105.733 22.7096C105.733 23.6158 104.94 24.352 104.034 24.352ZM104.034 21.5769C103.411 21.5769 102.901 22.0866 102.901 22.7096C102.901 23.276 103.411 23.7857 104.034 23.7857C104.657 23.7857 105.167 23.276 105.167 22.7096C105.167 22.0866 104.657 21.5769 104.034 21.5769Z" fill="white"/>
<path d="M30.5211 10.9286C30.4456 11.0041 30.3889 11.0608 30.3512 11.0985C30.3134 11.1363 30.2757 11.174 30.2379 11.2118C29.7471 10.7587 29.1808 10.5322 28.5389 10.5322C27.897 10.5322 27.3307 10.7587 26.8399 11.2118C26.8021 11.174 26.7833 11.1363 26.7833 11.0985C26.7077 11.0608 26.6511 11.0041 26.6133 10.9286C26.6888 10.8531 26.7644 10.7776 26.8399 10.7021C26.9909 10.5888 27.1608 10.4944 27.3496 10.4189C27.5384 10.3056 27.7649 10.2301 28.0292 10.1924C28.1425 10.1546 28.2557 10.1357 28.369 10.1357H28.6521C28.7277 10.1357 28.8032 10.1357 28.8787 10.1357C29.1052 10.1735 29.3129 10.2301 29.5017 10.3056C29.6527 10.3434 29.7849 10.4 29.8981 10.4756C30.0492 10.5511 30.1813 10.6455 30.2946 10.7587C30.3701 10.8342 30.4456 10.8909 30.5211 10.9286Z" fill="white"/>
<path d="M27.4043 11.7778C27.3288 11.6645 27.2344 11.5701 27.1212 11.4946C27.4232 11.1548 27.8008 10.966 28.2538 10.9283C28.9335 10.815 29.4432 11.0415 29.9529 11.4946C29.8396 11.5701 29.7452 11.6645 29.6697 11.7778C29.3677 11.438 28.9901 11.2681 28.537 11.2681C28.0839 11.2681 27.7064 11.438 27.4043 11.7778Z" fill="white"/>
<path d="M29.3892 12.0039C29.3137 12.1171 29.2193 12.2115 29.106 12.287C28.955 12.136 28.7662 12.0605 28.5397 12.0605C28.3132 12.0605 28.1244 12.136 27.9734 12.287C27.8601 12.2115 27.7657 12.1171 27.6902 12.0039C28.1433 11.5508 28.9361 11.5508 29.3892 12.0039Z" fill="white"/>
<path d="M28.7646 12.5713C28.7646 12.6845 28.6513 12.7978 28.538 12.7978C28.4247 12.7978 28.3115 12.6845 28.3115 12.5713C28.3115 12.4014 28.4247 12.2881 28.538 12.2881C28.6513 12.2881 28.7646 12.4014 28.7646 12.5713Z" fill="white"/>
<path d="M13.4742 11.4394C13.4742 11.0429 13.7573 10.7598 14.1538 10.7598C14.5502 10.7598 14.89 11.0429 14.89 11.4394C14.89 11.8358 14.5502 12.1756 14.1538 12.1756C13.7573 12.1756 13.4742 11.8358 13.4742 11.4394Z" fill="white"/>
<path d="M15.7411 11.4394C15.7411 11.0429 16.0243 10.7598 16.4207 10.7598C16.8172 10.7598 17.157 11.0429 17.157 11.4394C17.157 11.8358 16.8172 12.1756 16.4207 12.1756C16.0243 12.1756 15.7411 11.8358 15.7411 11.4394Z" fill="white"/>
<path d="M18.0059 11.4394C18.0059 11.0429 18.289 10.7598 18.6854 10.7598C19.1385 10.7598 19.4217 11.0429 19.4217 11.4394C19.4217 11.8358 19.1385 12.1756 18.6854 12.1756C18.289 12.1756 18.0059 11.8358 18.0059 11.4394Z" fill="white"/>
<path d="M20.2705 11.4394C20.2705 11.0429 20.5536 10.7598 21.0067 10.7598C21.4032 10.7598 21.6864 11.0429 21.6864 11.4394C21.6864 11.8358 21.4032 12.1756 21.0067 12.1756C20.5536 12.1756 20.2705 11.8358 20.2705 11.4394Z" fill="white"/>
<path d="M22.5352 11.4394C22.5352 11.0429 22.875 10.7598 23.2714 10.7598C23.6679 10.7598 23.9511 11.0429 23.9511 11.4394C23.9511 11.8358 23.6679 12.1756 23.2714 12.1756C22.875 12.1756 22.5352 11.8358 22.5352 11.4394Z" fill="white"/>
<path fill-rule="evenodd" clip-rule="evenodd" d="M106.81 13.0251H100.977V10.3066H106.81V13.0251ZM101.26 12.7419H106.527V10.6465H101.26V12.7419Z" fill="white"/>
<path d="M105.223 10.7598H101.429V12.5721H105.223V10.7598Z" fill="white"/>
<path d="M107.321 12.4022H106.811V10.9297H107.321V12.4022Z" fill="white"/>
<path d="M22.8781 209.773H22.0286V213.568H20.4994V211.642H17.781V213.568H16.2518V209.773H15.4023L19.1402 205.922L22.8781 209.773Z" fill="#EBEBEB"/>
<path d="M105.961 207.224H96.9564V205.922H105.961V207.224Z" fill="#EBEBEB"/>
<path d="M105.961 210.396H96.9564V209.094H105.961V210.396Z" fill="#EBEBEB"/>
<path d="M105.961 213.567H96.9564V212.265H105.961V213.567Z" fill="#EBEBEB"/>
<path d="M22.71 51.7076C22.1814 52.0474 21.5962 52.2928 20.9543 52.4439C19.3119 52.8403 17.6695 52.5005 16.3103 51.7076C15.0077 50.9147 14.0449 49.6121 13.6485 47.9697C12.8556 44.7416 14.8378 41.4568 18.066 40.6639C21.3508 39.871 24.6356 41.8532 25.4284 45.0814C26.0514 47.7432 24.8621 50.3484 22.71 51.7076Z" fill="#DBDBDB"/>
<path d="M21.3491 45.8748C21.3491 46.8942 20.5563 47.6871 19.5369 47.6871C18.5175 47.6871 17.6679 46.8942 17.6679 45.8748C17.6679 44.8554 18.5175 44.0059 19.5369 44.0059C20.5563 44.0059 21.3491 44.8554 21.3491 45.8748Z" fill="white"/>
<path d="M22.7092 50.9147V51.7076C22.1806 52.0474 21.5954 52.2928 20.9536 52.4438C19.3112 52.8403 17.6688 52.5005 16.3096 51.7076V50.9147C16.3096 49.159 17.782 47.7432 19.5377 47.7432C21.2934 47.7432 22.7092 49.159 22.7092 50.9147Z" fill="white"/>
<path d="M71.6996 44.0045H33.1882V40.833H71.6996V44.0045Z" fill="#EBEBEB"/>
<path d="M66.7724 48.2517H33.1882V46.0996H66.7724V48.2517Z" fill="#EBEBEB"/>
<path d="M88.7465 52.2732H33.1882V50.1777H88.7465V52.2732Z" fill="#EBEBEB"/>
<path d="M6.39551 133.658H114.964V57.5977H6.39551V133.658Z" fill="#EBEBEB"/>
<path d="M19.0818 79.2324C19.0818 84.2163 23.1029 88.2373 28.0867 88.2373C33.0139 88.2373 37.035 84.2163 37.035 79.2324C37.035 74.2486 33.0139 70.2275 28.0867 70.2275C23.1029 70.2275 19.0818 74.2486 19.0818 79.2324Z" fill="#DBDBDB"/>
<path d="M54.5917 117.29H114.964L84.7778 76.3438L54.5917 117.29Z" fill="#C7C7C7"/>
<path d="M30.9193 117.29H80.7575L55.8384 90.6719L30.9193 117.29Z" fill="#DBDBDB"/>
<path d="M114.964 133.657H6.39551V117.29H114.964V133.657Z" fill="#DBDBDB"/>
<path d="M22.71 173.755C22.1814 174.058 21.5962 174.303 20.9543 174.492C19.3119 174.888 17.6695 174.548 16.3103 173.755C15.0077 172.906 14.0449 171.603 13.6485 170.018C12.8556 166.789 14.8378 163.505 18.066 162.712C21.3508 161.919 24.6356 163.901 25.4284 167.129C26.0514 169.734 24.8621 172.396 22.71 173.755Z" fill="#DBDBDB"/>
<path d="M21.3491 167.866C21.3491 168.885 20.5563 169.735 19.5369 169.735C18.5175 169.735 17.6679 168.885 17.6679 167.866C17.6679 166.847 18.5175 166.054 19.5369 166.054C20.5563 166.054 21.3491 166.847 21.3491 167.866Z" fill="white"/>
<path d="M22.7092 172.963V173.755C22.1806 174.057 21.5954 174.303 20.9536 174.492C19.3112 174.888 17.6688 174.548 16.3096 173.755V172.963C16.3096 171.207 17.782 169.791 19.5377 169.791C21.2934 169.791 22.7092 171.207 22.7092 172.963Z" fill="white"/>
<path d="M82.6867 166.052H33.1882V162.881H82.6867V166.052Z" fill="#EBEBEB"/>
<path d="M96.3922 170.243H33.1882V168.147H96.3922V170.243Z" fill="#EBEBEB"/>
<path d="M54.7092 174.321H33.1882V172.226H54.7092V174.321Z" fill="#EBEBEB"/>
<path d="M114.964 179.644V198.22H6.39551V179.644H114.964Z" fill="#EBEBEB"/>
<path d="M36.525 198.22H19.5912C20.8372 194.765 24.1786 192.273 28.0864 192.273C31.9375 192.273 35.279 194.765 36.525 198.22Z" fill="#DBDBDB"/>
<path d="M13.7035 142.549C13.1938 140.623 14.3832 138.698 16.3088 138.188C18.2344 137.735 20.2165 138.924 20.6696 140.85C21.1227 142.775 19.9334 144.701 18.0078 145.211C16.0822 145.664 14.1566 144.474 13.7035 142.549Z" fill="#EBEBEB"/>
<path d="M16.7018 143.115C16.5885 143.058 16.4752 143.002 16.362 143.002C16.3053 143.002 16.3054 142.945 16.3054 142.945C16.3054 142.454 16.3054 141.963 16.3054 141.472C16.3054 141.472 16.3242 141.454 16.362 141.416C16.7584 141.246 16.8716 140.849 17.0982 140.566C17.3625 140.226 17.4569 139.868 17.3814 139.49C17.3814 139.377 17.438 139.32 17.4947 139.32C17.6079 139.264 17.7212 139.32 17.7778 139.377C17.8911 139.604 17.9478 139.773 18.0044 140C18.0044 140.17 17.9477 140.34 17.9477 140.566C17.9099 140.68 17.8722 140.812 17.8345 140.963C17.8911 140.963 17.9477 140.963 17.9477 140.963C18.363 140.963 18.7784 140.963 19.1937 140.963C19.3447 140.963 19.4391 141.019 19.4769 141.133C19.4769 141.246 19.4202 141.416 19.2503 141.472C19.2503 141.472 19.1937 141.472 19.1937 141.529C19.1937 141.586 19.2503 141.529 19.2503 141.586C19.4202 141.699 19.3636 141.869 19.1937 141.982C19.1937 142.039 19.0804 142.039 19.0804 142.095C19.0804 142.152 19.1937 142.152 19.1937 142.152C19.307 142.265 19.2503 142.492 19.0804 142.605C19.0426 142.605 19.0238 142.605 19.0238 142.605C19.0238 142.605 18.9671 142.662 19.0238 142.662C19.1937 142.775 19.1937 142.945 19.0238 143.115C18.986 143.115 18.9671 143.115 18.9671 143.115C18.9105 143.171 18.7972 143.171 18.7406 143.171C18.0987 143.171 17.4569 143.171 16.815 143.171C16.7584 143.171 16.7018 143.171 16.7018 143.115Z" fill="white"/>
<path d="M14.8896 142.266C14.8896 141.963 14.8896 141.661 14.8896 141.359C14.8896 141.303 14.8896 141.303 14.9463 141.303C15.3238 141.303 15.7014 141.303 16.079 141.303C16.1356 141.303 16.1356 141.303 16.1356 141.359C16.1356 141.963 16.1356 142.586 16.1356 143.228C16.1356 143.285 16.1356 143.285 16.0223 143.285C15.6825 143.285 15.3238 143.285 14.9463 143.285C14.8896 143.285 14.8896 143.285 14.8896 143.172C14.8896 142.87 14.8896 142.568 14.8896 142.266Z" fill="white"/>
<path d="M21.236 142.548C20.7263 140.622 21.9156 138.697 23.8412 138.187C25.7668 137.734 27.749 138.923 28.2021 140.849C28.6552 142.774 27.5224 144.7 25.5968 145.21C23.6146 145.663 21.6891 144.474 21.236 142.548Z" fill="#FFC235"/>
<path d="M26.5593 142.152C25.9929 143.228 24.6903 143.907 24.6903 143.907C24.6903 143.907 23.4444 143.228 22.878 142.152C22.425 141.245 22.7081 140.226 23.4444 140.056C24.4638 139.716 24.6903 141.529 24.6903 141.529C24.6903 141.529 24.9735 139.716 25.9929 140.056C26.7292 140.226 27.0124 141.245 26.5593 142.152Z" fill="white"/>
<path d="M84.7791 143.285H33.7515V141.246H84.7791V143.285Z" fill="#EBEBEB"/>
<path d="M6.3963 153.593L19.9319 153.423L33.5241 153.31L60.652 153.196L87.7799 153.31L101.372 153.423L114.964 153.593L101.372 153.819L87.7799 153.933L60.652 154.046L33.5241 153.933L19.9319 153.819L6.3963 153.593Z" fill="#EBEBEB"/>
<path d="M235.64 269.073C234.953 267.15 199.516 222.281 197.136 221.457C196.861 221.32 181.706 232.629 181.706 232.629C181.066 233.498 151.626 227.913 151.626 227.913L152.084 263.258L205.423 261.015C205.423 261.015 212.748 265.135 219.432 268.432C223.553 270.492 227.17 272.232 228.223 272.461C230.878 273.102 236.372 270.995 235.64 269.073Z" fill="#EB9481"/>
<path d="M228.224 272.461C227.171 272.232 223.554 270.492 219.434 268.432C212.749 265.135 205.424 261.015 205.424 261.015L193.566 261.518L174.336 231.896C178.411 232.537 181.479 232.903 181.708 232.629C181.708 232.629 196.862 221.32 197.137 221.457C199.518 222.281 234.954 267.15 235.641 269.073C236.374 270.995 230.879 273.102 228.224 272.461Z" fill="white"/>
<path d="M235.962 269.119C235.275 267.15 199.655 222.282 197.229 221.458C196.267 221.137 188.85 225.944 181.708 232.629L204.691 261.518C204.691 261.518 225.569 272.003 228.316 272.644C231.109 273.285 236.694 271.087 235.962 269.119Z" fill="#FFC235"/>
<path d="M233.672 269.897C227.537 262.526 203.409 232.217 197.869 224.48C197.824 224.434 197.869 224.388 197.915 224.434C204.188 231.622 228.041 262.114 233.81 269.806C233.901 269.989 233.81 270.081 233.672 269.897Z" fill="#263238"/>
<path d="M224.424 271.042C222.913 269.348 222.41 266.922 222.685 265.09C222.959 263.35 223.783 261.427 225.386 260.237C225.432 260.191 225.477 260.283 225.432 260.329C222.822 263.076 222.364 267.837 224.516 270.996C224.562 271.042 224.47 271.134 224.424 271.042Z" fill="#263238"/>
<path d="M207.303 263.258C204.877 260.282 203.183 255.979 204.144 252.133C204.19 251.995 204.373 252.041 204.419 252.179C205.151 255.979 206.159 259.412 207.715 263.029C207.807 263.258 207.486 263.487 207.303 263.258Z" fill="#263238"/>
<path d="M210.049 264.862C207.622 261.886 205.928 257.582 206.89 253.736C206.935 253.599 207.119 253.645 207.164 253.782C207.897 257.582 208.904 261.016 210.461 264.633C210.552 264.862 210.232 265.091 210.049 264.862Z" fill="#263238"/>
<path d="M212.796 266.463C210.37 263.487 208.676 259.184 209.637 255.338C209.683 255.2 209.866 255.246 209.912 255.384C210.69 259.229 211.697 262.617 213.208 266.234C213.3 266.463 212.979 266.692 212.796 266.463Z" fill="#263238"/>
<path d="M215.545 268.067C213.119 265.091 211.425 260.787 212.386 256.941C212.432 256.804 212.615 256.85 212.661 256.987C213.439 260.833 214.447 264.221 215.958 267.838C216.049 268.067 215.729 268.296 215.545 268.067Z" fill="#263238"/>
<path d="M192.239 232.08C189.584 228.692 194.849 224.525 197.505 227.913C200.206 231.301 194.941 235.468 192.239 232.08Z" fill="#263238"/>
<path fill-rule="evenodd" clip-rule="evenodd" d="M201.854 272.873C199.382 272.369 199.107 269.485 199.656 267.47C200.572 264.266 202.724 260.878 205.196 258.634C205.242 258.588 205.288 258.634 205.334 258.68C205.608 258.588 205.975 258.68 206.02 259C206.249 262.343 206.89 265.868 206.066 269.164C205.608 271.087 204.189 273.377 201.854 272.873ZM205.334 264.128C205.242 262.48 205.105 260.878 205.105 259.229C204.006 260.969 202.861 262.617 201.991 264.449C201.534 265.319 201.121 266.234 200.847 267.196C200.343 268.615 200.16 273.56 203.685 271.271C205.608 269.989 205.379 266.051 205.334 264.128Z" fill="#263238"/>
<path fill-rule="evenodd" clip-rule="evenodd" d="M200.341 250.302C202.859 252.591 204.233 255.887 205.881 258.772C206.064 259.092 205.789 259.367 205.515 259.413C205.515 259.504 205.469 259.55 205.377 259.55C202.127 259.046 198.464 257.398 195.9 255.201C194.343 253.873 193.016 251.263 194.755 249.478C196.45 247.784 198.922 248.928 200.341 250.302ZM197.228 249.844C193.016 249.844 195.854 253.873 197.045 254.834C197.823 255.429 198.693 255.979 199.517 256.437C201.303 257.49 203.18 258.268 205.011 259.092C204.095 257.719 203.363 256.299 202.493 254.88C201.486 253.232 199.517 249.844 197.228 249.844Z" fill="#263238"/>
<path d="M149.886 219.488L125.804 217.611C125.804 217.611 91.0538 207.493 70.9546 212.804C47.9253 218.848 44.6747 245.768 68.0702 256.528C91.2369 267.195 193.243 263.258 193.243 263.258L171.405 230.889C171.405 230.889 137.799 223.014 108.406 224.616L150.023 229.378L149.886 219.488Z" fill="#37474F"/>
<path d="M149.658 226.356C146.041 225.76 142.424 225.44 138.807 225.119C135.19 224.799 131.527 224.524 127.864 224.295C120.585 223.838 113.259 223.7 105.98 223.975C105.308 224.005 104.621 224.036 103.919 224.066C103.782 224.021 103.645 223.975 103.462 223.975C103.126 223.883 102.775 223.807 102.409 223.746C101.768 223.654 101.081 223.563 100.44 223.471C99.0664 223.288 97.6471 223.151 96.2736 222.922C96.182 222.922 96.182 223.059 96.2278 223.059C97.6471 223.334 99.0206 223.7 100.394 223.975C100.791 224.066 101.188 224.143 101.584 224.204C98.929 224.387 96.2736 224.662 93.5723 224.982C93.5265 224.982 93.5265 225.119 93.5723 225.119C97.235 224.799 100.898 224.707 104.515 224.707C108.132 224.662 111.749 224.707 115.365 224.799C122.691 225.074 129.971 225.577 137.25 226.218C141.371 226.539 145.445 226.951 149.566 227.042C149.978 227.042 150.024 226.401 149.658 226.356Z" fill="#263238"/>
<path d="M182.805 262.525C181.478 260.465 180.287 258.267 179.051 256.116C177.83 253.979 176.594 251.858 175.342 249.752C172.824 245.494 163.942 231.163 163.072 230.156C162.981 230.11 162.889 230.202 162.935 230.248C163.347 231.392 168.933 240.869 170.215 242.976C172.779 247.188 175.48 251.308 178.089 255.475C178.868 256.665 179.646 257.855 180.424 259.046C181.203 260.236 181.981 261.381 182.714 262.617C182.759 262.663 182.851 262.617 182.805 262.525Z" fill="#263238"/>
<path d="M63.0381 275.575C63.6333 273.607 96.9182 227.136 99.2532 226.174C99.5279 226.083 115.232 236.613 115.232 236.613C115.918 237.483 145.037 230.478 145.037 230.478L146.273 265.869L92.8434 266.144C92.8434 266.144 85.7469 270.539 79.2456 274.202C75.2166 276.445 71.6912 278.322 70.684 278.643C68.0285 279.375 62.4429 277.544 63.0381 275.575Z" fill="#EB9481"/>
<path d="M70.684 278.643C71.6912 278.322 75.2166 276.445 79.2456 274.202C85.7469 270.585 92.8434 266.144 92.8434 266.144L104.747 266.052L122.557 235.56C118.482 236.384 115.461 236.888 115.232 236.613C115.232 236.613 99.5279 226.083 99.2532 226.174C96.9182 227.136 63.6333 273.607 63.0381 275.575C62.4429 277.544 68.0285 279.375 70.684 278.643Z" fill="white"/>
<path d="M62.7651 275.667C63.3603 273.652 96.8283 227.182 99.2091 226.22C100.125 225.854 107.771 230.295 115.233 236.613L93.6692 266.556C93.6692 266.556 73.2954 278.048 70.5483 278.826C67.8471 279.604 62.1241 277.681 62.7651 275.667Z" fill="#FFC235"/>
<path d="M65.1004 276.354C70.8692 268.662 93.5322 237.255 98.7058 229.242C98.7516 229.197 98.7058 229.151 98.66 229.242C92.7539 236.705 70.3198 268.296 64.9631 276.262C64.8257 276.4 64.9631 276.491 65.1004 276.354Z" fill="#263238"/>
<path d="M74.3952 277.04C75.7687 275.255 76.2265 272.828 75.8145 270.997C75.494 269.303 74.5783 267.38 72.9301 266.281C72.8843 266.235 72.8385 266.327 72.8385 266.373C75.5855 269.028 76.2723 273.698 74.3036 276.994C74.2578 277.04 74.3494 277.086 74.3952 277.04Z" fill="#263238"/>
<path d="M91.1039 268.433C93.3931 265.365 94.9039 260.97 93.7593 257.17C93.7136 257.032 93.4846 257.124 93.4846 257.215C92.8894 261.107 92.0653 264.541 90.6918 268.249C90.6003 268.478 90.9665 268.661 91.1039 268.433Z" fill="#263238"/>
<path d="M88.4496 270.173C90.7388 267.105 92.2496 262.71 91.0593 258.91C91.0135 258.773 90.8304 258.819 90.7846 258.956C90.2352 262.847 89.3653 266.281 88.0375 269.944C87.946 270.219 88.2664 270.402 88.4496 270.173Z" fill="#263238"/>
<path d="M85.7948 271.913C88.0382 268.846 89.5491 264.405 88.4045 260.65C88.3587 260.513 88.1756 260.559 88.1298 260.696C87.5804 264.542 86.7105 268.022 85.337 271.684C85.2454 271.959 85.6117 272.142 85.7948 271.913Z" fill="#263238"/>
<path d="M83.095 273.652C85.3842 270.539 86.8951 266.144 85.7505 262.39C85.7047 262.252 85.4758 262.298 85.4758 262.435C84.8806 266.281 84.0565 269.761 82.683 273.423C82.5914 273.698 82.9577 273.881 83.095 273.652Z" fill="#263238"/>
<path d="M104.656 236.568C107.175 233.088 101.726 229.151 99.2082 232.676C96.6901 236.201 102.138 240.093 104.656 236.568Z" fill="#263238"/>
<path fill-rule="evenodd" clip-rule="evenodd" d="M92.6151 274.294C91.6536 271.043 92.1572 267.472 92.203 264.176C92.203 263.81 92.5693 263.672 92.844 263.764C92.8898 263.718 92.9356 263.672 93.0271 263.764C95.591 265.87 97.8802 269.166 98.9333 272.325C99.62 274.248 99.4369 277.178 97.0103 277.819C94.6754 278.415 93.1645 276.171 92.6151 274.294ZM95.0874 276.263C98.7043 278.415 98.2923 273.47 97.7887 272.051C97.4224 271.135 96.9645 270.265 96.4609 269.395C95.4995 267.61 94.2633 266.007 93.1187 264.313C93.2103 265.961 93.1187 267.564 93.1187 269.212C93.1645 271.181 93.1187 275.118 95.0874 276.263Z" fill="#263238"/>
<path fill-rule="evenodd" clip-rule="evenodd" d="M102.964 254.102C104.842 255.796 103.605 258.452 102.095 259.871C99.668 262.16 96.0969 263.992 92.8463 264.633C92.7547 264.678 92.7089 264.587 92.7089 264.541C92.4342 264.495 92.1595 264.22 92.2969 263.9C93.8077 260.924 95.0439 257.582 97.4247 255.155C98.7982 253.736 101.225 252.5 102.964 254.102ZM95.5017 259.871C94.7234 261.29 94.0366 262.801 93.2125 264.175C94.9981 263.259 96.8295 262.389 98.5693 261.29C99.3934 260.741 100.217 260.191 100.95 259.551C102.095 258.543 104.75 254.377 100.584 254.56C98.2487 254.652 96.4632 258.177 95.5017 259.871Z" fill="#263238"/>
<path d="M146.366 219.628L170.357 218.987C170.357 218.987 195.08 206.259 215.408 210.562C238.712 215.507 242.466 244.534 225.435 255.248C203.825 268.891 106.214 268.937 106.214 268.937L126.358 232.63C126.358 232.63 158.636 224.939 188.075 225.167L146.686 231.898L146.366 219.628Z" fill="#37474F"/>
<path d="M125.031 234.965C125.031 234.919 125.031 234.828 125.077 234.782C125.077 234.751 125.077 234.706 125.077 234.645C125.107 234.522 125.138 234.4 125.168 234.278C125.229 234.065 125.306 233.836 125.397 233.592C125.489 233.347 125.58 233.118 125.672 232.905C125.764 232.676 125.901 232.493 126.038 232.264C126.084 232.218 126.084 232.218 126.13 232.218C126.13 232.218 126.13 232.203 126.13 232.172C126.16 232.172 126.176 232.172 126.176 232.172C126.206 232.172 126.237 232.157 126.267 232.126C129.793 231.394 153.966 227.273 157.538 226.77C161.155 226.266 164.817 225.808 168.434 225.442C175.714 224.618 182.993 224.114 190.273 224.068C190.975 224.068 191.662 224.068 192.333 224.068C192.471 224.023 192.654 223.977 192.791 223.931C193.127 223.84 193.478 223.748 193.844 223.656C194.485 223.519 195.172 223.428 195.813 223.29C197.186 223.061 198.56 222.878 199.933 222.558C200.025 222.558 200.071 222.695 199.979 222.695C198.606 223.061 197.232 223.473 195.859 223.794C195.462 223.916 195.065 224.023 194.668 224.114C197.37 224.16 200.025 224.297 202.726 224.481C202.818 224.481 202.818 224.618 202.726 224.618C199.109 224.481 195.447 224.572 191.784 224.709C188.167 224.893 184.55 225.03 180.979 225.35C173.654 225.946 166.42 226.816 159.14 227.777C155.065 228.326 130.479 232.584 126.359 232.859C126.359 232.859 126.343 232.859 126.313 232.859C126.282 232.951 126.252 233.042 126.221 233.134C126.099 233.347 125.992 233.561 125.901 233.775C125.779 233.988 125.657 234.202 125.535 234.416C125.474 234.507 125.413 234.614 125.352 234.736C125.321 234.767 125.29 234.812 125.26 234.873C125.214 234.919 125.168 234.965 125.123 235.011C125.123 235.102 124.985 235.057 125.031 234.965Z" fill="#263238"/>
<path d="M113.767 266.556C115.003 264.45 116.056 262.207 117.2 260.009C118.36 257.812 119.505 255.614 120.634 253.416C122.923 249.067 131.164 234.324 131.989 233.317C132.034 233.226 132.126 233.317 132.126 233.409C131.76 234.508 126.632 244.26 125.441 246.411C123.061 250.761 120.588 255.019 118.116 259.322C117.429 260.559 116.697 261.749 116.01 262.985C115.277 264.176 114.545 265.366 113.904 266.648C113.858 266.694 113.721 266.648 113.767 266.556Z" fill="#263238"/>
<path d="M194.387 122.429L189.351 149.716C189.122 150.54 189.534 151.135 190.313 151.089L204.185 150.22C204.963 150.174 205.788 149.441 206.016 148.663L211.098 121.33C211.327 120.552 210.87 119.911 210.091 119.956L196.219 120.872C195.44 120.918 194.616 121.605 194.387 122.429Z" fill="#37474F"/>
<path d="M196.037 122.292L191 149.625C190.771 150.403 191.183 151.044 191.962 150.998L205.834 150.083C206.613 150.037 207.437 149.35 207.666 148.526L212.748 121.239C212.977 120.415 212.519 119.774 211.74 119.865L197.868 120.735C197.09 120.781 196.265 121.468 196.037 122.292Z" fill="#455A64"/>
<path d="M199.926 123.253C199.972 123.94 199.468 124.489 198.782 124.489C198.141 124.535 197.591 124.031 197.545 123.39C197.545 122.704 198.049 122.154 198.69 122.154C199.331 122.108 199.88 122.612 199.926 123.253Z" fill="#263238"/>
<path d="M152.312 165.97C161.056 182.269 179.919 203.009 187.199 202.734C190.679 202.551 196.951 203.054 201.255 198.797C210.732 189.548 218.103 172.471 219.293 162.81C219.706 159.422 202.811 152.967 200.522 155.851C195.165 162.673 189.259 175.721 188.252 175.676C184.498 175.584 169.206 164.23 158.538 156.263C145.581 146.557 148.786 159.514 152.312 165.97Z" fill="#EB9481"/>
<path d="M218.7 145.274C216.594 138.498 214.991 137.079 216.273 130.394C217.052 126.045 214.625 123.618 211.741 127.281C207.071 133.233 207.941 142.527 209.223 145.686L218.7 145.274Z" fill="#EB9481"/>
<path d="M218.652 165.831C218.652 165.831 221.17 156.079 219.614 148.616C218.561 143.443 214.99 132.5 200.11 127.418C196.585 126.228 190.678 127.052 195.76 131.081C199.332 133.965 202.491 134.698 204.276 136.758C204.276 136.758 196.905 138.635 195.852 142.252C195.348 143.855 194.158 148.25 193.7 151.821C193.7 151.821 194.478 152.096 195.486 152.37C195.486 152.37 194.57 155.758 197.317 160.337L218.652 165.831Z" fill="#EB9481"/>
<path d="M217.829 143.855C215.631 142.207 210.916 138.727 206.063 137.262C200.66 135.614 189.855 133.874 188.71 137.857C187.841 140.787 191.915 141.84 191.915 141.84C191.915 141.84 187.291 142.069 187.062 144.862C186.879 147.426 190.084 148.021 190.084 148.021C190.084 148.021 187.337 148.662 187.612 151.135C187.978 154.156 193.747 152.371 196.723 155.072C197.409 155.713 217.829 143.855 217.829 143.855Z" fill="#EB9481"/>
<path d="M205.285 143.214C202.95 142.024 196.952 140.559 191.962 141.749C191.87 141.749 191.824 141.886 191.916 141.841C197.685 141.749 202.996 142.711 205.239 143.306C205.285 143.306 205.285 143.26 205.285 143.214Z" fill="#263238"/>
<path d="M203.454 148.616C201.348 147.746 195.075 146.556 190.085 147.93C189.993 147.93 189.947 148.067 190.085 148.021C196.037 147.655 201.164 148.25 203.454 148.662V148.616Z" fill="#263238"/>
<path d="M219.843 169.815C219.843 169.815 207.756 197.239 200.065 200.765C192.419 204.29 187.657 203.832 184.727 203.557C183.857 203.466 182.758 203.008 181.522 202.23C173.327 197.01 158.035 177.781 151.671 166.885C146.91 158.643 146.955 150.998 153.64 153.104C155.288 153.607 157.348 154.752 159.866 156.629C172.457 166.06 186.97 174.897 187.611 174.485C188.252 174.118 194.571 162.764 194.571 162.764L219.843 169.815Z" fill="#FFC235"/>
<path d="M188.718 180.253C188.626 180.894 188.672 181.489 188.764 182.084C188.855 182.679 188.947 183.275 189.222 183.87C189.359 183.229 189.313 182.634 189.222 182.039C189.13 181.443 188.993 180.848 188.718 180.253Z" fill="white"/>
<path d="M204.464 187.029C204.372 187.67 204.418 188.265 204.464 188.861C204.556 189.502 204.693 190.097 204.968 190.646C205.059 190.051 205.013 189.41 204.968 188.815C204.876 188.22 204.739 187.624 204.464 187.029Z" fill="white"/>
<path d="M176.719 193.668C176.627 194.263 176.673 194.904 176.719 195.499C176.81 196.095 176.948 196.69 177.222 197.285C177.314 196.644 177.268 196.049 177.222 195.408C177.085 194.813 176.993 194.217 176.719 193.668Z" fill="white"/>
<path d="M169.073 166.701C168.981 167.342 169.027 167.937 169.119 168.533C169.21 169.174 169.348 169.769 169.622 170.318C169.714 169.723 169.668 169.082 169.577 168.487C169.485 167.892 169.348 167.296 169.073 166.701Z" fill="white"/>
<path d="M166.647 177.735C167.242 177.827 167.883 177.781 168.479 177.735C169.074 177.644 169.669 177.506 170.264 177.232C169.623 177.14 169.028 177.186 168.387 177.232C167.792 177.369 167.197 177.46 166.647 177.735Z" fill="white"/>
<path d="M198.743 180.94C199.384 181.032 199.979 180.986 200.62 180.94C201.215 180.803 201.81 180.711 202.36 180.437C201.764 180.345 201.123 180.391 200.528 180.437C199.933 180.528 199.338 180.666 198.743 180.94Z" fill="white"/>
<path d="M182.443 190.555C183.084 190.647 183.679 190.647 184.274 190.555C184.869 190.464 185.465 190.327 186.06 190.052C185.419 189.96 184.824 190.006 184.228 190.098C183.633 190.189 182.992 190.281 182.443 190.555Z" fill="white"/>
<path d="M213.487 171.463C214.082 171.554 214.723 171.554 215.318 171.463C215.913 171.371 216.508 171.234 217.103 170.959C216.463 170.868 215.867 170.913 215.226 171.005C214.631 171.096 214.036 171.188 213.487 171.463Z" fill="white"/>
<path d="M197.551 199.574C198.192 199.665 198.833 199.62 199.428 199.528C200.023 199.437 200.618 199.299 201.214 199.025C200.573 198.933 199.978 198.979 199.337 199.07C198.741 199.162 198.146 199.299 197.551 199.574Z" fill="white"/>
<path d="M150.348 154.019C149.845 154.248 149.295 154.385 148.792 154.477C148.837 154.294 148.929 154.111 149.066 153.973C149.478 153.928 149.936 153.928 150.348 154.019Z" fill="white"/>
<path d="M180.886 173.522C180.383 173.889 179.971 174.347 179.604 174.85C179.238 175.308 178.918 175.857 178.689 176.453C179.192 176.086 179.604 175.629 179.971 175.125C180.337 174.621 180.657 174.118 180.886 173.522Z" fill="white"/>
<path d="M195.994 188.86C195.491 189.227 195.079 189.684 194.712 190.188C194.346 190.646 194.026 191.195 193.797 191.791C194.3 191.378 194.712 190.921 195.079 190.463C195.445 189.959 195.766 189.456 195.994 188.86Z" fill="white"/>
<path d="M204.556 168.533C204.053 168.899 203.641 169.357 203.274 169.861C202.908 170.319 202.587 170.868 202.359 171.463C202.862 171.097 203.274 170.593 203.641 170.136C204.007 169.632 204.327 169.128 204.556 168.533Z" fill="white"/>
<path d="M171.365 186.938C170.861 187.305 170.449 187.763 170.083 188.266C169.716 188.77 169.396 189.273 169.167 189.869C169.67 189.502 170.083 189.045 170.449 188.541C170.815 188.037 171.136 187.534 171.365 186.938Z" fill="white"/>
<path d="M160.007 161.162C159.457 161.528 159.091 161.986 158.679 162.444C158.359 162.948 157.992 163.451 157.809 164.092C158.313 163.68 158.725 163.222 159.091 162.765C159.457 162.261 159.778 161.757 160.007 161.162Z" fill="white"/>
<path d="M159.277 173.752C158.865 173.249 158.407 172.837 157.949 172.47C157.445 172.104 156.942 171.784 156.347 171.555C156.713 172.058 157.171 172.47 157.629 172.837C158.132 173.203 158.636 173.523 159.277 173.752Z" fill="white"/>
<path d="M212.614 179.795C212.248 179.292 211.79 178.88 211.286 178.513C210.783 178.147 210.279 177.827 209.684 177.598C210.05 178.101 210.508 178.513 211.012 178.88C211.515 179.246 212.019 179.566 212.614 179.795Z" fill="white"/>
<path d="M196.178 174.851C195.812 174.347 195.354 173.935 194.896 173.569C194.392 173.203 193.889 172.882 193.248 172.653C193.66 173.157 194.118 173.569 194.575 173.935C195.079 174.302 195.583 174.622 196.178 174.851Z" fill="white"/>
<path d="M178.092 184.969C177.726 184.466 177.268 184.053 176.811 183.687C176.307 183.321 175.803 183 175.162 182.771C175.574 183.275 176.032 183.687 176.49 184.053C176.994 184.42 177.497 184.74 178.092 184.969Z" fill="white"/>
<path d="M188.989 200.078C188.623 199.574 188.165 199.162 187.661 198.796C187.158 198.429 186.654 198.109 186.059 197.88C186.425 198.384 186.883 198.796 187.386 199.162C187.89 199.528 188.394 199.849 188.989 200.078Z" fill="white"/>
<path d="M181.522 202.23C173.327 197.01 158.035 177.781 151.671 166.885C146.91 158.643 146.955 150.998 153.64 153.104C157.348 159.559 173.51 187.808 181.522 202.23Z" fill="#263238"/>
<path d="M216.73 174.85C215.814 174.393 207.161 171.554 205.284 171.005C203.361 170.409 195.669 167.983 193.655 167.571C193.563 167.525 193.517 167.662 193.609 167.708C195.486 168.486 203.269 170.959 205.192 171.6C207.115 172.195 215.723 174.805 216.73 174.988C216.821 174.988 216.821 174.896 216.73 174.85Z" fill="#263238"/>
<path d="M172.824 220.359C171.954 221.274 115.96 223.106 115.64 222.74C114.862 221.778 121.775 186.158 127.498 172.515C134.823 155.025 139.036 153.423 141.554 152.37C144.759 150.996 150.619 151.271 152.038 151.82C153.641 152.461 160.646 160.199 162.797 166.517C167.101 179.107 173.602 219.489 172.824 220.359Z" fill="#FFC235"/>
<path d="M148.148 162.396C148.056 163.037 148.102 163.633 148.194 164.228C148.285 164.823 148.423 165.418 148.697 166.013C148.789 165.372 148.743 164.777 148.652 164.182C148.56 163.587 148.423 162.946 148.148 162.396Z" fill="white"/>
<path d="M148.65 189.135C148.513 189.776 148.558 190.371 148.65 190.966C148.741 191.561 148.879 192.157 149.154 192.752C149.245 192.111 149.199 191.516 149.108 190.92C149.016 190.279 148.879 189.684 148.65 189.135Z" fill="white"/>
<path d="M116.784 217.108C116.693 217.704 116.738 218.345 116.784 218.94C116.921 219.535 117.013 220.13 117.288 220.725C117.379 220.084 117.379 219.489 117.288 218.894C117.196 218.253 117.059 217.658 116.784 217.108Z" fill="white"/>
<path d="M139.723 218.207C139.631 218.848 139.677 219.443 139.768 220.038C139.86 220.634 139.997 221.229 140.272 221.824C140.364 221.183 140.318 220.588 140.226 219.993C140.135 219.352 139.997 218.756 139.723 218.207Z" fill="white"/>
<path d="M158.629 205.8C158.538 206.441 158.583 207.082 158.629 207.677C158.721 208.272 158.858 208.867 159.133 209.463C159.224 208.822 159.179 208.226 159.133 207.585C159.041 206.99 158.904 206.395 158.629 205.8Z" fill="white"/>
<path d="M131.663 178.376C131.572 179.017 131.618 179.612 131.709 180.253C131.801 180.848 131.938 181.444 132.213 181.993C132.304 181.398 132.259 180.757 132.167 180.162C132.075 179.566 131.938 178.971 131.663 178.376Z" fill="white"/>
<path d="M128.961 201.909C128.869 202.55 128.915 203.191 129.007 203.786C129.098 204.381 129.235 204.977 129.464 205.572C129.602 204.931 129.556 204.336 129.464 203.695C129.373 203.1 129.235 202.504 128.961 201.909Z" fill="white"/>
<path d="M162.612 183.274C162.52 183.915 162.566 184.511 162.658 185.106C162.749 185.701 162.887 186.296 163.116 186.891C163.253 186.25 163.207 185.655 163.116 185.06C163.024 184.465 162.887 183.824 162.612 183.274Z" fill="white"/>
<path d="M142.745 173.705C143.34 173.796 143.981 173.751 144.577 173.659C145.172 173.567 145.767 173.43 146.362 173.155C145.721 173.064 145.126 173.11 144.531 173.201C143.89 173.293 143.295 173.43 142.745 173.705Z" fill="white"/>
<path d="M129.238 191.332C129.879 191.424 130.474 191.378 131.069 191.286C131.664 191.195 132.259 191.103 132.855 190.828C132.214 190.737 131.618 190.737 131.023 190.828C130.428 190.92 129.787 191.057 129.238 191.332Z" fill="white"/>
<path d="M150.618 201.313C151.259 201.451 151.854 201.405 152.449 201.313C153.044 201.222 153.639 201.084 154.235 200.81C153.594 200.718 152.999 200.764 152.403 200.855C151.762 200.947 151.167 201.084 150.618 201.313Z" fill="white"/>
<path d="M134.733 212.668C135.374 212.759 135.969 212.714 136.61 212.668C137.205 212.53 137.8 212.439 138.35 212.164C137.754 212.073 137.113 212.118 136.518 212.164C135.923 212.256 135.328 212.393 134.733 212.668Z" fill="white"/>
<path d="M166.049 212.347C166.644 212.438 167.285 212.392 167.88 212.347C168.476 212.255 169.071 212.118 169.666 211.843C169.025 211.751 168.43 211.797 167.835 211.843C167.194 211.934 166.598 212.072 166.049 212.347Z" fill="white"/>
<path d="M146.725 154.522C147.366 154.614 147.962 154.568 148.557 154.476C149.152 154.385 149.793 154.247 150.342 154.018C149.701 153.881 149.106 153.927 148.511 154.018C147.916 154.11 147.321 154.247 146.725 154.522Z" fill="white"/>
<path d="M141.097 159.238C140.594 159.605 140.181 160.062 139.815 160.566C139.449 161.024 139.128 161.573 138.9 162.168C139.403 161.802 139.815 161.344 140.181 160.841C140.548 160.337 140.868 159.833 141.097 159.238Z" fill="white"/>
<path d="M154.143 179.2C153.64 179.612 153.228 180.07 152.861 180.528C152.495 181.032 152.175 181.535 151.946 182.13C152.449 181.764 152.861 181.306 153.228 180.803C153.594 180.345 153.914 179.795 154.143 179.2Z" fill="white"/>
<path d="M167.147 199.299C166.597 199.665 166.231 200.123 165.819 200.627C165.498 201.13 165.132 201.634 164.949 202.229C165.453 201.863 165.865 201.405 166.231 200.901C166.597 200.398 166.918 199.894 167.147 199.299Z" fill="white"/>
<path d="M152.679 214.545C152.175 214.911 151.763 215.415 151.397 215.873C151.031 216.376 150.71 216.88 150.481 217.475C151.031 217.109 151.397 216.651 151.763 216.147C152.13 215.69 152.496 215.14 152.679 214.545Z" fill="white"/>
<path d="M122.829 209.783C122.279 210.195 121.913 210.653 121.547 211.111C121.181 211.615 120.814 212.118 120.631 212.713C121.135 212.347 121.547 211.889 121.913 211.386C122.279 210.928 122.6 210.378 122.829 209.783Z" fill="white"/>
<path d="M139.999 195.636C139.495 196.002 139.083 196.46 138.717 196.963C138.351 197.421 138.03 197.971 137.801 198.566C138.305 198.2 138.717 197.696 139.083 197.238C139.45 196.735 139.77 196.231 139.999 195.636Z" fill="white"/>
<path d="M160.004 161.16C159.455 161.526 159.089 161.984 158.677 162.442C158.356 162.946 157.99 163.449 157.807 164.09C158.31 163.678 158.722 163.22 159.089 162.763C159.455 162.259 159.775 161.755 160.004 161.16Z" fill="white"/>
<path d="M159.271 173.751C158.859 173.248 158.401 172.836 157.943 172.469C157.439 172.103 156.936 171.783 156.341 171.554C156.707 172.057 157.165 172.469 157.622 172.836C158.126 173.202 158.63 173.522 159.271 173.751Z" fill="white"/>
<path d="M122.463 195.453C121.914 195.269 121.41 194.949 120.952 194.583C120.983 194.43 121.013 194.262 121.044 194.079C121.074 194.11 121.105 194.14 121.136 194.171C121.639 194.537 122.097 194.949 122.463 195.453Z" fill="white"/>
<path d="M161.15 195.04C160.738 194.537 160.28 194.125 159.822 193.758C159.318 193.392 158.815 193.072 158.219 192.843C158.586 193.346 159.044 193.758 159.547 194.125C160.005 194.491 160.554 194.812 161.15 195.04Z" fill="white"/>
<path d="M163.255 221.092C162.888 220.589 162.43 220.176 161.927 219.81C161.469 219.444 160.92 219.123 160.324 218.895C160.736 219.444 161.194 219.81 161.652 220.222C162.156 220.543 162.659 220.909 163.255 221.092Z" fill="white"/>
<path d="M134.73 169.631C134.364 169.082 133.906 168.716 133.403 168.349C132.945 167.983 132.395 167.617 131.8 167.434C132.167 167.937 132.67 168.349 133.128 168.716C133.632 169.082 134.135 169.402 134.73 169.631Z" fill="white"/>
<path d="M145.993 207.631C145.627 207.128 145.169 206.716 144.665 206.349C144.207 205.983 143.658 205.663 143.063 205.434C143.475 205.937 143.933 206.349 144.39 206.716C144.894 207.082 145.398 207.402 145.993 207.631Z" fill="white"/>
<path d="M129.648 219.993C129.282 219.489 128.824 219.077 128.321 218.711C127.817 218.344 127.313 218.024 126.718 217.795C127.084 218.344 127.542 218.711 128.046 219.077C128.549 219.443 129.053 219.809 129.648 219.993Z" fill="white"/>
<path d="M142.651 184.282C142.285 183.732 141.827 183.366 141.324 182.954C140.866 182.633 140.317 182.267 139.721 182.084C140.088 182.588 140.591 183 141.049 183.366C141.553 183.732 142.056 184.053 142.651 184.282Z" fill="white"/>
<path d="M132.306 157.177C108.315 175.536 87.6663 200.946 89.7723 208.913C91.97 217.291 108.773 226.585 123.515 228.371C126.537 228.737 135.694 206.532 132.58 205.525C130.154 204.746 119.166 201.725 117.838 200.26C116.922 199.207 133.679 175.124 139.127 162.58C144.759 149.44 138.715 152.232 132.306 157.177Z" fill="#EB9481"/>
<path d="M126.35 204.931C126.35 204.931 135.553 205.755 141.551 206.579C144.939 207.037 150.616 208.364 152.905 209.83C156.339 212.027 169.387 223.427 166.686 226.632C164.259 229.517 160.505 224.984 160.505 224.984C160.505 224.984 165.084 229.562 161.741 231.714C158.445 233.866 154.095 227.502 154.095 227.502C154.095 227.502 159.315 231.989 155.561 233.958C152.31 235.652 146.495 228.83 146.495 228.83C146.495 228.83 152.493 232.996 149.334 235.056C145.854 237.346 135.873 228.189 135.873 228.189C127.999 229.15 123.146 228.693 117.56 227.182C116.553 226.907 126.35 204.931 126.35 204.931Z" fill="#EB9481"/>
<path d="M155.518 229.012C155.151 228.554 154.785 228.051 154.419 227.593C153.686 226.631 153 225.67 152.176 224.846C151.382 223.991 150.558 223.182 149.703 222.419C148.788 221.595 147.826 220.863 146.91 220.039C146.865 219.947 146.773 220.084 146.819 220.13C147.734 220.909 148.513 221.87 149.337 222.74C150.131 223.595 150.909 224.464 151.672 225.35C152.45 226.219 153.274 227.044 154.053 227.868C154.449 228.295 154.831 228.722 155.197 229.15C155.564 229.562 155.884 230.019 156.296 230.386C156.342 230.386 156.388 230.34 156.388 230.294C156.159 229.836 155.792 229.424 155.518 229.012Z" fill="#263238"/>
<path d="M161.421 225.945C160.963 225.03 158.17 221.596 157.392 220.772C155.881 219.169 154.279 217.658 152.493 216.376C152.401 216.331 152.356 216.422 152.401 216.514C153.866 218.116 155.377 219.719 156.888 221.321C157.621 222.099 160.871 225.762 161.238 226.128C161.329 226.22 161.467 226.083 161.421 225.945Z" fill="#263238"/>
<path d="M150.023 232.035C149.519 231.165 146.864 228.006 146.131 227.227C145.445 226.541 142.194 223.931 141.141 223.336C141.095 223.29 141.004 223.382 141.049 223.427C142.606 224.847 144.208 226.266 145.674 227.731C146.406 228.464 149.107 231.531 149.886 232.172C149.931 232.218 150.069 232.126 150.023 232.035Z" fill="#263238"/>
<path d="M133.589 204.61L120.678 229.287C120.678 229.287 91.559 221.595 89.0866 208.41C86.5685 195.27 119.899 164.961 130.155 157.773C140.456 150.63 146.729 149.669 138.625 165.968C130.521 182.267 117.93 199.07 118.984 199.894C119.853 200.626 133.589 204.61 133.589 204.61Z" fill="#FFC235"/>
<path d="M113.123 186.57C112.986 187.211 113.032 187.806 113.123 188.447C113.215 189.043 113.352 189.638 113.627 190.233C113.719 189.592 113.673 188.951 113.581 188.356C113.49 187.761 113.352 187.166 113.123 186.57Z" fill="white"/>
<path d="M116.784 217.108C116.692 217.704 116.738 218.345 116.784 218.94C116.921 219.535 117.013 220.13 117.288 220.725C117.379 220.084 117.379 219.489 117.288 218.894C117.196 218.253 117.059 217.658 116.784 217.108Z" fill="white"/>
<path d="M101.768 202.229C101.677 202.869 101.722 203.465 101.814 204.106C101.905 204.701 101.997 205.296 102.272 205.891C102.409 205.25 102.363 204.609 102.272 204.014C102.18 203.419 102.043 202.824 101.768 202.229Z" fill="white"/>
<path d="M131.711 178.467C131.711 178.497 131.696 178.528 131.666 178.558C131.666 178.497 131.666 178.436 131.666 178.375C131.696 178.406 131.711 178.436 131.711 178.467Z" fill="white"/>
<path d="M124.752 162.26C124.66 162.901 124.706 163.496 124.752 164.091C124.843 164.686 124.981 165.327 125.255 165.877C125.347 165.236 125.301 164.641 125.255 164.045C125.164 163.45 125.027 162.855 124.752 162.26Z" fill="white"/>
<path d="M129.468 205.571C129.239 204.976 129.101 204.381 129.01 203.786C128.979 203.603 128.949 203.419 128.918 203.236C129.101 203.267 129.269 203.313 129.422 203.374C129.422 203.496 129.437 203.603 129.468 203.694C129.559 204.335 129.605 204.93 129.468 205.571Z" fill="white"/>
<path d="M131.298 157.086C131.939 157.177 132.534 157.132 133.129 157.086C133.724 156.994 134.365 156.857 134.915 156.582C134.274 156.491 133.678 156.536 133.083 156.582C132.488 156.674 131.893 156.811 131.298 157.086Z" fill="white"/>
<path d="M101.035 188.356C101.63 188.448 102.271 188.402 102.866 188.31C103.461 188.219 104.056 188.081 104.652 187.807C104.011 187.715 103.415 187.761 102.774 187.853C102.179 187.944 101.584 188.081 101.035 188.356Z" fill="white"/>
<path d="M113.81 204.014C114.451 204.106 115.046 204.06 115.641 203.969C116.282 203.877 116.878 203.74 117.427 203.465C116.832 203.373 116.191 203.419 115.596 203.511C115 203.602 114.405 203.74 113.81 204.014Z" fill="white"/>
<path d="M106.21 222.052C106.851 222.144 107.446 222.098 108.042 222.007C108.682 221.915 109.278 221.778 109.827 221.503C109.232 221.411 108.591 221.457 107.996 221.549C107.401 221.64 106.805 221.778 106.21 222.052Z" fill="white"/>
<path d="M92.3365 209.508C92.9775 209.6 93.5727 209.554 94.1679 209.463C94.7631 209.371 95.3583 209.234 95.9535 208.959C95.3125 208.868 94.7173 208.913 94.1221 209.005C93.4812 209.096 92.886 209.234 92.3365 209.508Z" fill="white"/>
<path d="M119.212 172.47C119.807 172.561 120.448 172.561 121.043 172.47C121.638 172.378 122.233 172.241 122.828 171.966C122.188 171.874 121.592 171.92 120.951 172.012C120.356 172.103 119.761 172.195 119.212 172.47Z" fill="white"/>
<path d="M141.095 159.237C140.592 159.604 140.18 160.061 139.813 160.565C139.447 161.023 139.127 161.572 138.898 162.167C139.401 161.801 139.813 161.343 140.18 160.84C140.546 160.336 140.866 159.832 141.095 159.237Z" fill="white"/>
<path d="M122.831 180.527C122.281 180.939 121.915 181.397 121.549 181.855C121.182 182.359 120.816 182.862 120.633 183.457C121.136 183.091 121.549 182.633 121.915 182.176C122.281 181.672 122.602 181.168 122.831 180.527Z" fill="white"/>
<path d="M122.831 209.783C122.281 210.195 121.915 210.653 121.549 211.111C121.182 211.615 120.816 212.118 120.633 212.713C121.136 212.347 121.549 211.889 121.915 211.386C122.281 210.928 122.602 210.378 122.831 209.783Z" fill="white"/>
<path d="M103.782 213.72C103.233 214.132 102.867 214.59 102.455 215.047C102.088 215.551 101.768 216.055 101.539 216.65C102.088 216.284 102.5 215.826 102.867 215.322C103.233 214.864 103.553 214.315 103.782 213.72Z" fill="white"/>
<path d="M108.408 195.04C107.904 195.406 107.492 195.864 107.126 196.368C106.76 196.826 106.439 197.375 106.21 197.97C106.714 197.604 107.126 197.146 107.492 196.642C107.858 196.139 108.179 195.635 108.408 195.04Z" fill="white"/>
<path d="M121.73 225.167C121.181 225.579 120.815 226.037 120.403 226.495C120.082 226.998 119.716 227.502 119.533 228.097C120.036 227.731 120.448 227.273 120.815 226.815C121.181 226.312 121.501 225.808 121.73 225.167Z" fill="white"/>
<path d="M121.639 194.583C121.578 194.705 121.517 194.827 121.456 194.949C121.242 194.827 121.044 194.689 120.86 194.537C120.357 194.171 119.899 193.759 119.533 193.255C120.128 193.484 120.632 193.804 121.135 194.171C121.318 194.293 121.486 194.43 121.639 194.583Z" fill="white"/>
<path d="M96.5032 199.07C96.0911 198.566 95.6333 198.154 95.1754 197.788C94.6718 197.421 94.1682 197.101 93.573 196.872C93.9393 197.376 94.3971 197.788 94.8549 198.154C95.3586 198.52 95.8622 198.841 96.5032 199.07Z" fill="white"/>
<path d="M112.344 212.896C111.977 212.346 111.519 211.98 111.062 211.568C110.558 211.248 110.054 210.881 109.413 210.698C109.825 211.202 110.283 211.614 110.741 211.98C111.245 212.346 111.748 212.667 112.344 212.896Z" fill="white"/>
<path d="M134.732 169.631C134.366 169.082 133.908 168.716 133.404 168.349C132.947 167.983 132.397 167.617 131.802 167.434C132.168 167.937 132.672 168.349 133.13 168.716C133.633 169.082 134.137 169.402 134.732 169.631Z" fill="white"/>
<path d="M113.033 179.794C112.621 179.291 112.163 178.879 111.705 178.512C111.201 178.146 110.698 177.826 110.103 177.597C110.469 178.1 110.927 178.512 111.385 178.879C111.888 179.245 112.392 179.565 113.033 179.794Z" fill="white"/>
<path d="M116.557 225.853C117.153 225.029 121.639 217.108 122.555 215.369C123.471 213.583 127.362 206.487 128.187 204.609C128.232 204.564 128.095 204.472 128.049 204.564C126.905 206.258 122.967 213.4 122.006 215.14C120.998 216.925 116.786 224.846 116.42 225.807C116.374 225.899 116.512 225.899 116.557 225.853Z" fill="#263238"/>
<path d="M133.727 204.518C133.727 204.518 133.269 205.297 133.131 205.526C133.131 205.571 133.04 205.617 133.086 205.526C133.177 205.342 133.498 204.656 133.498 204.656C129.56 203.74 125.669 202.733 121.777 201.542C121.289 201.39 120.8 201.222 120.312 201.039C119.854 200.856 119.396 200.718 118.847 200.352C118.801 200.306 118.801 200.306 118.755 200.26C118.694 200.169 118.648 200.093 118.618 200.032C118.572 199.894 118.572 199.665 118.618 199.574C118.664 199.482 118.709 199.299 118.801 199.207C118.893 198.963 118.999 198.719 119.121 198.475C119.335 198.017 119.564 197.574 119.808 197.147C120.815 195.362 121.823 193.576 122.83 191.836C124.936 188.357 127.042 184.877 129.194 181.443C131.254 178.238 133.36 174.576 135.512 171.371C135.649 171.188 135.97 171.005 135.604 171.737C133.635 175.262 131.849 178.33 129.789 181.81L123.608 192.294C122.601 194.034 121.548 195.774 120.587 197.559C120.312 197.987 120.068 198.429 119.854 198.887C119.732 199.101 119.625 199.314 119.534 199.528C119.472 199.62 119.442 199.696 119.442 199.757C119.411 199.757 119.381 199.742 119.35 199.711C119.35 199.742 119.35 199.772 119.35 199.803C119.396 199.803 119.396 199.848 119.396 199.848C119.396 199.818 119.411 199.787 119.442 199.757C119.717 199.986 120.22 200.169 120.632 200.352L122.006 200.856C123.929 201.542 125.852 202.138 127.775 202.733L133.727 204.518Z" fill="#263238"/>
<path d="M119.441 199.757C119.411 199.788 119.395 199.818 119.395 199.849C119.395 199.849 119.395 199.803 119.349 199.803C119.349 199.772 119.349 199.742 119.349 199.711C119.38 199.742 119.411 199.757 119.441 199.757Z" fill="#263238"/>
<path d="M135.008 175.996C135.282 175.767 135.236 175.95 135.099 176.133C134.412 177.003 133.314 178.01 132.535 178.788C131.62 179.75 130.658 180.665 129.605 181.49C130.383 180.391 131.299 179.429 132.215 178.468C133.13 177.552 133.909 176.82 135.008 175.996Z" fill="#263238"/>
<path d="M150.799 161.573C147.64 162.443 141.963 157.864 139.628 154.019C139.49 153.744 139.765 150.905 139.948 147.38C140.04 145.274 140.086 142.893 139.994 140.741C139.994 140.329 153.729 143.397 153.729 143.397C153.729 143.397 152.585 148.021 152.814 151.775C152.814 152.08 152.844 152.37 152.905 152.645C152.936 152.706 152.951 152.767 152.951 152.828C153.317 154.476 153.821 160.703 150.799 161.573Z" fill="#EB9481"/>
<path d="M140.819 140.786C141.643 144.403 144.344 153.102 151.578 152.965C152.066 152.934 152.524 152.888 152.951 152.827C152.951 152.736 152.951 152.69 152.906 152.644C152.844 152.369 152.799 152.079 152.768 151.774C152.585 148.02 153.73 143.396 153.73 143.396C153.73 143.396 143.795 141.152 140.819 140.786Z" fill="#263238"/>
<path d="M156.894 119.131C156.894 119.131 161.335 120.962 162.159 125.403C162.938 129.89 161.93 134.606 161.564 134.835C161.152 135.064 156.894 119.131 156.894 119.131Z" fill="#263238"/>
<path d="M138.352 124.763C137.07 129.662 140.138 143.443 143.663 146.419C148.791 150.723 156.941 150.814 160.512 144.725C163.991 138.819 159.688 120.917 155.75 118.216C149.982 114.279 140.23 117.575 138.352 124.763Z" fill="#EB9481"/>
<path d="M152.493 133.874C152.448 133.828 152.402 133.92 152.402 133.965C152.677 134.881 152.768 135.98 151.99 136.483C151.944 136.483 151.99 136.529 151.99 136.529C152.997 136.163 152.86 134.698 152.493 133.874Z" fill="#263238"/>
<path d="M151.441 133.096C149.93 133.279 150.434 136.301 151.853 136.118C153.227 135.935 152.723 132.913 151.441 133.096Z" fill="#263238"/>
<path d="M157.712 132.959C157.712 132.913 157.804 133.005 157.804 133.05C157.941 133.966 158.262 135.019 159.177 135.202C159.177 135.202 159.223 135.248 159.177 135.248C158.124 135.294 157.712 133.874 157.712 132.959Z" fill="#263238"/>
<path d="M158.399 131.86C159.865 131.448 160.551 134.469 159.178 134.836C157.804 135.156 157.163 132.18 158.399 131.86Z" fill="#263238"/>
<path d="M149.61 130.944C150.022 130.807 150.388 130.669 150.8 130.532C151.258 130.349 151.625 130.257 151.945 129.845C152.082 129.616 152.037 129.25 151.853 129.067C151.396 128.655 150.755 128.701 150.205 128.884C149.61 129.113 149.198 129.387 148.832 129.937C148.511 130.44 149.061 131.081 149.61 130.944Z" fill="#263238"/>
<path d="M159.406 129.387C158.948 129.387 158.581 129.341 158.124 129.295C157.666 129.25 157.254 129.25 156.887 128.929C156.659 128.792 156.613 128.38 156.75 128.151C157.116 127.647 157.712 127.556 158.307 127.556C158.948 127.601 159.406 127.785 159.863 128.197C160.321 128.609 159.955 129.387 159.406 129.387Z" fill="#263238"/>
<path d="M152.45 142.848C152.725 143.031 152.999 143.305 153.32 143.26C153.686 143.214 154.007 143.031 154.327 142.848C154.327 142.848 154.373 142.848 154.373 142.893C154.19 143.305 153.686 143.626 153.274 143.626C152.816 143.626 152.542 143.305 152.358 142.893C152.358 142.848 152.404 142.848 152.45 142.848Z" fill="#263238"/>
<path d="M152.955 139.871C153.596 140.604 154.466 140.924 155.336 140.924C155.702 140.924 156.114 140.879 156.48 140.787C156.572 140.757 156.648 140.726 156.709 140.696C156.77 140.696 156.831 140.68 156.892 140.65C156.984 140.604 157.03 140.512 157.03 140.375C157.03 140.344 157.03 140.314 157.03 140.283L156.984 140.192C156.892 139.459 156.618 138.406 156.618 138.406C156.938 138.498 158.357 138.864 158.266 138.452C157.533 135.385 156.709 131.951 155.336 129.021C155.29 128.929 155.153 128.975 155.153 129.066C155.748 132.088 156.892 134.973 157.533 137.948C157.075 137.857 156.297 137.674 155.931 137.765C155.839 137.811 156.48 139.871 156.48 140.192C156.511 140.192 156.511 140.207 156.48 140.238C155.336 140.604 154.328 140.375 153.001 139.78C152.955 139.734 152.863 139.826 152.955 139.871Z" fill="#263238"/>
<path d="M155.977 140.466C155.977 140.466 155.519 141.473 154.695 141.931C154.375 142.114 154.054 142.206 153.642 142.16C152.864 142.114 152.726 141.428 152.772 140.787C152.818 140.283 152.955 139.825 152.955 139.825C152.955 139.825 154.237 140.695 155.977 140.466Z" fill="#263238"/>
<path d="M154.695 141.931C154.375 142.114 154.054 142.206 153.642 142.16C152.864 142.114 152.726 141.428 152.772 140.787C153.596 140.741 154.466 141.153 154.695 141.931Z" fill="#FF98B9"/>
<path d="M140.184 137.857C141.786 138.086 142.793 133.141 143.022 131.264C143.206 129.616 142.885 124.534 142.885 124.168C142.885 123.801 150.348 127.464 154.056 125.679C157.765 123.893 159.825 119.956 159.596 118.307C159.367 116.659 153.827 113.363 149.615 113.821C145.403 114.324 140.596 120.597 140.596 120.597C140.596 120.597 142.153 117.941 142.061 117.804C141.969 117.621 139.405 119.131 139.268 121.146C139.268 121.146 139.36 118.628 139.177 118.628C138.948 118.628 137.208 121.054 137.94 122.519C137.94 122.519 135.834 125.038 136.017 127.373C136.155 129.753 138.261 137.628 140.184 137.857Z" fill="#263238"/>
<path d="M156.712 124.396C155.614 125.175 154.515 125.953 153.233 126.319C151.859 126.777 150.348 126.64 148.929 126.365C147.51 126.09 146.136 125.541 144.9 124.809C143.756 124.168 142.748 123.343 141.604 122.794C141.283 122.657 141.054 123.069 141.237 123.298C143.252 125.404 146.365 126.915 149.204 127.327C152.18 127.739 154.744 126.686 156.712 124.442C156.758 124.442 156.712 124.396 156.712 124.396Z" fill="#263238"/>
<path d="M141.74 135.98C141.74 135.98 138.352 131.676 136.383 132.913C134.415 134.149 137.162 140.513 139.588 141.291C142.015 142.024 142.793 139.78 142.793 139.78L141.74 135.98Z" fill="#EB9481"/>
<path d="M137.206 134.744C137.16 134.744 137.16 134.79 137.206 134.79C138.9 135.385 139.907 136.896 140.594 138.453C140.09 137.857 139.358 137.583 138.579 138.224C138.534 138.224 138.58 138.315 138.625 138.27C139.312 138.086 139.816 138.178 140.319 138.727C140.64 139.094 140.914 139.551 141.143 140.009C141.235 140.147 141.51 140.055 141.464 139.872C141.464 139.872 141.449 139.857 141.418 139.826C141.372 137.72 139.495 134.79 137.206 134.744Z" fill="#263238"/>
<path d="M138.029 155.025C139.586 156.811 141.051 158.642 142.791 160.245C144.439 161.756 146.408 163.083 148.605 163.312C150.757 163.495 152.909 163.037 153.687 160.428C154.328 158.322 154.237 156.216 153.87 153.514C153.825 153.423 154.008 153.377 154.008 153.514C154.511 156.948 155.015 162.259 151.902 163.45C148.422 164.777 144.988 162.992 142.516 160.565C140.822 158.963 139.22 157.086 137.938 155.117C137.938 155.071 137.983 155.025 138.029 155.025Z" fill="#263238"/>
<rect x="193.027" y="68" width="105" height="34" rx="8" fill="#383E45"/>
<g clip-path="url(#clip0_3835_91193)">
<path d="M223.402 81.25C224.438 81.25 225.277 80.4105 225.277 79.375C225.277 78.3395 224.438 77.5 223.402 77.5C222.367 77.5 221.527 78.3395 221.527 79.375C221.527 80.4105 222.367 81.25 223.402 81.25Z" stroke="#F5F5F5" stroke-linecap="round" stroke-linejoin="round"/>
<path d="M214.027 79.375H221.527" stroke="#F5F5F5" stroke-linecap="round" stroke-linejoin="round"/>
<path d="M225.277 79.375H229.027" stroke="#F5F5F5" stroke-linecap="round" stroke-linejoin="round"/>
<path d="M217.777 86.875C218.813 86.875 219.652 86.0355 219.652 85C219.652 83.9645 218.813 83.125 217.777 83.125C216.742 83.125 215.902 83.9645 215.902 85C215.902 86.0355 216.742 86.875 217.777 86.875Z" stroke="#F5F5F5" stroke-linecap="round" stroke-linejoin="round"/>
<path d="M214.027 85H215.902" stroke="#F5F5F5" stroke-linecap="round" stroke-linejoin="round"/>
<path d="M219.652 85H229.027" stroke="#F5F5F5" stroke-linecap="round" stroke-linejoin="round"/>
<path d="M226.215 92.5C227.25 92.5 228.09 91.6605 228.09 90.625C228.09 89.5895 227.25 88.75 226.215 88.75C225.179 88.75 224.34 89.5895 224.34 90.625C224.34 91.6605 225.179 92.5 226.215 92.5Z" stroke="#F5F5F5" stroke-linecap="round" stroke-linejoin="round"/>
<path d="M214.027 90.625H224.34" stroke="#F5F5F5" stroke-linecap="round" stroke-linejoin="round"/>
<path d="M228.09 90.625H229.027" stroke="#F5F5F5" stroke-width="1.5" stroke-linecap="round" stroke-linejoin="round"/>
</g>
<path d="M246.347 81.159V84.526H250.379V85.737H246.347V90H244.849V79.948H251.079V81.159H246.347ZM253.816 82.888V90H252.451V82.888H253.816ZM254.075 80.69C254.075 80.816 254.049 80.9373 253.998 81.054C253.947 81.166 253.877 81.2663 253.788 81.355C253.704 81.439 253.604 81.5067 253.487 81.558C253.37 81.6047 253.249 81.628 253.123 81.628C252.997 81.628 252.878 81.6047 252.766 81.558C252.654 81.5067 252.554 81.439 252.465 81.355C252.381 81.2663 252.313 81.166 252.262 81.054C252.215 80.9373 252.192 80.816 252.192 80.69C252.192 80.5593 252.215 80.438 252.262 80.326C252.313 80.2093 252.381 80.109 252.465 80.025C252.554 79.9363 252.654 79.8687 252.766 79.822C252.878 79.7707 252.997 79.745 253.123 79.745C253.249 79.745 253.37 79.7707 253.487 79.822C253.604 79.8687 253.704 79.9363 253.788 80.025C253.877 80.109 253.947 80.2093 253.998 80.326C254.049 80.438 254.075 80.5593 254.075 80.69ZM257.122 79.668V90H255.75V79.668H257.122ZM261.228 90.112C260.654 90.112 260.211 89.951 259.898 89.629C259.59 89.307 259.436 88.8473 259.436 88.25V83.994H258.61C258.531 83.994 258.463 83.9707 258.407 83.924C258.356 83.8727 258.33 83.798 258.33 83.7V83.147L259.485 82.986L259.793 80.865C259.812 80.7857 259.847 80.725 259.898 80.683C259.954 80.6363 260.024 80.613 260.108 80.613H260.801V83H262.817V83.994H260.801V88.159C260.801 88.439 260.869 88.649 261.004 88.789C261.144 88.9243 261.321 88.992 261.536 88.992C261.662 88.992 261.769 88.9757 261.858 88.943C261.951 88.9103 262.031 88.8753 262.096 88.838C262.161 88.796 262.217 88.7587 262.264 88.726C262.311 88.6933 262.353 88.677 262.39 88.677C262.437 88.677 262.472 88.6887 262.495 88.712C262.523 88.7307 262.551 88.7633 262.579 88.81L262.985 89.468C262.761 89.6733 262.495 89.832 262.187 89.944C261.879 90.056 261.559 90.112 261.228 90.112ZM268.674 85.653C268.674 85.3823 268.635 85.1327 268.555 84.904C268.481 84.6753 268.369 84.477 268.219 84.309C268.07 84.141 267.888 84.0103 267.673 83.917C267.459 83.8237 267.211 83.777 266.931 83.777C266.357 83.777 265.905 83.9427 265.573 84.274C265.247 84.6053 265.039 85.065 264.95 85.653H268.674ZM269.801 88.985C269.633 89.181 269.44 89.3513 269.22 89.496C269.001 89.636 268.768 89.7503 268.52 89.839C268.273 89.9277 268.016 89.993 267.75 90.035C267.489 90.077 267.23 90.098 266.973 90.098C266.483 90.098 266.028 90.0163 265.608 89.853C265.193 89.685 264.831 89.4423 264.523 89.125C264.22 88.803 263.982 88.4063 263.809 87.935C263.641 87.459 263.557 86.913 263.557 86.297C263.557 85.8023 263.634 85.3427 263.788 84.918C263.942 84.4887 264.162 84.1153 264.446 83.798C264.736 83.4807 265.088 83.231 265.503 83.049C265.919 82.867 266.385 82.776 266.903 82.776C267.337 82.776 267.736 82.8483 268.1 82.993C268.469 83.133 268.786 83.3383 269.052 83.609C269.318 83.8797 269.526 84.2133 269.675 84.61C269.829 85.0067 269.906 85.4593 269.906 85.968C269.906 86.178 269.883 86.3203 269.836 86.395C269.79 86.465 269.703 86.5 269.577 86.5H264.915C264.929 86.9247 264.99 87.2957 265.097 87.613C265.205 87.9257 265.352 88.187 265.538 88.397C265.73 88.607 265.956 88.7633 266.217 88.866C266.479 88.9687 266.77 89.02 267.092 89.02C267.396 89.02 267.657 88.985 267.876 88.915C268.1 88.845 268.292 88.7703 268.45 88.691C268.614 88.607 268.749 88.53 268.856 88.46C268.968 88.39 269.066 88.355 269.15 88.355C269.262 88.355 269.349 88.397 269.409 88.481L269.801 88.985ZM272.591 84.253C272.82 83.7863 273.095 83.42 273.417 83.154C273.739 82.888 274.127 82.755 274.579 82.755C274.733 82.755 274.878 82.7737 275.013 82.811C275.153 82.8437 275.275 82.895 275.377 82.965L275.286 83.994C275.254 84.12 275.177 84.183 275.055 84.183C274.99 84.183 274.892 84.1713 274.761 84.148C274.631 84.12 274.491 84.106 274.341 84.106C274.122 84.106 273.928 84.1387 273.76 84.204C273.592 84.2647 273.441 84.358 273.305 84.484C273.175 84.6053 273.058 84.757 272.955 84.939C272.853 85.1163 272.757 85.3193 272.668 85.548V90H271.303V82.888H272.087C272.237 82.888 272.337 82.916 272.388 82.972C272.444 83.0233 272.484 83.1167 272.507 83.252L272.591 84.253ZM280.512 84.113C280.475 84.1737 280.435 84.218 280.393 84.246C280.351 84.2693 280.298 84.281 280.232 84.281C280.158 84.281 280.074 84.2553 279.98 84.204C279.892 84.1527 279.782 84.0967 279.651 84.036C279.525 83.9753 279.376 83.9193 279.203 83.868C279.031 83.8167 278.825 83.791 278.587 83.791C278.391 83.791 278.212 83.8167 278.048 83.868C277.89 83.9147 277.754 83.9823 277.642 84.071C277.53 84.155 277.444 84.2577 277.383 84.379C277.323 84.4957 277.292 84.6217 277.292 84.757C277.292 84.9343 277.344 85.0813 277.446 85.198C277.554 85.3147 277.691 85.415 277.859 85.499C278.032 85.583 278.226 85.66 278.44 85.73C278.66 85.7953 278.881 85.8653 279.105 85.94C279.334 86.0147 279.556 86.101 279.77 86.199C279.99 86.2923 280.183 86.4113 280.351 86.556C280.524 86.696 280.662 86.8663 280.764 87.067C280.872 87.2677 280.925 87.5127 280.925 87.802C280.925 88.1333 280.865 88.4413 280.743 88.726C280.627 89.006 280.452 89.2487 280.218 89.454C279.99 89.6593 279.705 89.8203 279.364 89.937C279.024 90.0537 278.634 90.112 278.195 90.112C277.705 90.112 277.253 90.0303 276.837 89.867C276.422 89.7037 276.074 89.496 275.794 89.244L276.116 88.719C276.154 88.6537 276.2 88.6047 276.256 88.572C276.312 88.5347 276.387 88.516 276.48 88.516C276.569 88.516 276.66 88.5487 276.753 88.614C276.847 88.6793 276.959 88.7517 277.089 88.831C277.22 88.9057 277.379 88.9757 277.565 89.041C277.752 89.1017 277.985 89.132 278.265 89.132C278.499 89.132 278.702 89.104 278.874 89.048C279.047 88.9873 279.189 88.908 279.301 88.81C279.418 88.7073 279.504 88.5907 279.56 88.46C279.616 88.3293 279.644 88.1917 279.644 88.047C279.644 87.8603 279.591 87.7063 279.483 87.585C279.381 87.459 279.243 87.3517 279.07 87.263C278.902 87.1743 278.709 87.0973 278.489 87.032C278.27 86.9667 278.046 86.8967 277.817 86.822C277.589 86.7473 277.365 86.661 277.145 86.563C276.926 86.465 276.73 86.3413 276.557 86.192C276.389 86.0427 276.252 85.8607 276.144 85.646C276.042 85.4313 275.99 85.17 275.99 84.862C275.99 84.5867 276.046 84.323 276.158 84.071C276.275 83.819 276.441 83.5973 276.655 83.406C276.875 83.2147 277.143 83.063 277.46 82.951C277.782 82.8343 278.149 82.776 278.559 82.776C279.031 82.776 279.455 82.8507 279.833 83C280.216 83.1493 280.543 83.3547 280.813 83.616L280.512 84.113Z" fill="#F5F5F5"/>
<rect x="141.527" y="25.5" width="104" height="33" rx="7.5" fill="white"/>
<path d="M162.871 38.586C162.824 38.6653 162.775 38.7237 162.724 38.761C162.673 38.7983 162.607 38.817 162.528 38.817C162.444 38.817 162.348 38.7797 162.241 38.705C162.134 38.6257 161.998 38.5393 161.835 38.446C161.676 38.348 161.485 38.2617 161.261 38.187C161.037 38.1077 160.769 38.068 160.456 38.068C160.162 38.068 159.903 38.1077 159.679 38.187C159.46 38.2617 159.275 38.3667 159.126 38.502C158.977 38.6327 158.862 38.789 158.783 38.971C158.708 39.1483 158.671 39.342 158.671 39.552C158.671 39.8227 158.739 40.0467 158.874 40.224C159.014 40.4013 159.196 40.553 159.42 40.679C159.644 40.805 159.898 40.9147 160.183 41.008C160.468 41.1013 160.759 41.1993 161.058 41.302C161.357 41.4 161.648 41.5143 161.933 41.645C162.218 41.7757 162.472 41.9413 162.696 42.142C162.92 42.338 163.1 42.5807 163.235 42.87C163.375 43.1547 163.445 43.5047 163.445 43.92C163.445 44.3633 163.368 44.7787 163.214 45.166C163.065 45.5533 162.845 45.8917 162.556 46.181C162.267 46.4703 161.91 46.699 161.485 46.867C161.065 47.0303 160.587 47.112 160.05 47.112C159.728 47.112 159.415 47.0793 159.112 47.014C158.809 46.9533 158.522 46.867 158.251 46.755C157.98 46.6383 157.726 46.5007 157.488 46.342C157.255 46.1787 157.045 45.9967 156.858 45.796L157.285 45.082C157.327 45.026 157.376 44.9793 157.432 44.942C157.493 44.9047 157.56 44.886 157.635 44.886C157.733 44.886 157.845 44.9373 157.971 45.04C158.102 45.1427 158.26 45.257 158.447 45.383C158.638 45.5043 158.865 45.6163 159.126 45.719C159.392 45.8217 159.714 45.873 160.092 45.873C160.4 45.873 160.675 45.8333 160.918 45.754C161.161 45.67 161.364 45.5533 161.527 45.404C161.695 45.25 161.823 45.0657 161.912 44.851C162.001 44.6363 162.045 44.3983 162.045 44.137C162.045 43.843 161.977 43.6027 161.842 43.416C161.707 43.2293 161.527 43.073 161.303 42.947C161.079 42.821 160.825 42.7137 160.54 42.625C160.255 42.5363 159.964 42.4453 159.665 42.352C159.366 42.254 159.075 42.142 158.79 42.016C158.505 41.89 158.251 41.7267 158.027 41.526C157.803 41.3207 157.623 41.0663 157.488 40.763C157.353 40.455 157.285 40.077 157.285 39.629C157.285 39.2697 157.355 38.922 157.495 38.586C157.635 38.25 157.838 37.9537 158.104 37.697C158.375 37.4357 158.706 37.228 159.098 37.074C159.49 36.9153 159.938 36.836 160.442 36.836C161.007 36.836 161.525 36.927 161.996 37.109C162.472 37.2863 162.885 37.543 163.235 37.879L162.871 38.586ZM167.925 39.776C168.448 39.776 168.919 39.8623 169.339 40.035C169.764 40.203 170.123 40.448 170.417 40.77C170.716 41.0873 170.944 41.4723 171.103 41.925C171.262 42.373 171.341 42.877 171.341 43.437C171.341 43.997 171.262 44.5033 171.103 44.956C170.944 45.4087 170.716 45.7937 170.417 46.111C170.123 46.4283 169.764 46.6733 169.339 46.846C168.919 47.014 168.448 47.098 167.925 47.098C167.398 47.098 166.922 47.014 166.497 46.846C166.077 46.6733 165.718 46.4283 165.419 46.111C165.12 45.7937 164.889 45.4087 164.726 44.956C164.567 44.5033 164.488 43.997 164.488 43.437C164.488 42.877 164.567 42.373 164.726 41.925C164.889 41.4723 165.12 41.0873 165.419 40.77C165.718 40.448 166.077 40.203 166.497 40.035C166.922 39.8623 167.398 39.776 167.925 39.776ZM167.925 46.034C168.597 46.034 169.099 45.8077 169.43 45.355C169.761 44.9023 169.927 44.2653 169.927 43.444C169.927 42.6227 169.761 41.9857 169.43 41.533C169.099 41.0757 168.597 40.847 167.925 40.847C167.244 40.847 166.735 41.0757 166.399 41.533C166.068 41.9857 165.902 42.6227 165.902 43.444C165.902 44.2653 166.068 44.9023 166.399 45.355C166.735 45.8077 167.244 46.034 167.925 46.034ZM174.083 41.253C174.311 40.7863 174.587 40.42 174.909 40.154C175.231 39.888 175.618 39.755 176.071 39.755C176.225 39.755 176.369 39.7737 176.505 39.811C176.645 39.8437 176.766 39.895 176.869 39.965L176.778 40.994C176.745 41.12 176.668 41.183 176.547 41.183C176.481 41.183 176.383 41.1713 176.253 41.148C176.122 41.12 175.982 41.106 175.833 41.106C175.613 41.106 175.42 41.1387 175.252 41.204C175.084 41.2647 174.932 41.358 174.797 41.484C174.666 41.6053 174.549 41.757 174.447 41.939C174.344 42.1163 174.248 42.3193 174.16 42.548V47H172.795V39.888H173.579C173.728 39.888 173.828 39.916 173.88 39.972C173.936 40.0233 173.975 40.1167 173.999 40.252L174.083 41.253ZM184.593 47H183.221V40.994H179.651V45.159C179.651 45.439 179.718 45.649 179.854 45.789C179.994 45.9243 180.171 45.992 180.386 45.992C180.512 45.992 180.619 45.9757 180.708 45.943C180.801 45.9103 180.88 45.8753 180.946 45.838C181.011 45.796 181.067 45.7587 181.114 45.726C181.16 45.6933 181.202 45.677 181.24 45.677C181.286 45.677 181.321 45.6887 181.345 45.712C181.373 45.7307 181.401 45.7633 181.429 45.81L181.835 46.468C181.611 46.6733 181.345 46.832 181.037 46.944C180.729 47.056 180.409 47.112 180.078 47.112C179.504 47.112 179.06 46.951 178.748 46.629C178.44 46.307 178.286 45.8473 178.286 45.25V40.994H177.46C177.38 40.994 177.313 40.9707 177.257 40.924C177.205 40.8727 177.18 40.798 177.18 40.7V40.147L178.342 39.986L178.643 37.865C178.661 37.7857 178.696 37.725 178.748 37.683C178.804 37.6363 178.874 37.613 178.958 37.613H179.651V40H184.593V47ZM184.901 37.648C184.901 37.774 184.875 37.8953 184.824 38.012C184.772 38.124 184.702 38.2243 184.614 38.313C184.53 38.397 184.429 38.4647 184.313 38.516C184.196 38.5627 184.075 38.586 183.949 38.586C183.823 38.586 183.704 38.5627 183.592 38.516C183.48 38.4647 183.379 38.397 183.291 38.313C183.207 38.2243 183.139 38.124 183.088 38.012C183.041 37.8953 183.018 37.774 183.018 37.648C183.018 37.5173 183.041 37.3937 183.088 37.277C183.139 37.1603 183.207 37.06 183.291 36.976C183.379 36.8873 183.48 36.8197 183.592 36.773C183.704 36.7217 183.823 36.696 183.949 36.696C184.075 36.696 184.196 36.7217 184.313 36.773C184.429 36.8197 184.53 36.8873 184.614 36.976C184.702 37.06 184.772 37.1603 184.824 37.277C184.875 37.3937 184.901 37.5173 184.901 37.648ZM187.785 40.875C187.939 40.7117 188.1 40.5623 188.268 40.427C188.436 40.2917 188.614 40.1773 188.8 40.084C188.992 39.986 189.195 39.9113 189.409 39.86C189.629 39.804 189.862 39.776 190.109 39.776C190.501 39.776 190.844 39.8413 191.138 39.972C191.437 40.1027 191.687 40.287 191.887 40.525C192.088 40.7583 192.24 41.0407 192.342 41.372C192.445 41.7033 192.496 42.0697 192.496 42.471V47H191.124V42.471C191.124 41.9623 191.008 41.568 190.774 41.288C190.541 41.0033 190.184 40.861 189.703 40.861C189.353 40.861 189.024 40.945 188.716 41.113C188.413 41.2763 188.131 41.5003 187.869 41.785V47H186.504V39.888H187.323C187.515 39.888 187.634 39.979 187.68 40.161L187.785 40.875ZM196.767 43.451C197.01 43.451 197.222 43.4183 197.404 43.353C197.591 43.2877 197.745 43.1967 197.866 43.08C197.992 42.9587 198.086 42.814 198.146 42.646C198.212 42.478 198.244 42.2937 198.244 42.093C198.244 41.6823 198.118 41.3557 197.866 41.113C197.619 40.8657 197.253 40.742 196.767 40.742C196.287 40.742 195.92 40.8657 195.668 41.113C195.421 41.3557 195.297 41.6823 195.297 42.093C195.297 42.2937 195.328 42.478 195.388 42.646C195.454 42.8093 195.547 42.9517 195.668 43.073C195.794 43.1897 195.948 43.283 196.13 43.353C196.317 43.4183 196.529 43.451 196.767 43.451ZM198.944 47.371C198.944 47.203 198.898 47.07 198.804 46.972C198.711 46.8693 198.583 46.79 198.419 46.734C198.261 46.6733 198.074 46.6313 197.859 46.608C197.645 46.58 197.418 46.559 197.18 46.545C196.947 46.531 196.707 46.5193 196.459 46.51C196.212 46.496 195.974 46.4727 195.745 46.44C195.503 46.5613 195.302 46.7083 195.143 46.881C194.989 47.0537 194.912 47.2567 194.912 47.49C194.912 47.6393 194.95 47.7793 195.024 47.91C195.104 48.0407 195.223 48.1527 195.381 48.246C195.545 48.344 195.748 48.4187 195.99 48.47C196.238 48.526 196.532 48.554 196.872 48.554C197.208 48.554 197.505 48.5237 197.761 48.463C198.018 48.407 198.233 48.3253 198.405 48.218C198.583 48.1153 198.716 47.9917 198.804 47.847C198.898 47.7023 198.944 47.5437 198.944 47.371ZM200.33 40.154V40.665C200.33 40.833 200.225 40.938 200.015 40.98L199.252 41.092C199.318 41.2367 199.369 41.3907 199.406 41.554C199.444 41.7127 199.462 41.8807 199.462 42.058C199.462 42.408 199.395 42.7253 199.259 43.01C199.124 43.29 198.937 43.5303 198.699 43.731C198.461 43.9317 198.177 44.0857 197.845 44.193C197.519 44.3003 197.159 44.354 196.767 44.354C196.445 44.354 196.144 44.319 195.864 44.249C195.724 44.333 195.617 44.4263 195.542 44.529C195.472 44.627 195.437 44.725 195.437 44.823C195.437 44.9863 195.505 45.1077 195.64 45.187C195.78 45.2663 195.96 45.3247 196.179 45.362C196.403 45.3947 196.658 45.4157 196.942 45.425C197.232 45.4343 197.523 45.4507 197.817 45.474C198.116 45.4927 198.408 45.53 198.692 45.586C198.982 45.6373 199.236 45.7237 199.455 45.845C199.679 45.9617 199.859 46.125 199.994 46.335C200.134 46.5403 200.204 46.8087 200.204 47.14C200.204 47.448 200.127 47.7467 199.973 48.036C199.824 48.3253 199.605 48.582 199.315 48.806C199.026 49.03 198.674 49.2097 198.258 49.345C197.843 49.4803 197.372 49.548 196.844 49.548C196.317 49.548 195.857 49.4967 195.465 49.394C195.078 49.2913 194.754 49.1537 194.492 48.981C194.236 48.8083 194.042 48.6077 193.911 48.379C193.785 48.1503 193.722 47.9123 193.722 47.665C193.722 47.3197 193.83 47.028 194.044 46.79C194.259 46.5473 194.555 46.3583 194.933 46.223C194.728 46.1297 194.565 46.0037 194.443 45.845C194.322 45.6817 194.261 45.467 194.261 45.201C194.261 45.0983 194.28 44.9933 194.317 44.886C194.355 44.774 194.411 44.6643 194.485 44.557C194.565 44.445 194.66 44.34 194.772 44.242C194.889 44.144 195.022 44.0553 195.171 43.976C194.821 43.78 194.546 43.521 194.345 43.199C194.145 42.8723 194.044 42.492 194.044 42.058C194.044 41.708 194.112 41.393 194.247 41.113C194.383 40.833 194.569 40.5927 194.807 40.392C195.05 40.1913 195.337 40.0373 195.668 39.93C196.004 39.8227 196.371 39.769 196.767 39.769C197.383 39.769 197.913 39.8973 198.356 40.154H200.33Z" fill="#23282F"/>
<path d="M217.432 35.1713C217.379 35.117 217.316 35.0739 217.247 35.0445C217.177 35.0151 217.103 35 217.028 35C216.953 35 216.878 35.0151 216.809 35.0445C216.739 35.0739 216.676 35.117 216.623 35.1713L213.195 38.6708C213.088 38.7803 213.027 38.9289 213.027 39.0837C213.027 39.2386 213.088 39.3872 213.195 39.4967C213.302 39.6062 213.448 39.6677 213.599 39.6677C213.751 39.6677 213.897 39.6062 214.004 39.4967L216.456 36.9922V48.4156C216.456 48.5703 216.517 48.7187 216.624 48.828C216.731 48.9374 216.876 48.9989 217.028 48.9989C217.179 48.9989 217.325 48.9374 217.432 48.828C217.539 48.7187 217.599 48.5703 217.599 48.4156V36.9922L220.051 39.4967C220.159 39.6062 220.304 39.6677 220.456 39.6677C220.608 39.6677 220.753 39.6062 220.86 39.4967C220.968 39.3872 221.028 39.2386 221.028 39.0837C221.028 38.9289 220.968 38.7803 220.86 38.6708L217.432 35.1713ZM224.629 48.8355C224.736 48.941 224.878 49 225.027 49C225.175 49 225.318 48.941 225.425 48.8355L228.853 45.4527C228.962 45.3451 229.025 45.1976 229.027 45.0427C229.03 44.8878 228.972 44.7382 228.867 44.6269C228.761 44.5155 228.617 44.4515 228.465 44.4488C228.313 44.4462 228.167 44.5052 228.057 44.6129L225.598 47.0403V35.5855C225.598 35.4308 225.538 35.2824 225.431 35.173C225.324 35.0637 225.178 35.0022 225.027 35.0022C224.875 35.0022 224.73 35.0637 224.623 35.173C224.516 35.2824 224.456 35.4308 224.456 35.5855V47.0403L221.996 44.614C221.943 44.56 221.879 44.5174 221.809 44.4887C221.739 44.4599 221.664 44.4456 221.589 44.4465C221.513 44.4474 221.439 44.4635 221.37 44.4939C221.3 44.5243 221.238 44.5684 221.185 44.6237C221.133 44.679 221.092 44.7443 221.064 44.8159C221.036 44.8875 221.023 44.964 221.024 45.041C221.026 45.118 221.042 45.1939 221.072 45.2643C221.103 45.3348 221.146 45.3984 221.201 45.4516L224.629 48.8344V48.8355Z" fill="#181B21"/>
<rect x="141.527" y="25.5" width="104" height="33" rx="7.5" stroke="#B6B7BA"/>
<defs>
<clipPath id="clip0_3835_91193">
<rect width="22.5" height="22.5" fill="white" transform="translate(210.277 73.75)"/>
</clipPath>
</defs>
</svg>
