<svg width="294" height="227" viewBox="0 0 294 227" fill="none" xmlns="http://www.w3.org/2000/svg">
<path d="M130.076 37.3865L114.235 66.6768L76.2499 45.7379L88.0207 24.0005L92.1184 16.4651L99.336 20.4582L130.076 37.3865Z" fill="#EBEBEB"/>
<path d="M84.1629 46.3752L97.3582 22.5543L98.3251 23.0974L85.1747 46.9093L84.1629 46.3752Z" fill="#DBDBDB"/>
<path d="M86.6258 47.7394L99.7762 23.9276L100.761 24.4441L87.5927 48.2825L86.6258 47.7394Z" fill="#DBDBDB"/>
<path d="M89.0429 49.1105L102.211 25.2721L103.205 25.8327L90.0272 49.627L89.0429 49.1105Z" fill="#DBDBDB"/>
<path d="M91.4778 50.4562L104.628 26.6444L105.639 27.1784L92.472 51.0168L91.4778 50.4562Z" fill="#DBDBDB"/>
<path d="M93.8954 51.8283L107.063 27.9898L108.074 28.5239L94.9071 52.3623L93.8954 51.8283Z" fill="#DBDBDB"/>
<path d="M96.3288 53.174L109.524 29.3532L110.491 29.8962L97.3406 53.7081L96.3288 53.174Z" fill="#DBDBDB"/>
<path d="M98.7915 54.5363L111.942 30.7245L112.926 31.241L99.7583 55.0794L98.7915 54.5363Z" fill="#DBDBDB"/>
<path d="M101.209 55.9084L114.377 32.07L115.389 32.604L102.193 56.4248L101.209 55.9084Z" fill="#DBDBDB"/>
<path d="M103.644 57.2541L116.811 33.4156L117.805 33.9762L104.638 57.8147L103.644 57.2541Z" fill="#DBDBDB"/>
<path d="M106.061 58.6252L119.229 34.7867L120.24 35.3208L107.073 59.1592L106.061 58.6252Z" fill="#DBDBDB"/>
<path d="M108.495 59.9709L121.69 36.15L122.657 36.6931L109.507 60.5049L108.495 59.9709Z" fill="#DBDBDB"/>
<path d="M110.957 61.3332L124.108 37.5213L125.092 38.0378L111.924 61.8762L110.957 61.3332Z" fill="#DBDBDB"/>
<path d="M147.825 41.3539L119.423 58.7845L96.4182 22.0303L117.514 9.09756L129.205 11.6207L147.825 41.3539Z" fill="#EBEBEB"/>
<path d="M117.887 9.1073L129.56 11.6309L122.283 16.1027L117.887 9.1073Z" fill="#DBDBDB"/>
<path d="M103.221 26.4751L119.118 16.8051L119.699 17.7483L103.802 27.4183L103.221 26.4751Z" fill="#DBDBDB"/>
<path d="M104.651 28.8755L120.565 19.1789L121.147 20.1221L105.232 29.8187L104.651 28.8755Z" fill="#DBDBDB"/>
<path d="M106.099 31.2495L121.995 21.5795L122.621 22.5137L106.68 32.1927L106.099 31.2495Z" fill="#DBDBDB"/>
<path d="M107.547 33.6275L130.855 19.452L131.464 20.4128L108.128 34.5706L107.547 33.6275Z" fill="#DBDBDB"/>
<path d="M108.977 36.0281L132.303 21.826L132.911 22.7868L109.603 36.9622L108.977 36.0281Z" fill="#DBDBDB"/>
<path d="M110.425 38.4019L133.733 24.2264L134.359 25.1606L111.034 39.3626L110.425 38.4019Z" fill="#DBDBDB"/>
<path d="M111.873 40.7759L135.208 26.618L135.79 27.5612L112.481 41.7366L111.873 40.7759Z" fill="#DBDBDB"/>
<path d="M113.303 43.1755L136.656 28.9911L137.238 29.9342L113.929 44.1097L113.303 43.1755Z" fill="#DBDBDB"/>
<path d="M114.777 45.5669L138.104 31.3649L138.685 32.3081L115.359 46.5101L114.777 45.5669Z" fill="#DBDBDB"/>
<path d="M116.225 47.9409L139.534 33.7655L140.133 34.6821L116.807 48.8841L116.225 47.9409Z" fill="#DBDBDB"/>
<path d="M117.673 50.315L140.982 36.1396L141.564 37.0827L118.255 51.2581L117.673 50.315Z" fill="#DBDBDB"/>
<path d="M119.104 52.7146L142.43 38.5126L143.012 39.4558L119.703 53.6312L119.104 52.7146Z" fill="#DBDBDB"/>
<path d="M149.699 43.6105L122.45 16.6536L91.0315 48.1191L118.263 75.1027L149.699 43.6105Z" fill="#FFC235"/>
<path d="M124.218 53.9365L142.114 36.0696L121.898 33.8685L124.218 53.9365Z" fill="#FFC235"/>
<g opacity="0.3">
<path d="M124.218 53.9365L142.114 36.0696L121.898 33.8685L124.218 53.9365Z" fill="white"/>
</g>
<path d="M115.255 62.757L131.175 46.8724L115.848 47.5681L115.255 62.757Z" fill="#FFC235"/>
<g opacity="0.5">
<path d="M115.255 62.757L131.175 46.8724L115.848 47.5681L115.255 62.757Z" fill="white"/>
</g>
<path d="M149.624 43.6244L117.967 75.1063L110.25 67.5138L141.916 36.076L149.624 43.6244Z" fill="#FFC235"/>
<g opacity="0.5">
<path d="M149.624 43.6244L117.967 75.1063L110.25 67.5138L141.916 36.076L149.624 43.6244Z" fill="white"/>
</g>
<path opacity="0.9" d="M107.79 53.6486C109.838 52.2602 109.787 49.3157 107.745 47.9097C106.603 47.1276 105.032 47.1256 103.913 47.9086C101.882 49.2705 101.889 52.224 103.975 53.621C105.118 54.4031 106.671 54.4317 107.79 53.6486Z" fill="white"/>
<path d="M83.574 104.612C83.4983 104.374 83.4346 104.134 83.383 103.891L82.6683 104.076C82.7199 104.319 82.7835 104.56 82.8592 104.798L83.574 104.612Z" fill="#E2E2E3"/>
<path d="M88.3018 62.4432L87.6581 62.0446C87.4435 62.4443 87.2076 62.8611 86.9504 63.2951L87.5864 63.6573C87.8198 63.2283 88.0582 62.8236 88.3018 62.4432ZM86.9222 64.9368L86.2504 64.5821C86.0358 64.9818 85.8263 65.4059 85.622 65.8542L86.2938 66.2089C86.4981 65.7606 86.7076 65.3366 86.9222 64.9368ZM85.6653 67.481L85.0088 67.1992C84.8232 67.6183 84.6401 68.0495 84.4595 68.4929L85.1237 68.8112C85.3042 68.3678 85.4848 67.9244 85.6653 67.481ZM84.6178 70.1338L83.9256 69.8595C83.7689 70.2979 83.6028 70.7509 83.4274 71.2186L84.1554 71.4855C84.307 71.0228 84.4611 70.5723 84.6178 70.1338ZM83.693 72.8372L83.0084 72.5992C82.8568 73.062 82.7172 73.5222 82.5894 73.9799L83.3098 74.2104C83.4324 73.7284 83.5601 73.2706 83.693 72.8372ZM82.9265 75.5837L82.2138 75.3896C82.1099 75.8424 81.9967 76.3098 81.874 76.7919L82.6225 76.9785C82.7213 76.5014 82.8226 76.0365 82.9265 75.5837ZM82.3184 78.3733L81.6134 78.2157C81.5146 78.6928 81.4277 79.1674 81.3528 79.6395L82.0501 79.7607C82.1489 79.2836 82.2384 78.8211 82.3184 78.3733ZM81.861 81.1696L81.1356 81.0923C81.0845 81.5595 81.024 82.0413 80.9541 82.5377L81.6796 82.6149C81.7256 82.1235 81.7861 81.6417 81.861 81.1696ZM81.5697 84.0454L80.8442 83.9682C80.7931 84.4353 80.7565 84.9121 80.7343 85.3986L81.4598 85.4759C81.4819 84.9894 81.5186 84.5126 81.5697 84.0454ZM81.4214 86.8915L80.6678 86.8581C80.6695 87.3397 80.6712 87.8212 80.6728 88.3027L81.3906 88.3435C81.389 87.862 81.3992 87.378 81.4214 86.8915ZM81.4238 89.7443L80.6855 89.7838C80.7111 90.2604 80.7366 90.7369 80.7621 91.2135L81.5003 91.174C81.4748 90.6974 81.4493 90.2208 81.4238 89.7443ZM81.5769 92.6037L80.8463 92.6797C80.8957 93.1513 80.9476 93.635 81.0021 94.1309L81.7326 94.055C81.6782 93.559 81.6263 93.0753 81.5769 92.6037ZM81.8807 95.4698L81.1502 95.5458C81.2285 96.0367 81.3042 96.5155 81.3774 96.9821L82.1003 96.8697C82.0271 96.4031 81.9539 95.9364 81.8807 95.4698ZM83.2879 102.519C83.1619 102.038 83.0384 101.569 82.9176 101.113L82.2023 101.262C82.3283 101.743 82.4517 102.211 82.5726 102.668L83.2879 102.519ZM82.3353 98.3426L81.6124 98.455C81.7145 98.941 81.8141 99.4148 81.9112 99.8765L82.6264 99.7276C82.5294 99.2659 82.4323 98.8042 82.3353 98.3426Z" fill="#E2E2E3"/>
<path d="M89.7528 60.6446L89.1309 60.2024C88.9985 60.4071 88.866 60.6118 88.7336 60.8166L89.3477 61.2223C89.4802 61.0176 89.6152 60.825 89.7528 60.6446Z" fill="#E2E2E3"/>
<path d="M85.1212 62.7693L85.549 63.3661L89.4856 60.5443L88.292 65.2757L89.0049 65.4339L90.6549 58.7458L85.1212 62.7693Z" fill="#E2E2E3"/>
<path d="M140.658 18.7711L140.85 19.4956C140.879 19.4516 141.096 19.4072 141.566 19.3111L141.409 18.5792C140.903 18.6828 140.658 18.7711 140.658 18.7711Z" fill="#E2E2E3"/>
<path d="M143.009 19.0387C143.45 18.9743 143.943 18.9122 144.487 18.8525L144.402 18.1054C143.834 18.17 143.329 18.2345 142.888 18.2989L143.009 19.0387ZM145.981 18.7396C146.428 18.6996 146.916 18.6766 147.446 18.6706L147.434 17.9087C146.885 17.944 146.373 17.9719 145.896 17.9924L145.981 18.7396ZM148.964 18.6675C149.44 18.647 149.934 18.6484 150.445 18.6718L150.477 17.9391C149.942 17.9206 149.433 17.9095 148.952 17.9056L148.964 18.6675ZM151.95 18.786C152.437 18.8143 152.926 18.8548 153.418 18.9075L153.487 18.1674C152.965 18.0952 152.461 18.0449 151.974 18.0166L151.95 18.786ZM154.939 19.0949C155.406 19.1526 155.889 19.22 156.386 19.2971L156.492 18.5496C155.994 18.4724 155.499 18.4075 155.007 18.3548L154.939 19.0949ZM157.878 19.5285C158.357 19.635 158.847 19.739 159.35 19.8406L159.491 19.0856C158.989 18.9841 158.489 18.8947 157.991 18.8176L157.878 19.5285ZM160.821 20.1526C161.299 20.2591 161.78 20.3778 162.264 20.5087L162.45 19.783C161.942 19.657 161.449 19.5407 160.97 19.4343L160.821 20.1526ZM163.715 20.9014C164.179 21.0616 164.656 21.2194 165.145 21.3747L165.367 20.6415C164.878 20.4862 164.392 20.3432 163.908 20.2123L163.715 20.9014ZM166.567 21.8114C167.032 21.9716 167.499 22.1441 167.969 22.3287L168.199 21.6322C167.729 21.4476 167.262 21.2751 166.797 21.1148L166.567 21.8114ZM169.342 22.89C169.812 23.0747 170.272 23.274 170.723 23.488L171.033 22.8134C170.558 22.6043 170.098 22.4049 169.652 22.2154L169.342 22.89ZM172.067 24.0934C172.518 24.3074 172.969 24.5214 173.42 24.7354L173.73 24.0607C173.28 23.8467 172.829 23.6327 172.378 23.4187L172.067 24.0934ZM174.744 25.4214C175.176 25.6647 175.62 25.9057 176.076 26.1441L176.43 25.4986C175.969 25.2358 175.525 24.9949 175.099 24.7759L174.744 25.4214Z" fill="#E2E2E3"/>
<path d="M177.303 26.9023C177.508 27.0385 177.711 27.1626 177.911 27.2745L178.308 26.6586C178.078 26.5273 177.861 26.3935 177.656 26.2572L177.303 26.9023Z" fill="#E2E2E3"/>
<path d="M175.438 22.742L174.891 23.1971L178.037 26.9836L173.233 26.0927L173.126 26.8398L179.898 28.0928L175.438 22.742Z" fill="#E2E2E3"/>
<path fill-rule="evenodd" clip-rule="evenodd" d="M294 37.2319V217.745C294 222.729 290.043 226.763 285.134 226.763H197.465C192.557 226.763 188.561 222.729 188.561 217.745V37.2319C188.561 32.2092 192.557 28.1758 197.465 28.1758H285.134C290.043 28.1758 294 32.2092 294 37.2319ZM288.483 44.0429C288.483 35.2152 284.906 33.9214 280.53 33.9214H264.815C263.864 33.9214 263.141 34.9488 263.141 36.2425V36.7753C263.141 39.8193 261.505 39.8193 259.45 39.8193H223.111C221.095 39.8193 219.458 39.8193 219.458 36.7753V36.2425C219.458 34.9488 218.697 33.9214 217.784 33.9214H202.069C197.693 33.9214 194.117 34.378 194.117 44.0429V212.151C194.117 216.907 197.693 220.751 202.069 220.751H280.53C284.906 220.751 288.483 216.907 288.483 212.151V44.0429Z" fill="#383E45"/>
<path d="M246.246 36.0526H236.353C236.011 36.0526 235.744 35.7862 235.744 35.4438C235.744 35.1013 236.011 34.835 236.353 34.835H246.246C246.589 34.835 246.855 35.1013 246.855 35.4438C246.855 35.7862 246.589 36.0526 246.246 36.0526Z" fill="#263238"/>
<path d="M288.483 44.0434V212.152C288.483 216.908 284.906 220.751 280.53 220.751H202.069C197.694 220.751 194.117 216.908 194.117 212.152V44.0434C194.117 34.3785 197.694 33.9219 202.069 33.9219H217.784C218.698 33.9219 219.459 34.9492 219.459 36.243V36.7757C219.459 39.8197 221.095 39.8197 223.112 39.8197H259.45C261.505 39.8197 263.141 39.8197 263.141 36.7757V36.243C263.141 34.9492 263.864 33.9219 264.815 33.9219H280.53C284.906 33.9219 288.483 35.2156 288.483 44.0434Z" fill="white"/>
<path d="M288.483 44.0434V56.6001H194.117V44.0434C194.117 34.3785 197.694 33.9219 202.069 33.9219H217.784C218.698 33.9219 219.459 34.9492 219.459 36.243V36.7757C219.459 39.8197 221.095 39.8197 223.112 39.8197H259.45C261.505 39.8197 263.141 39.8197 263.141 36.7757V36.243C263.141 34.9492 263.864 33.9219 264.815 33.9219H280.53C284.906 33.9219 288.483 35.2156 288.483 44.0434Z" fill="#FFC235"/>
<path d="M215.083 37.6888C215.032 37.7395 214.981 37.7902 214.93 37.841C214.905 37.8664 214.88 37.8917 214.854 37.9171C214.436 37.5366 213.941 37.3083 213.37 37.3083C212.8 37.3083 212.305 37.5366 211.924 37.9171C211.899 37.8917 211.874 37.8664 211.848 37.841C211.798 37.7902 211.747 37.7395 211.696 37.6888C211.747 37.6127 211.81 37.5493 211.886 37.4985C212.013 37.3971 212.153 37.3083 212.305 37.2322C212.508 37.1307 212.711 37.0673 212.914 37.0419C213.015 37.0165 213.117 36.9912 213.218 36.9658C213.256 36.9658 213.447 36.9658 213.447 36.9658C213.523 36.9912 213.599 37.0039 213.675 37.0039C213.852 37.0292 214.03 37.0673 214.208 37.118C214.334 37.1688 214.461 37.2322 214.588 37.3083C214.689 37.359 214.804 37.4351 214.93 37.5366C214.981 37.5873 215.032 37.638 215.083 37.6888Z" fill="white"/>
<path d="M212.381 38.4119C212.305 38.3358 212.229 38.247 212.153 38.1455C212.432 37.8919 212.762 37.7397 213.142 37.6889C213.713 37.6128 214.169 37.765 214.588 38.1455C214.512 38.247 214.436 38.3358 214.36 38.4119C214.081 38.1329 213.751 37.9933 213.37 37.9933C212.99 37.9933 212.66 38.1329 212.381 38.4119Z" fill="white"/>
<path d="M214.131 38.6406C214.055 38.7167 213.967 38.7928 213.865 38.8689C213.738 38.7421 213.573 38.6787 213.37 38.6787C213.168 38.6787 213.003 38.7421 212.876 38.8689C212.8 38.7928 212.724 38.7167 212.647 38.6406C213.028 38.2601 213.713 38.2221 214.131 38.6406Z" fill="white"/>
<path d="M213.599 39.0974C213.599 39.2116 213.485 39.3257 213.37 39.3257C213.256 39.3257 213.18 39.2116 213.18 39.0974C213.18 38.9833 213.256 38.8691 213.37 38.8691C213.485 38.8691 213.599 38.9833 213.599 39.0974Z" fill="white"/>
<path d="M200.281 38.1459C200.281 37.8035 200.547 37.5371 200.89 37.5371C201.232 37.5371 201.537 37.8035 201.537 38.1459C201.537 38.4884 201.232 38.7547 200.89 38.7547C200.547 38.7547 200.281 38.4884 200.281 38.1459Z" fill="white"/>
<path d="M202.26 38.1459C202.26 37.8035 202.526 37.5371 202.868 37.5371C203.211 37.5371 203.477 37.8035 203.477 38.1459C203.477 38.4884 203.211 38.7547 202.868 38.7547C202.526 38.7547 202.26 38.4884 202.26 38.1459Z" fill="white"/>
<path d="M204.2 38.1459C204.2 37.8035 204.505 37.5371 204.847 37.5371C205.19 37.5371 205.456 37.8035 205.456 38.1459C205.456 38.4884 205.19 38.7547 204.847 38.7547C204.505 38.7547 204.2 38.4884 204.2 38.1459Z" fill="white"/>
<path d="M206.179 38.1459C206.179 37.8035 206.445 37.5371 206.788 37.5371C207.168 37.5371 207.435 37.8035 207.435 38.1459C207.435 38.4884 207.168 38.7547 206.788 38.7547C206.445 38.7547 206.179 38.4884 206.179 38.1459Z" fill="white"/>
<path d="M208.157 38.1459C208.157 37.8035 208.424 37.5371 208.766 37.5371C209.109 37.5371 209.413 37.8035 209.413 38.1459C209.413 38.4884 209.109 38.7547 208.766 38.7547C208.424 38.7547 208.157 38.4884 208.157 38.1459Z" fill="white"/>
<path fill-rule="evenodd" clip-rule="evenodd" d="M281.405 39.5154H276.306V37.1562H281.405V39.5154ZM276.573 39.249H281.139V37.4226H276.573V39.249Z" fill="white"/>
<path d="M279.997 37.5371H276.725V39.0972H279.997V37.5371Z" fill="white"/>
<path d="M281.862 38.9451H281.405V37.6895H281.862V38.9451Z" fill="white"/>
<path d="M224.748 115.883L219.839 111.088C228.477 102.261 241.871 99.7874 253.134 104.886C262.57 109.186 269.115 118.242 270.256 128.592L263.445 129.315C262.57 121.4 257.547 114.437 250.28 111.126C241.642 107.207 231.369 109.11 224.748 115.883Z" fill="#FFC235"/>
<path d="M257.091 124.977L264.663 142.556L276.078 127.222L257.091 124.977Z" fill="#FFC235"/>
<g opacity="0.2">
<path d="M224.748 115.883L219.839 111.088C228.477 102.261 241.871 99.7874 253.134 104.886C262.57 109.186 269.115 118.242 270.256 128.592L263.445 129.315C262.57 121.4 257.547 114.437 250.28 111.126C241.642 107.207 231.369 109.11 224.748 115.883Z" fill="black"/>
<path d="M257.091 124.977L264.663 142.556L276.078 127.222L257.091 124.977Z" fill="black"/>
</g>
<path d="M229.466 157.092C220.03 152.792 213.485 143.736 212.343 133.424L219.154 132.663C220.029 140.578 225.052 147.541 232.32 150.851C241.414 154.999 252.297 152.602 258.803 145.03L264.016 149.52C255.531 159.337 241.3 162.457 229.466 157.092Z" fill="#FFC235"/>
<path d="M225.509 137.001L217.936 119.46L206.521 134.794L225.509 137.001Z" fill="#FFC235"/>
<path d="M1.3897 199.518C3.10198 200.165 53.1768 201.687 55.1173 200.546C55.3076 200.431 56.6394 193.05 57.2862 187.342C57.2862 187.266 58.6561 186.353 60.7489 184.983C67.3316 180.645 80.9918 171.893 80.9918 171.893L55.7262 150.547L31.8683 174.671L30.7268 175.813L25.6661 180.949C25.6661 180.949 5.34697 190.919 3.33028 192.403C1.35164 193.887 -0.360635 198.871 1.3897 199.518Z" fill="#D3766A"/>
<path d="M1.3897 199.518C3.10198 200.165 53.1768 201.687 55.1173 200.545C55.3076 200.431 56.6394 193.05 57.2862 187.342C57.2862 187.266 58.6561 186.353 60.7489 184.983L30.7268 175.812L25.6661 180.949C25.6661 180.949 5.34697 190.919 3.33028 192.403C1.35164 193.887 -0.360635 198.871 1.3897 199.518Z" fill="white"/>
<path d="M0.742921 199.557C2.53131 200.203 53.6715 201.535 55.6502 200.356C56.4112 199.937 56.7917 196.322 57.2863 187.342L24.7529 181.482C24.7529 181.482 4.73825 190.767 2.72156 192.289C0.704875 193.849 -1.04546 198.948 0.742921 199.557Z" fill="#FFC235"/>
<path opacity="0.1" d="M6.64087 200.013C20.5294 200.66 54.0521 201.307 55.6502 200.356C56.3732 199.937 56.7917 196.322 57.2864 187.342L37.5 183.766C30.9553 187.076 14.4413 195.866 6.64087 200.013Z" fill="black"/>
<path d="M1.54186 197.539C10.1033 197.577 44.6914 198.414 53.1767 199.099C53.2528 199.099 53.2528 199.137 53.1767 199.137C44.6914 199.327 10.1033 198.186 1.54186 197.691C1.35161 197.691 1.35161 197.539 1.54186 197.539Z" fill="#263238"/>
<path d="M6.03183 190.538C8.08657 190.5 10.0272 191.527 11.1306 192.783C12.158 193.963 13.0332 195.637 12.919 197.387C12.919 197.463 12.8049 197.463 12.8049 197.387C12.4244 194.039 9.4564 190.995 6.03183 190.652C5.99378 190.652 5.99378 190.538 6.03183 190.538Z" fill="#263238"/>
<path d="M21.214 183.271C24.6386 183.347 28.5958 184.64 30.6506 187.494C30.7267 187.608 30.5745 187.722 30.4603 187.684C27.4163 186.01 24.4863 184.716 21.1379 183.727C20.9096 183.651 20.9476 183.271 21.214 183.271Z" fill="#263238"/>
<path d="M18.5507 184.26C21.9752 184.298 25.8945 185.592 27.9873 188.483C28.0634 188.598 27.8731 188.712 27.797 188.636C24.7149 186.961 21.823 185.706 18.4746 184.678C18.2082 184.602 18.2843 184.26 18.5507 184.26Z" fill="#263238"/>
<path d="M15.8489 185.211C19.2735 185.249 23.2307 186.581 25.2855 189.435C25.3616 189.549 25.2094 189.663 25.1333 189.587C22.0512 187.913 19.1213 186.657 15.7728 185.63C15.5445 185.553 15.6206 185.211 15.8489 185.211Z" fill="#263238"/>
<path d="M13.1853 186.162C16.6099 186.238 20.5671 187.532 22.6219 190.386C22.698 190.5 22.5458 190.614 22.4316 190.576C19.3876 188.902 16.4577 187.608 13.1092 186.619C12.8809 186.543 12.9189 186.162 13.1853 186.162Z" fill="#263238"/>
<path d="M51.198 190.881C55.0791 190.995 54.8889 196.969 51.0458 196.854C47.2027 196.74 47.3548 190.766 51.198 190.881Z" fill="white"/>
<path fill-rule="evenodd" clip-rule="evenodd" d="M17.7516 174.024C19.5019 172.654 21.6708 174.1 22.6982 175.622C24.3724 178.096 25.4759 181.52 25.59 184.488C25.59 184.564 25.5139 184.602 25.4759 184.564C25.3998 184.831 25.0953 185.021 24.867 184.831C22.4698 183.08 19.6541 181.52 17.8657 179.085C16.8383 177.639 16.0773 175.356 17.7516 174.024ZM21.7469 181.444C22.9265 182.319 24.106 183.156 25.2476 184.108C24.6768 182.357 24.1821 180.607 23.4211 178.971C23.0787 178.172 22.6982 177.335 22.2416 176.612C21.5186 175.47 18.2462 172.502 17.7896 176.231C17.5613 178.286 20.3771 180.379 21.7469 181.444Z" fill="#263238"/>
<path fill-rule="evenodd" clip-rule="evenodd" d="M34.0753 185.972C31.0693 186.352 28.0253 185.439 25.0954 184.906C24.791 184.83 24.7148 184.488 24.8671 184.259C24.829 184.221 24.791 184.183 24.829 184.107C27.074 182.167 30.3083 180.606 33.2763 180.112C35.0647 179.807 37.6141 180.378 37.8424 182.623C38.0326 184.754 35.8257 185.743 34.0753 185.972ZM36.2062 184.069C38.6034 181.215 34.1895 180.835 32.8577 181.101C32.0206 181.291 31.1454 181.596 30.3464 181.862C28.6341 182.471 26.9979 183.308 25.3617 184.107C26.8077 184.259 28.2536 184.564 29.6995 184.792C31.4118 185.058 34.8744 185.667 36.2062 184.069Z" fill="#263238"/>
<path d="M16.6481 185.516C18.6648 184.412 20.6815 183.271 22.7362 182.243C23.7255 181.749 24.6387 181.254 25.4378 180.531C26.2749 179.732 27.036 178.895 27.8731 178.096C31.1835 174.861 34.4558 171.589 37.8043 168.355C39.6307 166.643 41.4191 164.854 43.2075 163.104C43.2456 163.066 43.3217 163.104 43.2836 163.18C43.1695 163.332 40.1635 166.643 38.7175 168.126C37.0813 169.839 35.4452 171.475 33.809 173.111C32.1601 174.76 30.5239 176.409 28.9004 178.058C28.0633 178.895 27.2262 179.719 26.3891 180.531C25.6281 181.292 24.829 181.901 23.8777 182.396C21.5186 183.537 19.1214 184.602 16.7242 185.668C16.6481 185.706 16.572 185.592 16.6481 185.516Z" fill="#263238"/>
<path d="M37.9948 163.484L41.6476 168.012L59.8739 190.804C59.8739 190.804 87.1563 172.768 95.185 166.756C95.4514 166.566 124.979 189.511 147.086 194.647C164.057 198.605 175.967 192.669 183.387 177.03L155.686 163.256C132.513 150.547 106.638 130.76 90.4287 132.016C72.8112 133.348 37.9948 163.484 37.9948 163.484Z" fill="#455A64"/>
<path d="M44.121 162.152C47.8499 166.566 46.8225 165.272 50.5515 169.724C52.3399 171.931 61.4721 182.928 62.8419 185.249C62.88 185.287 62.8039 185.363 62.7658 185.325C60.7491 183.498 51.8453 172.311 50.0949 170.104C46.4801 165.538 47.5455 166.832 43.9687 162.228C43.9307 162.152 44.0448 162.038 44.121 162.152Z" fill="#263238"/>
<path d="M44.5394 171.665L59.8739 190.805C59.8739 190.805 87.1563 172.768 95.185 166.756C95.4513 166.566 124.979 189.511 147.086 194.648C164.057 198.605 175.967 192.669 183.387 177.03L155.686 163.256C152.604 161.582 149.483 159.755 146.363 157.891C121.326 161.315 66.5328 168.697 44.5394 171.665Z" fill="#263238"/>
<path d="M7.8967 207.395C9.64704 208.004 59.6838 209.145 61.6244 207.965C61.8527 207.851 63.1083 200.431 63.7172 194.724C63.7172 194.648 65.087 193.734 67.1417 192.327C73.6865 187.951 87.2706 179.085 87.2706 179.085L61.8146 157.967L38.147 182.281L37.0436 183.423L32.0209 188.598C32.0209 188.598 11.7779 198.757 9.79924 200.279C7.8206 201.763 6.14637 206.786 7.8967 207.395Z" fill="#D3766A"/>
<path d="M7.8967 207.395C9.64704 208.004 59.6838 209.145 61.6244 207.966C61.8527 207.851 63.1083 200.432 63.7172 194.724C63.7172 194.648 65.087 193.735 67.1417 192.327L37.0436 183.423L32.0209 188.598C32.0209 188.598 11.7779 198.757 9.79924 200.279C7.8206 201.763 6.14637 206.786 7.8967 207.395Z" fill="white"/>
<path d="M7.24991 207.471C9.0383 208.08 60.1785 208.993 62.1571 207.776C62.9182 207.319 63.2987 203.742 63.7172 194.724L31.1077 189.169C31.1077 189.169 11.2072 198.606 9.15245 200.166C7.17381 201.726 5.49958 206.824 7.24991 207.471Z" fill="#FFC235"/>
<path d="M8.04864 205.417C16.6101 205.379 51.2362 205.912 59.6835 206.52C59.7596 206.52 59.7596 206.558 59.6835 206.558C51.1982 206.825 16.6101 205.988 8.04864 205.569C7.85838 205.569 7.85838 205.417 8.04864 205.417Z" fill="#263238"/>
<path d="M12.5004 198.377C14.5171 198.339 16.4958 199.328 17.5992 200.584C18.6266 201.764 19.5018 203.4 19.4257 205.188C19.4257 205.226 19.3115 205.226 19.3115 205.188C18.893 201.802 15.887 198.834 12.5004 198.491C12.4243 198.491 12.4243 198.377 12.5004 198.377Z" fill="#263238"/>
<path d="M27.6068 190.995C31.0314 190.995 34.9887 192.289 37.0815 195.143C37.1576 195.257 37.0054 195.371 36.8912 195.295C33.8091 193.659 30.8792 192.403 27.5307 191.414C27.3024 191.338 27.3405 190.995 27.6068 190.995Z" fill="#263238"/>
<path d="M24.9053 191.984C28.3679 191.984 32.3252 193.278 34.3799 196.132C34.494 196.246 34.3038 196.36 34.2277 196.284C31.1456 194.648 28.2157 193.392 24.8672 192.403C24.6008 192.327 24.677 191.984 24.9053 191.984Z" fill="#263238"/>
<path d="M22.2416 192.974C25.7042 192.974 29.6615 194.267 31.7162 197.121C31.7923 197.235 31.6401 197.349 31.564 197.273C28.4819 195.637 25.552 194.382 22.2035 193.392C21.9372 193.316 22.0133 192.974 22.2416 192.974Z" fill="#263238"/>
<path d="M19.578 193.963C23.0025 193.963 26.9598 195.257 29.0526 198.11C29.1287 198.225 28.9765 198.339 28.9004 198.263C25.8183 196.626 22.8884 195.371 19.5019 194.381C19.2736 194.305 19.3497 193.963 19.578 193.963Z" fill="#263238"/>
<path d="M57.6669 198.339C61.5101 198.415 61.3959 204.389 57.5528 204.313C53.6716 204.236 53.7858 198.263 57.6669 198.339Z" fill="white"/>
<path fill-rule="evenodd" clip-rule="evenodd" d="M24.0301 181.786C25.8185 180.379 27.9493 181.824 29.0148 183.308C30.689 185.782 31.8305 189.206 31.9827 192.174C31.9827 192.25 31.9066 192.25 31.8686 192.25C31.7925 192.517 31.4881 192.707 31.2598 192.517C28.8245 190.804 26.0468 189.244 24.2204 186.809C23.155 185.401 22.3559 183.118 24.0301 181.786ZM28.1396 189.13C29.2811 190.043 30.4988 190.843 31.6403 191.756C31.0315 190.043 30.5368 188.293 29.7758 186.657C29.4333 185.858 29.0528 185.059 28.5581 184.298C27.8352 183.156 24.5248 180.226 24.1062 183.955C23.8779 186.01 26.7317 188.103 28.1396 189.13Z" fill="#263238"/>
<path fill-rule="evenodd" clip-rule="evenodd" d="M40.468 193.583C37.5 194.001 34.4179 193.088 31.488 192.593C31.1836 192.517 31.1075 192.175 31.2597 191.947C31.1836 191.908 31.1836 191.832 31.2216 191.794C33.4286 189.816 36.6629 188.256 39.6309 187.723C41.4192 187.419 43.9686 187.951 44.197 190.196C44.4253 192.289 42.2183 193.354 40.468 193.583ZM42.5988 191.68C44.958 188.75 40.5441 188.446 39.2123 188.75C38.3752 188.902 37.5381 189.207 36.701 189.511C34.9887 190.12 33.3905 190.995 31.7544 191.794C33.2003 191.947 34.6462 192.213 36.0921 192.441C37.8044 192.708 41.267 193.278 42.5988 191.68Z" fill="#263238"/>
<path d="M23.0409 193.278C25.0576 192.137 27.0743 190.995 29.091 189.93C30.0803 189.435 30.9935 188.94 31.7926 188.179C32.6297 187.418 33.3907 186.581 34.1898 185.744C37.5002 182.472 40.7726 179.199 44.083 175.927C45.8714 174.177 47.6217 172.388 49.4101 170.638C49.4481 170.6 49.5242 170.638 49.4862 170.676C49.372 170.866 46.4041 174.215 44.9582 175.699C43.36 177.411 41.7238 179.047 40.0877 180.721C38.4642 182.396 36.8407 184.057 35.2172 185.706C34.4054 186.543 33.581 187.367 32.7439 188.179C31.9828 188.94 31.2218 189.587 30.2325 190.082C27.9114 191.223 25.5142 192.327 23.117 193.392C23.0409 193.43 22.9648 193.316 23.0409 193.278Z" fill="#263238"/>
<path d="M188.219 172.274C188.219 172.274 190.997 192.517 180.114 200.621C172.276 206.443 162.344 206.633 153.783 205.035C130.192 200.583 111.356 171.056 103.556 169.153C99.5227 168.202 66.3044 198.262 66.3044 198.262L42.5988 173.225C49.1435 168.05 88.3358 131.788 107.285 132.625C120.26 133.195 151.919 161.581 152.718 161.315C154.049 160.858 159.909 158.347 159.909 158.347L188.219 172.274Z" fill="#455A64"/>
<path d="M47.7356 170.904C50.7035 173.644 53.4812 176.612 56.297 179.541C59.0747 182.433 61.8524 185.325 64.592 188.293C66.1141 189.967 67.6741 191.642 69.1581 193.354C69.1962 193.392 69.1201 193.468 69.082 193.43C66.1521 190.614 63.3364 187.722 60.5206 184.792C57.7302 181.901 54.9652 178.996 52.2255 176.079C50.6655 174.405 49.1054 172.73 47.6594 170.98C47.5833 170.942 47.6975 170.866 47.7356 170.904Z" fill="#263238"/>
<path d="M168.661 168.316C168.737 168.202 168.889 168.278 168.851 168.392C168.014 171.284 168.242 174.633 169.498 177.372C170.982 180.492 173.798 182.814 176.271 185.135C176.537 185.363 176.195 185.743 175.929 185.553C174.292 184.526 172.77 183.232 171.401 181.862C170.183 180.645 169.118 179.199 168.433 177.563C167.253 174.519 167.291 171.246 168.661 168.316Z" fill="#263238"/>
<path d="M152.185 163.293C152.946 162.799 153.745 162.342 154.506 161.847C156.332 160.706 158.159 159.564 160.023 158.499C160.214 158.385 160.404 158.689 160.214 158.803C158.882 159.716 157.55 160.554 156.18 161.429C155.495 161.885 154.798 162.329 154.087 162.761C153.441 163.179 152.68 163.56 152.147 164.092C151.576 164.663 151.842 165.386 152.527 165.69C153.136 165.957 153.783 165.805 154.392 165.614C155.762 165.12 157.017 164.206 158.235 163.483C158.996 163.027 159.757 162.583 160.518 162.152C161.317 161.695 162.154 161.277 162.953 160.82C163.029 160.782 163.067 160.858 163.029 160.896C162.268 161.467 161.545 162.038 160.784 162.57C160.023 163.128 159.262 163.674 158.501 164.206C157.791 164.714 157.055 165.196 156.294 165.652C155.648 166.033 154.963 166.413 154.24 166.566C153.06 166.832 151.272 166.413 151.158 164.929C151.081 164.206 151.614 163.674 152.185 163.293Z" fill="#263238"/>
<path d="M44.3491 171.399C45.9853 169.877 47.6976 168.393 49.3718 166.947C51.0714 165.475 52.771 164.03 54.4706 162.609C57.9333 159.755 61.3959 156.939 64.9346 154.2C68.4733 151.46 72.1262 148.835 75.8551 146.361C79.5461 143.888 83.3131 141.567 87.1943 139.474C89.1729 138.447 91.1516 137.419 93.2063 136.506C95.1849 135.631 97.2016 134.718 99.2563 134.033C99.8144 133.855 100.373 133.665 100.931 133.462C101.007 133.424 101.083 133.576 101.007 133.614C99.9793 133.995 98.952 134.489 97.9626 134.946C96.9479 135.403 95.9459 135.872 94.9566 136.354C92.978 137.293 91.012 138.282 89.0587 139.322C85.1522 141.402 81.3345 143.66 77.6055 146.095C73.8765 148.492 70.2617 151.08 66.723 153.781C63.1462 156.47 59.6202 159.235 56.1449 162.076C52.6822 164.892 49.2957 167.746 45.8331 170.562C45.4019 170.917 44.9579 171.259 44.5013 171.589C44.3872 171.703 44.1969 171.513 44.3491 171.399Z" fill="#263238"/>
<path d="M67.9405 190.119C75.8931 183.194 97.3537 165.614 102.148 162.761C103.099 162.19 104.317 162.038 105.42 162.342C106.6 162.723 107.513 163.636 108.426 164.435C109.543 165.373 110.646 166.325 111.737 167.289C113.969 169.217 116.201 171.157 118.434 173.11C122.657 176.763 126.843 180.454 131.067 184.031C134.872 187.265 138.753 190.347 143.015 192.973C151.081 197.92 161.431 201.344 170.716 197.767C175.015 196.131 178.326 192.935 180.495 188.902C182.663 184.868 183.691 180.34 184.414 175.888C184.566 174.797 184.706 173.707 184.832 172.616C184.87 172.54 184.947 172.578 184.947 172.616C184.147 181.101 182.359 190.88 174.939 196.131C167.025 201.725 156.332 200.203 148.037 196.398C138.753 192.06 131.143 184.944 123.495 178.285C119.055 174.43 114.603 170.561 110.139 166.68C109.073 165.729 108.008 164.777 106.904 163.864C105.763 162.951 104.469 162.266 103.099 162.989C98.6094 165.348 69.1581 189.472 68.0927 190.309C67.9785 190.386 67.8263 190.195 67.9405 190.119Z" fill="#263238"/>
<path d="M160.936 119.23C157.778 132.129 150.092 152.22 143.281 152.106C137.079 151.992 123.228 140.995 117.444 137.38C111.585 133.766 124.636 119.573 127.946 121.856C133.121 125.433 140.846 131.787 142.139 131.368C143.737 130.874 145.83 126.878 155.077 115.083C158.882 110.25 162.306 113.713 160.936 119.23Z" fill="#D3766A"/>
<path d="M121.744 116.414C119.005 115.425 115.923 114.093 112.878 114.169C109.872 114.207 107.323 118.241 107.323 119.382C107.323 120.524 108.465 127.677 111.509 127.677C114.553 127.677 112.726 122.198 112.84 121.551C112.955 120.942 113.069 120.105 113.639 120.181C114.21 120.219 124.256 124.976 124.256 124.976L121.744 116.414Z" fill="#D3766A"/>
<path d="M121.516 116.833C121.364 116.833 113.221 113.599 110.177 113.675C107.133 113.713 104.621 117.747 104.621 118.888C104.621 120.03 105.763 127.183 108.807 127.183C111.851 127.183 110.025 121.704 110.139 121.057C110.253 120.41 110.367 119.611 110.938 119.687C111.509 119.725 121.516 124.482 121.516 124.482V116.833Z" fill="#D3766A"/>
<path d="M109.834 126.802C110.215 126.346 110.291 125.623 110.329 125.014C110.405 124.367 110.367 123.72 110.215 123.073C110.101 122.503 109.872 121.97 109.872 121.399C109.834 120.867 110.025 120.258 110.291 119.801C110.519 119.383 110.976 119.497 111.356 119.649C111.927 119.839 112.46 120.144 112.993 120.41C113.576 120.689 114.159 120.981 114.743 121.285C115.314 121.589 115.961 121.856 116.493 122.236C116.531 122.274 116.493 122.351 116.455 122.351C115.922 122.16 115.428 121.894 114.933 121.628C114.35 121.374 113.766 121.108 113.183 120.828C112.65 120.6 112.117 120.334 111.547 120.106C111.356 120.029 110.976 119.801 110.748 119.877C110.519 119.915 110.405 120.486 110.367 120.676C110.215 121.247 110.291 121.742 110.481 122.312C110.633 122.845 110.748 123.416 110.786 123.987C110.824 124.481 110.786 125.052 110.671 125.547C110.519 126.041 110.177 126.422 109.91 126.879C109.91 126.917 109.796 126.879 109.834 126.802Z" fill="#263238"/>
<path d="M131.181 124.786C131.181 124.786 122.734 117.1 120.983 115.578C117.483 112.534 102.681 106.484 100.626 106.255C98.5333 106.065 97.8103 110.289 107.856 114.664C113.145 116.986 114.096 120.03 113.982 121.704C113.906 123.378 112.27 126.536 109.454 126.46C106.638 126.384 104.812 122.237 102.186 121.78C99.5987 121.323 101.311 126.08 103.137 128.857C104.964 131.597 108.312 133.88 110.748 134.793C113.183 135.706 120.755 138.941 120.755 138.941L131.181 124.786Z" fill="#D3766A"/>
<path d="M105.953 124.443C107.019 125.28 108.236 126.345 109.606 126.421C111.052 126.459 112.003 125.508 112.688 124.329C113.373 123.149 113.754 121.779 113.411 120.409C113.145 119.192 112.384 118.126 111.471 117.251C110.367 116.186 109.035 115.387 107.665 114.702C107.589 114.664 107.665 114.588 107.703 114.626C108.997 115.196 113.069 116.871 113.868 120.409C114.21 121.893 113.754 123.187 113.069 124.405C112.46 125.546 111.547 126.612 110.177 126.726C108.503 126.878 107.057 125.508 105.877 124.481C105.801 124.443 105.877 124.405 105.953 124.443Z" fill="#263238"/>
<path d="M131.181 123.72L118.586 143.278C118.586 143.278 138.563 154.465 144.194 152.677C149.864 150.85 158.387 134.641 161.926 120.41C165.427 106.217 156.713 111.658 153.326 116.034C149.94 120.448 142.596 130.607 142.178 130.455C141.759 130.341 131.181 123.72 131.181 123.72Z" fill="#FFC235"/>
<path fill-rule="evenodd" clip-rule="evenodd" d="M125.701 132.206C126.539 132.472 127.338 132.814 128.099 133.195C129.773 134.032 131.333 135.098 132.741 136.277C133.147 136.582 133.54 136.911 133.92 137.266C133.717 137.317 133.527 137.368 133.35 137.419C133.045 137.14 132.741 136.873 132.436 136.62C131.029 135.478 129.507 134.413 127.87 133.614C127.109 133.195 126.272 132.891 125.435 132.586L125.701 132.206ZM140.541 144.192C142.634 146.513 144.727 148.834 147.01 150.889C146.908 150.99 146.794 151.079 146.667 151.155C144.346 149.1 142.254 146.817 140.199 144.534C138.03 142.137 135.899 139.702 133.502 137.571C133.679 137.52 133.87 137.469 134.073 137.419C136.394 139.511 138.486 141.871 140.541 144.192ZM121.135 139.321C121.211 139.397 121.275 139.461 121.326 139.511C121.224 139.537 121.11 139.549 120.983 139.549L121.135 139.321ZM124.332 142.822C126.31 144.991 128.289 147.198 130.458 149.176C130.052 148.999 129.633 148.808 129.202 148.606C127.376 146.893 125.663 144.991 123.989 143.126C122.962 141.985 121.934 140.843 120.869 139.74C121.097 139.74 121.313 139.727 121.516 139.702C122.467 140.729 123.38 141.756 124.332 142.822ZM121.516 139.702C121.465 139.626 121.402 139.562 121.326 139.511C122.442 139.461 123.545 139.372 124.636 139.245C127.604 138.865 130.496 138.18 133.35 137.419C133.4 137.469 133.451 137.507 133.502 137.533C130.61 138.294 127.68 139.017 124.674 139.397C123.609 139.549 122.581 139.664 121.516 139.702ZM134.073 137.419C134.022 137.368 133.971 137.317 133.92 137.266C134.428 137.14 134.935 137 135.442 136.848C139.019 135.859 142.596 134.831 146.249 134.298C148.113 134.07 149.978 133.956 151.842 134.032C153.555 134.146 155.267 134.451 156.903 134.983C156.852 135.11 156.814 135.224 156.789 135.326C155.153 134.793 153.479 134.489 151.804 134.375C149.978 134.222 148.113 134.337 146.287 134.565C142.634 135.059 139.057 136.087 135.519 137.038C135.037 137.165 134.555 137.292 134.073 137.419ZM142.748 129.999C143.458 129.796 144.156 129.555 144.841 129.276C146.515 128.591 148.151 127.678 149.673 126.65C152.756 124.634 155.495 122.122 158.273 119.725C158.653 119.395 159.034 119.065 159.414 118.736C159.491 118.761 159.554 118.774 159.605 118.774C159.199 119.129 158.806 119.484 158.425 119.839C155.647 122.274 152.908 124.786 149.826 126.879C148.266 127.906 146.667 128.819 144.917 129.542C144.055 129.897 143.154 130.202 142.215 130.455C142.33 130.417 142.482 130.265 142.748 129.999ZM162.725 115.958C162.725 116.034 162.712 116.098 162.687 116.148C161.799 116.884 160.924 117.645 160.061 118.431C159.985 118.393 159.909 118.393 159.833 118.355C160.784 117.556 161.736 116.757 162.725 115.958ZM153.326 116.072C155.495 116.909 157.626 117.746 159.833 118.355C159.719 118.469 159.567 118.622 159.414 118.736C157.246 118.089 155.115 117.29 153.022 116.453C153.123 116.326 153.225 116.199 153.326 116.072ZM159.605 118.774C159.757 118.647 159.909 118.533 160.061 118.431C160.442 118.533 160.822 118.634 161.203 118.736C161.558 118.812 161.913 118.888 162.268 118.964C162.243 119.116 162.217 119.268 162.192 119.421C161.812 119.345 161.444 119.268 161.089 119.192C160.581 119.065 160.087 118.926 159.605 118.774ZM127.566 129.352C127.921 129.479 128.276 129.593 128.631 129.694C132.132 130.684 135.861 131.064 139.514 130.646C140.275 130.544 141.023 130.405 141.759 130.227C141.987 130.379 142.127 130.468 142.177 130.493C141.315 130.722 140.44 130.887 139.552 130.988C135.861 131.483 132.094 131.102 128.517 130.113C128.111 129.986 127.705 129.859 127.3 129.732L127.566 129.352Z" fill="white"/>
<path opacity="0.1" d="M132.665 150.089C137.193 151.954 141.683 153.286 144.004 152.715C144.08 152.689 144.143 152.677 144.194 152.677C149.864 150.85 158.387 134.641 161.926 120.41C162.535 117.898 162.801 115.996 162.725 114.588C162.725 114.512 162.725 114.436 162.725 114.36C162.725 114.258 162.712 114.157 162.687 114.055C162.687 114.005 162.687 113.954 162.687 113.903C162.661 113.802 162.649 113.7 162.649 113.599L132.665 150.089Z" fill="black"/>
<path d="M125.587 141.338C125.993 140.653 126.399 139.968 126.805 139.283C127.642 137.875 132.513 129.694 134.415 127.221C134.491 127.145 134.567 127.221 134.567 127.297C133.197 130.151 128.137 138.218 127.3 139.511C126.868 140.196 126.437 140.881 126.006 141.566C125.549 142.213 125.055 142.86 124.598 143.545C124.56 143.583 124.446 143.545 124.484 143.469C124.902 142.784 125.207 142.023 125.587 141.338Z" fill="#263238"/>
<path d="M189.513 174.747C189.399 174.899 145.526 161.125 145.069 160.592C144.423 159.869 151.69 119.002 156.979 112.229C158.121 110.821 165.427 108.12 169.156 112.267C183.653 128.439 189.969 174.29 189.513 174.747Z" fill="#FFC235"/>
<path fill-rule="evenodd" clip-rule="evenodd" d="M146.477 150.394C147.086 150.952 147.707 151.485 148.342 151.992C150.32 153.666 152.527 155.112 154.848 156.254C154.645 156.305 154.455 156.355 154.278 156.406C152.033 155.303 149.978 153.933 148.037 152.335C147.479 151.878 146.934 151.409 146.401 150.927C146.426 150.749 146.452 150.572 146.477 150.394ZM157.816 157.471C159.567 158.042 161.393 158.423 163.219 158.499C165.046 158.613 166.872 158.461 168.699 158.156C172.123 157.548 175.434 156.368 178.744 155.226C178.77 155.277 178.808 155.328 178.858 155.379C175.548 156.558 172.237 157.776 168.737 158.385C166.91 158.727 165.046 158.917 163.181 158.803C161.355 158.727 159.49 158.385 157.702 157.814C156.637 157.471 155.609 157.053 154.62 156.558C154.823 156.507 155.013 156.457 155.191 156.406C156.053 156.812 156.928 157.167 157.816 157.471ZM179.315 155.036C181.446 154.275 183.577 153.552 185.784 152.981C185.784 153.032 185.796 153.083 185.822 153.134C183.615 153.704 181.484 154.465 179.353 155.226C179.302 155.176 179.264 155.125 179.239 155.074C179.264 155.049 179.29 155.036 179.315 155.036ZM145.412 156.977C145.906 157.053 146.439 157.091 146.972 157.129C148.798 157.243 150.663 157.091 152.451 156.786C153.06 156.66 153.669 156.533 154.278 156.406C154.379 156.457 154.493 156.507 154.62 156.558C153.91 156.736 153.199 156.888 152.489 157.015C150.701 157.357 148.836 157.509 146.972 157.433C146.439 157.408 145.906 157.357 145.374 157.281C145.374 157.18 145.386 157.078 145.412 156.977ZM155.191 156.406C155.089 156.355 154.975 156.305 154.848 156.254C157.626 155.569 160.366 154.58 163.067 153.666C166.568 152.449 170.069 151.269 173.721 150.622C174.064 150.546 174.406 150.508 174.749 150.432C174.774 150.508 174.812 150.572 174.863 150.622C174.483 150.673 174.115 150.724 173.76 150.774C170.107 151.421 166.606 152.601 163.105 153.819C160.518 154.732 157.892 155.683 155.191 156.406ZM184.794 150.508C184.921 150.533 185.061 150.559 185.213 150.584C185.238 150.686 185.264 150.774 185.289 150.851C185.111 150.825 184.934 150.8 184.756 150.774C181.674 150.204 178.516 150.166 175.434 150.546C175.383 150.495 175.332 150.445 175.282 150.394C178.44 149.937 181.674 149.975 184.794 150.508ZM149.864 134.032C150.498 134.007 151.145 134.007 151.804 134.032C153.669 134.146 155.533 134.489 157.284 135.098C160.822 136.315 164.057 138.294 166.834 140.767C169.612 143.24 171.933 146.132 174.254 149.024C174.609 149.481 174.952 149.937 175.282 150.394C175.104 150.419 174.926 150.432 174.749 150.432C174.444 150.077 174.153 149.709 173.874 149.329C171.591 146.437 169.27 143.545 166.53 141.11C163.79 138.636 160.632 136.658 157.169 135.44C155.419 134.831 153.631 134.489 151.766 134.337C151.107 134.286 150.447 134.273 149.788 134.299C149.813 134.197 149.838 134.108 149.864 134.032ZM178.858 155.379C179.036 155.328 179.201 155.277 179.353 155.226C180.038 155.962 180.761 156.66 181.522 157.319C182.892 158.537 184.376 159.64 186.012 160.439C186.494 160.668 186.988 160.883 187.496 161.086C187.521 161.289 187.559 161.479 187.61 161.657C187.001 161.429 186.392 161.124 185.822 160.858C184.147 160.021 182.625 158.917 181.217 157.7C180.38 156.964 179.594 156.19 178.858 155.379ZM174.863 150.622C175.066 150.597 175.256 150.572 175.434 150.546C176.651 152.106 177.869 153.628 179.239 155.074C179.061 155.125 178.896 155.176 178.744 155.226C177.374 153.742 176.119 152.182 174.863 150.622ZM154.772 116.643C156.446 117.252 158.121 117.861 159.833 118.355C159.681 118.469 159.529 118.584 159.414 118.698C157.778 118.241 156.18 117.67 154.582 117.1C154.658 116.922 154.721 116.77 154.772 116.643ZM161.165 118.698C162.953 119.116 164.78 119.383 166.606 119.421C167.519 119.421 168.432 119.345 169.346 119.23C170.221 119.078 171.134 118.964 172.047 118.774C172.529 118.647 173.024 118.52 173.531 118.393C173.607 118.52 173.671 118.647 173.721 118.774C173.214 118.926 172.681 119.066 172.123 119.192C171.705 119.307 171.21 119.383 170.792 119.459C170.335 119.535 169.84 119.649 169.384 119.687C168.47 119.839 167.519 119.915 166.606 119.877C164.741 119.877 162.877 119.611 161.051 119.154C160.569 119.053 160.087 118.926 159.605 118.774C159.731 118.647 159.871 118.52 160.023 118.393C160.404 118.52 160.784 118.622 161.165 118.698ZM152.033 125.242C154.239 123.53 156.294 121.666 158.387 119.839C158.793 119.484 159.199 119.129 159.605 118.774C159.529 118.748 159.465 118.723 159.414 118.698C159.034 119.027 158.653 119.357 158.273 119.687C156.256 121.475 154.239 123.226 152.147 124.862C152.121 124.989 152.083 125.116 152.033 125.242ZM167.063 112.952C167.621 112.572 168.191 112.216 168.775 111.887C168.724 111.836 168.673 111.798 168.623 111.772C168.065 112.102 167.507 112.445 166.948 112.8C164.437 114.474 162.116 116.377 159.833 118.355C159.909 118.355 159.947 118.393 160.023 118.393C162.268 116.453 164.551 114.55 167.063 112.952Z" fill="white"/>
<path d="M172.884 125.318C170.639 138.484 159.567 163.141 152.375 165.462C144.042 168.126 115.085 158.879 109.416 154.732C107.133 153.057 119.195 138.484 122.011 139.511C133.806 143.849 144.27 146.056 145.754 145.029C148.113 143.469 157.626 129.846 163.79 121.361C171.553 110.745 173.912 119.421 172.884 125.318Z" fill="#D3766A"/>
<path d="M110.139 155.112C108.883 154.656 100.017 148.225 97.3918 145.181C95.7175 143.279 92.8637 139.93 90.5807 134.603C87.9552 128.477 86.6995 124.025 87.3464 122.008C88.0693 119.649 88.2977 119.307 94.4238 129.466C97.8864 135.212 101.197 135.859 104.051 135.821C115.808 135.592 124.408 140.349 124.408 140.349C124.408 140.349 115.123 156.863 110.139 155.112Z" fill="#D3766A"/>
<path d="M95.4893 111.925L110.291 131.026C110.71 131.521 110.557 132.13 109.987 132.32L99.4846 135.669C98.8758 135.859 98.0767 135.593 97.6582 135.06L82.8564 115.996C82.4379 115.464 82.5901 114.855 83.1608 114.665L93.6628 111.316C94.2717 111.126 95.0707 111.392 95.4893 111.925Z" fill="#263238"/>
<path fill-rule="evenodd" clip-rule="evenodd" d="M96.4023 111.62L111.204 130.722C111.623 131.254 111.47 131.825 110.9 132.016L100.398 135.402C99.7888 135.592 98.9897 135.288 98.5712 134.793L83.7695 115.692C83.3509 115.159 83.5031 114.588 84.0739 114.398L94.5759 111.011C95.1847 110.821 95.9837 111.088 96.4023 111.62ZM96.2881 112.572C95.5652 111.62 95.0325 111.62 94.4997 111.811L92.6353 112.419C92.5211 112.419 92.5211 112.572 92.5972 112.724L92.6733 112.762C92.9016 113.104 92.7114 113.142 92.4831 113.218L88.1072 114.626C87.8789 114.702 87.6887 114.779 87.4223 114.436L87.3843 114.398C87.2701 114.246 87.0799 114.17 87.0038 114.208L85.1012 114.817C84.5685 114.969 84.188 115.159 84.9871 116.186L98.7995 133.956C99.18 134.489 99.903 134.755 100.436 134.565L109.834 131.559C110.367 131.407 110.481 130.836 110.101 130.341L96.2881 112.572Z" fill="#455A64"/>
<path d="M90.5805 113.333L89.4009 113.714C89.3629 113.752 89.2868 113.714 89.2487 113.675C89.2487 113.637 89.2487 113.599 89.2868 113.599L90.4663 113.219C90.5044 113.181 90.5805 113.219 90.5805 113.257C90.6185 113.295 90.6185 113.333 90.5805 113.333Z" fill="#263238"/>
<path d="M96.2881 112.572L110.101 130.342C110.481 130.837 110.367 131.407 109.834 131.56L100.436 134.566C99.9029 134.756 99.18 134.49 98.7995 133.957L84.987 116.187C84.1879 115.16 84.5685 114.97 85.1012 114.817L87.0037 114.209C87.1179 114.17 87.2701 114.247 87.3842 114.399L87.4223 114.437C87.6886 114.779 87.8789 114.703 88.1072 114.627L92.483 113.219C92.7113 113.143 92.9016 113.105 92.6733 112.763L92.5972 112.725C92.5211 112.572 92.5211 112.42 92.6352 112.42L94.4997 111.811C95.0324 111.621 95.5651 111.621 96.2881 112.572Z" fill="white"/>
<path d="M96.2881 112.572L97.3155 113.904L86.0144 117.519L84.987 116.187C84.1879 115.16 84.5685 114.97 85.1012 114.817L87.0037 114.209C87.1179 114.17 87.2701 114.247 87.3842 114.399L87.4223 114.437C87.6886 114.779 87.8789 114.703 88.1072 114.627L92.483 113.219C92.7113 113.143 92.9016 113.105 92.6733 112.763L92.5972 112.725C92.5211 112.572 92.5211 112.42 92.6352 112.42L94.4997 111.811C95.0324 111.621 95.5651 111.621 96.2881 112.572Z" fill="#FFC235"/>
<path d="M86.9657 114.703C86.9657 114.728 86.9657 114.741 86.9657 114.741C86.8896 114.716 86.8135 114.716 86.7374 114.741C86.6613 114.767 86.6233 114.805 86.6233 114.855C86.6233 114.855 86.6106 114.855 86.5852 114.855C86.5852 114.83 86.5852 114.817 86.5852 114.817C86.5852 114.792 86.5979 114.779 86.6233 114.779C86.6233 114.754 86.6359 114.741 86.6613 114.741C86.6613 114.716 86.674 114.703 86.6994 114.703H86.7374C86.7628 114.703 86.7882 114.703 86.8135 114.703C86.8389 114.703 86.8642 114.703 86.8896 114.703C86.915 114.703 86.9277 114.703 86.9277 114.703C86.953 114.703 86.9657 114.703 86.9657 114.703Z" fill="white"/>
<path d="M86.6991 114.893C86.6991 114.893 86.6864 114.893 86.6611 114.893C86.6611 114.842 86.6864 114.804 86.7372 114.779C86.8133 114.753 86.8894 114.753 86.9655 114.779C86.9655 114.804 86.9655 114.817 86.9655 114.817C86.8894 114.791 86.8387 114.791 86.8133 114.817C86.7625 114.817 86.7245 114.842 86.6991 114.893Z" fill="white"/>
<path d="M86.9275 114.856C86.9275 114.856 86.9275 114.868 86.9275 114.894C86.9021 114.868 86.8767 114.868 86.8514 114.894C86.826 114.894 86.8133 114.906 86.8133 114.932C86.788 114.932 86.7753 114.919 86.7753 114.894C86.7753 114.856 86.8514 114.818 86.9275 114.856Z" fill="white"/>
<path d="M86.9282 114.932C86.9282 114.932 86.9154 114.945 86.8898 114.97C86.8898 114.97 86.877 114.958 86.8514 114.932C86.8514 114.932 86.8514 114.919 86.8514 114.894C86.877 114.894 86.9026 114.906 86.9282 114.932Z" fill="white"/>
<path d="M85.2535 115.349C85.2155 115.311 85.2155 115.273 85.2535 115.235C85.2916 115.235 85.3677 115.235 85.4057 115.273C85.4057 115.311 85.4057 115.349 85.3677 115.388C85.3296 115.388 85.2535 115.388 85.2535 115.349Z" fill="white"/>
<path d="M85.4818 115.273C85.4438 115.235 85.4438 115.197 85.4818 115.159C85.5579 115.159 85.596 115.159 85.634 115.197C85.6721 115.235 85.634 115.273 85.596 115.311C85.5579 115.311 85.5199 115.311 85.4818 115.273Z" fill="white"/>
<path d="M85.71 115.197C85.672 115.159 85.71 115.121 85.7481 115.083C85.7861 115.083 85.8242 115.083 85.8623 115.121C85.9003 115.159 85.8622 115.197 85.8242 115.235C85.7861 115.235 85.7481 115.235 85.71 115.197Z" fill="white"/>
<path d="M85.9384 115.121C85.9004 115.083 85.9384 115.045 85.9765 115.007C86.0145 115.007 86.0526 115.007 86.0906 115.045C86.1287 115.083 86.1287 115.121 86.0906 115.159C86.0145 115.159 85.9765 115.159 85.9384 115.121Z" fill="white"/>
<path d="M86.1667 115.045C86.1667 115.007 86.1667 114.969 86.2047 114.931C86.2428 114.931 86.3189 114.931 86.3189 114.969C86.3569 115.007 86.3569 115.045 86.3189 115.083C86.2808 115.083 86.2047 115.083 86.1667 115.045Z" fill="white"/>
<path fill-rule="evenodd" clip-rule="evenodd" d="M95.0706 112.344L94.4618 112.534L94.2715 112.305L94.8803 112.115L95.0706 112.344ZM94.4618 112.496L94.9945 112.305L94.8423 112.115L94.3096 112.305L94.4618 112.496Z" fill="white"/>
<path d="M94.728 112.191L94.3475 112.344L94.4616 112.496L94.8802 112.382L94.728 112.191Z" fill="white"/>
<path d="M95.0706 112.267L95.0325 112.306L94.9184 112.153H94.9564L95.0706 112.267Z" fill="white"/>
<path d="M94.538 122.618L93.5867 122.313C93.8911 121.019 95.299 120.258 97.0493 120.373C98.5333 120.449 100.055 121.172 101.045 122.199L100.284 122.541C99.5226 121.742 98.3431 121.21 97.2396 121.134C95.8698 121.058 94.8044 121.628 94.538 122.618Z" fill="#FFC235"/>
<path d="M99.18 122.313L101.501 123.911L101.615 121.818L99.18 122.313Z" fill="#FFC235"/>
<g opacity="0.2">
<path d="M94.538 122.618L93.5867 122.313C93.8911 121.019 95.299 120.258 97.0493 120.373C98.5333 120.449 100.055 121.172 101.045 122.199L100.284 122.541C99.5226 121.742 98.3431 121.21 97.2396 121.134C95.8698 121.058 94.8044 121.628 94.538 122.618Z" fill="black"/>
<path d="M99.18 122.313L101.501 123.911L101.615 121.818L99.18 122.313Z" fill="black"/>
</g>
<path d="M98.4949 126.803C97.0109 126.689 95.4889 126.004 94.4996 124.939L95.2606 124.596C96.0216 125.396 97.2012 125.966 98.3427 126.004C99.7506 126.118 100.854 125.434 101.044 124.368L102.034 124.673C101.805 126.042 100.359 126.918 98.4949 126.803Z" fill="#FFC235"/>
<path d="M96.3642 124.825L94.0431 123.265L93.929 125.319L96.3642 124.825Z" fill="#FFC235"/>
<path d="M102.643 135.744C105.573 135.782 95.9458 129.808 95.7936 126.422C95.6795 123.035 98.9518 124.101 101.539 126.003C110.519 132.624 117.33 132.281 121.896 138.598C126.424 144.914 102.643 135.744 102.643 135.744Z" fill="#D3766A"/>
<path d="M111.585 131.636C113.487 132.207 115.39 132.815 117.102 133.805C118.738 134.756 119.994 136.088 121.135 137.572C121.173 137.648 121.097 137.724 121.021 137.648C118.624 134.68 115.009 133.158 111.547 131.75C111.509 131.712 111.509 131.636 111.585 131.636Z" fill="#263238"/>
<path d="M145.145 144.23C142.824 144.839 126.805 140.463 126.805 140.463L117.749 162.266C117.749 162.266 145.716 168.773 152.223 166.49C158.767 164.245 168.927 142.061 172.199 129.2C175.282 117.1 171.172 109.185 162.535 121.742C162.535 121.742 146.325 143.888 145.145 144.23Z" fill="#FFC235"/>
<path fill-rule="evenodd" clip-rule="evenodd" d="M140.085 143.659C140.237 143.837 140.389 144.015 140.541 144.192C143.015 146.932 145.488 149.671 148.342 151.993C150.32 153.667 152.527 155.113 154.848 156.254C154.645 156.305 154.455 156.356 154.278 156.406C152.033 155.303 149.978 153.933 148.037 152.335C145.183 149.976 142.672 147.236 140.199 144.497C139.894 144.167 139.59 143.837 139.286 143.507C139.565 143.558 139.831 143.609 140.085 143.659ZM157.816 157.472C158.527 157.7 159.25 157.903 159.985 158.081C159.909 158.182 159.846 158.284 159.795 158.385C159.085 158.233 158.387 158.043 157.702 157.814C156.637 157.472 155.609 157.053 154.62 156.559C154.823 156.508 155.013 156.457 155.191 156.406C156.053 156.812 156.928 157.167 157.816 157.472ZM125.359 143.926C127.49 146.285 129.659 148.606 132.094 150.623C134.91 152.982 138.106 154.922 141.607 156.064C143.319 156.673 145.145 157.015 146.972 157.129C148.798 157.244 150.663 157.091 152.451 156.787C153.06 156.66 153.669 156.533 154.278 156.406C154.379 156.457 154.493 156.508 154.62 156.559C153.91 156.736 153.199 156.888 152.489 157.015C150.701 157.358 148.836 157.51 146.972 157.434C145.107 157.358 143.243 156.977 141.492 156.406C137.954 155.265 134.681 153.324 131.828 150.965C129.392 148.987 127.223 146.703 125.131 144.42L125.359 143.926ZM155.229 156.406C155.102 156.356 154.988 156.292 154.886 156.216C157.398 155.607 159.909 154.732 162.382 153.895C162.357 153.971 162.319 154.047 162.268 154.123C159.947 154.922 157.626 155.76 155.229 156.406ZM153.326 134.185C154.671 134.362 156.003 134.667 157.322 135.098C160.822 136.278 164.057 138.256 166.834 140.768C167.24 141.097 167.621 141.44 167.976 141.795C167.925 141.947 167.862 142.099 167.786 142.252C167.38 141.846 166.974 141.452 166.568 141.072C163.828 138.637 160.67 136.658 157.207 135.44C155.876 134.984 154.506 134.641 153.098 134.451C153.174 134.375 153.25 134.286 153.326 134.185ZM164.399 119.269C165.135 119.345 165.883 119.396 166.644 119.421C167.557 119.421 168.47 119.345 169.346 119.231C170.259 119.079 171.172 118.926 172.085 118.736C172.339 118.685 172.605 118.622 172.884 118.546C172.935 118.673 172.973 118.812 172.999 118.964C172.719 119.041 172.44 119.104 172.161 119.155C171.705 119.307 171.248 119.345 170.792 119.459C170.335 119.535 169.878 119.611 169.422 119.687C168.509 119.802 167.557 119.878 166.644 119.878C165.782 119.852 164.919 119.789 164.057 119.687C164.158 119.535 164.272 119.396 164.399 119.269Z" fill="white"/>
<path d="M131.6 165.044C132.259 165.171 132.931 165.298 133.616 165.424Z" fill="#EBEBEB"/>
<path d="M141.835 144.002C141.201 143.9 140.541 143.773 139.856 143.621Z" fill="#EBEBEB"/>
<path d="M152.566 165.843C158.045 163.028 164.78 148.378 166.074 145.524C166.911 143.66 167.672 141.795 168.433 139.931C169.917 136.164 171.286 132.359 172.58 128.554C172.618 128.478 172.694 128.516 172.694 128.554C171.971 131.522 171.096 134.452 170.107 137.305C170.754 136.24 171.363 135.136 171.895 133.995C171.895 133.957 172.009 133.995 171.971 134.033C171.477 135.403 170.754 136.697 169.917 137.876C168.877 140.768 167.71 143.609 166.416 146.399C166.074 147.199 158.273 165.12 152.147 166.795C150.016 167.365 142.748 166.871 141.226 166.49C141.15 166.49 141.15 166.414 141.226 166.414C143.319 166.338 150.625 166.833 152.566 165.843Z" fill="#263238"/>
<path d="M123.799 159.603C124.078 158.868 124.357 158.119 124.636 157.358C125.169 155.874 128.555 146.932 130.001 144.155C130.039 144.078 130.153 144.155 130.153 144.231C129.316 147.275 125.74 156.064 125.169 157.51C124.864 158.271 124.547 159.02 124.218 159.755C123.913 160.478 123.533 161.201 123.19 161.924C123.19 162 123.038 161.962 123.076 161.886C123.342 161.163 123.533 160.364 123.799 159.603Z" fill="#263238"/>
<path d="M126.767 140.501C128.099 140.539 140.123 143.317 142.786 143.926C143.395 144.078 144.08 144.306 144.727 144.192C145.412 144.078 145.868 143.507 146.325 143.013C147.162 142.023 156.561 129.619 157.246 129.01C157.512 128.782 157.702 128.744 157.474 129.124C157.055 129.809 147.923 142.061 147.086 143.013C146.325 143.926 145.602 144.877 144.308 144.801C143.738 144.801 127.528 141.148 126.729 140.806C126.539 140.768 126.577 140.463 126.767 140.501Z" fill="#263238"/>
<path d="M158.273 119.687C160.708 119.649 166.15 115.654 166.949 111.925C166.987 111.696 165.997 109.489 164.856 106.75C164.171 105.076 163.486 103.211 162.953 101.461C162.839 101.118 152.756 107.435 152.756 107.435C152.756 107.435 154.963 110.783 155.838 113.827C155.914 114.081 155.965 114.322 155.99 114.55C155.99 114.601 155.99 114.652 155.99 114.702C156.18 116.11 155.648 119.763 158.273 119.687Z" fill="#D3766A"/>
<path d="M155.99 114.55C155.99 114.601 155.99 114.652 155.99 114.703C156.345 114.627 156.726 114.525 157.132 114.398C163.562 112.344 162.839 103.744 162.573 101.575C160.708 102.45 152.756 107.435 152.756 107.435C152.756 107.435 154.963 110.783 155.838 113.828C155.914 114.081 155.965 114.322 155.99 114.55Z" fill="#263238"/>
<path d="M160.899 87.2299C163.144 90.8447 164.095 102.717 161.964 105.989C158.882 110.745 152.337 112.838 147.923 108.805C143.662 104.885 142.71 89.3607 145.222 86.2405C148.913 81.6364 157.588 81.9028 160.899 87.2299Z" fill="#D3766A"/>
<path d="M151.462 97.1227C151.462 97.0846 151.5 97.1607 151.5 97.1988C151.538 97.9978 151.728 98.9111 152.489 99.1013C152.489 99.1394 152.527 99.1774 152.489 99.1774C151.576 99.1013 151.348 97.8837 151.462 97.1227Z" fill="#263238"/>
<path d="M152.109 96.2477C153.365 96.0193 153.707 98.6068 152.489 98.7971C151.348 98.9873 151.005 96.3999 152.109 96.2477Z" fill="#263238"/>
<path d="M147.048 97.6559C147.01 97.6178 146.972 97.6939 146.972 97.732C147.124 98.531 147.124 99.4443 146.439 99.8248C146.401 99.8248 146.401 99.8628 146.439 99.8628C147.314 99.6345 147.276 98.3788 147.048 97.6559Z" fill="#263238"/>
<path d="M146.211 96.8949C144.917 96.971 145.145 99.5585 146.363 99.4824C147.543 99.4443 147.314 96.8569 146.211 96.8949Z" fill="#263238"/>
<path d="M152.946 94.9162C152.603 94.8781 152.261 94.802 151.919 94.6879C151.538 94.6118 151.196 94.5737 150.891 94.2693C150.739 94.1171 150.777 93.7747 150.929 93.5844C151.272 93.2039 151.766 93.2039 152.261 93.28C152.794 93.3942 153.174 93.5844 153.517 94.003C153.821 94.4215 153.441 94.9923 152.946 94.9162Z" fill="#263238"/>
<path d="M145.069 95.7155C145.412 95.6394 145.716 95.4872 146.059 95.335C146.439 95.1828 146.744 95.1067 147.01 94.7642C147.124 94.574 147.048 94.2315 146.896 94.0793C146.477 93.7749 145.983 93.8129 145.488 94.0032C144.993 94.1934 144.651 94.4598 144.385 94.9164C144.118 95.335 144.613 95.8677 145.069 95.7155Z" fill="#263238"/>
<path d="M153.288 104.277C153.136 104.467 152.946 104.771 152.68 104.809C152.413 104.885 152.071 104.809 151.804 104.733C151.766 104.733 151.728 104.733 151.766 104.771C151.995 105.038 152.451 105.19 152.832 105.076C153.174 104.962 153.326 104.619 153.364 104.277C153.364 104.239 153.326 104.239 153.288 104.277Z" fill="#263238"/>
<path d="M152.147 101.994C151.804 102.717 151.195 103.173 150.511 103.402C150.168 103.516 149.864 103.554 149.521 103.592C149.445 103.592 149.382 103.592 149.331 103.592C149.28 103.592 149.217 103.592 149.141 103.592C149.065 103.554 148.988 103.516 148.988 103.402C148.963 103.376 148.95 103.351 148.95 103.326V103.25C148.874 102.641 148.798 101.689 148.798 101.689C148.608 101.842 147.505 102.489 147.505 102.184C147.314 99.4825 147.162 96.5145 147.543 93.8129C147.543 93.7368 147.695 93.7368 147.695 93.8129C147.961 96.4004 147.771 98.9878 147.999 101.575C148.342 101.385 148.912 101.043 149.217 101.005C149.331 101.043 149.293 102.831 149.369 103.097C149.369 103.097 149.369 103.11 149.369 103.135C150.434 103.135 151.157 102.717 152.071 101.918C152.109 101.88 152.185 101.918 152.147 101.994Z" fill="#263238"/>
<path d="M149.864 103.211C149.864 103.211 150.473 103.896 151.272 104.048C151.538 104.124 151.842 104.124 152.147 104.01C152.756 103.782 152.718 103.173 152.527 102.678C152.375 102.298 152.147 101.955 152.147 101.955C152.147 101.955 151.31 102.944 149.864 103.211Z" fill="#263238"/>
<path d="M151.272 104.048C151.538 104.124 151.842 104.124 152.147 104.01C152.756 103.781 152.718 103.172 152.527 102.678C151.842 102.83 151.234 103.401 151.272 104.048Z" fill="#FF9BBC"/>
<path d="M162.763 96.7046C159.795 97.1613 158.311 91.9103 158.311 91.9103C158.311 91.9103 153.098 91.9102 151.728 88.2193C151.728 88.2193 147.428 92.1005 143.395 91.3395C139.362 90.6165 139.438 86.2026 139.704 85.2133C139.971 84.224 142.368 85.5558 142.368 85.5558C142.368 85.5558 142.216 83.0825 142.824 82.74C143.433 82.3976 144.384 83.7293 144.384 83.7293C144.384 83.7293 148.989 81.2941 153.441 80.6853C157.892 80.0384 160.822 84.1479 160.822 84.1479C160.822 84.1479 163.296 84.2621 164.323 85.7841C165.388 87.3442 164.665 96.3622 162.763 96.7046Z" fill="#263238"/>
<path d="M159.529 91.7203C155.686 92.8999 152.642 90.731 151.424 87.0781C151.424 87.002 151.348 87.0401 151.348 87.0781C152.071 90.5788 155.99 93.9273 159.605 91.9106C159.681 91.8345 159.643 91.7203 159.529 91.7203Z" fill="#263238"/>
<path d="M160.708 84.1104C160.67 84.1104 160.67 84.1864 160.708 84.1864C161.888 84.4909 163.22 84.6811 164.171 85.5563C165.274 86.6217 165.35 88.2198 165.236 89.6658C165.046 91.8727 164.437 94.8407 162.725 96.4008C162.611 96.5149 162.763 96.6671 162.877 96.5529C164.932 94.8407 165.655 91.0356 165.541 88.4481C165.427 85.5943 163.41 84.2626 160.708 84.1104Z" fill="#263238"/>
<path d="M147.619 90.0461C146.059 91.3779 143.471 91.8345 141.569 90.9213C139.286 89.8178 139.324 87.3826 139.895 85.2517C139.895 85.1376 139.742 85.0615 139.704 85.1756C138.753 87.1162 139.096 89.7798 141.036 90.9974C143.053 92.2531 146.097 91.7203 147.809 90.2364C147.961 90.1222 147.733 89.8939 147.619 90.0461Z" fill="#263238"/>
<path fill-rule="evenodd" clip-rule="evenodd" d="M153.326 101.081C151.234 101.119 149.521 99.4444 149.521 97.3516C149.483 95.2588 151.157 93.5465 153.25 93.5084C155.343 93.4704 157.055 95.1446 157.093 97.2374C157.093 99.0258 155.914 100.51 154.278 100.966C153.973 101.043 153.656 101.081 153.326 101.081ZM150.016 97.3516C150.016 99.14 151.538 100.586 153.326 100.586C155.153 100.548 156.599 99.0639 156.561 97.2374C156.561 95.449 155.077 94.0031 153.25 94.0031C152.971 94.0031 152.705 94.0412 152.451 94.1173C151.043 94.4978 149.978 95.7915 150.016 97.3516Z" fill="#455A64"/>
<path fill-rule="evenodd" clip-rule="evenodd" d="M145.412 102.223C143.89 102.451 142.368 100.929 142.064 98.8742C141.949 97.8849 142.102 96.8956 142.482 96.1346C142.901 95.3355 143.547 94.8028 144.309 94.7267C145.07 94.6125 145.869 94.9169 146.477 95.5638C147.086 96.1726 147.505 97.0858 147.657 98.0371C147.961 100.016 147.048 101.804 145.678 102.147C145.577 102.172 145.488 102.197 145.412 102.223ZM142.939 96.3628C142.596 97.0478 142.444 97.9229 142.596 98.7981C142.825 100.586 144.08 101.88 145.336 101.69C146.63 101.538 147.429 99.9016 147.162 98.1132C147.048 97.238 146.668 96.4389 146.135 95.9062C145.602 95.3735 144.993 95.1072 144.385 95.2213C144.334 95.2213 144.27 95.234 144.194 95.2594C143.7 95.3735 143.243 95.7921 142.939 96.3628Z" fill="#455A64"/>
<path d="M149.712 97.7708L149.978 97.3142C149.331 96.9337 147.923 96.4771 147.124 97.5806L147.543 97.885C148.266 96.8957 149.635 97.7328 149.712 97.7708Z" fill="#455A64"/>
<path d="M166.53 96.2858L166.949 95.9814C166.796 95.7911 165.579 94.1169 164.437 94.1169C163.372 94.0788 156.713 95.677 156.447 95.7531L156.561 96.2477C158.463 95.7911 163.6 94.6115 164.437 94.6115C165.16 94.6115 166.226 95.8291 166.53 96.2858Z" fill="#455A64"/>
<path d="M160.518 97.3515C160.518 97.3515 162.192 93.0518 164.095 93.5465C165.997 94.0792 165.35 99.9009 163.562 101.081C161.812 102.298 160.632 100.662 160.632 100.662L160.518 97.3515Z" fill="#D3766A"/>
<path d="M163.866 95.2207C163.904 95.2207 163.942 95.2588 163.904 95.2588C162.649 96.172 162.23 97.6179 162.078 99.0638C162.344 98.455 162.839 98.0365 163.638 98.3789C163.676 98.3789 163.676 98.455 163.638 98.455C163.029 98.455 162.649 98.6453 162.382 99.216C162.192 99.5965 162.078 100.053 162.002 100.472C161.964 100.586 161.736 100.586 161.736 100.434C161.736 100.408 161.736 100.396 161.736 100.396C161.279 98.6453 162.04 95.8676 163.866 95.2207Z" fill="#263238"/>
<path d="M155.115 114.436C155.153 114.436 155.153 114.436 155.153 114.436C154.848 116.757 154.316 122.084 157.816 121.97C159.224 121.932 160.594 121.133 161.698 120.296C162.877 119.459 163.943 118.469 164.894 117.404C165.959 116.186 167.063 114.931 167.938 113.599C167.976 113.523 168.052 113.599 168.014 113.637C167.063 115.007 166.302 116.415 165.236 117.67C164.209 118.888 163.105 120.03 161.812 120.905C160.594 121.742 159.148 122.579 157.664 122.541C156.256 122.503 155.305 121.552 154.963 120.144C154.544 118.355 154.734 116.263 155.115 114.436Z" fill="#263238"/>
</svg>
