<svg width="14" height="19" viewBox="0 0 14 19" fill="currentColor" xmlns="http://www.w3.org/2000/svg">
<path d="M1 16.5742C1 17.6742 1.9 18.5742 3 18.5742H11C12.1 18.5742 13 17.6742 13 16.5742V6.57422C13 5.47422 12.1 4.57422 11 4.57422H3C1.9 4.57422 1 5.47422 1 6.57422V16.5742ZM4 6.57422H10C10.55 6.57422 11 7.02422 11 7.57422V15.5742C11 16.1242 10.55 16.5742 10 16.5742H4C3.45 16.5742 3 16.1242 3 15.5742V7.57422C3 7.02422 3.45 6.57422 4 6.57422ZM10.5 1.57422L9.79 0.864219C9.61 0.684219 9.35 0.574219 9.09 0.574219H4.91C4.65 0.574219 4.39 0.684219 4.21 0.864219L3.5 1.57422H1C0.45 1.57422 0 2.02422 0 2.57422C0 3.12422 0.45 3.57422 1 3.57422H13C13.55 3.57422 14 3.12422 14 2.57422C14 2.02422 13.55 1.57422 13 1.57422H10.5Z"/>
</svg>
