<svg xmlns="http://www.w3.org/2000/svg" fill="currentColor" viewBox="0 0 40 40">
  <path fill-rule="evenodd" d="M19.61 13.87h-6.86a.75.75 0 1 0 0 1.5h6.86a2.624 2.624 0 0 0 5.03 0h3.11a.75.75 0 1 0 0-1.5h-3.11a2.626 2.626 0 0 0-5.03 0Zm2.084-.29a1.126 1.126 0 1 1 .862 2.08 1.126 1.126 0 0 1-.862-2.08Zm-2.769 5.66c.035.085.065.17.09.256h8.735a.75.75 0 1 1 0 1.5h-8.734a2.625 2.625 0 0 1-5.032 0H12.75a.75.75 0 1 1 0-1.5h1.234a2.623 2.623 0 0 1 4.941-.255Zm-2.855-.033a1.124 1.124 0 0 1 1.234 1.836 1.125 1.125 0 1 1-1.234-1.836Zm11.383 5.914a2.626 2.626 0 0 0-5.032 0H12.75a.75.75 0 1 0 0 1.5h9.671a2.627 2.627 0 0 0 5.032 0h.297a.75.75 0 1 0 0-1.5h-.297Zm-2.515-.375a1.125 1.125 0 1 0 0 2.25 1.125 1.125 0 0 0 0-2.25Z" clip-rule="evenodd"/>
</svg>