<svg xmlns="http://www.w3.org/2000/svg" xmlns:xlink="http://www.w3.org/1999/xlink" width="40" zoomAndPan="magnify" viewBox="0 0 30 30.000001" height="40" preserveAspectRatio="xMidYMid meet" version="1.0"><path fill="#23282f" d="M 15.066406 7.332031 C 11.058594 7.332031 7.816406 10.582031 7.816406 14.589844 C 7.816406 18.59375 11.058594 21.847656 15.066406 21.847656 C 19.078125 21.847656 22.332031 18.59375 22.332031 14.589844 C 22.332031 10.582031 19.078125 7.332031 15.066406 7.332031 Z M 20.09375 11.683594 L 17.953125 11.683594 C 17.722656 10.777344 17.386719 9.90625 16.953125 9.101562 C 18.289062 9.558594 19.398438 10.488281 20.09375 11.683594 Z M 15.074219 8.8125 C 15.675781 9.683594 16.148438 10.648438 16.457031 11.683594 L 13.6875 11.683594 C 14 10.648438 14.46875 9.683594 15.074219 8.8125 Z M 9.453125 16.039062 C 9.339844 15.574219 9.265625 15.089844 9.265625 14.589844 C 9.265625 14.089844 9.339844 13.601562 9.453125 13.136719 L 11.90625 13.136719 C 11.851562 13.617188 11.804688 14.09375 11.804688 14.589844 C 11.804688 15.082031 11.851562 15.5625 11.90625 16.039062 Z M 10.050781 17.492188 L 12.191406 17.492188 C 12.421875 18.398438 12.757812 19.269531 13.191406 20.074219 C 11.855469 19.617188 10.746094 18.695312 10.050781 17.492188 Z M 12.191406 11.683594 L 10.050781 11.683594 C 10.746094 10.480469 11.855469 9.558594 13.191406 9.101562 C 12.757812 9.90625 12.421875 10.777344 12.191406 11.683594 Z M 15.074219 20.367188 C 14.46875 19.496094 14 18.53125 13.6875 17.492188 L 16.457031 17.492188 C 16.148438 18.53125 15.675781 19.496094 15.074219 20.367188 Z M 16.769531 16.039062 L 13.375 16.039062 C 13.308594 15.5625 13.257812 15.082031 13.257812 14.589844 C 13.257812 14.09375 13.308594 13.609375 13.375 13.136719 L 16.769531 13.136719 C 16.835938 13.609375 16.886719 14.09375 16.886719 14.589844 C 16.886719 15.082031 16.835938 15.5625 16.769531 16.039062 Z M 16.953125 20.074219 C 17.386719 19.269531 17.722656 18.398438 17.953125 17.492188 L 20.09375 17.492188 C 19.398438 18.691406 18.289062 19.617188 16.953125 20.074219 Z M 18.238281 16.039062 C 18.296875 15.5625 18.339844 15.082031 18.339844 14.589844 C 18.339844 14.09375 18.296875 13.617188 18.238281 13.136719 L 20.691406 13.136719 C 20.804688 13.601562 20.878906 14.089844 20.878906 14.589844 C 20.878906 15.089844 20.804688 15.574219 20.691406 16.039062 Z M 18.238281 16.039062 " fill-opacity="1" fill-rule="nonzero"/></svg>