<svg width="18" height="18" viewBox="0 0 18 18" fill="currentColor" xmlns="http://www.w3.org/2000/svg">
<path fill-rule="evenodd" clip-rule="evenodd" d="M11.76 10.3442L17.49 16.0742L16 17.5642L10.27 11.8342C9.2 12.6042 7.91 13.0742 6.5 13.0742C2.91 13.0742 0 10.1642 0 6.57422C0 2.98422 2.91 0.0742188 6.5 0.0742188C10.09 0.0742188 13 2.98422 13 6.57422C13 7.98422 12.53 9.27422 11.76 10.3442ZM6.5 2.07422C4.01 2.07422 2 4.08422 2 6.57422C2 9.06422 4.01 11.0742 6.5 11.0742C8.99 11.0742 11 9.06422 11 6.57422C11 4.08422 8.99 2.07422 6.5 2.07422Z"/>
</svg>
