<svg xmlns="http://www.w3.org/2000/svg" fill="currentColor" viewBox="0 0 156 109">
  <path fill="#FFC235" d="M102.644 56.183c2.626 0 4.755-2.144 4.755-4.788s-2.129-4.788-4.755-4.788-4.755 2.144-4.755 4.788 2.129 4.788 4.755 4.788Z"/>
  <path fill="#FFC235" fill-rule="evenodd" d="M100.665 23.65a7.974 7.974 0 0 0 1.355-10.768 7.877 7.877 0 0 0-4.888-3.136 7.838 7.838 0 0 0-5.697 1.078 3.506 3.506 0 0 0-1.271-1.721 3.469 3.469 0 0 0-3.56-.299 3.44 3.44 0 0 0-1.211 1.007 23.532 23.532 0 0 0-6.871-1.013 23.828 23.828 0 0 0-12.04 3.255 24.036 24.036 0 0 0-8.785 8.905 10.336 10.336 0 0 0-6.194 3.114 10.486 10.486 0 0 0-1.118 13.092 10.367 10.367 0 0 0 5.576 4.132 24.302 24.302 0 0 0 8.642 11.388 16.61 16.61 0 0 0 6.856 8.411 16.432 16.432 0 0 0 10.553 2.345 16.478 16.478 0 0 0 9.735-4.723 16.678 16.678 0 0 0 4.753-9.772 24.29 24.29 0 0 0 5.681-12.05 24.377 24.377 0 0 0-1.516-13.25m-22.143 28.24a18.705 18.705 0 0 1-10.44-3.2 18.896 18.896 0 0 1-6.914-8.498 19.042 19.042 0 0 1-1.06-10.934 18.962 18.962 0 0 1 5.153-9.684 18.755 18.755 0 0 1 9.628-5.17 18.677 18.677 0 0 1 10.858 1.087 18.823 18.823 0 0 1 8.428 6.978 19.013 19.013 0 0 1 3.158 10.515 19.02 19.02 0 0 1-5.526 13.366 18.762 18.762 0 0 1-13.285 5.54Z" clip-rule="evenodd"/>
  <path fill="#FFC235" d="M53.498 21.098a2.716 2.716 0 0 0 2.707-2.726 2.716 2.716 0 0 0-2.707-2.725 2.716 2.716 0 0 0-2.707 2.725 2.716 2.716 0 0 0 2.707 2.726ZM81.819 47.69a28.017 28.017 0 0 1-6.18-1.153c-.624 1.294-1.143 2.062-1.492 2.202a16.26 16.26 0 0 0 3.645.699h.138a5.628 5.628 0 0 0 3.888-1.749Zm-3.889 1.748h.244a.292.292 0 0 1-.243 0ZM64.951 23.474a.18.18 0 0 0 .069-.14c-.034.07-.069.105-.069.14Z"/>
  <path fill="#FFC235" d="M86.643 47.411c.244-.13.476-.283.694-.454a11.53 11.53 0 0 1-4.582.768 6.446 6.446 0 0 1-4.234 1.747h.173a16.546 16.546 0 0 0 6.942-1.536l.07-.035a24.4 24.4 0 0 0 .937-.49ZM73.94 48.774c.593.177 1.195.317 1.805.42a17.847 17.847 0 0 1-1.736-.42h-.07Zm-.313-.104c.095.028.188.063.278.104l-.243-.07-.035-.035Zm2.708.628c-.139-.035-.278-.035-.452-.07.148.038.3.062.452.07Zm-11.94-24.95.313-.524-.313.524Zm5.067 22.294c-.034 0-.034-.035-.069-.035.034 0 .034 0 .07.035Zm2.013 1.153a11.721 11.721 0 0 1-1.319-.7l-.138-.068a16.028 16.028 0 0 0 3.4 1.607h.032c-.69-.28-1.35-.524-1.975-.84Zm-2.672-1.607c-.034-.035-.07-.035-.07-.07.14.105.244.174.382.28-.07-.036-.138-.106-.243-.176-.034-.034-.034-.034-.069-.034Zm8.989 3.25a.955.955 0 0 1-.313-.035c.208 0 .416.035.625.035h-.313ZM68.491 35.81a17.176 17.176 0 0 1-4.442-4.088 13.202 13.202 0 0 0-.521 6.779 15.24 15.24 0 0 0 3.89 3.6 17.22 17.22 0 0 1 1.073-6.29Zm-.139 7.478a4.946 4.946 0 0 0 1.388 3.494c.506.308 1.027.588 1.563.839.71.336 1.44.628 2.186.874.41-.751.758-1.534 1.042-2.342a32.004 32.004 0 0 1-3.576-1.468c-.9-.401-1.77-.868-2.603-1.397Zm.451-8.391a31.506 31.506 0 0 1 3.679-6.912 15.507 15.507 0 0 1-3.85-3.532 19.681 19.681 0 0 0-4.272 6.36 17.766 17.766 0 0 0 4.443 4.084Zm.207-11.702a20.853 20.853 0 0 1 6.734-3.843 2.089 2.089 0 0 1-.277-1.818 16.092 16.092 0 0 0-6.941 2.586 3.52 3.52 0 0 0 .485 3.075Zm23.812 9.12c-1.487.6-3.087.863-4.686.768a27.43 27.43 0 0 1-1.25 7.724c1.85.106 3.7-.204 5.416-.909.746-2.455.923-5.049.52-7.583Zm-7.359 9.365a32.368 32.368 0 0 1-7.291-1.362 66.928 66.928 0 0 1-2.289 5.73 27.891 27.891 0 0 0 6.386 1.188 16.663 16.663 0 0 0 3.194-5.555ZM69.358 23.754a14.442 14.442 0 0 0 3.715 3.425 29.333 29.333 0 0 1 5.067-5.453 8.963 8.963 0 0 1-2.187-2.025 21.186 21.186 0 0 0-6.595 4.053Zm13.918 23.517a11.09 11.09 0 0 0 4.756-.804 12.594 12.594 0 0 0 3.991-5.66 12.91 12.91 0 0 1-5.415.908 15.872 15.872 0 0 1-3.332 5.556Zm-2.152-16.354a29.31 29.31 0 0 0 6.075 1.152 28.953 28.953 0 0 0-.73-7.478 17.693 17.693 0 0 1-3.575-.664 172.658 172.658 0 0 1-1.77 6.99ZM63.32 26.55c-.105.244-.175.489-.279.733l.035-.104.243-.63Zm29.328 4.822a20.438 20.438 0 0 0-2.987-7.198c-.85.335-1.759.49-2.67.454a27.398 27.398 0 0 1 1.11 7.478c1.55.089 3.102-.162 4.547-.734Z"/>
  <path fill="#FFC235" d="M93.654 30.743a2.59 2.59 0 0 0 1.007-2.202 14.478 14.478 0 0 0-3.784-6.01 1.528 1.528 0 0 1-.59 1.293 1.93 1.93 0 0 1-.278.21 19.363 19.363 0 0 1 3.193 7.058c.174-.14.316-.245.452-.35Zm-24.122 5.731a20.53 20.53 0 0 0-1.215 6.22c.833.49 1.701.979 2.67 1.468a30.599 30.599 0 0 0 3.714 1.503 192.42 192.42 0 0 0 2.118-5.766 40.039 40.039 0 0 1-4.23-1.748 27.978 27.978 0 0 1-3.056-1.678Zm6.526-6.464a30.755 30.755 0 0 1-2.638-1.434 36.984 36.984 0 0 0-3.541 7.024 49.28 49.28 0 0 0 3.051 1.678 40.035 40.035 0 0 0 4.237 1.743 467.954 467.954 0 0 0 2.569-7.478 41.758 41.758 0 0 1-3.678-1.534Zm11.105 3.04a29.327 29.327 0 0 1-6.317-1.189 171.75 171.75 0 0 1-2.36 7.548 32.364 32.364 0 0 0 7.289 1.361 30.309 30.309 0 0 0 1.388-7.72ZM73.94 27.738c.82.509 1.666.975 2.534 1.398a27.82 27.82 0 0 0 3.54 1.433c.799-2.446 1.562-4.822 2.221-6.85a26.031 26.031 0 0 1-2.082-.838c-.516-.232-1.015-.5-1.493-.804a32.248 32.248 0 0 0-4.72 5.661ZM94.21 38.71a3.105 3.105 0 0 1-1.007 1.363 3.153 3.153 0 0 1-.556.384 13.087 13.087 0 0 1-4.095 5.696l.313-.21a16.72 16.72 0 0 0 5.692-8.351l-.244.734-.103.384ZM68.039 20.225c.157-.254.357-.479.59-.665.07-.07.139-.105.209-.175l.66-.454a.755.755 0 0 1 .277-.175 17.493 17.493 0 0 0-4.513 4.264 13.206 13.206 0 0 1 2.777-2.795Z"/>
  <path fill="#FFC235" d="M63.943 30.114a17.763 17.763 0 0 1 4.34-6.29 3.614 3.614 0 0 1-.483-3.18 14.463 14.463 0 0 0-3.853 4.578c-.208.42-.416.874-.59 1.258a4.089 4.089 0 0 0 .586 3.634Zm12.912-10.727a7.018 7.018 0 0 0 1.944 1.782 15.027 15.027 0 0 1 4.963-2.657 16.751 16.751 0 0 0-6.907.875Z"/>
  <path fill="#FFC235" d="M76.821 16.87a.99.99 0 0 0-.313.35 17.1 17.1 0 0 1 7.22 1.293 11.474 11.474 0 0 0-5.554-2.202c-.49.072-.954.264-1.353.56ZM63.597 31.019a4.208 4.208 0 0 1-.625-3.456 17.26 17.26 0 0 0-.833 5.241c-.002 1.27.137 2.536.417 3.774.131.464.318.91.555 1.328a13.151 13.151 0 0 1 .486-6.887Z"/>
  <path fill="#FFC235" d="M76.403 17.464a1.862 1.862 0 0 0 .244 1.608 17.494 17.494 0 0 1 7.115-.56 17.52 17.52 0 0 0-7.359-1.048Z"/>
  <path fill="#FFC235" d="M82.165 16.45c-.07 0-.105-.035-.174-.035.695.14 1.32.839 1.77 2.097.73-.874 1.25-1.188 1.526-1.049.174.07.382.176.556.245-.486-.21-1.18.036-2.118.805a8.318 8.318 0 0 1 4.964 1.013 10.809 10.809 0 0 0-1.666-1.188c-.035 0-.035-.034-.07-.034-.035-.036-.069-.036-.104-.07-.105-.036-.174-.105-.278-.14l-.208-.105a16.538 16.538 0 0 0-4.51-1.608h.069l.243.07Z"/>
  <path fill="#FFC235" d="M86.608 18.093a.263.263 0 0 0 .139.07c-.105-.07-.208-.105-.313-.175.07.07.139.07.173.105h.001ZM64.95 42.065c-.173-.28-.347-.56-.485-.804l-.035-.07a10.767 10.767 0 0 1-1.076-2.517 8.451 8.451 0 0 1-.521-1.152 16.356 16.356 0 0 0 2.36 4.892c-.07-.105-.139-.174-.208-.28 0-.034-.034-.034-.034-.07Zm14.266-25.964h-.486c-.763 0-1.493.07-2.222.14a6.176 6.176 0 0 1 1.389-.07c.436-.06.878-.084 1.319-.07Z"/>
  <path fill="#FFC235" d="M69.324 19.037a2.617 2.617 0 0 0-.59.66 15.298 15.298 0 0 1 6.838-2.412c.097-.143.213-.273.347-.384a3.293 3.293 0 0 1 1.493-.664 11.066 11.066 0 0 0-2.187.21c.347-.07.833-.14 1.18-.21a16.414 16.414 0 0 0-6.63 2.482l-.278.178a.347.347 0 0 1-.173.14Zm12.113-2.727a10.26 10.26 0 0 0-2.88-.104 10.059 10.059 0 0 1 5.171 2.305c-.625-1.291-1.423-2.026-2.29-2.2Z"/>
  <path fill="#FFC235" d="M81.333 16.311h.07a11.99 11.99 0 0 0-1.18-.14c.372.027.743.074 1.11.14Zm8.26 3.914a4.096 4.096 0 0 1 1.215 1.956 13.796 13.796 0 0 1 3.783 5.801c-.035-.14-.069-.245-.104-.384a16.66 16.66 0 0 0-4.2-6.814l.139.14c-.278-.245-.556-.454-.833-.7Zm-8.99 1.957c.625.28 1.25.56 1.874.768.556-1.817 1.007-3.354 1.285-4.438a14.864 14.864 0 0 0-4.478 2.935c.411.294.854.54 1.32.735Zm6.839-3.6c-.138-.105-.312-.175-.451-.279a.03.03 0 0 1 .013.002.034.034 0 0 1 .022.033c.104.07.242.14.416.244Zm7.462 10.798a2.677 2.677 0 0 1-1.042 2.272 5.868 5.868 0 0 1-.486.349 16.31 16.31 0 0 1-.416 7.548c.208-.14.381-.245.555-.384a3.466 3.466 0 0 0 1.077-1.536c.46-1.566.694-3.19.694-4.822 0-.384 0-.735-.035-1.084-.035-.245-.035-.455-.07-.629a9.272 9.272 0 0 0-.277-1.714Zm.312 1.852c0-.105-.035-.245-.035-.35a.447.447 0 0 0 .035.21v.14ZM68.872 46.223c.105.07.243.175.347.245a5.258 5.258 0 0 1-1.735-3.708 14.12 14.12 0 0 1-3.749-3.456c.273.99.694 1.934 1.25 2.796 0 .035.035.035.035.07l.208.315a16.853 16.853 0 0 0 3.433 3.6.756.756 0 0 1 .174.139c.003-.035.003-.035.037 0ZM89.038 19.84a9.636 9.636 0 0 0-5.276-1.326 16.513 16.513 0 0 1 6.386 3.072 4.401 4.401 0 0 0-1.11-1.746Z"/>
  <path fill="#FFC235" d="M86.227 23.755a14.807 14.807 0 0 0-2.499-5.207A31.386 31.386 0 0 1 83 23.16c1.055.301 2.136.5 3.228.595Z"/>
  <path fill="#FFC235" d="M89.108 23.37a17.935 17.935 0 0 0-5.38-4.857 15.316 15.316 0 0 1 2.984 5.241 5.304 5.304 0 0 0 2.396-.384Zm-1.25-4.508.313.21-.313-.21Zm1.909 1.468.172.138a.608.608 0 0 1-.172-.139Z"/>
  <path fill="#FFC235" d="M89.42 23.198a1.47 1.47 0 0 0 .243-.175 1.334 1.334 0 0 0 .52-1.152 16.38 16.38 0 0 0-6.42-3.358 19.369 19.369 0 0 1 5.657 4.685ZM64.951 42.065c0 .035.035.035.035.07 0-.035-.035-.035-.035-.07Zm.243.349a1.94 1.94 0 0 0-.209-.28c.061.1.131.193.209.28Z"/>
  <path d="M150.044 108.346h5.456V88.208h-5.456v20.138Zm0-23.64h5.456v-4.45h-5.456v4.45Zm-10.586 13.68c0 3.247-1.164 6.02-3.82 6.02-2.438 0-4.001-2.481-4.001-6.385 0-3.539 1.272-5.982 3.928-5.982 2.765 0 3.893 2.736 3.893 5.508v.84Zm.327 9.96h5.165V80h-5.493v10.725a5.84 5.84 0 0 0-2.293-2.359 5.814 5.814 0 0 0-3.2-.742c-4.111 0-8.003 3.101-8.003 10.47 0 6.713 3.198 10.69 8.04 10.69a5.875 5.875 0 0 0 3.461-.924 5.894 5.894 0 0 0 2.286-2.765v3.248l.037.003Zm-23.39 0h5.456V88.208h-5.456v20.138Zm0-23.64h5.456v-4.45h-5.456v4.45Zm-23.171 23.64h5.456V98.167c0-3.867 1.638-5.764 3.966-5.764 2.255 0 3.31 1.604 3.31 4.415v11.565h5.457V95.869c0-5.253-2.037-8.281-6.439-8.281a6.677 6.677 0 0 0-3.698.923 6.706 6.706 0 0 0-2.596 2.798V80h-5.456v28.346Zm-10.699-8.136c0 2.992-1.891 4.891-4.147 4.891a2.6 2.6 0 0 1-2.728-2.736c0-1.57 1.019-2.406 3.42-2.846l3.491-.657v1.351l-.036-.003Zm6.257 8.136c-.691-1.642-.764-2.7-.764-5.728v-7.551c0-5.071-2.292-7.48-7.894-7.48-4.402 0-7.494 1.533-9.13 3.138l2.581 3.608a7.702 7.702 0 0 1 5.857-2.553c1.782 0 3.093.51 3.093 2.882v.766l-4.438.694c-4.548.694-7.64 2.335-7.64 6.457 0 3.721 2.4 6.421 6.513 6.421 3.092 0 5.056-1.532 5.892-3.502.067.97.263 1.927.582 2.845h5.348v.003Zm-40.705 0h5.456V98.167c0-3.867 1.638-5.764 3.966-5.764 2.255 0 3.31 1.604 3.31 4.415v11.565h5.457V95.869c0-5.253-2.037-8.281-6.44-8.281a6.677 6.677 0 0 0-3.697.923 6.703 6.703 0 0 0-2.596 2.798V80h-5.456v28.346Zm-20.95-2.369c2.22 1.97 5.239 2.992 8.84 2.992 4.002 0 8.221-2.153 8.221-6.677 0-7.15-10.803-5.618-10.803-9.01 0-1.241 1.09-1.716 2.328-1.716a9.29 9.29 0 0 1 5.638 2.08l2.51-3.608a12.508 12.508 0 0 0-7.967-2.444c-4.11 0-8.04 1.933-8.04 6.311 0 7.479 10.84 5.363 10.84 9.12 0 1.386-1.527 1.97-2.946 1.97a8.544 8.544 0 0 1-6.038-2.699l-2.582 3.681ZM.5 98.459c0 4.378 1.455 10.503 11.204 10.503 9.748 0 11.203-6.093 11.203-10.503V80H17.05v18.131c0 4.013-1.964 5.728-5.348 5.728-3.383 0-5.347-1.715-5.347-5.874V80H.5v18.46Z"/>
</svg>