<svg xmlns="http://www.w3.org/2000/svg" fill="currentColor" viewBox="0 0 72 72">
  <path d="M60.644 56.183c2.626 0 4.755-2.144 4.755-4.788s-2.129-4.788-4.755-4.788-4.755 2.144-4.755 4.788 2.129 4.788 4.755 4.788Z"/>
  <path fill-rule="evenodd" d="M58.665 23.65a7.976 7.976 0 0 0 1.355-10.768 7.877 7.877 0 0 0-4.888-3.136 7.838 7.838 0 0 0-5.697 1.078 3.506 3.506 0 0 0-1.271-1.721 3.469 3.469 0 0 0-3.56-.299 3.44 3.44 0 0 0-1.211 1.007 23.532 23.532 0 0 0-6.871-1.013 23.828 23.828 0 0 0-12.04 3.255 24.036 24.036 0 0 0-8.785 8.905 10.336 10.336 0 0 0-6.194 3.114 10.485 10.485 0 0 0-1.118 13.092 10.367 10.367 0 0 0 5.576 4.132 24.302 24.302 0 0 0 8.643 11.388 16.61 16.61 0 0 0 6.855 8.411 16.432 16.432 0 0 0 10.553 2.345 16.478 16.478 0 0 0 9.735-4.723 16.678 16.678 0 0 0 4.753-9.772 24.293 24.293 0 0 0 5.68-12.05 24.374 24.374 0 0 0-1.515-13.25m-22.143 28.24a18.705 18.705 0 0 1-10.44-3.2 18.896 18.896 0 0 1-6.914-8.498 19.042 19.042 0 0 1-1.06-10.934 18.962 18.962 0 0 1 5.153-9.684 18.755 18.755 0 0 1 9.628-5.17 18.677 18.677 0 0 1 10.858 1.087 18.823 18.823 0 0 1 8.428 6.978 19.013 19.013 0 0 1 3.158 10.515 19.02 19.02 0 0 1-5.526 13.366 18.762 18.762 0 0 1-13.285 5.54Z" clip-rule="evenodd"/>
  <path d="M11.498 21.098a2.716 2.716 0 0 0 2.707-2.726 2.716 2.716 0 0 0-2.707-2.725 2.716 2.716 0 0 0-2.708 2.725 2.716 2.716 0 0 0 2.708 2.726ZM39.819 47.69a28.017 28.017 0 0 1-6.18-1.153c-.624 1.294-1.143 2.062-1.492 2.202 1.185.372 2.407.606 3.645.7h.139a5.627 5.627 0 0 0 3.888-1.75Z"/>
  <path d="M35.93 49.438h.244a.292.292 0 0 1-.243 0ZM22.951 23.474a.181.181 0 0 0 .07-.14c-.035.07-.07.105-.07.14Zm21.692 23.937c.244-.13.476-.283.694-.454a11.51 11.51 0 0 1-4.581.768 6.446 6.446 0 0 1-4.235 1.747h.173a16.545 16.545 0 0 0 6.942-1.536l.07-.035a24.4 24.4 0 0 0 .937-.49ZM31.94 48.774c.592.177 1.195.317 1.805.42a17.849 17.849 0 0 1-1.736-.42h-.07Zm-.312-.104c.094.028.187.063.277.104l-.243-.07-.034-.035Zm2.707.628c-.139-.035-.278-.035-.451-.07a2.3 2.3 0 0 0 .451.07Zm-6.873-2.656c-.034 0-.034-.035-.069-.035.034 0 .034 0 .07.035Zm2.013 1.153a11.728 11.728 0 0 1-1.318-.7l-.14-.068a16.028 16.028 0 0 0 3.402 1.607h.031c-.69-.28-1.35-.524-1.975-.84Zm-2.672-1.607c-.034-.035-.07-.035-.07-.07.14.105.244.174.382.28-.07-.036-.139-.106-.243-.176-.034-.034-.034-.034-.069-.034Z"/>
  <path d="M35.792 49.438a.953.953 0 0 1-.313-.035c.208 0 .417.035.625.035h-.312ZM26.491 35.81a17.177 17.177 0 0 1-4.442-4.088 13.2 13.2 0 0 0-.521 6.779 15.24 15.24 0 0 0 3.89 3.6 17.217 17.217 0 0 1 1.073-6.29Zm-.139 7.478a4.946 4.946 0 0 0 1.388 3.494c.506.308 1.027.588 1.563.839.71.336 1.44.628 2.186.874.41-.751.758-1.534 1.042-2.342a32.004 32.004 0 0 1-3.575-1.468 20.3 20.3 0 0 1-2.604-1.397Zm.451-8.391a31.512 31.512 0 0 1 3.679-6.912 15.501 15.501 0 0 1-3.85-3.532 19.683 19.683 0 0 0-4.272 6.36 17.767 17.767 0 0 0 4.443 4.084Zm.208-11.702a20.855 20.855 0 0 1 6.733-3.843 2.09 2.09 0 0 1-.277-1.818 16.092 16.092 0 0 0-6.941 2.586 3.52 3.52 0 0 0 .485 3.075Zm23.811 9.12c-1.487.6-3.087.863-4.686.768a27.429 27.429 0 0 1-1.25 7.724c1.85.106 3.7-.204 5.416-.909.746-2.455.923-5.049.52-7.583Zm-7.359 9.365a32.368 32.368 0 0 1-7.291-1.362 66.91 66.91 0 0 1-2.288 5.73 27.886 27.886 0 0 0 6.386 1.188 16.663 16.663 0 0 0 3.193-5.555ZM27.358 23.754a14.442 14.442 0 0 0 3.715 3.425 29.33 29.33 0 0 1 5.067-5.453 8.959 8.959 0 0 1-2.187-2.025 21.186 21.186 0 0 0-6.595 4.053Zm13.918 23.518c1.625.084 3.248-.19 4.756-.805a12.594 12.594 0 0 0 3.992-5.66c-1.72.688-3.568.997-5.416.908a15.873 15.873 0 0 1-3.332 5.556Zm-2.151-16.355c1.979.597 4.015.983 6.074 1.152a28.953 28.953 0 0 0-.73-7.478 17.68 17.68 0 0 1-3.574-.664 172.95 172.95 0 0 1-1.77 6.99ZM21.32 26.55c-.105.244-.175.49-.278.733l.034-.104.243-.63Zm29.328 4.822a20.441 20.441 0 0 0-2.987-7.198c-.85.335-1.759.49-2.67.454a27.394 27.394 0 0 1 1.11 7.478c1.55.088 3.102-.162 4.547-.734Z"/>
  <path d="M51.654 30.743a2.59 2.59 0 0 0 1.007-2.202 14.48 14.48 0 0 0-3.784-6.01 1.527 1.527 0 0 1-.59 1.293 1.925 1.925 0 0 1-.278.21 19.36 19.36 0 0 1 3.193 7.058c.174-.14.316-.245.452-.35Zm-24.121 5.731a20.53 20.53 0 0 0-1.215 6.22c.833.49 1.7.979 2.67 1.468a30.591 30.591 0 0 0 3.714 1.503 193.56 193.56 0 0 0 2.117-5.766 40.06 40.06 0 0 1-4.23-1.748 27.969 27.969 0 0 1-3.056-1.677Zm6.525-6.464a30.755 30.755 0 0 1-2.638-1.434 36.984 36.984 0 0 0-3.54 7.024 49.28 49.28 0 0 0 3.05 1.678 40.044 40.044 0 0 0 4.238 1.743 467.954 467.954 0 0 0 2.568-7.478 41.758 41.758 0 0 1-3.678-1.534Zm11.105 3.04a29.327 29.327 0 0 1-6.316-1.189 171.75 171.75 0 0 1-2.36 7.548 32.364 32.364 0 0 0 7.288 1.361 30.309 30.309 0 0 0 1.389-7.72ZM31.94 27.738c.82.509 1.666.975 2.534 1.398a27.8 27.8 0 0 0 3.54 1.433c.799-2.446 1.562-4.822 2.221-6.85a25.993 25.993 0 0 1-2.082-.838 11.963 11.963 0 0 1-1.493-.804 32.246 32.246 0 0 0-4.72 5.66ZM52.21 38.71a3.104 3.104 0 0 1-1.008 1.363c-.17.148-.357.277-.555.384a13.089 13.089 0 0 1-4.095 5.696l.312-.21a16.72 16.72 0 0 0 5.693-8.351l-.244.734-.104.384ZM26.04 20.225c.157-.254.357-.479.59-.665.069-.07.138-.105.208-.175l.66-.454a.756.756 0 0 1 .277-.175 17.491 17.491 0 0 0-4.512 4.264 13.206 13.206 0 0 1 2.776-2.795Z"/>
  <path d="M21.944 30.114a17.764 17.764 0 0 1 4.338-6.29 3.617 3.617 0 0 1-.482-3.18 14.464 14.464 0 0 0-3.852 4.578c-.209.42-.417.874-.59 1.258a4.089 4.089 0 0 0 .586 3.634Zm12.911-10.727a7.016 7.016 0 0 0 1.944 1.782 15.025 15.025 0 0 1 4.963-2.657 16.751 16.751 0 0 0-6.907.875Z"/>
  <path d="M34.821 16.87a.99.99 0 0 0-.313.35 17.1 17.1 0 0 1 7.22 1.293 11.474 11.474 0 0 0-5.554-2.202 3 3 0 0 0-1.353.56ZM21.597 31.019a4.208 4.208 0 0 1-.625-3.456 17.262 17.262 0 0 0-.832 5.241c-.003 1.27.137 2.536.416 3.774.132.464.318.91.555 1.328a13.151 13.151 0 0 1 .486-6.887Z"/>
  <path d="M34.403 17.464a1.862 1.862 0 0 0 .244 1.608 17.494 17.494 0 0 1 7.115-.56 17.517 17.517 0 0 0-7.359-1.048Z"/>
  <path d="M40.165 16.45c-.07 0-.105-.035-.173-.035.694.14 1.319.839 1.77 2.097.73-.874 1.25-1.188 1.526-1.049.173.07.381.176.555.245-.486-.21-1.18.036-2.118.805a8.317 8.317 0 0 1 4.964 1.013 10.799 10.799 0 0 0-1.666-1.188c-.035 0-.035-.034-.07-.034-.035-.036-.069-.036-.104-.07-.104-.036-.174-.106-.278-.14l-.208-.105a16.534 16.534 0 0 0-4.51-1.608h.07l.242.07Z"/>
  <path d="M44.608 18.093a.262.262 0 0 0 .139.07c-.105-.07-.208-.105-.313-.175.07.07.14.07.174.105ZM22.95 42.065c-.173-.28-.346-.56-.485-.804l-.035-.07a10.771 10.771 0 0 1-1.076-2.517 8.432 8.432 0 0 1-.52-1.152 16.35 16.35 0 0 0 2.36 4.892c-.07-.105-.14-.174-.209-.28 0-.034-.034-.034-.034-.07Zm14.265-25.964h-.486c-.762 0-1.492.07-2.22.14a6.17 6.17 0 0 1 1.388-.07 7.705 7.705 0 0 1 1.318-.07Z"/>
  <path d="M27.324 19.036a2.617 2.617 0 0 0-.59.66 15.298 15.298 0 0 1 6.838-2.41 1.83 1.83 0 0 1 .347-.385 3.294 3.294 0 0 1 1.492-.664 11.058 11.058 0 0 0-2.186.21c.347-.07.832-.14 1.18-.21a16.413 16.413 0 0 0-6.63 2.482l-.278.178a.347.347 0 0 1-.173.14Zm12.114-2.726a10.274 10.274 0 0 0-2.882-.104 10.059 10.059 0 0 1 5.172 2.305c-.624-1.291-1.423-2.026-2.29-2.2Z"/>
  <path d="M39.333 16.311h.07c-.382-.07-.763-.105-1.18-.14.372.027.743.074 1.11.14Zm8.26 3.914a4.095 4.095 0 0 1 1.215 1.956 13.796 13.796 0 0 1 3.784 5.801c-.035-.14-.07-.245-.105-.384a16.659 16.659 0 0 0-4.2-6.814l.14.14c-.279-.245-.556-.454-.834-.7Zm-8.99 1.957c.625.28 1.25.56 1.874.768.556-1.817 1.008-3.354 1.285-4.438a14.867 14.867 0 0 0-4.478 2.935c.412.294.854.54 1.32.735Zm6.839-3.6c-.139-.105-.312-.175-.451-.279a.033.033 0 0 1 .025.01.034.034 0 0 1 .01.025c.104.07.242.14.416.244Zm7.462 10.798a2.674 2.674 0 0 1-1.042 2.272 5.907 5.907 0 0 1-.486.349c.455 2.514.312 5.1-.416 7.548.208-.14.381-.245.555-.384a3.465 3.465 0 0 0 1.077-1.536c.46-1.566.694-3.19.694-4.822 0-.384 0-.735-.035-1.084-.035-.245-.035-.455-.07-.629a9.272 9.272 0 0 0-.277-1.714Zm.312 1.852c0-.105-.035-.245-.035-.35a.446.446 0 0 0 .035.21v.14Zm-26.344 14.99c.104.07.244.176.347.245a5.257 5.257 0 0 1-1.24-1.676 5.29 5.29 0 0 1-.495-2.03 14.121 14.121 0 0 1-3.748-3.457c.272.991.694 1.934 1.25 2.796 0 .035.034.035.034.07l.209.315a16.854 16.854 0 0 0 3.432 3.6.756.756 0 0 1 .174.14c.003-.036.003-.037.037-.003ZM47.038 19.84a9.636 9.636 0 0 0-5.275-1.326 16.513 16.513 0 0 1 6.386 3.072 4.402 4.402 0 0 0-1.111-1.746Z"/>
  <path d="M44.227 23.755a14.807 14.807 0 0 0-2.498-5.207 31.386 31.386 0 0 1-.73 4.612c1.055.301 2.136.5 3.228.595Z"/>
  <path d="M47.108 23.37a17.937 17.937 0 0 0-5.38-4.857 15.317 15.317 0 0 1 2.985 5.241 5.304 5.304 0 0 0 2.395-.384Zm.659-3.04.172.138a.605.605 0 0 1-.172-.139Z"/>
  <path d="M47.42 23.198a1.47 1.47 0 0 0 .243-.175 1.334 1.334 0 0 0 .52-1.152 16.379 16.379 0 0 0-6.42-3.359 19.37 19.37 0 0 1 5.657 4.686ZM23.194 42.414a1.93 1.93 0 0 0-.208-.28c.061.1.13.194.207.28Z"/>
</svg>