<svg xmlns="http://www.w3.org/2000/svg" fill="currentColor" viewBox="0 0 156 29">
  <path d="M150.044 28.346h5.456V8.209h-5.456v20.137Zm0-23.64h5.456V.256h-5.456v4.45Zm-10.586 13.68c0 3.247-1.164 6.02-3.82 6.02-2.438 0-4.001-2.48-4.001-6.385 0-3.539 1.272-5.982 3.928-5.982 2.765 0 3.893 2.736 3.893 5.508v.84Zm.327 9.96h5.165V0h-5.493v10.725a5.84 5.84 0 0 0-2.293-2.359 5.814 5.814 0 0 0-3.2-.742c-4.111 0-8.003 3.101-8.003 10.47 0 6.713 3.198 10.69 8.04 10.69a5.874 5.874 0 0 0 3.461-.924 5.897 5.897 0 0 0 2.286-2.765v3.248l.037.003Zm-23.39 0h5.456V8.209h-5.456v20.137Zm0-23.64h5.456V.256h-5.456v4.45Zm-23.171 23.64h5.456V18.167c0-3.867 1.638-5.764 3.966-5.764 2.255 0 3.31 1.604 3.31 4.415v11.565h5.457V15.869c0-5.253-2.037-8.281-6.439-8.281a6.676 6.676 0 0 0-3.698.923 6.706 6.706 0 0 0-2.596 2.798V0h-5.456v28.346ZM82.525 20.21c0 2.992-1.891 4.891-4.147 4.891a2.589 2.589 0 0 1-1.971-.759 2.604 2.604 0 0 1-.757-1.977c0-1.57 1.018-2.406 3.42-2.846l3.491-.657v1.35l-.036-.002Zm6.257 8.136c-.691-1.642-.764-2.7-.764-5.728v-7.551c0-5.071-2.292-7.479-7.894-7.479-4.402 0-7.494 1.532-9.13 3.137l2.581 3.608a7.702 7.702 0 0 1 5.857-2.553c1.782 0 3.093.51 3.093 2.882v.766l-4.438.694c-4.548.694-7.64 2.335-7.64 6.457 0 3.721 2.4 6.421 6.513 6.421 3.092 0 5.056-1.532 5.892-3.502.067.97.263 1.927.582 2.845h5.348v.003Zm-40.705 0h5.456V18.167c0-3.867 1.638-5.764 3.966-5.764 2.255 0 3.31 1.604 3.31 4.415v11.565h5.457V15.869c0-5.253-2.037-8.281-6.44-8.281a6.676 6.676 0 0 0-3.697.923 6.703 6.703 0 0 0-2.596 2.798V0h-5.456v28.346Zm-20.95-2.369c2.22 1.97 5.239 2.992 8.84 2.992 4.002 0 8.221-2.153 8.221-6.677 0-7.15-10.803-5.618-10.803-9.01 0-1.241 1.09-1.716 2.328-1.716a9.29 9.29 0 0 1 5.638 2.08l2.51-3.608a12.509 12.509 0 0 0-7.967-2.444c-4.11 0-8.04 1.933-8.04 6.311 0 7.479 10.84 5.363 10.84 9.12 0 1.387-1.527 1.97-2.946 1.97a8.52 8.52 0 0 1-6.039-2.7l-2.581 3.682ZM.5 18.46c0 4.378 1.455 10.503 11.204 10.503 9.748 0 11.203-6.093 11.203-10.503V0H17.05v18.131c0 4.013-1.964 5.728-5.348 5.728-3.383 0-5.347-1.715-5.347-5.874V0H.5v18.46Z"/>
</svg>