<svg width="183" height="170" viewBox="0 0 183 170" fill="none" xmlns="http://www.w3.org/2000/svg">
<g clip-path="url(#clip0_1210_37322)">
<path d="M154.5 25.0623C148.25 28.1248 142.125 29.3686 135.75 31.2498C128.744 23.3436 118.356 22.9061 108.375 26.6436C98.3937 30.3811 91.8562 39.5186 92 49.9998V56.2498C71.7188 56.7686 53.6563 47.5311 42 31.2498C42 31.2498 15.8625 77.7061 67 99.9998C55.3 107.794 43.6312 113.05 29.5 112.5C50.175 123.769 72.7063 127.644 92.2125 121.981C114.588 115.481 132.975 98.7123 140.031 73.5936C142.136 65.954 143.181 58.0615 143.137 50.1373C143.125 48.5811 152.575 32.8123 154.5 25.0561V25.0623Z" fill="#E2E2E3"/>
</g>
<path d="M15.24 154.52V155.904H11.568V166H9.92V155.904H6.24V154.52H15.24ZM16.4321 166V154.2H17.9521V158.92C18.2935 158.568 18.6721 158.285 19.0881 158.072C19.5041 157.859 19.9841 157.752 20.5281 157.752C20.9708 157.752 21.3601 157.827 21.6961 157.976C22.0375 158.125 22.3228 158.336 22.5521 158.608C22.7815 158.875 22.9548 159.197 23.0721 159.576C23.1895 159.949 23.2481 160.365 23.2481 160.824V166H21.7281V160.824C21.7281 160.237 21.5921 159.781 21.3201 159.456C21.0481 159.125 20.6348 158.96 20.0801 158.96C19.6695 158.96 19.2881 159.056 18.9361 159.248C18.5841 159.44 18.2561 159.704 17.9521 160.04V166H16.4321ZM26.9616 157.88V166H25.4416V157.88H26.9616ZM27.2576 155.36C27.2576 155.504 27.2283 155.64 27.1696 155.768C27.1163 155.891 27.039 156 26.9376 156.096C26.8416 156.192 26.727 156.269 26.5936 156.328C26.4656 156.381 26.3296 156.408 26.1856 156.408C26.047 156.408 25.9136 156.381 25.7856 156.328C25.663 156.269 25.5536 156.192 25.4576 156.096C25.3616 156 25.2843 155.891 25.2256 155.768C25.1723 155.64 25.1456 155.504 25.1456 155.36C25.1456 155.216 25.1723 155.08 25.2256 154.952C25.2843 154.819 25.3616 154.704 25.4576 154.608C25.5536 154.512 25.663 154.437 25.7856 154.384C25.9136 154.325 26.047 154.296 26.1856 154.296C26.3296 154.296 26.4656 154.325 26.5936 154.384C26.727 154.437 26.8416 154.512 26.9376 154.608C27.039 154.704 27.1163 154.819 27.1696 154.952C27.2283 155.08 27.2576 155.216 27.2576 155.36ZM34.0126 159.256C33.938 159.384 33.834 159.448 33.7006 159.448C33.6153 159.448 33.5193 159.419 33.4126 159.36C33.3113 159.301 33.1886 159.237 33.0446 159.168C32.9006 159.093 32.7273 159.027 32.5246 158.968C32.3273 158.909 32.0926 158.88 31.8206 158.88C31.5913 158.88 31.3833 158.909 31.1966 158.968C31.01 159.027 30.85 159.107 30.7166 159.208C30.5886 159.309 30.4873 159.429 30.4126 159.568C30.3433 159.701 30.3086 159.848 30.3086 160.008C30.3086 160.211 30.3673 160.381 30.4846 160.52C30.6073 160.653 30.7646 160.771 30.9566 160.872C31.154 160.968 31.378 161.056 31.6286 161.136C31.8793 161.211 32.1353 161.291 32.3966 161.376C32.658 161.461 32.914 161.56 33.1646 161.672C33.4153 161.779 33.6366 161.912 33.8286 162.072C34.026 162.232 34.1833 162.429 34.3006 162.664C34.4233 162.893 34.4846 163.171 34.4846 163.496C34.4846 163.875 34.4153 164.224 34.2766 164.544C34.1433 164.864 33.9433 165.141 33.6766 165.376C33.4153 165.611 33.0926 165.795 32.7086 165.928C32.3246 166.061 31.882 166.128 31.3806 166.128C30.8153 166.128 30.298 166.035 29.8286 165.848C29.3646 165.661 28.9726 165.424 28.6526 165.136L29.0046 164.56C29.0473 164.485 29.1006 164.429 29.1646 164.392C29.2286 164.349 29.3086 164.328 29.4046 164.328C29.506 164.328 29.61 164.365 29.7166 164.44C29.8233 164.515 29.9513 164.597 30.1006 164.688C30.2553 164.773 30.4393 164.853 30.6526 164.928C30.8713 165.003 31.1406 165.04 31.4606 165.04C31.7326 165.04 31.9673 165.005 32.1646 164.936C32.3673 164.867 32.5353 164.776 32.6686 164.664C32.802 164.547 32.9006 164.411 32.9646 164.256C33.0286 164.101 33.0606 163.939 33.0606 163.768C33.0606 163.549 32.9993 163.368 32.8766 163.224C32.7593 163.08 32.602 162.957 32.4046 162.856C32.2126 162.755 31.9913 162.667 31.7406 162.592C31.49 162.517 31.2313 162.437 30.9646 162.352C30.7033 162.267 30.4473 162.171 30.1966 162.064C29.946 161.952 29.722 161.811 29.5246 161.64C29.3326 161.469 29.1753 161.264 29.0526 161.024C28.9353 160.779 28.8766 160.48 28.8766 160.128C28.8766 159.813 28.9406 159.512 29.0686 159.224C29.1966 158.936 29.3833 158.683 29.6286 158.464C29.8793 158.245 30.186 158.072 30.5486 157.944C30.9113 157.816 31.3246 157.752 31.7886 157.752C32.322 157.752 32.8046 157.837 33.2366 158.008C33.674 158.173 34.0446 158.405 34.3486 158.704L34.0126 159.256ZM42.7726 166.128C42.122 166.128 41.6206 165.947 41.2686 165.584C40.9166 165.221 40.7406 164.699 40.7406 164.016V159.12H39.7886C39.698 159.12 39.6233 159.093 39.5646 159.04C39.506 158.981 39.4766 158.899 39.4766 158.792V158.184L40.7966 158.008L41.1406 155.552C41.162 155.467 41.202 155.4 41.2606 155.352C41.3193 155.299 41.3966 155.272 41.4926 155.272H42.2606V158.016H44.5726V159.12H42.2606V163.912C42.2606 164.237 42.338 164.483 42.4926 164.648C42.6526 164.808 42.8606 164.888 43.1166 164.888C43.2606 164.888 43.386 164.869 43.4926 164.832C43.5993 164.795 43.69 164.752 43.7646 164.704C43.8393 164.656 43.9033 164.613 43.9566 164.576C44.0153 164.539 44.066 164.52 44.1086 164.52C44.1566 164.52 44.194 164.531 44.2206 164.552C44.2526 164.573 44.2846 164.611 44.3166 164.664L44.7646 165.392C44.5086 165.627 44.2046 165.808 43.8526 165.936C43.506 166.064 43.146 166.128 42.7726 166.128ZM45.1463 157.88H46.3463C46.4689 157.88 46.5676 157.909 46.6423 157.968C46.7223 158.027 46.7756 158.099 46.8023 158.184L48.2983 163.248C48.3463 163.451 48.3889 163.645 48.4263 163.832C48.4636 164.019 48.4983 164.205 48.5303 164.392C48.5783 164.205 48.6289 164.019 48.6823 163.832C48.7356 163.645 48.7916 163.451 48.8503 163.248L50.4983 158.152C50.5249 158.067 50.5729 157.997 50.6423 157.944C50.7169 157.885 50.8076 157.856 50.9143 157.856H51.5703C51.6823 157.856 51.7756 157.885 51.8503 157.944C51.9249 157.997 51.9756 158.067 52.0023 158.152L53.6263 163.248C53.6849 163.451 53.7383 163.645 53.7863 163.832C53.8343 164.019 53.8796 164.205 53.9223 164.392C53.9543 164.205 53.9889 164.019 54.0263 163.832C54.0689 163.645 54.1169 163.451 54.1703 163.248L55.6903 158.184C55.7223 158.093 55.7756 158.021 55.8503 157.968C55.9303 157.909 56.0236 157.88 56.1303 157.88H57.2743L54.6503 166H53.4503C53.3009 166 53.1996 165.904 53.1463 165.712L51.4103 160.352C51.3676 160.224 51.3303 160.096 51.2983 159.968C51.2663 159.84 51.2369 159.712 51.2103 159.584C51.1836 159.712 51.1569 159.843 51.1303 159.976C51.1036 160.104 51.0689 160.232 51.0263 160.36L49.2583 165.712C49.1996 165.904 49.0849 166 48.9143 166H47.7703L45.1463 157.88ZM61.8623 157.752C62.3529 157.752 62.8063 157.835 63.2223 158C63.6383 158.16 63.9983 158.395 64.3023 158.704C64.6063 159.013 64.8436 159.395 65.0143 159.848C65.1849 160.296 65.2703 160.811 65.2703 161.392C65.2703 161.627 65.2436 161.784 65.1903 161.864C65.1423 161.944 65.0489 161.984 64.9103 161.984H59.5503C59.5663 162.48 59.6356 162.912 59.7582 163.28C59.8863 163.648 60.0569 163.955 60.2703 164.2C60.4889 164.44 60.7503 164.621 61.0543 164.744C61.3583 164.861 61.6969 164.92 62.0703 164.92C62.4223 164.92 62.7236 164.88 62.9743 164.8C63.2303 164.72 63.4489 164.632 63.6303 164.536C63.8169 164.44 63.9743 164.352 64.1023 164.272C64.2303 164.192 64.3423 164.152 64.4383 164.152C64.5663 164.152 64.6596 164.2 64.7183 164.296L65.1503 164.848C64.9636 165.072 64.7476 165.264 64.5023 165.424C64.2569 165.579 63.9929 165.709 63.7103 165.816C63.4276 165.917 63.1343 165.992 62.8303 166.04C62.5316 166.088 62.2356 166.112 61.9423 166.112C61.3823 166.112 60.8623 166.019 60.3823 165.832C59.9076 165.64 59.4969 165.363 59.1503 165C58.8036 164.632 58.5316 164.179 58.3343 163.64C58.1423 163.096 58.0463 162.472 58.0463 161.768C58.0463 161.203 58.1343 160.677 58.3103 160.192C58.4863 159.701 58.7369 159.277 59.0623 158.92C59.3929 158.557 59.7929 158.272 60.2623 158.064C60.7369 157.856 61.2703 157.752 61.8623 157.752ZM61.8863 158.864C61.2196 158.864 60.6943 159.059 60.3103 159.448C59.9316 159.832 59.6943 160.365 59.5983 161.048H63.9103C63.9103 160.728 63.8649 160.435 63.7743 160.168C63.6836 159.901 63.5503 159.672 63.3743 159.48C63.2036 159.288 62.9929 159.139 62.7423 159.032C62.4916 158.92 62.2063 158.864 61.8863 158.864ZM70.331 157.752C70.8217 157.752 71.275 157.835 71.691 158C72.107 158.16 72.467 158.395 72.771 158.704C73.075 159.013 73.3123 159.395 73.483 159.848C73.6537 160.296 73.739 160.811 73.739 161.392C73.739 161.627 73.7123 161.784 73.659 161.864C73.611 161.944 73.5177 161.984 73.379 161.984H68.019C68.035 162.48 68.1043 162.912 68.227 163.28C68.355 163.648 68.5257 163.955 68.739 164.2C68.9577 164.44 69.219 164.621 69.523 164.744C69.827 164.861 70.1657 164.92 70.539 164.92C70.891 164.92 71.1923 164.88 71.443 164.8C71.699 164.72 71.9177 164.632 72.099 164.536C72.2857 164.44 72.443 164.352 72.571 164.272C72.699 164.192 72.811 164.152 72.907 164.152C73.035 164.152 73.1283 164.2 73.187 164.296L73.619 164.848C73.4323 165.072 73.2163 165.264 72.971 165.424C72.7257 165.579 72.4617 165.709 72.179 165.816C71.8963 165.917 71.603 165.992 71.299 166.04C71.0003 166.088 70.7043 166.112 70.411 166.112C69.851 166.112 69.331 166.019 68.851 165.832C68.3763 165.64 67.9657 165.363 67.619 165C67.2723 164.632 67.0003 164.179 66.803 163.64C66.611 163.096 66.515 162.472 66.515 161.768C66.515 161.203 66.603 160.677 66.779 160.192C66.955 159.701 67.2057 159.277 67.531 158.92C67.8617 158.557 68.2617 158.272 68.731 158.064C69.2057 157.856 69.739 157.752 70.331 157.752ZM70.355 158.864C69.6883 158.864 69.163 159.059 68.779 159.448C68.4003 159.832 68.163 160.365 68.067 161.048H72.379C72.379 160.728 72.3337 160.435 72.243 160.168C72.1523 159.901 72.019 159.672 71.843 159.48C71.6723 159.288 71.4617 159.139 71.211 159.032C70.9603 158.92 70.675 158.864 70.355 158.864ZM77.8976 166.128C77.247 166.128 76.7456 165.947 76.3936 165.584C76.0416 165.221 75.8656 164.699 75.8656 164.016V159.12H74.9136C74.823 159.12 74.7483 159.093 74.6896 159.04C74.631 158.981 74.6016 158.899 74.6016 158.792V158.184L75.9216 158.008L76.2656 155.552C76.287 155.467 76.327 155.4 76.3856 155.352C76.4443 155.299 76.5216 155.272 76.6176 155.272H77.3856V158.016H79.6976V159.12H77.3856V163.912C77.3856 164.237 77.463 164.483 77.6176 164.648C77.7776 164.808 77.9856 164.888 78.2416 164.888C78.3856 164.888 78.511 164.869 78.6176 164.832C78.7243 164.795 78.815 164.752 78.8896 164.704C78.9643 164.656 79.0283 164.613 79.0816 164.576C79.1403 164.539 79.191 164.52 79.2336 164.52C79.2816 164.52 79.319 164.531 79.3456 164.552C79.3776 164.573 79.4096 164.611 79.4416 164.664L79.8896 165.392C79.6336 165.627 79.3296 165.808 78.9776 165.936C78.631 166.064 78.271 166.128 77.8976 166.128ZM86.7898 157.88V166H85.2697V157.88H86.7898ZM87.0858 155.36C87.0858 155.504 87.0564 155.64 86.9978 155.768C86.9444 155.891 86.8671 156 86.7658 156.096C86.6698 156.192 86.5551 156.269 86.4218 156.328C86.2938 156.381 86.1578 156.408 86.0138 156.408C85.8751 156.408 85.7418 156.381 85.6138 156.328C85.4911 156.269 85.3818 156.192 85.2858 156.096C85.1898 156 85.1124 155.891 85.0538 155.768C85.0004 155.64 84.9738 155.504 84.9738 155.36C84.9738 155.216 85.0004 155.08 85.0538 154.952C85.1124 154.819 85.1898 154.704 85.2858 154.608C85.3818 154.512 85.4911 154.437 85.6138 154.384C85.7418 154.325 85.8751 154.296 86.0138 154.296C86.1578 154.296 86.2938 154.325 86.4218 154.384C86.5551 154.437 86.6698 154.512 86.7658 154.608C86.8671 154.704 86.9444 154.819 86.9978 154.952C87.0564 155.08 87.0858 155.216 87.0858 155.36ZM93.8408 159.256C93.7661 159.384 93.6621 159.448 93.5288 159.448C93.4434 159.448 93.3474 159.419 93.2408 159.36C93.1394 159.301 93.0168 159.237 92.8728 159.168C92.7288 159.093 92.5554 159.027 92.3528 158.968C92.1554 158.909 91.9208 158.88 91.6488 158.88C91.4194 158.88 91.2114 158.909 91.0248 158.968C90.8381 159.027 90.6781 159.107 90.5448 159.208C90.4168 159.309 90.3154 159.429 90.2408 159.568C90.1714 159.701 90.1368 159.848 90.1368 160.008C90.1368 160.211 90.1954 160.381 90.3128 160.52C90.4354 160.653 90.5928 160.771 90.7848 160.872C90.9821 160.968 91.2061 161.056 91.4568 161.136C91.7074 161.211 91.9634 161.291 92.2248 161.376C92.4861 161.461 92.7421 161.56 92.9928 161.672C93.2434 161.779 93.4648 161.912 93.6568 162.072C93.8541 162.232 94.0114 162.429 94.1288 162.664C94.2514 162.893 94.3128 163.171 94.3128 163.496C94.3128 163.875 94.2434 164.224 94.1048 164.544C93.9714 164.864 93.7714 165.141 93.5048 165.376C93.2434 165.611 92.9208 165.795 92.5368 165.928C92.1528 166.061 91.7101 166.128 91.2088 166.128C90.6434 166.128 90.1261 166.035 89.6568 165.848C89.1928 165.661 88.8008 165.424 88.4808 165.136L88.8328 164.56C88.8754 164.485 88.9288 164.429 88.9928 164.392C89.0568 164.349 89.1368 164.328 89.2328 164.328C89.3341 164.328 89.4381 164.365 89.5448 164.44C89.6514 164.515 89.7794 164.597 89.9288 164.688C90.0834 164.773 90.2674 164.853 90.4808 164.928C90.6994 165.003 90.9688 165.04 91.2888 165.04C91.5608 165.04 91.7954 165.005 91.9928 164.936C92.1954 164.867 92.3634 164.776 92.4968 164.664C92.6301 164.547 92.7288 164.411 92.7928 164.256C92.8568 164.101 92.8888 163.939 92.8888 163.768C92.8888 163.549 92.8274 163.368 92.7048 163.224C92.5874 163.08 92.4301 162.957 92.2328 162.856C92.0408 162.755 91.8194 162.667 91.5688 162.592C91.3181 162.517 91.0594 162.437 90.7928 162.352C90.5314 162.267 90.2754 162.171 90.0247 162.064C89.7741 161.952 89.5501 161.811 89.3528 161.64C89.1608 161.469 89.0034 161.264 88.8808 161.024C88.7634 160.779 88.7048 160.48 88.7048 160.128C88.7048 159.813 88.7688 159.512 88.8968 159.224C89.0248 158.936 89.2114 158.683 89.4568 158.464C89.7074 158.245 90.0141 158.072 90.3768 157.944C90.7394 157.816 91.1528 157.752 91.6168 157.752C92.1501 157.752 92.6328 157.837 93.0648 158.008C93.5021 158.173 93.8728 158.405 94.1768 158.704L93.8408 159.256ZM101.513 157.88V163.056C101.513 163.643 101.649 164.101 101.921 164.432C102.193 164.757 102.606 164.92 103.161 164.92C103.566 164.92 103.945 164.827 104.297 164.64C104.654 164.448 104.985 164.184 105.289 163.848V157.88H106.809V166H105.897C105.683 166 105.55 165.899 105.497 165.696L105.377 164.856C105.025 165.235 104.633 165.541 104.201 165.776C103.774 166.011 103.278 166.128 102.713 166.128C102.265 166.128 101.87 166.053 101.529 165.904C101.193 165.755 100.91 165.547 100.681 165.28C100.457 165.008 100.286 164.685 100.169 164.312C100.051 163.933 99.9928 163.515 99.9928 163.056V157.88H101.513ZM109.01 166V157.88H109.922C110.136 157.88 110.269 157.981 110.322 158.184L110.434 159.024C110.786 158.645 111.178 158.339 111.61 158.104C112.042 157.869 112.541 157.752 113.106 157.752C113.549 157.752 113.938 157.827 114.274 157.976C114.616 158.125 114.901 158.336 115.13 158.608C115.36 158.875 115.533 159.197 115.65 159.576C115.768 159.949 115.826 160.365 115.826 160.824V166H114.306V160.824C114.306 160.237 114.17 159.781 113.898 159.456C113.626 159.125 113.213 158.96 112.658 158.96C112.248 158.96 111.866 159.056 111.514 159.248C111.162 159.44 110.834 159.704 110.53 160.04V166H109.01ZM123.14 166C122.99 166 122.876 165.976 122.796 165.928C122.716 165.88 122.652 165.787 122.604 165.648L122.436 164.92C122.228 165.112 122.022 165.285 121.82 165.44C121.617 165.589 121.404 165.715 121.18 165.816C120.961 165.917 120.726 165.995 120.476 166.048C120.225 166.101 119.945 166.128 119.636 166.128C119.316 166.128 119.017 166.085 118.74 166C118.462 165.909 118.22 165.773 118.012 165.592C117.809 165.411 117.646 165.187 117.524 164.92C117.406 164.648 117.348 164.328 117.348 163.96C117.348 163.64 117.433 163.333 117.604 163.04C117.78 162.747 118.062 162.485 118.452 162.256C118.846 162.021 119.358 161.829 119.988 161.68C120.622 161.531 121.401 161.445 122.324 161.424V160.816C122.324 160.203 122.19 159.741 121.924 159.432C121.662 159.117 121.276 158.96 120.764 158.96C120.417 158.96 120.126 159.005 119.892 159.096C119.662 159.181 119.462 159.277 119.292 159.384C119.126 159.485 118.98 159.579 118.852 159.664C118.724 159.749 118.596 159.792 118.468 159.792C118.361 159.792 118.27 159.765 118.196 159.712C118.126 159.653 118.065 159.587 118.012 159.512L117.74 159.016C118.193 158.589 118.681 158.269 119.204 158.056C119.732 157.843 120.313 157.736 120.948 157.736C121.406 157.736 121.814 157.811 122.172 157.96C122.529 158.109 122.828 158.32 123.068 158.592C123.313 158.859 123.497 159.181 123.62 159.56C123.748 159.939 123.812 160.357 123.812 160.816V166H123.14ZM120.092 165.064C120.332 165.064 120.553 165.04 120.756 164.992C120.964 164.944 121.156 164.875 121.332 164.784C121.513 164.693 121.684 164.584 121.844 164.456C122.004 164.323 122.164 164.173 122.324 164.008V162.376C121.684 162.397 121.14 162.448 120.692 162.528C120.244 162.608 119.878 162.712 119.596 162.84C119.318 162.968 119.116 163.123 118.988 163.304C118.86 163.48 118.796 163.675 118.796 163.888C118.796 164.096 118.828 164.275 118.892 164.424C118.961 164.573 119.054 164.696 119.172 164.792C119.289 164.883 119.425 164.952 119.58 165C119.74 165.043 119.91 165.064 120.092 165.064ZM129.488 166H128.112L124.816 157.88H126.064C126.187 157.88 126.286 157.909 126.36 157.968C126.44 158.027 126.494 158.099 126.52 158.184L128.504 163.248C128.574 163.451 128.632 163.653 128.68 163.856C128.728 164.053 128.774 164.251 128.816 164.448C128.859 164.251 128.904 164.053 128.952 163.856C129.006 163.659 129.07 163.456 129.144 163.248L131.152 158.184C131.179 158.093 131.232 158.021 131.312 157.968C131.392 157.909 131.486 157.88 131.592 157.88H132.784L129.488 166ZM139.062 166C138.912 166 138.798 165.976 138.718 165.928C138.638 165.88 138.574 165.787 138.526 165.648L138.358 164.92C138.15 165.112 137.944 165.285 137.742 165.44C137.539 165.589 137.326 165.715 137.102 165.816C136.883 165.917 136.648 165.995 136.398 166.048C136.147 166.101 135.867 166.128 135.558 166.128C135.238 166.128 134.939 166.085 134.662 166C134.384 165.909 134.142 165.773 133.934 165.592C133.731 165.411 133.568 165.187 133.446 164.92C133.328 164.648 133.27 164.328 133.27 163.96C133.27 163.64 133.355 163.333 133.526 163.04C133.702 162.747 133.984 162.485 134.374 162.256C134.768 162.021 135.28 161.829 135.91 161.68C136.544 161.531 137.323 161.445 138.246 161.424V160.816C138.246 160.203 138.112 159.741 137.846 159.432C137.584 159.117 137.198 158.96 136.686 158.96C136.339 158.96 136.048 159.005 135.814 159.096C135.584 159.181 135.384 159.277 135.214 159.384C135.048 159.485 134.902 159.579 134.774 159.664C134.646 159.749 134.518 159.792 134.39 159.792C134.283 159.792 134.192 159.765 134.118 159.712C134.048 159.653 133.987 159.587 133.934 159.512L133.662 159.016C134.115 158.589 134.603 158.269 135.126 158.056C135.654 157.843 136.235 157.736 136.87 157.736C137.328 157.736 137.736 157.811 138.094 157.96C138.451 158.109 138.75 158.32 138.99 158.592C139.235 158.859 139.419 159.181 139.542 159.56C139.67 159.939 139.734 160.357 139.734 160.816V166H139.062ZM136.014 165.064C136.254 165.064 136.475 165.04 136.678 164.992C136.886 164.944 137.078 164.875 137.254 164.784C137.435 164.693 137.606 164.584 137.766 164.456C137.926 164.323 138.086 164.173 138.246 164.008V162.376C137.606 162.397 137.062 162.448 136.614 162.528C136.166 162.608 135.8 162.712 135.518 162.84C135.24 162.968 135.038 163.123 134.91 163.304C134.782 163.48 134.718 163.675 134.718 163.888C134.718 164.096 134.75 164.275 134.814 164.424C134.883 164.573 134.976 164.696 135.094 164.792C135.211 164.883 135.347 164.952 135.502 165C135.662 165.043 135.832 165.064 136.014 165.064ZM143.446 157.88V166H141.926V157.88H143.446ZM143.742 155.36C143.742 155.504 143.713 155.64 143.654 155.768C143.601 155.891 143.523 156 143.422 156.096C143.326 156.192 143.211 156.269 143.078 156.328C142.95 156.381 142.814 156.408 142.67 156.408C142.531 156.408 142.398 156.381 142.27 156.328C142.147 156.269 142.038 156.192 141.942 156.096C141.846 156 141.769 155.891 141.71 155.768C141.657 155.64 141.63 155.504 141.63 155.36C141.63 155.216 141.657 155.08 141.71 154.952C141.769 154.819 141.846 154.704 141.942 154.608C142.038 154.512 142.147 154.437 142.27 154.384C142.398 154.325 142.531 154.296 142.67 154.296C142.814 154.296 142.95 154.325 143.078 154.384C143.211 154.437 143.326 154.512 143.422 154.608C143.523 154.704 143.601 154.819 143.654 154.952C143.713 155.08 143.742 155.216 143.742 155.36ZM147.289 154.2V166H145.769V154.2H147.289ZM154.734 166C154.584 166 154.47 165.976 154.39 165.928C154.31 165.88 154.246 165.787 154.198 165.648L154.03 164.92C153.822 165.112 153.616 165.285 153.414 165.44C153.211 165.589 152.998 165.715 152.774 165.816C152.555 165.917 152.32 165.995 152.07 166.048C151.819 166.101 151.539 166.128 151.23 166.128C150.91 166.128 150.611 166.085 150.334 166C150.056 165.909 149.814 165.773 149.606 165.592C149.403 165.411 149.24 165.187 149.118 164.92C149 164.648 148.942 164.328 148.942 163.96C148.942 163.64 149.027 163.333 149.198 163.04C149.374 162.747 149.656 162.485 150.046 162.256C150.44 162.021 150.952 161.829 151.582 161.68C152.216 161.531 152.995 161.445 153.918 161.424V160.816C153.918 160.203 153.784 159.741 153.518 159.432C153.256 159.117 152.87 158.96 152.358 158.96C152.011 158.96 151.72 159.005 151.486 159.096C151.256 159.181 151.056 159.277 150.886 159.384C150.72 159.485 150.574 159.579 150.446 159.664C150.318 159.749 150.19 159.792 150.062 159.792C149.955 159.792 149.864 159.765 149.79 159.712C149.72 159.653 149.659 159.587 149.606 159.512L149.334 159.016C149.787 158.589 150.275 158.269 150.798 158.056C151.326 157.843 151.907 157.736 152.542 157.736C153 157.736 153.408 157.811 153.766 157.96C154.123 158.109 154.422 158.32 154.662 158.592C154.907 158.859 155.091 159.181 155.214 159.56C155.342 159.939 155.406 160.357 155.406 160.816V166H154.734ZM151.686 165.064C151.926 165.064 152.147 165.04 152.35 164.992C152.558 164.944 152.75 164.875 152.926 164.784C153.107 164.693 153.278 164.584 153.438 164.456C153.598 164.323 153.758 164.173 153.918 164.008V162.376C153.278 162.397 152.734 162.448 152.286 162.528C151.838 162.608 151.472 162.712 151.19 162.84C150.912 162.968 150.71 163.123 150.582 163.304C150.454 163.48 150.39 163.675 150.39 163.888C150.39 164.096 150.422 164.275 150.486 164.424C150.555 164.573 150.648 164.696 150.766 164.792C150.883 164.883 151.019 164.952 151.174 165C151.334 165.043 151.504 165.064 151.686 165.064ZM157.526 166V154.2H159.046V159.024C159.382 158.635 159.763 158.325 160.19 158.096C160.622 157.867 161.113 157.752 161.662 157.752C162.137 157.752 162.563 157.845 162.942 158.032C163.326 158.213 163.651 158.475 163.918 158.816C164.185 159.157 164.387 159.576 164.526 160.072C164.67 160.563 164.742 161.115 164.742 161.728C164.742 162.384 164.659 162.981 164.494 163.52C164.334 164.059 164.102 164.52 163.798 164.904C163.499 165.288 163.134 165.587 162.702 165.8C162.275 166.008 161.793 166.112 161.254 166.112C160.721 166.112 160.273 166.013 159.91 165.816C159.553 165.613 159.238 165.336 158.966 164.984L158.894 165.68C158.846 165.893 158.718 166 158.51 166H157.526ZM161.158 158.96C160.705 158.96 160.31 159.064 159.974 159.272C159.643 159.475 159.334 159.765 159.046 160.144V164.024C159.302 164.36 159.582 164.597 159.886 164.736C160.19 164.869 160.521 164.936 160.878 164.936C161.619 164.936 162.187 164.675 162.582 164.152C162.977 163.629 163.174 162.84 163.174 161.784C163.174 160.813 162.998 160.101 162.646 159.648C162.299 159.189 161.803 158.96 161.158 158.96ZM168.07 154.2V166H166.55V154.2H168.07ZM173.675 157.752C174.165 157.752 174.619 157.835 175.035 158C175.451 158.16 175.811 158.395 176.115 158.704C176.419 159.013 176.656 159.395 176.827 159.848C176.997 160.296 177.083 160.811 177.083 161.392C177.083 161.627 177.056 161.784 177.003 161.864C176.955 161.944 176.861 161.984 176.723 161.984H171.363C171.379 162.48 171.448 162.912 171.571 163.28C171.699 163.648 171.869 163.955 172.083 164.2C172.301 164.44 172.563 164.621 172.867 164.744C173.171 164.861 173.509 164.92 173.883 164.92C174.235 164.92 174.536 164.88 174.787 164.8C175.043 164.72 175.261 164.632 175.443 164.536C175.629 164.44 175.787 164.352 175.915 164.272C176.043 164.192 176.155 164.152 176.251 164.152C176.379 164.152 176.472 164.2 176.531 164.296L176.963 164.848C176.776 165.072 176.56 165.264 176.315 165.424C176.069 165.579 175.805 165.709 175.523 165.816C175.24 165.917 174.947 165.992 174.643 166.04C174.344 166.088 174.048 166.112 173.755 166.112C173.195 166.112 172.675 166.019 172.195 165.832C171.72 165.64 171.309 165.363 170.963 165C170.616 164.632 170.344 164.179 170.147 163.64C169.955 163.096 169.859 162.472 169.859 161.768C169.859 161.203 169.947 160.677 170.123 160.192C170.299 159.701 170.549 159.277 170.875 158.92C171.205 158.557 171.605 158.272 172.075 158.064C172.549 157.856 173.083 157.752 173.675 157.752ZM173.699 158.864C173.032 158.864 172.507 159.059 172.123 159.448C171.744 159.832 171.507 160.365 171.411 161.048H175.723C175.723 160.728 175.677 160.435 175.587 160.168C175.496 159.901 175.363 159.672 175.187 159.48C175.016 159.288 174.805 159.139 174.555 159.032C174.304 158.92 174.019 158.864 173.699 158.864Z" fill="#919397"/>
<defs>
<clipPath id="clip0_1210_37322">
<rect width="150" height="150" fill="white" transform="translate(17)"/>
</clipPath>
</defs>
</svg>
