<svg width="172" height="40" viewBox="0 0 172 40" fill="none" xmlns="http://www.w3.org/2000/svg">
<path d="M34.3307 31.7365C35.8579 31.7365 37.096 30.4901 37.096 28.9525C37.096 27.4148 35.8579 26.1684 34.3307 26.1684C32.8035 26.1684 31.5654 27.4148 31.5654 28.9525C31.5654 30.4901 32.8035 31.7365 34.3307 31.7365Z" fill="#FFC334"/>
<path fill-rule="evenodd" clip-rule="evenodd" d="M33.18 12.8177C34.0768 12.07 34.6573 11.0067 34.8037 9.84375C34.9501 8.68078 34.6513 7.50531 33.9682 6.55603C33.285 5.60674 32.2686 4.9548 31.1254 4.73258C29.9822 4.51036 28.7978 4.73452 27.8127 5.35954C27.6761 4.95643 27.4176 4.60648 27.0735 4.35875C26.7293 4.11103 26.3168 3.97797 25.8938 3.97822C25.5851 3.97667 25.2803 4.0475 25.0035 4.18509C24.7267 4.32268 24.4856 4.52325 24.2991 4.77093C23.0032 4.37778 21.6568 4.17914 20.3033 4.18142C17.8445 4.17906 15.4288 4.83208 13.3019 6.0741C11.1749 7.31613 9.41243 9.10289 8.19351 11.2528C6.8221 11.4227 5.55034 12.062 4.59138 13.0636C3.63241 14.0651 3.04451 15.3681 2.92619 16.7541C2.80787 18.1402 3.16633 19.525 3.94149 20.6767C4.71665 21.8283 5.8614 22.6767 7.18392 23.0796C8.1604 25.7453 9.91173 28.0531 12.2097 29.7022C12.9565 31.7364 14.3605 33.4588 16.1964 34.5931C18.0323 35.7274 20.1935 36.2077 22.333 35.9569C24.4726 35.706 26.4663 34.7387 27.9942 33.21C29.5221 31.6814 30.4955 29.6802 30.7581 27.5278C32.4889 25.5494 33.6334 23.1217 34.0616 20.5208C34.4897 17.9199 34.1843 15.2503 33.18 12.8155M20.3033 29.2369C18.1417 29.2349 16.0291 28.5877 14.2328 27.3769C12.4366 26.1662 11.0372 24.4464 10.2118 22.4349C9.3864 20.4235 9.17195 18.2108 9.59559 16.0766C10.0192 13.9425 11.0619 11.9828 12.5919 10.4453C14.1218 8.90776 16.0702 7.86154 18.1907 7.43892C20.3112 7.01629 22.5086 7.23624 24.5049 8.07095C26.5012 8.90566 28.2069 10.3176 29.4062 12.1283C30.6055 13.939 31.2445 16.0671 31.2425 18.2434C31.2349 21.1602 30.0793 23.955 28.0288 26.0156C25.9784 28.0762 23.2004 29.2345 20.3033 29.2369Z" fill="#FFC334"/>
<path d="M5.75115 11.3342C6.6206 11.3342 7.32543 10.6246 7.32543 9.7492C7.32543 8.87384 6.6206 8.16423 5.75115 8.16423C4.88171 8.16423 4.17688 8.87384 4.17688 9.7492C4.17688 10.6246 4.88171 11.3342 5.75115 11.3342Z" fill="#FFC334"/>
<path d="M22.2205 26.7975C21.0018 26.7097 19.7966 26.485 18.6275 26.1276C18.2642 26.8797 17.9621 27.3267 17.7594 27.408C18.4483 27.6239 19.1593 27.7603 19.8788 27.8144H19.9596C20.8162 27.7856 21.6276 27.4207 22.2205 26.7975V26.7975Z" fill="#FFC334"/>
<path d="M19.9595 27.8144H20.101C20.0788 27.8246 20.0546 27.8298 20.0302 27.8298C20.0058 27.8298 19.9817 27.8246 19.9595 27.8144V27.8144Z" fill="#FFC334"/>
<path d="M12.4115 12.7156C12.4237 12.706 12.4337 12.6938 12.4406 12.6799C12.4475 12.6659 12.4513 12.6506 12.4515 12.635C12.4317 12.6753 12.4115 12.6952 12.4115 12.7156Z" fill="#FFC334"/>
<path d="M25.0257 26.6357C25.1676 26.5595 25.3027 26.4711 25.4293 26.3713C24.5803 26.6997 23.6741 26.8517 22.7652 26.8179C22.0948 27.4473 21.2192 27.8086 20.3029 27.8339H20.4036C21.7973 27.8324 23.1742 27.5277 24.4401 26.9407L24.4805 26.9206C24.6424 26.8389 24.8443 26.7371 25.0257 26.6357Z" fill="#FFC334"/>
<path d="M17.6388 27.4281C17.9834 27.5308 18.3339 27.6123 18.6883 27.6719C18.3654 27.6108 18.0229 27.5299 17.6792 27.4281H17.6388Z" fill="#FFC334"/>
<path d="M17.4573 27.3673C17.5123 27.3841 17.5662 27.4044 17.6187 27.428L17.4772 27.3874L17.4573 27.3673Z" fill="#FFC334"/>
<path d="M19.0315 27.7332C18.9508 27.7126 18.8701 27.7126 18.7689 27.6925C18.855 27.7145 18.9429 27.7281 19.0315 27.7332V27.7332Z" fill="#FFC334"/>
<path d="M12.0886 13.2244L12.2705 12.9194L12.0886 13.2244Z" fill="#FFC334"/>
<path d="M15.0353 26.1881C15.0154 26.1881 15.0154 26.1677 14.995 26.1677C15.0149 26.1682 15.0149 26.1682 15.0353 26.1881Z" fill="#FFC334"/>
<path d="M16.206 26.8586C15.942 26.7396 15.6859 26.6039 15.439 26.4522L15.3583 26.412C15.979 26.8003 16.6429 27.1141 17.3362 27.3467H17.3544C16.953 27.1842 16.5693 27.0422 16.206 26.8586Z" fill="#FFC334"/>
<path d="M14.6517 25.9243C14.6317 25.9043 14.6113 25.9043 14.6113 25.8837C14.6921 25.9449 14.7528 25.9851 14.8331 26.0463C14.7928 26.0257 14.7524 25.9851 14.6916 25.9444C14.6721 25.9243 14.6721 25.9243 14.6517 25.9243Z" fill="#FFC334"/>
<path d="M19.8788 27.8144C19.8174 27.8177 19.756 27.8107 19.6969 27.7939C19.818 27.7939 19.9391 27.8144 20.0602 27.8144H19.8783H19.8788Z" fill="#FFC334"/>
<path d="M14.4702 19.8895C13.4764 19.2567 12.6018 18.4517 11.8868 17.5118C11.4434 18.7762 11.3389 20.1359 11.5838 21.454C12.2107 22.2793 12.9764 22.9877 13.8461 23.5472C13.8245 22.2993 14.0362 21.0585 14.4702 19.8895V19.8895Z" fill="#FFC334"/>
<path d="M14.3895 24.238C14.3849 24.6135 14.4538 24.9862 14.5923 25.3349C14.7309 25.6836 14.9363 26.0013 15.1968 26.27C15.4908 26.4488 15.794 26.6116 16.1053 26.7577C16.5184 26.9533 16.9431 27.123 17.377 27.2659C17.6151 26.8293 17.8176 26.3739 17.9825 25.9043C17.2731 25.662 16.5789 25.377 15.9034 25.0508C15.3799 24.8172 14.8739 24.5455 14.3895 24.238V24.238Z" fill="#FFC334"/>
<path d="M14.6517 19.3588C15.1954 17.9344 15.9141 16.5841 16.7911 15.3395C15.9348 14.787 15.1778 14.0924 14.5523 13.2851C13.4911 14.3417 12.647 15.5984 12.0682 16.9834C12.7886 17.9177 13.6623 18.7211 14.6517 19.3588V19.3588Z" fill="#FFC334"/>
<path d="M14.7728 12.5537C15.9283 11.5696 17.2562 10.8115 18.6883 10.3185C18.5829 10.1665 18.5136 9.99221 18.4856 9.80901C18.4577 9.62581 18.472 9.4386 18.5273 9.26182C17.0843 9.44188 15.7026 9.95661 14.4907 10.7655C14.3974 11.0653 14.3743 11.3827 14.4232 11.6929C14.4722 12.0032 14.5918 12.2978 14.7728 12.5537V12.5537Z" fill="#FFC334"/>
<path d="M28.6187 17.8571C27.7543 18.2064 26.8237 18.3589 25.8938 18.3037C25.8674 19.8282 25.6227 21.3409 25.1672 22.7951C26.243 22.857 27.319 22.6765 28.3167 22.2668C28.7503 20.8393 28.8536 19.3309 28.6187 17.8571Z" fill="#FFC334"/>
<path d="M24.3394 23.3033C22.9008 23.2024 21.4783 22.9365 20.0997 22.5106C19.6153 23.8923 19.1508 25.0115 18.7689 25.8431C19.9761 26.2173 21.2223 26.4491 22.4826 26.5339C23.304 25.5886 23.9347 24.4913 24.3394 23.3033Z" fill="#FFC334"/>
<path d="M14.9746 12.8788C15.5728 13.6651 16.3039 14.3392 17.1344 14.8701C17.9789 13.6914 18.9691 12.6259 20.0811 11.6993C19.5949 11.3809 19.1651 10.9829 18.8094 10.5216C17.3986 11.0643 16.0987 11.8633 14.9746 12.8788V12.8788Z" fill="#FFC334"/>
<path d="M23.0681 26.5546C24.0127 26.6035 24.9565 26.4439 25.8334 26.087C26.8982 25.2303 27.7025 24.0897 28.1547 22.7951C27.1542 23.1952 26.0804 23.3753 25.0052 23.3235C24.5878 24.5235 23.9282 25.6236 23.0681 26.5546V26.5546Z" fill="#FFC334"/>
<path d="M21.8168 17.0441C22.9676 17.3914 24.1515 17.616 25.349 17.714C25.3971 16.2521 25.2546 14.7901 24.925 13.3655C24.2206 13.3086 23.524 13.1791 22.8459 12.9792C22.5638 14.1993 22.2204 15.5811 21.8168 17.0441Z" fill="#FFC334"/>
<path d="M11.4627 14.5044C11.402 14.6465 11.3616 14.7889 11.3013 14.9309L11.3212 14.8702L11.4627 14.5044Z" fill="#FFC334"/>
<path d="M28.518 17.3085C28.2121 15.8135 27.6221 14.3921 26.7804 13.1226C26.2866 13.3177 25.758 13.4077 25.2279 13.387C25.6431 14.7992 25.8604 16.2628 25.8738 17.7355C26.7754 17.7869 27.6775 17.6413 28.518 17.3085Z" fill="#FFC334"/>
<path d="M29.1031 16.9428C29.2969 16.7935 29.4515 16.5988 29.5536 16.3757C29.6556 16.1525 29.702 15.9077 29.6886 15.6624C29.2557 14.3311 28.4994 13.1297 27.4884 12.1673C27.4966 12.3114 27.4695 12.4552 27.4097 12.5863C27.3498 12.7174 27.259 12.8318 27.1451 12.9194C27.095 12.9648 27.041 13.0056 26.9836 13.0413C27.8721 14.2689 28.5038 15.6654 28.8405 17.146C28.9416 17.0647 29.0241 17.0035 29.1031 16.9428Z" fill="#FFC334"/>
<path d="M15.0758 20.2753C14.6545 21.4367 14.4161 22.6573 14.3691 23.8928C14.8535 24.1773 15.3583 24.4617 15.9217 24.7462C16.622 25.0845 17.3434 25.3765 18.0815 25.6202C18.4044 24.7869 18.8285 23.6489 19.3129 22.2672C18.4745 21.9756 17.6533 21.6362 16.8532 21.2507C16.2412 20.963 15.6476 20.6372 15.0758 20.2753Z" fill="#FFC334"/>
<path d="M18.8705 16.5164C18.3253 16.2525 17.8006 15.9675 17.3366 15.6831C16.5073 16.9667 15.817 18.336 15.2775 19.7676C15.8226 20.0928 16.4077 20.4179 17.0518 20.743C17.8534 21.1278 18.6761 21.4662 19.5159 21.7568C20.0207 20.3344 20.525 18.8508 21.0094 17.4083C20.2828 17.1461 19.5563 16.8415 18.8705 16.5164Z" fill="#FFC334"/>
<path d="M25.3287 18.2839C24.0829 18.1889 22.8512 17.9572 21.6554 17.593C21.2313 19.0561 20.7682 20.5598 20.283 21.9822C21.6612 22.4075 23.0833 22.673 24.5214 22.7735C24.9838 21.3188 25.2552 19.8095 25.3287 18.2839Z" fill="#FFC334"/>
<path d="M17.6388 15.1953C18.1161 15.4911 18.6079 15.7623 19.1124 16.0081C19.7789 16.3329 20.4667 16.6113 21.171 16.8415C21.6355 15.4191 22.0795 14.0373 22.4627 12.8587C22.0591 12.7164 21.6554 12.5539 21.2518 12.3711C20.9518 12.236 20.6617 12.0797 20.3837 11.9035C19.3466 12.8914 18.4256 13.9959 17.6388 15.1953V15.1953Z" fill="#FFC334"/>
<path d="M29.426 21.5759C29.3078 21.8898 29.1051 22.1643 28.8405 22.3686C28.7411 22.4545 28.6329 22.5294 28.5176 22.5919C28.0386 23.8941 27.215 25.0396 26.136 25.9043L26.3179 25.7824C27.8935 24.5471 29.05 22.8503 29.6279 20.9257L29.4864 21.3526L29.426 21.5759Z" fill="#FFC334"/>
<path d="M14.2077 10.8263C14.2994 10.6788 14.4155 10.5481 14.551 10.44C14.5914 10.3994 14.6317 10.3789 14.6721 10.3382L15.0558 10.0738C15.1016 10.0284 15.1567 9.99366 15.2172 9.97201C14.2027 10.6346 13.3139 11.4744 12.593 12.452C13.0475 11.8319 13.5917 11.2839 14.2077 10.8263Z" fill="#FFC334"/>
<path d="M11.826 16.577C12.3928 15.1876 13.2539 13.9394 14.3491 12.9194C14.1632 12.6541 14.0411 12.3489 13.9925 12.028C13.9438 11.707 13.9699 11.3791 14.0688 11.0701C13.1456 11.7903 12.3824 12.6971 11.8282 13.7322C11.7071 13.9761 11.5861 14.2404 11.4849 14.4637C11.3725 14.8182 11.3448 15.1943 11.404 15.5615C11.4633 15.9288 11.6079 16.2767 11.826 16.577Z" fill="#FFC334"/>
<path d="M19.3341 10.3391C19.6425 10.7534 20.026 11.1051 20.4644 11.3756C21.3216 10.6827 22.3008 10.1585 23.3507 9.83041C21.9913 9.71676 20.6232 9.89001 19.3341 10.3391V10.3391Z" fill="#FFC334"/>
<path d="M19.3142 8.87558C19.2383 8.92764 19.1759 8.99734 19.1323 9.07878C20.5691 9.02285 22.001 9.27936 23.3304 9.83085C22.3844 9.12581 21.2706 8.68418 20.1011 8.55045C19.8162 8.59205 19.546 8.70372 19.3142 8.87558Z" fill="#FFC334"/>
<path d="M11.6242 17.1032C11.4229 16.8146 11.2861 16.4855 11.2234 16.1386C11.1607 15.7916 11.1735 15.4351 11.2609 15.0936C10.9433 16.0781 10.7799 17.1064 10.7765 18.1416C10.775 18.8799 10.8563 19.6161 11.0187 20.3362C11.0952 20.6057 11.2036 20.8649 11.3416 21.1083C11.0774 19.7719 11.175 18.3886 11.6242 17.1032V17.1032Z" fill="#FFC334"/>
<path d="M19.0715 9.22115C19.0228 9.37751 19.0103 9.54301 19.0348 9.705C19.0593 9.867 19.1203 10.0212 19.213 10.1559C20.5557 9.76427 21.9639 9.65362 23.3507 9.83075C21.9836 9.32369 20.5247 9.11587 19.0715 9.22115V9.22115Z" fill="#FFC334"/>
<path d="M22.4219 8.63158C22.3815 8.63158 22.3611 8.61104 22.3212 8.61104C22.7249 8.69232 23.0882 9.09872 23.3508 9.83025C23.7748 9.32202 24.0774 9.13936 24.2379 9.22064C24.3386 9.26128 24.4597 9.32247 24.5609 9.36311C24.2783 9.24119 23.8746 9.38365 23.3295 9.83069C24.329 9.72215 25.3374 9.9281 26.2159 10.4202C25.9153 10.1596 25.5909 9.92831 25.2471 9.72932C25.2267 9.72932 25.2267 9.70922 25.2067 9.70922C25.1863 9.68868 25.1663 9.68868 25.1459 9.66858C25.0852 9.64804 25.0448 9.60739 24.9845 9.5873L24.8634 9.52611C24.0385 9.08856 23.155 8.77357 22.2405 8.59094H22.2808L22.4219 8.63158Z" fill="#FFC334"/>
<path d="M25.0057 9.58685C25.0279 9.60826 25.0561 9.62242 25.0864 9.62749C25.0256 9.58685 24.9653 9.56631 24.9045 9.52567C24.9449 9.56631 24.9853 9.56631 25.0052 9.58685H25.0057Z" fill="#FFC334"/>
<path d="M12.4116 23.5266C12.3104 23.3641 12.2097 23.2015 12.129 23.059L12.1086 23.0184C11.8389 22.5595 11.6287 22.0676 11.4831 21.5549C11.3656 21.3396 11.2643 21.1156 11.1802 20.885C11.4763 21.9039 11.9402 22.8656 12.5526 23.7298C12.5123 23.6686 12.4719 23.6284 12.4315 23.5673C12.4315 23.5472 12.4116 23.5472 12.4116 23.5266Z" fill="#FFC334"/>
<path d="M20.7066 8.42847H20.424C19.9805 8.42847 19.5559 8.46911 19.1323 8.50975C19.3991 8.46584 19.6699 8.45221 19.9396 8.46911C20.1937 8.43365 20.4503 8.42006 20.7066 8.42847V8.42847Z" fill="#FFC334"/>
<path d="M14.9547 10.1353C14.8194 10.2428 14.7033 10.3726 14.6113 10.5194C15.8068 9.73949 17.1701 9.25869 18.5876 9.11708C18.644 9.03337 18.712 8.95818 18.7894 8.89378C19.0421 8.69394 19.3406 8.56112 19.6575 8.50747C19.2306 8.50579 18.8047 8.54663 18.3858 8.62939C18.5876 8.58875 18.8702 8.54811 19.072 8.50747C17.6984 8.7019 16.383 9.19422 15.2168 9.95043L15.0549 10.054C15.0312 10.0914 14.996 10.12 14.9547 10.1353V10.1353Z" fill="#FFC334"/>
<path d="M21.9987 8.55046C21.4458 8.45135 20.8818 8.43091 20.3232 8.48973C21.4321 8.63861 22.4756 9.10346 23.3307 9.82952C22.9674 9.07879 22.503 8.65184 21.9987 8.55046Z" fill="#FFC334"/>
<path d="M21.938 8.55037H21.9783C21.7565 8.50973 21.5348 8.48918 21.2921 8.46909C21.5087 8.4849 21.7242 8.51203 21.938 8.55037Z" fill="#FFC334"/>
<path d="M26.7415 10.8263C27.0806 11.1295 27.3259 11.5246 27.4481 11.9643C28.4551 12.8814 29.2125 14.0426 29.6482 15.3374C29.6278 15.2561 29.6079 15.195 29.5875 15.1141C29.1064 13.6125 28.2679 12.2522 27.1451 11.1515L27.2258 11.2328C27.0644 11.0907 26.9029 10.9688 26.7415 10.8263Z" fill="#FFC334"/>
<path d="M21.5139 11.9647C21.8772 12.1272 22.2405 12.2898 22.6038 12.4113C22.9267 11.3546 23.1893 10.4605 23.3508 9.8304C22.3876 10.2365 21.5054 10.8148 20.7469 11.5373C20.9861 11.7078 21.2434 11.8512 21.5139 11.9647Z" fill="#FFC334"/>
<path d="M25.4905 9.8715C25.4098 9.81032 25.3086 9.76968 25.2279 9.70894C25.2306 9.70888 25.2333 9.70937 25.2358 9.71038C25.2383 9.71139 25.2406 9.7129 25.2425 9.71482C25.2444 9.71674 25.2459 9.71903 25.2469 9.72155C25.2479 9.72407 25.2484 9.72677 25.2483 9.72948C25.3086 9.76968 25.3894 9.81076 25.4905 9.8715Z" fill="#FFC334"/>
<path d="M29.8297 16.1501C29.8442 16.4034 29.7965 16.6564 29.6909 16.8868C29.5853 17.1172 29.425 17.3179 29.2242 17.4712C29.1335 17.5437 29.0392 17.6115 28.9417 17.6744C29.2057 19.1362 29.1228 20.6402 28.6995 22.0635C28.8206 21.9822 28.9213 21.9211 29.0224 21.8402C29.3088 21.6062 29.5254 21.2971 29.6483 20.947C29.9164 20.0368 30.0523 19.0923 30.0519 18.1429C30.0519 17.9196 30.0519 17.7159 30.0315 17.5127C30.0111 17.3702 30.0111 17.2483 29.9912 17.1469C29.9686 16.8103 29.9146 16.4765 29.8297 16.1501Z" fill="#FFC334"/>
<path d="M30.0116 17.2272C30.0116 17.1661 29.9912 17.0848 29.9912 17.024C29.9881 17.0657 29.9951 17.1076 30.0116 17.146V17.2272Z" fill="#FFC334"/>
<path d="M14.692 25.9448C14.7528 25.9855 14.8335 26.0467 14.8939 26.0868C14.5909 25.8138 14.3455 25.4823 14.1722 25.112C13.9988 24.7417 13.9011 24.3402 13.8847 23.9311C13.0431 23.3998 12.3045 22.7189 11.705 21.9214C11.8635 22.4974 12.1085 23.0456 12.4315 23.547C12.4315 23.5676 12.4519 23.5676 12.4519 23.5877L12.573 23.7708C13.1319 24.5641 13.8046 25.2695 14.5692 25.864C14.6067 25.8859 14.6408 25.9133 14.6703 25.9453C14.6721 25.9247 14.6721 25.9247 14.692 25.9448Z" fill="#FFC334"/>
<path d="M26.4185 10.6024C25.49 10.0559 24.4254 9.78841 23.3507 9.83159C24.702 10.1506 25.9688 10.76 27.0644 11.618C26.9326 11.2325 26.7111 10.8843 26.4185 10.6024V10.6024Z" fill="#FFC334"/>
<path d="M24.784 12.8789C24.5026 11.783 24.0087 10.7539 23.3308 9.85093C23.2562 10.7544 23.1145 11.651 22.9067 12.5332C23.5202 12.7082 24.1488 12.8239 24.784 12.8789V12.8789Z" fill="#FFC334"/>
<path d="M26.4594 12.6555C25.6182 11.5095 24.5536 10.5483 23.3308 9.83079C24.105 10.7204 24.6951 11.7567 25.0665 12.8788C25.5417 12.913 26.0183 12.8366 26.4594 12.6555Z" fill="#FFC334"/>
<path d="M25.7323 10.034L25.9142 10.1559L25.7323 10.034Z" fill="#FFC334"/>
<path d="M26.8427 10.8874L26.943 10.968C26.9049 10.9475 26.8709 10.9202 26.8427 10.8874V10.8874Z" fill="#FFC334"/>
<path d="M26.6408 12.555C26.6912 12.526 26.7387 12.4919 26.7823 12.4532C26.8838 12.3754 26.9645 12.2735 27.0173 12.1566C27.0701 12.0397 27.0933 11.9115 27.0848 11.7833C25.9998 10.861 24.7242 10.1939 23.3507 9.83079C24.6098 10.5195 25.7265 11.4442 26.6408 12.555V12.555Z" fill="#FFC334"/>
<path d="M12.4115 23.5266C12.4115 23.547 12.4317 23.547 12.4317 23.567C12.4317 23.547 12.4115 23.547 12.4115 23.5266Z" fill="#FFC334"/>
<path d="M12.5526 23.7299C12.5172 23.6721 12.4767 23.6177 12.4315 23.5673C12.4669 23.6251 12.5075 23.6795 12.5526 23.7299V23.7299Z" fill="#FFC334"/>
<path d="M128.974 27.7123H132.001V16.4955H128.974V27.7123ZM128.974 14.5444H132.001V12.0657H128.974V14.5444ZM123.1 22.1647C123.1 23.9734 122.454 25.5177 120.981 25.5177C119.628 25.5177 118.761 24.1359 118.761 21.9615C118.761 19.9902 119.467 18.6289 120.941 18.6289C122.474 18.6289 123.1 20.1532 123.1 21.6975V22.1647ZM123.282 27.7123H126.148V11.9233H123.1V17.8974C122.81 17.3457 122.368 16.8896 121.828 16.5833C121.287 16.2771 120.671 16.1336 120.052 16.17C117.771 16.17 115.612 17.8974 115.612 22.0021C115.612 25.741 117.386 27.9561 120.072 27.9561C120.75 27.9896 121.421 27.8097 121.993 27.4416C122.564 27.0734 123.008 26.5353 123.261 25.9018V27.7105L123.282 27.7123ZM110.304 27.7123H113.331V16.4955H110.304V27.7123ZM110.304 14.5444H113.331V12.0657H110.304V14.5444ZM97.4475 27.7123H100.475V22.0427C100.475 19.8888 101.383 18.8321 102.675 18.8321C103.927 18.8321 104.512 19.7253 104.512 21.2911V27.7328H107.539V20.7628C107.539 17.8367 106.409 16.1499 103.967 16.1499C103.248 16.1175 102.535 16.2961 101.915 16.6641C101.295 17.0321 100.795 17.5735 100.475 18.2225V11.9233H97.4475V27.7123ZM91.5115 23.1807C91.5115 24.8469 90.462 25.9049 89.2107 25.9049C89.0091 25.9156 88.8075 25.8835 88.619 25.8106C88.4305 25.7378 88.2594 25.6259 88.1166 25.4822C87.9738 25.3385 87.8627 25.1661 87.7904 24.9764C87.718 24.7866 87.6861 24.5837 87.6967 24.3807C87.6967 23.5067 88.2618 23.0409 89.5939 22.7957L91.5315 22.4299V23.182L91.5115 23.1807ZM94.983 27.7123C94.5993 26.7977 94.5589 26.2086 94.5589 24.5218V20.3157C94.5589 17.491 93.2872 16.1499 90.179 16.1499C87.7366 16.1499 86.0213 17.0033 85.1129 17.8974L86.5456 19.9071C86.9547 19.4498 87.4565 19.0861 88.0171 18.8407C88.5777 18.5953 89.1841 18.4739 89.7953 18.4847C90.7841 18.4847 91.5111 18.7692 91.5111 20.0902V20.5172L89.0488 20.9035C86.5257 21.2898 84.8103 22.204 84.8103 24.5004C84.8103 26.573 86.1411 28.0767 88.4233 28.0767C90.1391 28.0767 91.229 27.2233 91.693 26.126C91.73 26.6664 91.8386 27.1995 92.0159 27.711H94.983V27.7123ZM72.398 27.7123H75.4255V22.0427C75.4255 19.8888 76.3339 18.8321 77.6256 18.8321C78.877 18.8321 79.4625 19.7253 79.4625 21.2911V27.7328H82.4899V20.7628C82.4899 17.8367 81.3597 16.1499 78.9173 16.1499C78.1984 16.1175 77.4856 16.2961 76.8657 16.6641C76.2457 17.0321 75.7454 17.5735 75.4255 18.2225V11.9233H72.398V27.7123ZM60.7744 26.393C62.0058 27.4903 63.6807 28.0593 65.6791 28.0593C67.8992 28.0593 70.2404 26.8602 70.2404 24.3405C70.2404 20.3577 64.2459 21.2112 64.2459 19.3212C64.2459 18.6303 64.8514 18.3659 65.5376 18.3659C66.679 18.3932 67.7792 18.8006 68.6662 19.5244L70.0586 17.5147C68.7824 16.5666 67.2228 16.0862 65.6383 16.153C63.3574 16.153 61.1776 17.2302 61.1776 19.6686C61.1776 23.8345 67.1921 22.6559 67.1921 24.7487C67.1921 25.5208 66.3445 25.846 65.5571 25.846C64.9274 25.832 64.3068 25.6919 63.7315 25.4337C63.1563 25.1755 62.6379 24.8045 62.2067 24.3423L60.7744 26.393ZM46 22.2053C46 24.6437 46.8073 28.0557 52.2164 28.0557C57.6254 28.0557 58.4327 24.6616 58.4327 22.2053V11.9233H55.1822V22.0226C55.1822 24.2579 54.0923 25.2131 52.215 25.2131C50.3378 25.2131 49.2479 24.2579 49.2479 21.9414V11.9233H46V22.2053Z" fill="white"/>
</svg>
