<svg width="353" height="367" viewBox="0 0 353 367" fill="none" xmlns="http://www.w3.org/2000/svg">
<path d="M33.4997 296.308L69.2586 296.132L104.982 296.096L176.5 295.955L248.018 296.096L283.741 296.132L319.5 296.308L283.741 296.485L248.018 296.555L176.5 296.661L104.982 296.555L69.2586 296.485L33.4997 296.308Z" fill="#263238"/>
<path fill-rule="evenodd" clip-rule="evenodd" d="M244.026 54.5295V284.779C244.026 291.139 238.959 296.308 232.701 296.308H120.841C114.617 296.308 109.55 291.139 109.55 284.779V54.5295C109.55 48.1356 114.617 43 120.841 43H232.701C238.959 43 244.026 48.1356 244.026 54.5295ZM236.952 63.2361C236.952 51.9447 232.429 50.3122 226.817 50.3122H206.785C205.595 50.3122 204.642 51.6046 204.642 53.2711V53.9853C204.642 57.8285 202.568 57.8285 199.949 57.8285H153.593C151.008 57.8285 148.9 57.8285 148.9 53.9853V53.2711C148.9 51.6046 147.947 50.3122 146.791 50.3122H126.759C121.147 50.3122 116.59 50.8904 116.59 63.2361V277.671C116.59 283.725 121.147 288.622 126.759 288.622H226.817C232.429 288.622 236.952 283.725 236.952 277.671V63.2361Z" fill="#383E45"/>
<path d="M183.114 53.0332H170.462C170.02 53.0332 169.68 52.6931 169.68 52.251C169.68 51.8089 170.02 51.4688 170.462 51.4688H183.114C183.556 51.4688 183.896 51.8089 183.896 52.251C183.896 52.6931 183.556 53.0332 183.114 53.0332Z" fill="white"/>
<path d="M236.952 63.2364V277.671C236.952 283.725 232.429 288.622 226.817 288.622H126.759C121.147 288.622 116.59 283.725 116.59 277.671V63.2364C116.59 50.8907 121.147 50.3125 126.759 50.3125H146.791C147.947 50.3125 148.9 51.6049 148.9 53.2714V53.9856C148.9 57.8288 151.008 57.8288 153.593 57.8288H199.949C202.568 57.8288 204.642 57.8288 204.642 53.9856V53.2714C204.642 51.6049 205.595 50.3125 206.785 50.3125H226.817C232.429 50.3125 236.952 51.945 236.952 63.2364Z" fill="white"/>
<path d="M127.303 70.3101L125.161 68.3035L127.303 66.2969L127.643 66.671L125.875 68.3035L127.643 69.97L127.303 70.3101Z" fill="#DBDBDB"/>
<path d="M222.736 67.623C223.11 67.623 223.45 67.9291 223.45 68.3033C223.45 68.7114 223.11 69.0175 222.736 69.0175C222.362 69.0175 222.056 68.7114 222.056 68.3033C222.056 67.9291 222.362 67.623 222.736 67.623Z" fill="#DBDBDB"/>
<path d="M225.219 67.623C225.627 67.623 225.933 67.9291 225.933 68.3033C225.933 68.7114 225.627 69.0175 225.219 69.0175C224.844 69.0175 224.538 68.7114 224.538 68.3033C224.538 67.9291 224.844 67.623 225.219 67.623Z" fill="#DBDBDB"/>
<path d="M227.701 67.623C228.109 67.623 228.416 67.9291 228.416 68.3033C228.416 68.7114 228.109 69.0175 227.701 69.0175C227.327 69.0175 227.021 68.7114 227.021 68.3033C227.021 67.9291 227.327 67.623 227.701 67.623Z" fill="#DBDBDB"/>
<path d="M143.356 55.1079C143.288 55.1759 143.22 55.2439 143.152 55.312C143.107 55.3346 143.073 55.3686 143.05 55.414C142.506 54.9038 141.894 54.6318 141.18 54.6318C140.431 54.6318 139.819 54.9038 139.309 55.414C139.264 55.3913 139.23 55.3573 139.207 55.312C139.139 55.2439 139.071 55.1759 139.003 55.1079C139.094 55.0172 139.184 54.9378 139.275 54.8698C139.434 54.7338 139.615 54.6204 139.819 54.5297C140.069 54.3937 140.318 54.303 140.567 54.2576C140.703 54.235 140.828 54.2236 140.941 54.2236C141.009 54.2236 141.282 54.2236 141.282 54.2236C141.372 54.2236 141.463 54.2236 141.554 54.2236C141.78 54.2463 142.007 54.303 142.234 54.3937C142.393 54.4617 142.54 54.5297 142.676 54.5977C142.835 54.6884 142.993 54.8018 143.152 54.9378C143.22 54.9832 143.288 55.0399 143.356 55.1079Z" fill="#C7C7C7"/>
<path d="M139.921 56.0258C139.808 55.9351 139.706 55.8331 139.615 55.7197C139.955 55.3796 140.363 55.1756 140.84 55.1075C141.588 55.0055 142.2 55.2096 142.744 55.7197C142.631 55.8104 142.529 55.9124 142.438 56.0258C142.064 55.6857 141.656 55.5157 141.18 55.5157C140.669 55.5157 140.261 55.6857 139.921 56.0258Z" fill="#C7C7C7"/>
<path d="M142.132 56.333C142.018 56.4237 141.916 56.5257 141.826 56.6391C141.644 56.4577 141.429 56.367 141.18 56.367C140.93 56.367 140.715 56.4577 140.533 56.6391C140.42 56.5257 140.318 56.4237 140.227 56.333C140.703 55.8228 141.588 55.7888 142.132 56.333Z" fill="#C7C7C7"/>
<path d="M141.452 56.9108C141.452 57.0468 141.316 57.1828 141.18 57.1828C141.009 57.1828 140.907 57.0468 140.907 56.9108C140.907 56.7747 141.009 56.6387 141.18 56.6387C141.316 56.6387 141.452 56.7747 141.452 56.9108Z" fill="#C7C7C7"/>
<path d="M124.446 55.6865C124.446 55.2444 124.821 54.9043 125.263 54.9043C125.705 54.9043 126.045 55.2444 126.045 55.6865C126.045 56.1287 125.705 56.5028 125.263 56.5028C124.821 56.5028 124.446 56.1287 124.446 55.6865Z" fill="#C7C7C7"/>
<path d="M126.963 55.6865C126.963 55.2444 127.337 54.9043 127.78 54.9043C128.188 54.9043 128.562 55.2444 128.562 55.6865C128.562 56.1287 128.188 56.5028 127.78 56.5028C127.337 56.5028 126.963 56.1287 126.963 55.6865Z" fill="#C7C7C7"/>
<path d="M129.48 55.6865C129.48 55.2444 129.82 54.9043 130.262 54.9043C130.704 54.9043 131.078 55.2444 131.078 55.6865C131.078 56.1287 130.704 56.5028 130.262 56.5028C129.82 56.5028 129.48 56.1287 129.48 55.6865Z" fill="#C7C7C7"/>
<path d="M131.997 55.6865C131.997 55.2444 132.337 54.9043 132.779 54.9043C133.221 54.9043 133.595 55.2444 133.595 55.6865C133.595 56.1287 133.221 56.5028 132.779 56.5028C132.337 56.5028 131.997 56.1287 131.997 55.6865Z" fill="#C7C7C7"/>
<path d="M134.513 55.6865C134.513 55.2444 134.854 54.9043 135.296 54.9043C135.738 54.9043 136.112 55.2444 136.112 55.6865C136.112 56.1287 135.738 56.5028 135.296 56.5028C134.854 56.5028 134.513 56.1287 134.513 55.6865Z" fill="#C7C7C7"/>
<path fill-rule="evenodd" clip-rule="evenodd" d="M227.94 57.4547H221.444V54.4277H227.94V57.4547ZM221.784 57.1145H227.6V54.7678H221.784V57.1145Z" fill="#C7C7C7"/>
<path d="M226.171 54.9375H221.988V56.9441H226.171V54.9375Z" fill="#C7C7C7"/>
<path d="M228.518 56.7411H227.94V55.1426H228.518V56.7411Z" fill="#C7C7C7"/>
<path d="M245.264 302.557L270.716 317.842C275.093 321.76 278.976 325.114 281.165 326.667C281.165 326.667 281.176 326.667 281.2 326.667C282.012 327.267 282.577 327.585 282.824 327.55C282.847 327.55 282.871 327.55 282.894 327.55C284.906 327.055 317.135 293.097 317.877 291.544C318.618 289.99 314.205 287.802 311.911 288.119C309.581 288.437 291.437 295.921 291.437 295.921L265.844 280.848L245.264 302.557Z" fill="#EB9481"/>
<path d="M317.877 291.543C317.135 293.097 284.906 327.055 282.894 327.549C282.871 327.549 282.847 327.549 282.824 327.549C282.577 327.585 282.012 327.267 281.2 326.667C281.176 326.667 281.165 326.655 281.165 326.632C278.976 325.114 275.093 321.76 270.716 317.842L266.303 315.194L286.636 293.097L291.437 295.921C291.437 295.921 309.581 288.437 311.911 288.119C314.205 287.802 318.618 289.955 317.877 291.543Z" fill="#DBDBDB"/>
<path opacity="0.1" d="M287.166 320.349C286.718 319.996 286.224 319.701 285.683 319.466C284.659 318.972 283.53 318.725 282.365 318.76C281.2 318.831 280.07 319.184 279.082 319.784C278.093 320.384 277.352 321.266 276.681 322.22C276.646 322.255 276.717 322.325 276.752 322.255C277.952 320.455 280.353 319.431 282.471 319.431C283.53 319.431 284.553 319.678 285.506 320.137C285.977 320.349 286.413 320.619 286.813 320.949C287.001 321.113 287.189 321.278 287.377 321.443C287.554 321.655 287.66 321.831 287.942 321.831C288.083 321.831 288.189 321.725 288.189 321.584C288.26 321.125 287.483 320.596 287.166 320.349Z" fill="black"/>
<path opacity="0.1" d="M310.287 289.037C309.299 289.496 308.628 290.414 308.098 291.332C307.569 292.32 307.181 293.414 306.898 294.509C306.651 295.568 306.51 296.697 306.51 297.827C306.51 298.368 306.545 298.909 306.616 299.451C306.686 299.945 306.757 300.58 306.969 301.039C307.004 301.145 307.145 301.11 307.145 301.004C307.181 300.545 307.075 300.051 307.039 299.557C307.016 299.015 307.028 298.474 307.075 297.933C307.11 296.874 307.251 295.815 307.498 294.791C308.028 292.744 308.91 290.837 310.499 289.39C310.711 289.214 310.499 288.896 310.287 289.037Z" fill="black"/>
<path opacity="0.1" d="M289.848 297.368C285.153 302.452 280.529 307.57 275.799 312.618C274.458 314.03 273.116 315.477 271.739 316.889C271.704 316.96 271.775 316.995 271.845 316.96C276.893 312.23 281.8 307.358 286.318 302.099C287.624 300.616 288.86 299.063 290.06 297.545C290.166 297.404 289.954 297.227 289.848 297.368Z" fill="black"/>
<path opacity="0.1" d="M271.634 315.653C271.598 315.618 271.598 315.582 271.528 315.582C271.481 315.559 271.434 315.535 271.386 315.512C271.292 315.465 271.21 315.429 271.139 315.406C270.951 315.335 270.751 315.265 270.539 315.194C270.163 315.076 269.786 314.97 269.41 314.876C269.339 314.841 269.304 314.947 269.374 314.947C269.751 315.088 270.116 315.241 270.469 315.406C270.657 315.476 270.833 315.547 270.998 315.618C271.092 315.665 271.186 315.7 271.281 315.724C271.386 315.794 271.457 315.829 271.563 315.829C271.634 315.829 271.704 315.724 271.634 315.653Z" fill="black"/>
<path opacity="0.1" d="M273.822 313.253C273.787 313.218 273.752 313.183 273.716 313.147C273.669 313.124 273.622 313.112 273.575 313.112C273.481 313.065 273.387 313.018 273.293 312.971C273.104 312.9 272.916 312.83 272.728 312.759C272.351 312.641 271.963 312.536 271.563 312.441C271.528 312.441 271.492 312.512 271.528 312.547C271.904 312.689 272.281 312.83 272.657 312.971C272.822 313.065 272.998 313.147 273.187 313.218C273.281 313.242 273.375 313.277 273.469 313.324C273.575 313.359 273.646 313.395 273.752 313.395C273.822 313.395 273.857 313.324 273.822 313.253Z" fill="black"/>
<path opacity="0.1" d="M275.975 310.852C275.975 310.782 275.94 310.782 275.905 310.746C275.858 310.723 275.811 310.699 275.764 310.676C275.67 310.652 275.575 310.617 275.481 310.57C275.293 310.499 275.105 310.429 274.916 310.358C274.516 310.24 274.128 310.135 273.752 310.04C273.681 310.005 273.646 310.111 273.716 310.111C274.093 310.252 274.458 310.405 274.811 310.57C274.999 310.641 275.175 310.711 275.34 310.782C275.458 310.829 275.564 310.876 275.658 310.923C275.728 310.958 275.799 310.994 275.905 310.994C275.975 310.994 276.046 310.888 275.975 310.852Z" fill="black"/>
<path opacity="0.1" d="M278.164 308.416C278.129 308.381 278.093 308.346 278.058 308.31C278.011 308.31 277.964 308.299 277.917 308.275C277.823 308.228 277.74 308.193 277.67 308.169C277.458 308.075 277.258 308.005 277.07 307.957C276.693 307.816 276.305 307.699 275.905 307.604C275.87 307.604 275.834 307.675 275.905 307.71C276.258 307.852 276.623 308.005 276.999 308.169C277.187 308.24 277.364 308.31 277.529 308.381C277.623 308.405 277.717 308.44 277.811 308.487C277.917 308.522 277.988 308.593 278.093 308.558C278.164 308.558 278.199 308.487 278.164 308.416Z" fill="black"/>
<path opacity="0.1" d="M280.353 306.016C280.317 305.981 280.282 305.945 280.247 305.91C280.2 305.887 280.153 305.863 280.106 305.84C280.011 305.816 279.917 305.781 279.823 305.734C279.635 305.663 279.447 305.592 279.258 305.522C278.882 305.404 278.494 305.298 278.093 305.204C278.058 305.204 278.023 305.275 278.058 305.31C278.435 305.428 278.811 305.569 279.188 305.734C279.353 305.804 279.529 305.875 279.717 305.945C279.811 305.992 279.906 306.04 280 306.087C280.07 306.122 280.176 306.157 280.282 306.157C280.353 306.157 280.388 306.051 280.353 306.016Z" fill="black"/>
<path opacity="0.1" d="M282.506 303.581C282.471 303.545 282.471 303.51 282.4 303.51C282.353 303.487 282.306 303.463 282.259 303.439C282.188 303.392 282.106 303.357 282.012 303.334C281.824 303.263 281.623 303.192 281.412 303.122C281.035 303.004 280.659 302.898 280.282 302.804C280.211 302.769 280.176 302.875 280.247 302.875C280.623 303.016 280.988 303.169 281.341 303.334C281.529 303.404 281.706 303.475 281.871 303.545C281.965 303.592 282.059 303.628 282.153 303.651C282.259 303.722 282.329 303.757 282.435 303.757C282.506 303.757 282.577 303.651 282.506 303.581Z" fill="black"/>
<path opacity="0.1" d="M284.695 301.18C284.659 301.145 284.624 301.109 284.589 301.074C284.542 301.051 284.495 301.039 284.447 301.039C284.353 300.992 284.259 300.945 284.165 300.898C283.977 300.827 283.789 300.756 283.6 300.686C283.224 300.568 282.835 300.462 282.435 300.368C282.4 300.368 282.365 300.439 282.4 300.474C282.777 300.615 283.153 300.756 283.53 300.898C283.694 300.968 283.871 301.051 284.059 301.145C284.153 301.168 284.247 301.204 284.342 301.251C284.447 301.286 284.518 301.321 284.624 301.321C284.695 301.321 284.73 301.215 284.695 301.18Z" fill="black"/>
<path opacity="0.1" d="M286.883 298.745C286.848 298.709 286.813 298.674 286.777 298.674C286.73 298.651 286.683 298.627 286.636 298.604C286.542 298.58 286.448 298.545 286.354 298.498C286.165 298.427 285.977 298.356 285.789 298.286C285.389 298.168 285.001 298.062 284.624 297.968C284.553 297.933 284.553 298.039 284.589 298.039C284.965 298.18 285.33 298.333 285.683 298.498C285.871 298.568 286.06 298.639 286.248 298.709C286.342 298.757 286.436 298.804 286.53 298.851C286.601 298.886 286.707 298.921 286.813 298.921C286.883 298.921 286.918 298.815 286.883 298.745Z" fill="black"/>
<path opacity="0.1" d="M289.036 296.344C289.001 296.309 289.001 296.274 288.931 296.238C288.884 296.238 288.836 296.226 288.789 296.203C288.695 296.156 288.613 296.121 288.542 296.097C288.354 296.003 288.154 295.932 287.942 295.885C287.566 295.744 287.189 295.626 286.813 295.532C286.742 295.532 286.707 295.603 286.777 295.638C287.154 295.779 287.519 295.921 287.872 296.062C288.06 296.156 288.236 296.238 288.401 296.309C288.495 296.332 288.589 296.368 288.683 296.415C288.789 296.45 288.86 296.485 288.966 296.485C289.036 296.485 289.107 296.415 289.036 296.344Z" fill="black"/>
<path d="M127.645 256.42C128.174 256.632 136.682 267.292 140.141 268.669C141.2 269.092 198.563 252.854 212.471 254.514C232.627 256.914 277.564 285.683 277.564 285.683L259.279 313.5C259.279 313.5 220.06 288.296 206.47 286.425C199.692 285.472 156.556 296.591 135.658 297.085C109.783 297.721 100.181 274.211 100.181 274.211C100.181 274.211 124.503 259.42 127.645 256.42Z" fill="#455A64"/>
<path d="M270.539 283.036C267.751 287.201 268.492 285.966 265.738 290.167C264.362 292.249 255.501 305.769 254.584 307.923C254.548 307.958 254.619 308.028 254.654 307.993C256.243 306.263 264.856 292.532 266.162 290.449C268.845 286.213 268.033 287.378 270.68 283.107C270.716 283.036 270.61 282.93 270.539 283.036Z" fill="#263238"/>
<path d="M252.889 303.333C247.1 300.086 241.276 296.944 235.38 293.873C229.521 290.802 223.59 287.766 217.519 285.154C216.036 284.483 214.483 283.848 212.93 283.283C211.376 282.753 209.823 282.224 208.199 282.189C206.576 282.153 204.917 282.295 203.293 282.471C201.634 282.612 200.01 282.824 198.351 283.036C191.785 283.918 185.254 285.048 178.724 286.107L159.097 289.39C152.531 290.484 146.001 291.543 139.4 292.32C137.741 292.532 136.082 292.708 134.422 292.814C132.799 292.955 131.104 293.061 129.41 292.814C126.092 292.355 122.95 291.084 119.985 289.602C117.02 288.119 114.196 286.354 111.477 284.448C108.759 282.542 106.147 280.494 103.641 278.306C106.182 280.459 108.83 282.436 111.583 284.307C114.301 286.178 117.161 287.872 120.126 289.319C123.091 290.767 126.233 291.967 129.48 292.39C131.104 292.602 132.763 292.496 134.387 292.355C136.046 292.214 137.705 292.037 139.329 291.826C152.461 290.025 165.522 287.625 178.583 285.436C185.149 284.342 191.679 283.283 198.28 282.4C199.904 282.189 201.563 281.977 203.222 281.836C204.881 281.659 206.54 281.518 208.235 281.553C209.082 281.589 209.964 281.73 210.741 281.942C211.553 282.153 212.365 282.436 213.141 282.718C214.718 283.283 216.26 283.907 217.766 284.589C223.837 287.307 229.732 290.378 235.557 293.52C241.417 296.697 247.171 299.98 252.889 303.333Z" fill="#263238"/>
<path d="M318.547 290.837C317.806 292.425 284.906 327.231 282.788 327.761C282.012 327.972 276.646 323.454 270.363 317.841L291.507 295.355C291.507 295.355 310.075 287.66 312.405 287.342C314.77 286.989 319.289 289.213 318.547 290.837Z" fill="#FFC235"/>
<path opacity="0.1" d="M270.363 317.842C276.646 323.455 282.012 327.973 282.788 327.761C283.177 327.656 284.589 326.42 286.636 324.443L303.121 290.661C297.508 292.85 291.507 295.356 291.507 295.356L270.363 317.842Z" fill="black"/>
<path d="M316.676 290.025C311.028 295.708 288.719 319.218 283.565 325.29C283.53 325.325 283.565 325.36 283.6 325.325C289.354 319.783 311.452 296.097 316.782 290.096C316.888 289.99 316.782 289.884 316.676 290.025Z" fill="#263238"/>
<path d="M309.052 288.366C307.675 289.707 307.075 291.684 307.181 293.202C307.287 294.685 307.816 296.379 309.052 297.473C309.087 297.509 309.157 297.438 309.122 297.403C307.145 294.897 307.11 290.943 309.122 288.437C309.157 288.401 309.087 288.331 309.052 288.366Z" fill="#263238"/>
<path d="M294.226 293.626C291.966 295.956 290.237 299.415 290.766 302.698C290.801 302.804 290.978 302.769 291.013 302.663C291.931 299.556 292.99 296.768 294.543 293.873C294.649 293.661 294.367 293.485 294.226 293.626Z" fill="#263238"/>
<path d="M296.626 292.496C294.402 294.791 292.637 298.285 293.202 301.533C293.202 301.674 293.378 301.639 293.414 301.533C294.331 298.391 295.426 295.638 296.944 292.743C297.05 292.531 296.802 292.355 296.626 292.496Z" fill="#263238"/>
<path d="M299.026 291.367C296.802 293.661 295.073 297.156 295.602 300.403C295.602 300.545 295.814 300.509 295.814 300.403C296.732 297.262 297.826 294.508 299.344 291.614C299.485 291.402 299.203 291.19 299.026 291.367Z" fill="#263238"/>
<path d="M301.427 290.237C299.203 292.532 297.473 296.026 298.003 299.274C298.038 299.415 298.214 299.38 298.25 299.274C299.132 296.132 300.227 293.344 301.78 290.449C301.886 290.273 301.603 290.061 301.427 290.237Z" fill="#263238"/>
<path d="M279.435 318.548C276.964 321.195 281.023 325.043 283.53 322.396C286.001 319.783 281.906 315.936 279.435 318.548Z" fill="white"/>
<path fill-rule="evenodd" clip-rule="evenodd" d="M293.625 288.649C294.049 291.437 293.272 294.332 292.849 297.085C292.814 297.368 292.461 297.438 292.249 297.332C292.213 297.368 292.178 297.368 292.108 297.332C290.237 295.285 288.683 292.32 288.154 289.566C287.836 287.872 288.295 285.472 290.378 285.225C292.355 284.977 293.378 287.025 293.625 288.649ZM291.79 286.707C289.036 284.554 288.825 288.684 289.107 289.919C289.284 290.696 289.566 291.508 289.884 292.249C290.484 293.838 291.331 295.32 292.108 296.838C292.213 295.497 292.461 294.155 292.637 292.779C292.849 291.155 293.308 287.907 291.79 286.707Z" fill="#263238"/>
<path fill-rule="evenodd" clip-rule="evenodd" d="M282.788 304.216C281.447 302.592 282.753 300.544 284.165 299.521C286.424 297.897 289.601 296.803 292.355 296.591C292.425 296.591 292.461 296.661 292.461 296.697C292.708 296.767 292.884 297.05 292.708 297.297C291.154 299.556 289.742 302.204 287.519 303.969C286.212 304.957 284.059 305.769 282.788 304.216ZM289.601 300.262C290.413 299.168 291.154 298.003 292.002 296.944C290.413 297.509 288.789 298.003 287.236 298.744C286.53 299.097 285.754 299.485 285.083 299.944C284.024 300.65 281.341 303.792 284.836 304.11C286.777 304.286 288.648 301.568 289.601 300.262Z" fill="#263238"/>
<path d="M238.487 321.195C238.487 321.195 267.751 326.102 267.786 326.102C273.293 328.149 278.129 329.844 280.706 330.479C280.729 330.479 280.741 330.479 280.741 330.479C281.729 330.726 282.365 330.797 282.612 330.691C282.635 330.691 282.647 330.691 282.647 330.691C284.377 329.455 301.921 286.072 302.027 284.342C302.133 282.612 297.226 282.189 295.214 283.354C293.167 284.483 279.011 298.109 279.011 298.109L249.677 293.449L238.487 321.195Z" fill="#EB9481"/>
<path d="M302.027 284.342C301.921 286.072 284.377 329.456 282.647 330.691C282.647 330.691 282.635 330.691 282.612 330.691C282.365 330.797 281.729 330.726 280.741 330.479C280.741 330.479 280.729 330.479 280.706 330.479C278.129 329.844 273.293 328.149 267.786 326.102L262.703 325.255L273.54 297.227L279.011 298.109C279.011 298.109 293.167 284.483 295.214 283.354C297.226 282.224 302.133 282.612 302.027 284.342Z" fill="#DBDBDB"/>
<path opacity="0.1" d="M285.048 322.008C284.506 321.843 283.953 321.737 283.388 321.69C282.224 321.619 281.059 321.796 280.035 322.219C278.941 322.714 278.023 323.42 277.317 324.337C276.611 325.255 276.187 326.35 275.905 327.479C275.905 327.514 276.011 327.55 276.011 327.479C276.505 325.361 278.376 323.561 280.353 322.82C281.341 322.431 282.4 322.29 283.424 322.396C283.941 322.443 284.447 322.549 284.942 322.714C285.177 322.784 285.412 322.867 285.648 322.961C285.895 323.067 286.071 323.208 286.318 323.137C286.46 323.067 286.495 322.925 286.46 322.82C286.354 322.361 285.471 322.149 285.048 322.008Z" fill="black"/>
<path opacity="0.1" d="M294.014 284.872C293.272 285.684 292.955 286.778 292.814 287.837C292.672 288.931 292.708 290.096 292.814 291.226C292.955 292.32 293.237 293.414 293.625 294.438C293.814 294.956 294.037 295.45 294.296 295.921C294.543 296.38 294.826 296.944 295.179 297.297C295.249 297.368 295.39 297.297 295.355 297.227C295.214 296.768 294.932 296.309 294.755 295.885C294.543 295.391 294.355 294.885 294.19 294.367C293.873 293.344 293.625 292.32 293.484 291.261C293.237 289.143 293.378 287.06 294.367 285.154C294.508 284.942 294.19 284.695 294.014 284.872Z" fill="black"/>
<path opacity="0.1" d="M277.882 299.909C275.305 306.334 272.763 312.758 270.116 319.148C269.374 320.983 268.633 322.783 267.856 324.584C267.856 324.654 267.927 324.69 267.962 324.619C271.033 318.406 273.893 312.123 276.258 305.592C276.929 303.757 277.529 301.886 278.129 300.015C278.199 299.838 277.952 299.733 277.882 299.909Z" fill="black"/>
<path opacity="0.1" d="M267.327 323.49C267.292 323.454 267.256 323.419 267.186 323.419C267.139 323.419 267.092 323.419 267.045 323.419C266.95 323.419 266.856 323.419 266.762 323.419C266.55 323.419 266.339 323.419 266.127 323.419C265.727 323.442 265.327 323.478 264.927 323.525C264.891 323.525 264.891 323.631 264.962 323.631C265.338 323.631 265.727 323.631 266.127 323.631C266.315 323.654 266.515 323.666 266.727 323.666C266.821 323.666 266.915 323.666 267.009 323.666C267.115 323.666 267.221 323.701 267.327 323.666C267.362 323.631 267.398 323.525 267.327 323.49Z" fill="black"/>
<path opacity="0.1" d="M268.492 320.454C268.457 320.419 268.421 320.419 268.386 320.419C268.339 320.396 268.28 320.384 268.209 320.384C268.115 320.384 268.021 320.384 267.927 320.384C267.715 320.384 267.515 320.384 267.327 320.384C266.927 320.407 266.527 320.443 266.127 320.49C266.056 320.49 266.056 320.596 266.127 320.596C266.527 320.596 266.927 320.607 267.327 320.631C267.515 320.631 267.703 320.631 267.892 320.631C267.986 320.631 268.092 320.631 268.209 320.631C268.315 320.666 268.386 320.666 268.492 320.631C268.562 320.596 268.562 320.49 268.492 320.454Z" fill="black"/>
<path opacity="0.1" d="M269.692 317.418C269.657 317.418 269.621 317.383 269.551 317.383C269.504 317.383 269.457 317.383 269.41 317.383C269.316 317.359 269.221 317.348 269.127 317.348C268.915 317.348 268.704 317.348 268.492 317.348C268.092 317.371 267.692 317.406 267.292 317.454C267.256 317.489 267.256 317.559 267.292 317.559C267.692 317.559 268.092 317.571 268.492 317.595C268.68 317.595 268.88 317.595 269.092 317.595C269.186 317.595 269.28 317.607 269.374 317.63C269.48 317.63 269.586 317.63 269.657 317.595C269.727 317.559 269.763 317.454 269.692 317.418Z" fill="black"/>
<path opacity="0.1" d="M270.857 314.383C270.822 314.383 270.786 314.348 270.751 314.348C270.68 314.348 270.622 314.348 270.575 314.348C270.48 314.348 270.386 314.348 270.292 314.348C270.08 314.324 269.88 314.324 269.692 314.348C269.292 314.371 268.892 314.407 268.492 314.454C268.421 314.454 268.421 314.524 268.492 314.524C268.892 314.524 269.292 314.536 269.692 314.56C269.88 314.56 270.069 314.571 270.257 314.595C270.351 314.595 270.457 314.595 270.575 314.595C270.68 314.595 270.751 314.595 270.857 314.56C270.928 314.524 270.928 314.418 270.857 314.383Z" fill="black"/>
<path opacity="0.1" d="M272.057 311.382C271.987 311.347 271.951 311.312 271.916 311.312C271.869 311.312 271.822 311.312 271.775 311.312C271.681 311.312 271.575 311.312 271.457 311.312C271.269 311.312 271.069 311.312 270.857 311.312C270.457 311.335 270.057 311.37 269.657 311.417C269.621 311.417 269.621 311.523 269.657 311.523C270.057 311.5 270.457 311.5 270.857 311.523C271.045 311.547 271.233 311.559 271.422 311.559C271.539 311.559 271.645 311.559 271.739 311.559C271.845 311.559 271.951 311.559 272.022 311.523C272.092 311.523 272.128 311.417 272.057 311.382Z" fill="black"/>
<path opacity="0.1" d="M273.222 308.346C273.187 308.311 273.151 308.311 273.081 308.275C273.034 308.275 272.987 308.275 272.94 308.275C272.846 308.275 272.751 308.275 272.657 308.275C272.445 308.275 272.234 308.275 272.022 308.275C271.622 308.299 271.233 308.334 270.857 308.381C270.786 308.381 270.786 308.487 270.857 308.487C271.257 308.487 271.645 308.487 272.022 308.487C272.234 308.511 272.434 308.522 272.622 308.522C272.716 308.522 272.822 308.522 272.94 308.522C273.01 308.522 273.116 308.558 273.222 308.522C273.293 308.487 273.293 308.381 273.222 308.346Z" fill="black"/>
<path opacity="0.1" d="M274.422 305.311C274.352 305.276 274.316 305.276 274.281 305.276C274.234 305.252 274.187 305.24 274.14 305.24C274.022 305.24 273.916 305.24 273.822 305.24C273.634 305.24 273.434 305.24 273.222 305.24C272.822 305.264 272.422 305.299 272.022 305.346C271.951 305.346 271.951 305.452 272.022 305.452C272.422 305.452 272.822 305.464 273.222 305.487C273.41 305.487 273.599 305.487 273.787 305.487C273.904 305.487 274.01 305.499 274.105 305.523C274.21 305.523 274.281 305.523 274.387 305.487C274.458 305.452 274.458 305.346 274.422 305.311Z" fill="black"/>
<path opacity="0.1" d="M275.587 302.275C275.552 302.275 275.517 302.239 275.446 302.239C275.399 302.239 275.352 302.239 275.305 302.239C275.211 302.216 275.116 302.204 275.022 302.204C274.811 302.204 274.599 302.216 274.387 302.239C273.987 302.239 273.587 302.263 273.187 302.31C273.151 302.345 273.151 302.416 273.222 302.416C273.599 302.416 273.987 302.428 274.387 302.451C274.575 302.451 274.775 302.451 274.987 302.451C275.081 302.475 275.175 302.487 275.269 302.487C275.375 302.487 275.481 302.487 275.587 302.451C275.622 302.416 275.658 302.31 275.587 302.275Z" fill="black"/>
<path opacity="0.1" d="M276.752 299.239C276.717 299.239 276.681 299.203 276.646 299.203C276.599 299.203 276.54 299.203 276.47 299.203C276.376 299.203 276.281 299.203 276.187 299.203C275.975 299.18 275.775 299.18 275.587 299.203C275.187 299.227 274.787 299.262 274.387 299.309C274.316 299.309 274.316 299.38 274.387 299.38C274.787 299.38 275.187 299.391 275.587 299.415C275.775 299.415 275.964 299.427 276.152 299.45C276.246 299.45 276.352 299.45 276.47 299.45C276.576 299.45 276.646 299.45 276.752 299.415C276.823 299.38 276.823 299.274 276.752 299.239Z" fill="black"/>
<path d="M302.415 283.954C302.309 285.719 284.377 330.126 282.647 331.397C281.976 331.891 275.34 329.667 267.433 326.737L278.905 298.074C278.905 298.074 293.378 284.13 295.426 282.93C297.508 281.765 302.521 282.189 302.415 283.954Z" fill="#FFC235"/>
<path d="M300.368 283.883C297.191 291.261 285.048 321.301 282.435 328.82C282.435 328.89 282.471 328.89 282.506 328.82C285.824 321.583 297.72 291.472 300.509 283.918C300.544 283.777 300.438 283.742 300.368 283.883Z" fill="#263238"/>
<path d="M292.672 285.154C291.896 286.883 292.037 288.966 292.708 290.343C293.343 291.684 294.437 293.026 296.026 293.59C296.061 293.626 296.096 293.555 296.061 293.52C293.308 291.931 291.825 288.225 292.778 285.189C292.814 285.118 292.708 285.083 292.672 285.154Z" fill="#263238"/>
<path d="M280.812 295.461C279.576 298.427 279.223 302.31 280.917 305.134C280.988 305.239 281.129 305.169 281.129 305.063C280.812 301.815 280.812 298.815 281.2 295.567C281.2 295.32 280.882 295.25 280.812 295.461Z" fill="#263238"/>
<path d="M282.612 293.52C281.376 296.485 281.059 300.368 282.718 303.192C282.788 303.333 282.965 303.227 282.93 303.122C282.647 299.874 282.647 296.873 283 293.626C283.035 293.379 282.718 293.308 282.612 293.52Z" fill="#263238"/>
<path d="M284.447 291.578C283.212 294.544 282.859 298.427 284.553 301.251C284.624 301.392 284.765 301.286 284.765 301.18C284.483 297.932 284.447 294.932 284.836 291.684C284.871 291.472 284.553 291.367 284.447 291.578Z" fill="#263238"/>
<path d="M286.283 289.637C285.048 292.602 284.695 296.485 286.389 299.344C286.46 299.45 286.601 299.344 286.601 299.239C286.283 295.991 286.283 292.99 286.671 289.743C286.707 289.531 286.354 289.425 286.283 289.637Z" fill="#263238"/>
<path d="M276.152 324.054C274.811 327.408 280 329.49 281.341 326.137C282.682 322.783 277.493 320.701 276.152 324.054Z" fill="white"/>
<path fill-rule="evenodd" clip-rule="evenodd" d="M278.411 291.049C279.858 293.484 280.176 296.45 280.776 299.168C280.847 299.45 280.564 299.627 280.317 299.627C280.317 299.662 280.247 299.697 280.211 299.662C277.705 298.462 275.164 296.238 273.681 293.873C272.763 292.425 272.304 290.025 274.14 289.037C275.905 288.084 277.599 289.601 278.411 291.049ZM276.011 289.919C272.657 288.895 273.963 292.814 274.669 293.873C275.128 294.543 275.693 295.179 276.258 295.779C277.423 297.014 278.729 298.109 280 299.238C279.611 297.897 279.329 296.591 279.011 295.249C278.623 293.661 277.846 290.449 276.011 289.919Z" fill="#263238"/>
<path fill-rule="evenodd" clip-rule="evenodd" d="M274.034 309.476C272.163 308.487 272.657 306.087 273.575 304.64C275.093 302.275 277.635 300.086 280.176 298.886C280.211 298.886 280.282 298.921 280.282 298.956C280.529 298.956 280.812 299.133 280.741 299.415C280.106 302.098 279.753 305.099 278.305 307.534C277.458 308.946 275.764 310.464 274.034 309.476ZM278.941 303.298C279.294 301.992 279.541 300.651 279.964 299.345C278.658 300.474 277.352 301.533 276.187 302.769C275.622 303.369 275.058 304.004 274.599 304.675C273.857 305.699 272.516 309.617 275.905 308.629C277.74 308.099 278.517 304.887 278.941 303.298Z" fill="#263238"/>
<path d="M124.644 258.855C125.139 259.066 137.388 274.598 137.705 275.516C138.058 276.575 135.623 276.399 135.905 278.058C135.905 278.058 200.822 282.011 208.164 283.317C220.343 285.471 220.413 287.13 267.998 295.214L256.455 325.077C256.455 325.077 211.306 316.146 192.314 313.358C176.041 310.993 126.268 308.239 126.268 308.239C96.1219 305.662 94.1451 276.681 94.1451 276.681C94.1451 276.681 124.609 258.819 124.644 258.855Z" fill="#455A64"/>
<path d="M260.761 294.614C258.89 299.273 259.349 297.932 257.584 302.627C256.702 304.921 250.983 320.065 250.524 322.359C250.524 322.43 250.595 322.43 250.63 322.395C251.795 320.383 257.266 305.133 258.078 302.803C259.773 298.073 259.243 299.414 260.867 294.649C260.902 294.578 260.761 294.508 260.761 294.614Z" fill="#263238"/>
<path d="M138.27 273.857C136.293 276.364 134.705 279.223 133.222 282.047C133.152 282.153 133.328 282.259 133.399 282.153C135.128 279.47 136.964 276.823 138.588 274.034C138.694 273.822 138.411 273.646 138.27 273.857Z" fill="#263238"/>
<path d="M124.786 258.749C124.715 258.679 124.574 258.749 124.644 258.855C126.833 261.573 128.563 264.115 130.363 266.833C131.21 268.104 135.446 275.411 133.01 276.576C132.622 276.787 132.163 276.576 131.704 276.117C131.14 275.517 130.751 274.564 130.363 273.858C129.516 272.304 128.598 270.786 127.61 269.304C125.774 266.55 123.727 263.974 121.361 261.644C121.291 261.573 121.185 261.644 121.22 261.75C124.08 265.315 126.833 268.986 129.127 272.94C130.222 274.846 131.422 278.094 133.399 276.964C135.446 275.764 133.187 270.539 132.481 269.198C130.469 265.421 127.68 261.856 124.786 258.749Z" fill="#263238"/>
<path d="M133.222 276.717C133.399 277.317 133.611 277.881 133.822 278.446C134.034 278.87 134.211 279.364 134.528 279.717C134.599 279.788 134.705 279.717 134.705 279.611C134.705 279.117 134.458 278.623 134.317 278.164C134.14 277.634 133.964 277.07 133.787 276.54C133.646 276.187 133.116 276.364 133.222 276.717Z" fill="#263238"/>
<path d="M206.258 282.965C201.21 282.117 135.305 277.987 134.422 277.987C134.317 277.987 134.352 278.199 134.422 278.199C137.423 278.623 201.634 282.894 206.117 283.777C209.294 284.412 264.75 294.684 267.962 295.249C268.068 295.284 268.068 295.143 267.998 295.108C262.385 293.519 206.929 283.07 206.258 282.965Z" fill="#263238"/>
<path d="M230.615 314.805C220.519 312.793 210.317 311.134 200.151 309.687C189.89 308.251 179.606 307.086 169.299 306.192C158.991 305.309 148.648 304.745 138.341 304.427C133.434 304.286 126.233 303.827 121.361 302.485C108.759 299.097 102.052 290.942 95.3453 280.882C95.2747 280.811 95.1688 280.882 95.2394 280.952C103.464 293.943 109.359 303.403 133.152 304.886C138.27 305.203 143.353 305.274 148.472 305.521C153.696 305.804 158.932 306.157 164.18 306.58C174.523 307.427 184.866 308.486 195.174 309.828C205.481 311.169 215.742 312.781 225.955 314.664C236.228 316.57 248.512 319.323 249.818 319.641C249.889 319.676 249.924 319.571 249.853 319.535C245.053 318.3 240.675 316.817 230.615 314.805Z" fill="#263238"/>
<path d="M115.537 233.333C124.15 244.841 140.494 258.079 145.154 258.714C147.942 259.067 153.979 258.467 157.262 254.866C164.427 247.03 170.323 237.146 172.229 231.745C173.111 229.133 157.544 220.873 155.85 223.308C151.896 228.956 146.036 240.182 145.224 240.217C142.224 240.323 129.516 232.133 120.373 226.591C111.901 221.437 111.972 228.603 115.537 233.333Z" fill="#EB9481"/>
<path d="M157.156 195.104L149.954 216.566C149.672 217.202 149.954 217.731 150.59 217.802L161.886 218.684C162.521 218.72 163.263 218.261 163.545 217.625L170.746 196.163C171.029 195.527 170.746 194.963 170.146 194.927L158.815 194.045C158.215 194.01 157.438 194.468 157.156 195.104Z" fill="#263238"/>
<path d="M158.497 195.174L151.296 216.672C151.013 217.307 151.296 217.837 151.931 217.872L163.227 218.754C163.863 218.825 164.604 218.331 164.886 217.731L172.088 196.233C172.37 195.633 172.088 195.068 171.487 195.033L160.156 194.15C159.556 194.115 158.779 194.574 158.497 195.174Z" fill="#455A64"/>
<path d="M161.533 196.445C161.498 196.975 161.003 197.363 160.474 197.292C159.944 197.257 159.556 196.763 159.627 196.233C159.662 195.704 160.156 195.316 160.686 195.386C161.215 195.422 161.603 195.916 161.533 196.445Z" fill="#263238"/>
<path d="M174.17 216.355C173.252 210.636 172.123 209.33 173.888 204.07C175.053 200.646 173.358 198.422 170.605 200.999C166.157 205.271 165.804 212.931 166.44 215.613L174.17 216.355Z" fill="#EB9481"/>
<path d="M171.735 232.946C171.735 232.946 174.912 225.356 174.523 219.143C174.241 214.872 172.617 205.623 161.18 199.834C158.497 198.458 153.661 198.422 157.262 202.27C159.838 204.988 162.274 205.941 163.474 207.812C163.474 207.812 157.332 208.518 156.061 211.271C155.497 212.507 154.014 215.931 153.237 218.755C153.237 218.755 153.802 219.073 154.579 219.39C154.579 219.39 153.484 222.038 155.144 226.027L171.735 232.946Z" fill="#EB9481"/>
<path d="M173.605 215.119C172.017 213.495 168.628 210.177 164.886 208.412C160.721 206.471 152.178 203.859 150.766 206.93C149.743 209.189 152.92 210.495 152.92 210.495C152.92 210.495 149.178 210.142 148.684 212.401C148.225 214.449 150.766 215.296 150.766 215.296C150.766 215.296 148.437 215.472 148.401 217.52C148.331 219.991 153.202 219.214 155.285 221.756C155.779 222.32 173.605 215.119 173.605 215.119Z" fill="#EB9481"/>
<path d="M163.545 213.178C161.815 211.907 157.12 210.071 152.99 210.424C152.92 210.424 152.849 210.495 152.955 210.53C157.579 211.095 161.78 212.507 163.545 213.213C163.545 213.213 163.58 213.178 163.545 213.178Z" fill="#263238"/>
<path d="M161.462 217.308C159.838 216.354 154.932 214.695 150.766 215.19C150.66 215.225 150.625 215.296 150.731 215.296C155.602 215.684 159.662 216.743 161.462 217.343C161.462 217.343 161.498 217.308 161.462 217.308Z" fill="#263238"/>
<path d="M151.331 227.086L175.688 237.923C175.688 237.923 162.804 256.703 158.003 258.432C153.167 260.197 144.73 260.727 141.765 260.162C138.764 259.562 123.762 245.901 115.572 234.358C107.383 222.85 114.584 222.321 120.444 226.274C126.303 230.228 144.518 239.37 145.189 239.017C145.86 238.664 151.331 227.086 151.331 227.086Z" fill="#FFC235"/>
<path d="M170.676 242.512C161.78 237.182 151.649 232.946 149.954 232.098C149.849 232.063 149.813 232.204 149.884 232.24C151.614 232.981 162.698 239.088 170.605 242.653C170.711 242.688 170.746 242.547 170.676 242.512Z" fill="#263238"/>
<path opacity="0.1" d="M145.683 260.373C144.024 260.409 142.647 260.338 141.765 260.162C138.764 259.562 123.762 245.901 115.572 234.357C110.242 226.909 111.407 224.05 114.478 224.05L145.683 260.373Z" fill="black"/>
<path d="M140.141 268.668L98.2399 290.236C98.2399 290.236 92.7331 286.777 92.7684 282.965C92.839 270.292 95.31 240.534 102.864 225.637C106.465 218.542 113.031 222.178 115.255 224.331C121.538 230.438 134.352 252.289 139.4 262.844C141.094 266.374 140.141 268.668 140.141 268.668Z" fill="#FFC235"/>
<path opacity="0.1" fill-rule="evenodd" clip-rule="evenodd" d="M111.16 269.727V269.656L111.266 269.621C112.395 269.339 113.384 268.562 114.125 267.609C114.831 266.691 115.219 265.491 115.396 264.326L115.466 263.867C115.466 263.726 115.466 263.585 115.466 263.443L115.502 262.526C115.466 261.926 115.431 261.325 115.36 260.725C115.255 260.125 115.184 259.525 115.043 258.96L114.584 257.195L114.513 256.984L114.69 256.913L125.244 252.006L125.492 251.9L125.633 252.147C126.056 252.959 126.551 253.771 127.115 254.548C127.645 255.289 128.245 256.03 128.916 256.666C129.586 257.301 130.292 257.901 131.104 258.325C131.916 258.749 132.799 258.996 133.681 258.96H133.858L133.928 259.102L138.447 265.35L138.623 265.632L138.341 265.773C133.787 267.821 129.233 269.868 124.715 271.88L111.23 277.916L111.16 269.727ZM124.75 271.492C129.127 269.444 133.469 267.397 137.811 265.385L133.575 259.525C132.622 259.49 131.704 259.243 130.857 258.819C129.975 258.36 129.233 257.725 128.527 257.054C127.821 256.384 127.221 255.607 126.656 254.83C126.162 254.124 125.703 253.383 125.28 252.606L115.113 257.231L115.502 258.819C115.608 259.419 115.678 260.055 115.784 260.655C115.855 261.255 115.89 261.89 115.925 262.49L115.855 263.443C115.855 263.585 115.855 263.738 115.855 263.902L115.749 264.361C115.572 265.562 115.149 266.797 114.372 267.785C113.631 268.738 112.607 269.48 111.407 269.797L111.266 277.881L124.75 271.492ZM137.811 265.385L137.988 265.632L138.094 265.244C138 265.291 137.905 265.338 137.811 265.385ZM133.575 259.49C133.622 259.49 133.669 259.49 133.716 259.49L133.469 259.384L133.575 259.49ZM125.28 252.571L125.527 252.465L125.139 252.359C125.186 252.43 125.233 252.5 125.28 252.571ZM115.113 257.231L115.078 257.019L114.937 257.301L115.113 257.231ZM111.407 269.797V269.692L111.301 269.833C111.348 269.809 111.383 269.797 111.407 269.797Z" fill="black"/>
<path d="M101.593 226.238C85.8143 242.652 62.7987 284.235 59.9394 290.201C58.0332 294.261 79.1779 304.921 80.0957 301.991C81.2253 298.214 99.6872 251.654 104.559 234.109C107.277 224.402 104.841 222.813 101.593 226.238Z" fill="#EB9481"/>
<path d="M81.0841 299.203C80.3428 301.215 77.8365 309.793 76.0715 310.852C74.3065 311.911 65.0932 311.699 60.4336 311.699C55.8093 311.699 54.8915 310.393 54.9621 308.804C55.0327 307.18 64.7755 306.898 64.7755 306.898C64.7755 306.898 51.7498 310.605 48.4669 311.24C45.2193 311.84 37.6651 313.746 36.5708 311.028C36.0766 309.793 38.124 308.557 38.124 308.557C38.124 308.557 34.9823 309.475 34.4528 307.922C33.888 306.121 36.3943 305.133 36.3943 305.133C36.3943 305.133 34.4175 305.521 34.3822 304.074C34.2763 300.791 46.6666 299.203 46.6666 299.203C46.6666 299.203 37.1709 303.827 36.8885 301.144C36.4649 297.473 55.9152 293.413 57.9273 291.825C59.9394 290.201 61.1749 287.801 61.1749 287.801L81.0841 299.203Z" fill="#EB9481"/>
<path d="M55.0328 309.616C54.9622 309.122 55.1387 308.663 55.4564 308.345C55.7741 308.063 56.1977 307.816 56.586 307.639C57.4332 307.251 58.351 306.969 59.2688 306.757C61.1044 306.298 62.9753 305.98 64.8462 305.486C62.9047 305.451 60.9985 305.663 59.0923 306.122C58.1745 306.369 57.2214 306.651 56.3742 307.181C55.9506 307.428 55.527 307.745 55.2093 308.169C54.9269 308.593 54.821 309.157 55.0328 309.616Z" fill="#263238"/>
<path d="M38.124 308.557C39.4654 308.24 40.8068 307.851 42.1129 307.463C43.4543 307.11 44.7604 306.686 46.0665 306.298L49.9848 305.063C51.2792 304.662 52.597 304.262 53.9384 303.862C52.5617 303.968 51.185 304.286 49.8436 304.568C48.5022 304.886 47.1961 305.274 45.8547 305.663C44.5486 306.086 43.2425 306.51 41.9717 307.004C40.6656 307.498 39.3948 307.992 38.124 308.557Z" fill="#263238"/>
<path d="M50.7615 300.614C49.526 300.65 48.2551 300.861 47.0196 301.108C45.7841 301.356 44.5486 301.709 43.3485 302.062C42.1483 302.45 40.948 302.873 39.7831 303.403C38.6065 303.897 37.4769 304.474 36.3943 305.133C37.5945 304.709 38.7594 304.25 39.9596 303.862C41.1598 303.474 42.3247 303.05 43.525 302.697C44.7252 302.309 45.9253 301.956 47.1255 301.603C48.3257 301.25 49.5613 300.932 50.7615 300.614Z" fill="#263238"/>
<path d="M48.8552 297.473C46.8078 297.614 44.7958 298.108 42.8896 298.743C40.9481 299.414 39.0772 300.261 37.3828 301.426C39.289 300.72 41.1599 300.014 43.1014 299.379C45.0076 298.708 46.9137 298.108 48.8552 297.473Z" fill="#263238"/>
<path d="M104.382 238.663C100.64 254.76 82.7432 298.779 82.7432 298.779L66.6464 291.049L58.5627 287.13C58.5627 287.13 86.1673 243.994 97.4633 229.874C98.3341 228.791 99.1342 227.862 99.8637 227.085C106.853 219.601 107.277 226.238 104.382 238.663Z" fill="#FFC235"/>
<path d="M84.0846 293.979C74.6242 288.508 63.8577 284.166 62.0221 283.283C61.9162 283.213 61.8809 283.389 61.9515 283.424C63.7871 284.201 75.5773 290.484 84.014 294.12C84.1199 294.191 84.1552 294.05 84.0846 293.979Z" fill="#263238"/>
<path d="M91.9918 275.199L98.2399 257.549C99.2989 254.619 100.323 251.654 101.311 248.689C102.299 245.724 103.288 242.758 104.1 239.758C103.5 242.829 102.617 245.829 101.699 248.83C100.782 251.795 99.7578 254.76 98.7341 257.725C97.6751 260.655 96.6161 263.585 95.4865 266.515C94.3569 269.445 93.192 272.34 91.9918 275.199Z" fill="#263238"/>
<path d="M104.523 241.664C104.382 242.299 104.1 242.864 103.817 243.429C103.641 243.711 103.5 243.959 103.288 244.241C103.111 244.488 102.9 244.735 102.652 244.947C102.935 244.347 103.217 243.817 103.5 243.253C103.817 242.723 104.135 242.158 104.523 241.664Z" fill="#263238"/>
<path d="M114.231 231.392C111.654 232.275 106.677 228.745 104.559 225.638C104.417 225.426 104.488 223.026 104.488 220.131C104.453 218.331 104.382 216.354 104.206 214.589C104.17 214.201 115.749 216.107 115.749 216.107C115.749 216.107 115.043 219.99 115.396 223.132C115.443 223.391 115.502 223.638 115.572 223.873C115.572 223.897 115.572 223.932 115.572 223.979C115.96 225.356 116.737 230.51 114.231 231.392Z" fill="#EB9481"/>
<path d="M104.912 214.554C105.759 217.519 108.406 224.685 114.443 224.155C114.866 224.132 115.243 224.073 115.572 223.979C115.572 223.944 115.572 223.908 115.572 223.873C115.502 223.638 115.443 223.39 115.396 223.132C115.043 219.99 115.749 216.107 115.749 216.107C115.749 216.107 107.383 214.73 104.912 214.554Z" fill="#263238"/>
<path d="M101.099 209.788C101.099 209.788 101.311 212.541 101.099 213.495C100.887 214.448 98.8047 215.542 98.8047 215.542C98.8047 215.542 101.276 216.319 101.946 216.107C102.652 215.93 103.711 214.13 103.711 214.13C103.711 214.13 102.758 216.989 101.77 217.166C101.17 217.307 103.288 217.236 103.288 217.236C103.288 217.236 104.417 217.166 105.123 216.319C105.829 215.471 101.099 209.788 101.099 209.788Z" fill="#263238"/>
<path d="M102.193 200.363C100.993 204.387 103.111 216.001 105.971 218.578C110.101 222.355 116.878 222.708 120.091 217.731C123.162 212.895 120.126 197.822 116.949 195.457C112.254 191.997 104.029 194.433 102.193 200.363Z" fill="#EB9481"/>
<path d="M113.56 207.459C113.56 207.459 113.525 207.53 113.525 207.565C113.737 208.341 113.807 209.259 113.172 209.648C113.137 209.648 113.172 209.718 113.172 209.683C114.019 209.4 113.878 208.165 113.56 207.459Z" fill="#263238"/>
<path d="M112.713 206.823C111.442 207 111.866 209.506 113.066 209.365C114.231 209.188 113.772 206.647 112.713 206.823Z" fill="#263238"/>
<path d="M117.973 206.717C117.973 206.681 118.043 206.752 118.043 206.787C118.149 207.564 118.396 208.446 119.173 208.588V208.623C118.29 208.658 117.937 207.493 117.973 206.717Z" fill="#263238"/>
<path d="M118.502 205.799C119.773 205.482 120.302 207.988 119.137 208.27C118.008 208.553 117.478 206.046 118.502 205.799Z" fill="#263238"/>
<path d="M111.513 205.376C111.83 205.234 112.113 205.058 112.431 204.881C112.784 204.67 113.101 204.528 113.278 204.175C113.384 203.964 113.278 203.646 113.066 203.54C112.642 203.258 112.148 203.399 111.725 203.611C111.23 203.858 110.948 204.175 110.736 204.67C110.524 205.128 111.089 205.587 111.513 205.376Z" fill="#263238"/>
<path d="M119.455 204.316C119.102 204.352 118.784 204.316 118.431 204.316C118.008 204.316 117.69 204.352 117.337 204.105C117.161 203.963 117.09 203.646 117.196 203.434C117.478 203.01 117.973 202.869 118.431 202.869C118.961 202.869 119.385 202.975 119.808 203.293C120.196 203.61 119.949 204.281 119.455 204.316Z" fill="#263238"/>
<path d="M113.242 214.765C113.384 214.977 113.525 215.259 113.807 215.33C114.09 215.4 114.443 215.33 114.69 215.294C114.725 215.259 114.725 215.294 114.725 215.33C114.478 215.577 114.019 215.718 113.666 215.577C113.313 215.435 113.172 215.118 113.172 214.765C113.172 214.729 113.207 214.729 113.242 214.765Z" fill="#263238"/>
<path d="M113.948 212.471C114.513 213.106 115.219 213.353 115.961 213.353C116.278 213.353 116.596 213.318 116.914 213.247C116.984 213.224 117.043 213.2 117.09 213.177C117.137 213.153 117.196 213.141 117.267 213.141C117.337 213.106 117.373 213 117.373 212.93C117.373 212.883 117.373 212.847 117.373 212.824L117.337 212.753C117.267 212.153 117.055 211.235 117.055 211.235C117.267 211.306 118.502 211.624 118.432 211.306C117.796 208.729 117.125 205.87 115.961 203.434C115.925 203.363 115.784 203.399 115.819 203.469C116.314 205.976 117.231 208.376 117.796 210.882C117.408 210.812 116.772 210.67 116.455 210.741C116.384 210.776 116.914 212.471 116.914 212.753C116.914 212.753 116.914 212.765 116.914 212.788C115.925 213.071 115.113 212.894 114.019 212.4C113.948 212.365 113.913 212.436 113.948 212.471Z" fill="#263238"/>
<path d="M116.278 213.283C116.278 213.283 115.784 213.989 115.078 214.271C114.831 214.342 114.549 214.412 114.266 214.342C113.666 214.2 113.631 213.636 113.737 213.177C113.807 212.788 113.984 212.471 113.984 212.471C113.984 212.471 114.866 213.247 116.278 213.283Z" fill="#263238"/>
<path d="M115.078 214.271C114.831 214.342 114.549 214.412 114.266 214.342C113.666 214.2 113.631 213.636 113.737 213.177C114.372 213.212 115.007 213.636 115.078 214.271Z" fill="#FF9BBC"/>
<path d="M102.864 210.636C104.947 210 105.9 202.976 105.9 202.976L106.359 206.823C106.359 206.823 107.947 205.517 108.689 203.787C109.218 202.517 109.006 200.822 108.795 199.975C108.795 199.975 111.16 202.375 113.807 203.046C114.796 203.258 121.361 202.411 121.361 201.952C121.361 200.61 119.102 196.622 117.267 195.386C115.149 194.009 112.148 192.668 107.842 194.398C103.535 196.092 102.476 198.881 101.841 201.034C101.24 203.187 102.123 210.847 102.864 210.636Z" fill="#263238"/>
<path d="M104.7 209.823C104.7 209.823 101.982 206.152 100.287 207.105C98.6282 208.094 100.711 213.495 102.723 214.201C104.735 214.907 105.406 213.036 105.406 213.036L104.7 209.823Z" fill="#EB9481"/>
<path d="M100.923 208.658C100.923 208.623 100.887 208.694 100.923 208.694C102.335 209.223 103.111 210.529 103.641 211.871C103.217 211.341 102.652 211.059 101.982 211.588C101.946 211.624 101.982 211.659 102.017 211.659C102.582 211.518 103.005 211.624 103.394 212.082C103.676 212.4 103.853 212.788 104.064 213.177C104.135 213.283 104.382 213.212 104.312 213.071C104.312 213.071 104.312 213.059 104.312 213.036C104.312 211.271 102.864 208.8 100.923 208.658Z" fill="#263238"/>
<path d="M113.348 193.586C112.042 193.056 110.454 192.491 108.653 192.279C106.853 192.103 101.205 192.632 99.8637 193.762C98.5223 194.927 98.2752 200.292 98.2399 201.069C98.2046 201.846 98.6635 206.541 100.393 207.67C102.123 208.764 102.123 200.751 104.77 198.069C107.453 195.35 113.348 193.586 113.348 193.586Z" fill="#FFC235"/>
<path opacity="0.1" d="M113.348 193.585C113.348 193.585 107.453 195.35 104.806 198.068C102.123 200.751 102.123 208.764 100.393 207.67C99.6166 207.176 99.2283 206.434 98.9106 205.199C99.2283 202.834 100.111 199.198 102.017 196.656C103.817 194.256 106.924 193.02 110.312 192.562C111.442 192.844 112.43 193.197 113.348 193.585Z" fill="black"/>
<path d="M100.923 212.4C101.029 210.282 103.111 204.528 105.335 201.21C107.559 197.892 114.231 195.845 115.184 195.915C117.443 195.986 118.22 196.657 118.573 196.445C118.926 196.233 116.561 194.574 115.925 194.221C115.29 193.833 113.525 192.95 112.536 192.985C111.548 193.056 105.476 193.762 103.323 196.374C101.134 199.022 98.134 206.364 98.7341 208.2C98.8753 208.659 99.4754 208.941 99.6872 209.576C99.9343 210.388 100.146 211.341 100.393 211.942C100.605 212.4 100.923 212.612 100.923 212.4Z" fill="#FFC235"/>
<path d="M105.829 199.728C105.3 199.41 104.806 199.057 104.347 198.669C103.888 198.28 103.429 197.821 103.041 197.327C103.041 197.292 102.97 197.327 103.005 197.362C103.323 197.927 103.676 198.421 104.17 198.88C104.629 199.269 105.194 199.622 105.794 199.833C105.865 199.869 105.9 199.763 105.829 199.728Z" fill="#263238"/>
<path d="M100.852 210.282C100.817 210.141 100.711 210 100.64 209.859C100.546 209.694 100.476 209.517 100.428 209.329C100.323 208.976 100.323 208.623 100.146 208.305C100.04 208.023 99.8284 207.811 99.6519 207.599C99.4401 207.352 99.2283 207.07 99.2283 206.717C99.193 206.682 99.1224 206.682 99.1224 206.717C99.1577 207.388 99.5813 207.811 99.899 208.376C100.075 208.694 100.075 209.117 100.181 209.47C100.287 209.788 100.499 210.176 100.781 210.353C100.817 210.388 100.887 210.353 100.852 210.282Z" fill="#263238"/>
<path d="M101.558 207.953C101.346 207.706 101.134 207.494 100.958 207.247C100.77 206.988 100.617 206.729 100.499 206.47C100.358 206.188 100.217 205.905 100.075 205.623C99.9343 205.305 99.7225 205.023 99.5813 204.67C99.5813 204.635 99.5107 204.67 99.546 204.705C99.6872 205.058 99.7578 205.411 99.899 205.764C100.04 206.082 100.181 206.364 100.323 206.647C100.464 206.906 100.64 207.153 100.852 207.388C101.029 207.6 101.276 207.847 101.558 207.988C101.558 207.988 101.593 207.988 101.558 207.953Z" fill="#263238"/>
<path d="M102.299 205.87C101.876 205.481 101.452 205.058 101.134 204.564C100.817 204.105 100.499 203.575 100.217 203.081C100.217 203.046 100.146 203.081 100.146 203.116C100.393 203.681 100.57 204.246 100.923 204.74C101.099 204.952 101.276 205.199 101.487 205.411C101.699 205.623 101.982 205.764 102.264 205.905C102.299 205.94 102.335 205.905 102.299 205.87Z" fill="#263238"/>
<path d="M103.111 203.858C102.864 203.717 102.723 203.505 102.546 203.293C102.358 203.058 102.17 202.811 101.982 202.552C101.817 202.317 101.652 202.081 101.487 201.846C101.311 201.634 101.134 201.352 101.099 201.069C101.064 201.034 101.029 201.034 101.029 201.069C101.029 201.387 101.134 201.67 101.276 201.917C101.417 202.199 101.582 202.47 101.77 202.729C101.958 202.987 102.158 203.235 102.37 203.47C102.582 203.682 102.794 203.893 103.076 203.929C103.147 203.964 103.182 203.858 103.111 203.858Z" fill="#263238"/>
<path d="M103.676 201.316C103.488 201.128 103.3 200.928 103.111 200.716C102.923 200.505 102.747 200.293 102.582 200.081C102.405 199.834 102.193 199.622 102.052 199.375C102.017 199.34 101.946 199.375 101.982 199.41C102.088 199.693 102.229 199.94 102.37 200.187C102.535 200.422 102.711 200.646 102.899 200.858C103.088 201.069 103.288 201.281 103.5 201.493C103.711 201.669 103.958 201.846 104.206 201.952C104.241 201.952 104.276 201.917 104.276 201.881C104.1 201.669 103.888 201.493 103.676 201.316Z" fill="#263238"/>
<path d="M107.453 198.493C107.241 198.21 107.03 197.963 106.782 197.751C106.547 197.493 106.288 197.257 106.006 197.045C105.512 196.622 104.947 196.269 104.347 195.951C104.311 195.951 104.276 195.986 104.311 196.022C105.335 196.869 106.394 197.681 107.418 198.528C107.453 198.563 107.488 198.528 107.453 198.493Z" fill="#263238"/>
<path d="M108.724 196.621C108.489 196.386 108.242 196.162 107.983 195.95C107.418 195.562 106.782 195.244 106.147 194.962C106.076 194.962 106.041 194.997 106.112 195.033C106.641 195.386 107.241 195.739 107.771 196.127C108.018 196.339 108.3 196.515 108.547 196.727C108.795 196.974 108.971 197.221 109.218 197.468C109.218 197.468 109.253 197.468 109.253 197.433C109.148 197.151 108.936 196.868 108.724 196.621Z" fill="#263238"/>
<path d="M110.489 195.774C110.277 195.515 110.054 195.292 109.818 195.103C109.324 194.703 108.795 194.397 108.23 194.186C108.194 194.186 108.159 194.256 108.194 194.256C108.712 194.562 109.206 194.915 109.677 195.315C109.912 195.503 110.148 195.703 110.383 195.915C110.595 196.127 110.771 196.374 111.018 196.551C111.054 196.551 111.054 196.551 111.054 196.515C110.913 196.233 110.665 195.986 110.489 195.774Z" fill="#263238"/>
<path d="M111.76 194.68C111.524 194.491 111.289 194.327 111.054 194.185C110.807 194.009 110.56 193.832 110.312 193.762C110.242 193.762 110.242 193.797 110.277 193.832C110.724 194.162 111.16 194.503 111.583 194.856C112.007 195.209 112.289 195.633 112.607 196.021C112.607 196.056 112.642 196.021 112.642 196.021C112.466 195.491 112.183 195.033 111.76 194.68Z" fill="#263238"/>
<path d="M113.348 194.292C112.925 193.903 112.43 193.656 111.901 193.444C111.866 193.444 111.83 193.48 111.866 193.515C112.36 193.727 112.784 194.08 113.207 194.468C113.595 194.821 113.913 195.28 114.231 195.704C114.266 195.739 114.301 195.704 114.266 195.704C114.09 195.174 113.737 194.68 113.348 194.292Z" fill="#263238"/>
<path d="M115.466 195.245C115.419 195.127 115.36 195.009 115.29 194.892C115.149 194.715 114.972 194.503 114.796 194.327C114.407 193.974 113.984 193.692 113.56 193.409C113.525 193.409 113.49 193.444 113.525 193.48C113.948 193.762 114.337 194.08 114.69 194.433C114.854 194.598 115.007 194.786 115.149 194.998C115.219 195.092 115.278 195.186 115.325 195.28C115.396 195.386 115.431 195.492 115.537 195.598C115.537 195.598 115.572 195.598 115.572 195.562C115.572 195.457 115.502 195.315 115.466 195.245Z" fill="#263238"/>
<path d="M116.737 195.316C116.619 195.151 116.49 194.998 116.349 194.857C116.208 194.692 116.055 194.551 115.89 194.433C115.749 194.292 115.572 194.186 115.396 194.045C115.36 194.01 115.325 194.045 115.36 194.08C115.537 194.221 115.678 194.363 115.819 194.539C115.96 194.68 116.102 194.821 116.243 194.963C116.361 195.104 116.49 195.257 116.631 195.422C116.772 195.563 116.914 195.739 117.055 195.845C117.09 195.88 117.09 195.845 117.09 195.845C117.019 195.633 116.878 195.492 116.737 195.316Z" fill="#263238"/>
<path d="M117.09 226.627C117.055 228.533 117.231 231.781 115.607 232.698C114.69 233.228 113.666 233.298 112.642 233.192C110.489 232.945 108.477 231.957 106.712 230.651C106.218 230.298 105.723 229.874 105.229 229.486C104.77 229.098 104.311 228.674 103.888 228.25C103.853 228.215 103.817 228.251 103.853 228.286C104.241 228.745 104.629 229.204 105.053 229.627C105.453 230.051 105.876 230.451 106.324 230.827C107.206 231.569 108.194 232.204 109.253 232.698C110.277 233.157 111.371 233.475 112.536 233.616C113.595 233.722 114.796 233.687 115.713 233.087C117.867 231.675 117.302 227.792 117.161 226.627C117.161 226.591 117.09 226.556 117.09 226.627Z" fill="#263238"/>
<path d="M58.8804 180.347C59.9041 190.055 68.5879 197.115 78.3307 196.126C82.249 195.703 85.7437 194.044 88.4265 191.537L97.2868 192.844L92.8743 185.183C93.9333 182.571 94.3922 179.677 94.0745 176.676C93.0508 166.969 84.367 159.909 74.6242 160.897C64.9167 161.921 57.8567 170.64 58.8804 180.347Z" fill="white"/>
<path fill-rule="evenodd" clip-rule="evenodd" d="M64.1754 165.733C66.0816 163.862 68.4467 162.415 70.9883 161.568C73.5652 160.721 76.3186 160.474 79.0014 160.827C81.6842 161.18 84.2964 162.133 86.5556 163.651C88.8148 165.169 90.721 167.181 92.0977 169.546C94.8158 174.205 95.31 180.136 93.2626 185.148L97.5692 192.667L97.8869 193.267L97.2515 193.161L88.5324 191.82C86.0967 193.973 83.0609 195.456 79.8486 196.056C79.0485 196.197 78.2366 196.28 77.4129 196.303C76.601 196.374 75.7891 196.303 74.9419 196.268C73.3181 196.056 71.6943 195.774 70.1764 195.138C68.6585 194.538 67.2112 193.762 65.9051 192.738C65.2344 192.279 64.6696 191.714 64.0695 191.149C63.5047 190.549 62.9046 189.984 62.4457 189.314C60.4336 186.737 59.2334 183.595 58.8804 180.348C58.3156 175.017 60.2571 169.44 64.1754 165.733ZM93.2626 185.148L93.1567 185.007L93.192 185.325C93.2155 185.278 93.2391 185.219 93.2626 185.148ZM88.5324 191.82C88.5559 191.797 88.5795 191.761 88.603 191.714L88.3912 191.785L88.5324 191.82ZM62.5163 189.314C63.0105 189.949 63.5753 190.514 64.1401 191.114C64.7402 191.644 65.3403 192.244 66.011 192.667C67.2818 193.656 68.7644 194.432 70.2823 194.997C71.7649 195.597 73.3887 195.844 75.0125 196.021C75.7891 196.056 76.601 196.127 77.4129 196.021C78.2366 195.997 79.0367 195.903 79.8133 195.738C82.9903 195.103 85.9555 193.585 88.2853 191.361L88.3912 191.291H88.4971L96.722 192.455L92.5919 185.395L92.5213 185.219L92.5566 185.078C93.545 182.642 93.9686 179.995 93.8274 177.382C93.6156 174.77 92.9096 172.158 91.5682 169.863C90.2621 167.604 88.4265 165.627 86.2732 164.11C84.1199 162.592 81.5783 161.603 78.9661 161.215C76.3539 160.827 73.6358 161.003 71.0942 161.815C68.5526 162.627 66.2228 164.004 64.2813 165.839C60.363 169.51 58.3509 175.053 58.9157 180.383C59.304 183.595 60.5042 186.737 62.5163 189.314ZM96.722 192.455L97.0397 193.02L97.3574 192.561L96.722 192.455Z" fill="#263238"/>
<path d="M68.9762 181.83C72.365 186.313 76.4245 188.29 76.4245 188.29C76.4245 188.29 80.4487 186.313 83.8375 181.83C86.4497 178.371 86.3438 172.97 82.5667 171.805C78.4366 170.499 76.4245 176.712 76.4245 176.712C76.4245 176.712 74.3418 170.464 70.247 171.805C66.5052 173.005 66.364 178.371 68.9762 181.83Z" fill="#FFC235"/>
<path d="M173.836 99.1938H174.013H177.98C178.432 99.1929 178.798 98.8266 178.798 98.375C178.798 97.9234 178.432 97.5571 177.98 97.5563H173.775H173.638L173.625 97.4205C173.536 96.4828 173.475 95.5138 173.475 94.5C173.475 93.4855 173.536 92.5175 173.625 91.5795L173.638 91.4438H173.775H181.226H181.362L181.375 91.5795C181.464 92.5175 181.525 93.4855 181.525 94.5C181.525 94.6596 181.524 94.8046 181.521 94.9632C181.522 95.4143 181.89 95.7804 182.342 95.7804C182.794 95.7804 183.16 95.4141 183.161 94.9621C183.16 94.8319 183.161 94.6942 183.162 94.5743C183.162 94.5484 183.162 94.5234 183.163 94.4994C183.162 93.5043 183.116 92.5396 183.034 91.6068L183.02 91.4438H183.184H188.745H188.861L188.89 91.5564C189.132 92.4973 189.275 93.4798 189.275 94.5C189.275 94.656 189.272 94.8099 189.265 94.9648L173.836 99.1938ZM173.836 99.1938L173.865 99.3684M173.836 99.1938L173.865 99.3684M173.865 99.3684C174.102 100.789 174.436 102.062 174.84 103.112C175.252 104.184 175.742 105.028 176.22 105.554C176.697 106.079 177.114 106.275 177.5 106.275C177.528 106.275 177.561 106.274 177.594 106.271L173.865 99.3684ZM180.987 89.8063H181.164L181.135 89.6315C180.898 88.2127 180.564 86.9398 180.16 85.8901C179.748 84.8177 179.259 83.9736 178.78 83.4477C178.304 82.9233 177.887 82.725 177.5 82.725C177.113 82.725 176.697 82.9233 176.22 83.4477C175.742 83.9736 175.252 84.8177 174.84 85.8901C174.436 86.9398 174.102 88.2127 173.865 89.6315L173.836 89.8063H174.013H180.987ZM174.196 83.4671L174.399 83.1309L174.024 83.2463C170.804 84.2365 168.187 86.5715 166.802 89.5938L166.705 89.8063H166.938H172.047H172.176L172.195 89.6792C172.448 88.0436 172.827 86.56 173.311 85.3015C173.573 84.6198 173.868 84.0112 174.196 83.4671ZM180.974 83.2463L180.599 83.131L180.802 83.4671C181.13 84.0116 181.427 84.6197 181.689 85.3015C182.173 86.5599 182.55 88.0435 182.803 89.6792L182.823 89.8063H182.951H188.062H188.295L188.198 89.5938C186.813 86.5709 184.195 84.2362 180.974 83.2463ZM166.253 91.4438H166.137L166.108 91.5564C165.867 92.4974 165.725 93.4801 165.725 94.5C165.725 95.5196 165.867 96.5029 166.108 97.4436L166.137 97.5563H166.253H171.816H171.98L171.966 97.3932C171.884 96.4606 171.838 95.4946 171.838 94.5C171.838 93.5047 171.884 92.5398 171.966 91.6068L171.98 91.4438H171.816H166.253ZM166.938 99.1938H166.705L166.802 99.4062C168.187 102.428 170.802 104.765 174.022 105.756L174.397 105.871L174.194 105.535C173.867 104.991 173.573 104.381 173.311 103.7C172.827 102.441 172.448 100.958 172.195 99.3208L172.176 99.1938H172.047H166.938Z" fill="#D3D4D5" stroke="white" stroke-width="0.3"/>
<path d="M189.451 98.2504L189.451 98.2504L186.036 101.666L185.965 101.736L185.895 101.666L182.479 98.2504L182.478 98.2494L182.478 98.2494C182.137 97.8978 181.573 97.8984 181.237 98.2455L189.451 98.2504ZM189.451 98.2504L189.452 98.2494M189.451 98.2504L189.452 98.2494M189.452 98.2494C189.661 98.0343 189.893 97.9578 190.107 97.9693C190.434 97.9867 190.739 98.2101 190.88 98.51C191.019 98.8034 191 99.167 190.681 99.4779L190.681 99.4779L190.68 99.4789L187.264 102.894L187.194 102.965L187.264 103.036L190.68 106.451L190.68 106.451L190.681 106.452C190.896 106.661 190.973 106.892 190.961 107.106C190.95 107.323 190.847 107.531 190.689 107.689C190.532 107.847 190.323 107.949 190.106 107.961C189.892 107.972 189.661 107.895 189.452 107.68L189.452 107.68L189.451 107.679L186.036 104.264L185.965 104.193L185.894 104.264L182.479 107.679L182.479 107.679L182.478 107.68C182.144 108.023 181.595 108.033 181.246 107.695C180.899 107.359 180.898 106.794 181.25 106.452L181.25 106.452L181.251 106.451L184.666 103.036L184.737 102.965L184.666 102.894L181.251 99.4789L181.251 99.4789M189.452 98.2494L181.251 99.4789M181.251 99.4789L181.25 99.4779M181.251 99.4789L181.25 99.4779M181.25 99.4779C180.907 99.1442 180.899 98.5945 181.237 98.2455L181.25 99.4779Z" fill="#D3D4D5" stroke="white" stroke-width="0.2"/>
<path d="M132.347 125.124C132.428 125.124 132.499 125.156 132.562 125.218L133.145 125.85C132.822 126.25 132.424 126.556 131.951 126.769C131.482 126.982 130.917 127.088 130.257 127.088C129.667 127.088 129.135 126.987 128.662 126.785C128.193 126.584 127.791 126.303 127.458 125.944C127.124 125.585 126.867 125.156 126.688 124.657C126.512 124.158 126.424 123.614 126.424 123.023C126.424 122.426 126.519 121.879 126.71 121.384C126.9 120.886 127.168 120.457 127.513 120.097C127.861 119.738 128.275 119.459 128.756 119.261C129.236 119.06 129.768 118.959 130.351 118.959C130.93 118.959 131.443 119.054 131.891 119.245C132.342 119.436 132.725 119.685 133.04 119.993L132.545 120.68C132.516 120.724 132.477 120.763 132.43 120.796C132.386 120.829 132.323 120.845 132.243 120.845C132.188 120.845 132.131 120.831 132.072 120.801C132.013 120.768 131.949 120.73 131.88 120.686C131.81 120.638 131.729 120.587 131.638 120.532C131.546 120.477 131.44 120.427 131.319 120.383C131.198 120.336 131.056 120.297 130.895 120.268C130.737 120.235 130.554 120.218 130.345 120.218C129.989 120.218 129.663 120.283 129.366 120.411C129.073 120.536 128.82 120.719 128.607 120.961C128.394 121.199 128.229 121.493 128.112 121.841C127.995 122.186 127.936 122.58 127.936 123.023C127.936 123.471 127.998 123.869 128.123 124.217C128.251 124.565 128.424 124.859 128.64 125.097C128.856 125.335 129.111 125.519 129.405 125.647C129.698 125.772 130.013 125.834 130.351 125.834C130.552 125.834 130.734 125.823 130.895 125.801C131.06 125.779 131.21 125.744 131.346 125.696C131.485 125.649 131.616 125.588 131.737 125.515C131.861 125.438 131.984 125.344 132.105 125.234C132.142 125.201 132.18 125.176 132.221 125.157C132.261 125.135 132.303 125.124 132.347 125.124ZM141.461 123.023C141.461 123.606 141.363 124.147 141.169 124.646C140.978 125.141 140.707 125.57 140.355 125.933C140.003 126.296 139.58 126.58 139.085 126.785C138.59 126.987 138.04 127.088 137.435 127.088C136.833 127.088 136.285 126.987 135.79 126.785C135.295 126.58 134.87 126.296 134.514 125.933C134.162 125.57 133.889 125.141 133.695 124.646C133.5 124.147 133.403 123.606 133.403 123.023C133.403 122.44 133.5 121.901 133.695 121.406C133.889 120.908 134.162 120.477 134.514 120.114C134.87 119.751 135.295 119.469 135.79 119.267C136.285 119.062 136.833 118.959 137.435 118.959C137.838 118.959 138.217 119.007 138.573 119.102C138.929 119.194 139.255 119.326 139.552 119.498C139.849 119.667 140.115 119.874 140.35 120.119C140.588 120.361 140.79 120.633 140.955 120.933C141.12 121.234 141.244 121.56 141.329 121.912C141.417 122.264 141.461 122.635 141.461 123.023ZM139.948 123.023C139.948 122.587 139.889 122.197 139.772 121.852C139.655 121.504 139.488 121.208 139.272 120.966C139.055 120.724 138.791 120.539 138.48 120.411C138.172 120.283 137.823 120.218 137.435 120.218C137.046 120.218 136.696 120.283 136.384 120.411C136.076 120.539 135.812 120.724 135.592 120.966C135.376 121.208 135.209 121.504 135.092 121.852C134.974 122.197 134.916 122.587 134.916 123.023C134.916 123.46 134.974 123.852 135.092 124.2C135.209 124.545 135.376 124.838 135.592 125.08C135.812 125.319 136.076 125.502 136.384 125.63C136.696 125.759 137.046 125.823 137.435 125.823C137.823 125.823 138.172 125.759 138.48 125.63C138.791 125.502 139.055 125.319 139.272 125.08C139.488 124.838 139.655 124.545 139.772 124.2C139.889 123.852 139.948 123.46 139.948 123.023ZM149.354 119.047V127H148.595C148.478 127 148.379 126.982 148.298 126.945C148.221 126.905 148.146 126.839 148.073 126.747L143.92 121.445C143.942 121.687 143.953 121.911 143.953 122.116V127H142.65V119.047H143.425C143.488 119.047 143.541 119.051 143.585 119.058C143.633 119.062 143.673 119.073 143.706 119.091C143.743 119.106 143.777 119.129 143.81 119.162C143.843 119.192 143.88 119.232 143.92 119.283L148.089 124.607C148.078 124.479 148.069 124.353 148.062 124.228C148.055 124.103 148.051 123.988 148.051 123.881V119.047H149.354ZM157.72 119.047V127H156.961C156.844 127 156.745 126.982 156.664 126.945C156.587 126.905 156.512 126.839 156.438 126.747L152.286 121.445C152.308 121.687 152.319 121.911 152.319 122.116V127H151.015V119.047H151.791C151.853 119.047 151.906 119.051 151.95 119.058C151.998 119.062 152.038 119.073 152.071 119.091C152.108 119.106 152.143 119.129 152.176 119.162C152.209 119.192 152.246 119.232 152.286 119.283L156.455 124.607C156.444 124.479 156.435 124.353 156.427 124.228C156.42 124.103 156.416 123.988 156.416 123.881V119.047H157.72ZM160.866 120.224V122.429H163.649V123.568H160.866V125.817H164.397V127H159.381V119.047H164.397V120.224H160.866ZM170.888 125.124C170.968 125.124 171.04 125.156 171.102 125.218L171.685 125.85C171.363 126.25 170.965 126.556 170.492 126.769C170.022 126.982 169.458 127.088 168.798 127.088C168.207 127.088 167.676 126.987 167.203 126.785C166.733 126.584 166.332 126.303 165.998 125.944C165.665 125.585 165.408 125.156 165.228 124.657C165.052 124.158 164.964 123.614 164.964 123.023C164.964 122.426 165.06 121.879 165.25 121.384C165.441 120.886 165.709 120.457 166.053 120.097C166.402 119.738 166.816 119.459 167.296 119.261C167.777 119.06 168.308 118.959 168.891 118.959C169.471 118.959 169.984 119.054 170.431 119.245C170.882 119.436 171.265 119.685 171.581 119.993L171.086 120.68C171.056 120.724 171.018 120.763 170.97 120.796C170.926 120.829 170.864 120.845 170.783 120.845C170.728 120.845 170.671 120.831 170.613 120.801C170.554 120.768 170.49 120.73 170.42 120.686C170.351 120.638 170.27 120.587 170.178 120.532C170.087 120.477 169.98 120.427 169.859 120.383C169.738 120.336 169.597 120.297 169.436 120.268C169.278 120.235 169.095 120.218 168.886 120.218C168.53 120.218 168.204 120.283 167.907 120.411C167.613 120.536 167.36 120.719 167.148 120.961C166.935 121.199 166.77 121.493 166.653 121.841C166.535 122.186 166.477 122.58 166.477 123.023C166.477 123.471 166.539 123.869 166.664 124.217C166.792 124.565 166.964 124.859 167.181 125.097C167.397 125.335 167.652 125.519 167.945 125.647C168.239 125.772 168.554 125.834 168.891 125.834C169.093 125.834 169.274 125.823 169.436 125.801C169.601 125.779 169.751 125.744 169.887 125.696C170.026 125.649 170.156 125.588 170.277 125.515C170.402 125.438 170.525 125.344 170.646 125.234C170.682 125.201 170.721 125.176 170.761 125.157C170.802 125.135 170.844 125.124 170.888 125.124ZM178.144 120.262H175.746V127H174.266V120.262H171.868V119.047H178.144V120.262ZM180.559 127H179.074V119.047H180.559V127ZM189.815 123.023C189.815 123.606 189.717 124.147 189.523 124.646C189.332 125.141 189.061 125.57 188.709 125.933C188.357 126.296 187.934 126.58 187.439 126.785C186.944 126.987 186.394 127.088 185.789 127.088C185.187 127.088 184.639 126.987 184.144 126.785C183.649 126.58 183.224 126.296 182.868 125.933C182.516 125.57 182.243 125.141 182.049 124.646C181.854 124.147 181.757 123.606 181.757 123.023C181.757 122.44 181.854 121.901 182.049 121.406C182.243 120.908 182.516 120.477 182.868 120.114C183.224 119.751 183.649 119.469 184.144 119.267C184.639 119.062 185.187 118.959 185.789 118.959C186.192 118.959 186.571 119.007 186.927 119.102C187.283 119.194 187.609 119.326 187.906 119.498C188.203 119.667 188.469 119.874 188.704 120.119C188.942 120.361 189.144 120.633 189.309 120.933C189.474 121.234 189.598 121.56 189.683 121.912C189.771 122.264 189.815 122.635 189.815 123.023ZM188.302 123.023C188.302 122.587 188.243 122.197 188.126 121.852C188.009 121.504 187.842 121.208 187.626 120.966C187.409 120.724 187.145 120.539 186.834 120.411C186.526 120.283 186.177 120.218 185.789 120.218C185.4 120.218 185.05 120.283 184.738 120.411C184.43 120.539 184.166 120.724 183.946 120.966C183.73 121.208 183.563 121.504 183.446 121.852C183.328 122.197 183.27 122.587 183.27 123.023C183.27 123.46 183.328 123.852 183.446 124.2C183.563 124.545 183.73 124.838 183.946 125.08C184.166 125.319 184.43 125.502 184.738 125.63C185.05 125.759 185.4 125.823 185.789 125.823C186.177 125.823 186.526 125.759 186.834 125.63C187.145 125.502 187.409 125.319 187.626 125.08C187.842 124.838 188.009 124.545 188.126 124.2C188.243 123.852 188.302 123.46 188.302 123.023ZM197.708 119.047V127H196.949C196.832 127 196.733 126.982 196.652 126.945C196.575 126.905 196.5 126.839 196.427 126.747L192.274 121.445C192.296 121.687 192.307 121.911 192.307 122.116V127H191.004V119.047H191.779C191.842 119.047 191.895 119.051 191.939 119.058C191.987 119.062 192.027 119.073 192.06 119.091C192.097 119.106 192.131 119.129 192.164 119.162C192.197 119.192 192.234 119.232 192.274 119.283L196.443 124.607C196.432 124.479 196.423 124.353 196.416 124.228C196.409 124.103 196.405 123.988 196.405 123.881V119.047H197.708ZM206.593 125.779V127H201.934V119.047H203.414V125.779H206.593ZM214.844 123.023C214.844 123.606 214.747 124.147 214.553 124.646C214.362 125.141 214.091 125.57 213.739 125.933C213.387 126.296 212.963 126.58 212.468 126.785C211.973 126.987 211.423 127.088 210.818 127.088C210.217 127.088 209.669 126.987 209.174 126.785C208.679 126.58 208.254 126.296 207.898 125.933C207.546 125.57 207.273 125.141 207.078 124.646C206.884 124.147 206.787 123.606 206.787 123.023C206.787 122.44 206.884 121.901 207.078 121.406C207.273 120.908 207.546 120.477 207.898 120.114C208.254 119.751 208.679 119.469 209.174 119.267C209.669 119.062 210.217 118.959 210.818 118.959C211.222 118.959 211.601 119.007 211.957 119.102C212.313 119.194 212.639 119.326 212.936 119.498C213.233 119.667 213.499 119.874 213.733 120.119C213.972 120.361 214.173 120.633 214.338 120.933C214.503 121.234 214.628 121.56 214.712 121.912C214.8 122.264 214.844 122.635 214.844 123.023ZM213.332 123.023C213.332 122.587 213.273 122.197 213.156 121.852C213.039 121.504 212.872 121.208 212.655 120.966C212.439 120.724 212.175 120.539 211.863 120.411C211.555 120.283 211.207 120.218 210.818 120.218C210.43 120.218 210.08 120.283 209.768 120.411C209.46 120.539 209.196 120.724 208.976 120.966C208.76 121.208 208.593 121.504 208.475 121.852C208.358 122.197 208.299 122.587 208.299 123.023C208.299 123.46 208.358 123.852 208.475 124.2C208.593 124.545 208.76 124.838 208.976 125.08C209.196 125.319 209.46 125.502 209.768 125.63C210.08 125.759 210.43 125.823 210.818 125.823C211.207 125.823 211.555 125.759 211.863 125.63C212.175 125.502 212.439 125.319 212.655 125.08C212.872 124.838 213.039 124.545 213.156 124.2C213.273 123.852 213.332 123.46 213.332 123.023ZM220.269 120.493C220.225 120.57 220.177 120.627 220.126 120.664C220.078 120.697 220.017 120.713 219.944 120.713C219.867 120.713 219.783 120.686 219.691 120.631C219.603 120.572 219.497 120.508 219.372 120.438C219.247 120.369 219.101 120.306 218.932 120.251C218.767 120.193 218.571 120.163 218.344 120.163C218.138 120.163 217.959 120.189 217.805 120.24C217.651 120.288 217.52 120.356 217.414 120.444C217.311 120.532 217.234 120.638 217.183 120.763C217.132 120.884 217.106 121.018 217.106 121.164C217.106 121.351 217.157 121.507 217.26 121.632C217.366 121.757 217.506 121.863 217.678 121.951C217.85 122.039 218.047 122.118 218.267 122.187C218.487 122.257 218.712 122.332 218.943 122.413C219.174 122.49 219.4 122.582 219.62 122.688C219.84 122.791 220.036 122.923 220.208 123.084C220.38 123.242 220.518 123.436 220.621 123.667C220.727 123.898 220.78 124.178 220.78 124.508C220.78 124.868 220.718 125.205 220.593 125.52C220.472 125.832 220.292 126.105 220.054 126.34C219.819 126.571 219.532 126.754 219.191 126.89C218.85 127.022 218.459 127.088 218.019 127.088C217.766 127.088 217.517 127.062 217.271 127.011C217.025 126.963 216.789 126.894 216.562 126.802C216.338 126.71 216.127 126.6 215.929 126.472C215.731 126.344 215.555 126.201 215.401 126.043L215.836 125.333C215.872 125.282 215.92 125.24 215.979 125.207C216.037 125.17 216.1 125.152 216.166 125.152C216.257 125.152 216.356 125.19 216.463 125.267C216.569 125.341 216.695 125.423 216.842 125.515C216.989 125.607 217.159 125.691 217.354 125.768C217.552 125.841 217.788 125.878 218.063 125.878C218.485 125.878 218.811 125.779 219.042 125.581C219.273 125.379 219.389 125.091 219.389 124.717C219.389 124.508 219.335 124.338 219.229 124.206C219.126 124.074 218.989 123.964 218.817 123.876C218.644 123.784 218.448 123.707 218.228 123.645C218.008 123.583 217.784 123.515 217.557 123.441C217.33 123.368 217.106 123.28 216.886 123.177C216.666 123.075 216.47 122.941 216.298 122.776C216.125 122.611 215.986 122.406 215.88 122.16C215.777 121.911 215.726 121.604 215.726 121.241C215.726 120.952 215.782 120.669 215.896 120.394C216.013 120.119 216.182 119.876 216.402 119.663C216.622 119.45 216.893 119.28 217.216 119.151C217.539 119.023 217.909 118.959 218.327 118.959C218.796 118.959 219.229 119.032 219.625 119.179C220.021 119.326 220.358 119.531 220.637 119.795L220.269 120.493ZM227.516 120.262H225.118V127H223.638V120.262H221.24V119.047H227.516V120.262Z" fill="#D3D4D5"/>
<rect x="168" y="144" width="126" height="32" rx="8" fill="#FFC235"/>
<path d="M209.531 161.22L208.145 157.538C208.033 157.253 207.919 156.892 207.802 156.453C207.751 156.672 207.695 156.875 207.634 157.062C207.573 157.244 207.517 157.405 207.466 157.545L206.08 161.22H209.531ZM212.632 165H211.365C211.22 165 211.104 164.965 211.015 164.895C210.926 164.82 210.859 164.729 210.812 164.622L209.972 162.396H205.632L204.792 164.622C204.755 164.715 204.689 164.802 204.596 164.881C204.503 164.96 204.386 165 204.246 165H202.979L206.976 154.92H208.635L212.632 165ZM217.935 159.617C217.725 159.346 217.494 159.157 217.242 159.05C216.99 158.943 216.717 158.889 216.423 158.889C215.835 158.889 215.375 159.106 215.044 159.54C214.713 159.969 214.547 160.606 214.547 161.451C214.547 161.89 214.584 162.265 214.659 162.578C214.734 162.886 214.841 163.138 214.981 163.334C215.121 163.53 215.291 163.672 215.492 163.761C215.693 163.85 215.919 163.894 216.171 163.894C216.554 163.894 216.883 163.812 217.158 163.649C217.438 163.481 217.697 163.245 217.935 162.942V159.617ZM219.44 154.64V165H218.53C218.329 165 218.201 164.904 218.145 164.713L218.012 163.936C217.713 164.286 217.373 164.568 216.99 164.783C216.612 164.998 216.171 165.105 215.667 165.105C215.266 165.105 214.902 165.026 214.575 164.867C214.248 164.704 213.968 164.468 213.735 164.16C213.502 163.852 213.32 163.472 213.189 163.019C213.063 162.562 213 162.039 213 161.451C213 160.919 213.07 160.427 213.21 159.974C213.355 159.521 213.56 159.129 213.826 158.798C214.092 158.462 214.414 158.201 214.792 158.014C215.175 157.823 215.602 157.727 216.073 157.727C216.493 157.727 216.85 157.795 217.144 157.93C217.438 158.061 217.702 158.245 217.935 158.483V154.64H219.44ZM225.837 159.617C225.627 159.346 225.396 159.157 225.144 159.05C224.892 158.943 224.619 158.889 224.325 158.889C223.737 158.889 223.278 159.106 222.946 159.54C222.615 159.969 222.449 160.606 222.449 161.451C222.449 161.89 222.487 162.265 222.561 162.578C222.636 162.886 222.743 163.138 222.883 163.334C223.023 163.53 223.194 163.672 223.394 163.761C223.595 163.85 223.821 163.894 224.073 163.894C224.456 163.894 224.785 163.812 225.06 163.649C225.34 163.481 225.599 163.245 225.837 162.942V159.617ZM227.342 154.64V165H226.432C226.232 165 226.103 164.904 226.047 164.713L225.914 163.936C225.616 164.286 225.275 164.568 224.892 164.783C224.514 164.998 224.073 165.105 223.569 165.105C223.168 165.105 222.804 165.026 222.477 164.867C222.151 164.704 221.871 164.468 221.637 164.16C221.404 163.852 221.222 163.472 221.091 163.019C220.965 162.562 220.902 162.039 220.902 161.451C220.902 160.919 220.972 160.427 221.112 159.974C221.257 159.521 221.462 159.129 221.728 158.798C221.994 158.462 222.316 158.201 222.694 158.014C223.077 157.823 223.504 157.727 223.975 157.727C224.395 157.727 224.752 157.795 225.046 157.93C225.34 158.061 225.604 158.245 225.837 158.483V154.64H227.342ZM234.174 163.208C234.384 163.479 234.613 163.67 234.86 163.782C235.112 163.889 235.39 163.943 235.693 163.943C236.281 163.943 236.738 163.728 237.065 163.299C237.396 162.87 237.562 162.23 237.562 161.381C237.562 160.942 237.525 160.569 237.45 160.261C237.375 159.948 237.268 159.694 237.128 159.498C236.988 159.302 236.818 159.16 236.617 159.071C236.416 158.982 236.19 158.938 235.938 158.938C235.555 158.938 235.224 159.022 234.944 159.19C234.669 159.353 234.412 159.589 234.174 159.897V163.208ZM234.097 158.896C234.396 158.546 234.734 158.264 235.112 158.049C235.495 157.834 235.938 157.727 236.442 157.727C236.843 157.727 237.207 157.809 237.534 157.972C237.861 158.131 238.141 158.364 238.374 158.672C238.607 158.98 238.787 159.363 238.913 159.82C239.044 160.273 239.109 160.793 239.109 161.381C239.109 161.908 239.037 162.401 238.892 162.858C238.752 163.311 238.549 163.705 238.283 164.041C238.017 164.372 237.695 164.634 237.317 164.825C236.939 165.012 236.512 165.105 236.036 165.105C235.616 165.105 235.259 165.037 234.965 164.902C234.676 164.767 234.412 164.58 234.174 164.342V167.373H232.669V157.86H233.579C233.784 157.86 233.915 157.956 233.971 158.147L234.097 158.896ZM243.658 157.748C244.186 157.748 244.662 157.834 245.086 158.007C245.516 158.18 245.88 158.425 246.178 158.742C246.482 159.059 246.715 159.444 246.878 159.897C247.042 160.35 247.123 160.858 247.123 161.423C247.123 161.988 247.042 162.496 246.878 162.949C246.715 163.402 246.482 163.789 246.178 164.111C245.88 164.428 245.516 164.673 245.086 164.846C244.662 165.019 244.186 165.105 243.658 165.105C243.126 165.105 242.646 165.019 242.216 164.846C241.792 164.673 241.428 164.428 241.124 164.111C240.821 163.789 240.588 163.402 240.424 162.949C240.261 162.496 240.179 161.988 240.179 161.423C240.179 160.858 240.261 160.35 240.424 159.897C240.588 159.444 240.821 159.059 241.124 158.742C241.428 158.425 241.792 158.18 242.216 158.007C242.646 157.834 243.126 157.748 243.658 157.748ZM243.658 163.929C244.302 163.929 244.781 163.714 245.093 163.285C245.411 162.851 245.569 162.233 245.569 161.43C245.569 160.627 245.411 160.009 245.093 159.575C244.781 159.136 244.302 158.917 243.658 158.917C243.005 158.917 242.52 159.136 242.202 159.575C241.885 160.009 241.726 160.627 241.726 161.43C241.726 162.233 241.885 162.851 242.202 163.285C242.52 163.714 243.005 163.929 243.658 163.929ZM252.832 159.155C252.795 159.22 252.753 159.267 252.706 159.295C252.66 159.323 252.601 159.337 252.531 159.337C252.452 159.337 252.366 159.314 252.272 159.267C252.179 159.216 252.069 159.16 251.943 159.099C251.817 159.038 251.668 158.985 251.495 158.938C251.327 158.887 251.129 158.861 250.9 158.861C250.714 158.861 250.543 158.884 250.389 158.931C250.24 158.973 250.112 159.036 250.004 159.12C249.902 159.199 249.822 159.295 249.766 159.407C249.71 159.514 249.682 159.631 249.682 159.757C249.682 159.925 249.734 160.065 249.836 160.177C249.939 160.289 250.074 160.387 250.242 160.471C250.41 160.55 250.602 160.623 250.816 160.688C251.031 160.753 251.25 160.823 251.474 160.898C251.698 160.973 251.918 161.059 252.132 161.157C252.347 161.255 252.538 161.376 252.706 161.521C252.874 161.661 253.01 161.834 253.112 162.039C253.215 162.24 253.266 162.485 253.266 162.774C253.266 163.11 253.206 163.42 253.084 163.705C252.963 163.99 252.786 164.237 252.552 164.447C252.319 164.657 252.027 164.82 251.677 164.937C251.332 165.054 250.935 165.112 250.487 165.112C250.24 165.112 250 165.089 249.766 165.042C249.538 165 249.318 164.942 249.108 164.867C248.903 164.788 248.709 164.694 248.527 164.587C248.35 164.48 248.191 164.363 248.051 164.237L248.401 163.663C248.443 163.593 248.495 163.539 248.555 163.502C248.621 163.46 248.7 163.439 248.793 163.439C248.891 163.439 248.987 163.472 249.08 163.537C249.178 163.598 249.29 163.665 249.416 163.74C249.547 163.815 249.703 163.885 249.885 163.95C250.067 164.011 250.294 164.041 250.564 164.041C250.788 164.041 250.982 164.015 251.145 163.964C251.309 163.908 251.444 163.833 251.551 163.74C251.659 163.647 251.738 163.542 251.789 163.425C251.841 163.304 251.866 163.175 251.866 163.04C251.866 162.858 251.815 162.709 251.712 162.592C251.61 162.475 251.472 162.375 251.299 162.291C251.131 162.207 250.938 162.132 250.718 162.067C250.504 162.002 250.284 161.932 250.06 161.857C249.836 161.782 249.615 161.696 249.395 161.598C249.181 161.5 248.987 161.376 248.814 161.227C248.646 161.073 248.511 160.889 248.408 160.674C248.306 160.455 248.254 160.189 248.254 159.876C248.254 159.591 248.31 159.321 248.422 159.064C248.539 158.807 248.707 158.581 248.926 158.385C249.15 158.189 249.423 158.035 249.745 157.923C250.072 157.806 250.448 157.748 250.872 157.748C251.353 157.748 251.789 157.825 252.181 157.979C252.573 158.133 252.902 158.343 253.168 158.609L252.832 159.155ZM256.97 165.112C256.377 165.112 255.92 164.946 255.598 164.615C255.28 164.279 255.122 163.808 255.122 163.201V159.043H254.338C254.254 159.043 254.181 159.017 254.121 158.966C254.06 158.91 254.03 158.828 254.03 158.721V158.112L255.185 157.944L255.514 155.879C255.537 155.8 255.577 155.737 255.633 155.69C255.689 155.639 255.763 155.613 255.857 155.613H256.627V157.958H258.608V159.043H256.627V163.096C256.627 163.353 256.69 163.549 256.816 163.684C256.942 163.819 257.11 163.887 257.32 163.887C257.436 163.887 257.537 163.873 257.621 163.845C257.705 163.812 257.777 163.78 257.838 163.747C257.898 163.71 257.95 163.677 257.992 163.649C258.038 163.616 258.083 163.6 258.125 163.6C258.209 163.6 258.276 163.647 258.328 163.74L258.776 164.475C258.542 164.68 258.267 164.839 257.95 164.951C257.632 165.058 257.306 165.112 256.97 165.112Z" fill="#181B21"/>
</svg>
