<svg width="316" height="259" viewBox="0 0 316 259" fill="none" xmlns="http://www.w3.org/2000/svg">
<rect y="29" width="289" height="48" rx="8" fill="#383E45"/>
<path d="M30 51.5C30 55.6421 26.6421 59 22.5 59C18.3579 59 15 55.6421 15 51.5C15 47.3579 18.3579 44 22.5 44C26.6421 44 30 47.3579 30 51.5Z" stroke="#E2E2E3" stroke-width="1.5" stroke-linecap="round" stroke-linejoin="round"/>
<path d="M32 61.0004L27.8033 56.8037" stroke="#E2E2E3" stroke-width="1.5" stroke-linecap="round" stroke-linejoin="round"/>
<path d="M47.01 52.12H47.451C47.6283 52.12 47.7753 52.0967 47.892 52.05C48.0087 51.9987 48.109 51.9193 48.193 51.812L50.986 48.277C51.1027 48.1277 51.224 48.025 51.35 47.969C51.4807 47.9083 51.644 47.878 51.84 47.878H53.464L50.055 52.085C49.8543 52.3417 49.6467 52.5237 49.432 52.631C49.586 52.687 49.7237 52.7663 49.845 52.869C49.971 52.967 50.09 53.0977 50.202 53.261L53.716 58H52.057C51.833 58 51.665 57.9697 51.553 57.909C51.4457 57.8437 51.3547 57.7503 51.28 57.629L48.417 53.891C48.3283 53.765 48.2257 53.6763 48.109 53.625C47.9923 53.5737 47.8243 53.548 47.605 53.548H47.01V58H45.127V47.878H47.01V52.12ZM58.4191 53.583C58.4191 53.359 58.3865 53.149 58.3211 52.953C58.2605 52.7523 58.1671 52.5773 58.0411 52.428C57.9151 52.2787 57.7541 52.162 57.5581 52.078C57.3668 51.9893 57.1428 51.945 56.8861 51.945C56.3868 51.945 55.9925 52.0873 55.7031 52.372C55.4185 52.6567 55.2365 53.0603 55.1571 53.583H58.4191ZM55.1221 54.626C55.1501 54.9947 55.2155 55.3143 55.3181 55.585C55.4208 55.851 55.5561 56.0727 55.7241 56.25C55.8921 56.4227 56.0905 56.5533 56.3191 56.642C56.5525 56.726 56.8091 56.768 57.0891 56.768C57.3691 56.768 57.6095 56.7353 57.8101 56.67C58.0155 56.6047 58.1928 56.5323 58.3421 56.453C58.4961 56.3737 58.6291 56.3013 58.7411 56.236C58.8578 56.1707 58.9698 56.138 59.0771 56.138C59.2218 56.138 59.3291 56.1917 59.3991 56.299L59.8961 56.929C59.7048 57.153 59.4901 57.342 59.2521 57.496C59.0141 57.6453 58.7645 57.7667 58.5031 57.86C58.2465 57.9487 57.9828 58.0117 57.7121 58.049C57.4461 58.0863 57.1871 58.105 56.9351 58.105C56.4358 58.105 55.9715 58.0233 55.5421 57.86C55.1128 57.692 54.7395 57.447 54.4221 57.125C54.1048 56.7983 53.8551 56.397 53.6731 55.921C53.4911 55.4403 53.4001 54.885 53.4001 54.255C53.4001 53.765 53.4795 53.3053 53.6381 52.876C53.7968 52.442 54.0231 52.0663 54.3171 51.749C54.6158 51.427 54.9775 51.1727 55.4021 50.986C55.8315 50.7993 56.3145 50.706 56.8511 50.706C57.3038 50.706 57.7215 50.7783 58.1041 50.923C58.4868 51.0677 58.8158 51.28 59.0911 51.56C59.3665 51.8353 59.5811 52.176 59.7351 52.582C59.8938 52.9833 59.9731 53.443 59.9731 53.961C59.9731 54.2223 59.9451 54.3997 59.8891 54.493C59.8331 54.5817 59.7258 54.626 59.5671 54.626H55.1221ZM62.7476 51.7C62.8923 51.5553 63.044 51.4223 63.2026 51.301C63.366 51.175 63.5363 51.07 63.7136 50.986C63.8956 50.8973 64.0893 50.8297 64.2946 50.783C64.5 50.7317 64.724 50.706 64.9666 50.706C65.3586 50.706 65.7063 50.7737 66.0096 50.909C66.313 51.0397 66.565 51.2263 66.7656 51.469C66.971 51.707 67.125 51.994 67.2276 52.33C67.335 52.6613 67.3886 53.0277 67.3886 53.429V58H65.6596V53.429C65.6596 52.9903 65.5593 52.652 65.3586 52.414C65.158 52.1713 64.8523 52.05 64.4416 52.05C64.143 52.05 63.863 52.1177 63.6016 52.253C63.3403 52.3883 63.093 52.5727 62.8596 52.806V58H61.1306V50.818H62.1876C62.4116 50.818 62.5586 50.923 62.6286 51.133L62.7476 51.7ZM75.2256 50.818L71.3126 59.974C71.2612 60.0953 71.1936 60.1863 71.1096 60.247C71.0302 60.3123 70.9066 60.345 70.7386 60.345H69.4506L70.7946 57.461L67.8896 50.818H69.4086C69.5439 50.818 69.6489 50.8507 69.7236 50.916C69.8029 50.9813 69.8612 51.056 69.8986 51.14L71.4246 54.864C71.4759 54.99 71.5179 55.116 71.5506 55.242C71.5879 55.368 71.6229 55.4963 71.6556 55.627C71.6976 55.4963 71.7396 55.368 71.7816 55.242C71.8236 55.1113 71.8702 54.983 71.9216 54.857L73.3636 51.14C73.4009 51.0467 73.4616 50.9697 73.5456 50.909C73.6342 50.8483 73.7322 50.818 73.8396 50.818H75.2256ZM79.5743 54.934C79.075 54.9573 78.655 55.0017 78.3143 55.067C77.9737 55.1277 77.7007 55.207 77.4953 55.305C77.29 55.403 77.143 55.5173 77.0543 55.648C76.9657 55.7787 76.9213 55.921 76.9213 56.075C76.9213 56.3783 77.01 56.5953 77.1873 56.726C77.3693 56.8567 77.605 56.922 77.8943 56.922C78.249 56.922 78.5547 56.859 78.8113 56.733C79.0727 56.6023 79.327 56.4063 79.5743 56.145V54.934ZM75.6123 51.819C76.4383 51.063 77.4323 50.685 78.5943 50.685C79.0143 50.685 79.39 50.755 79.7213 50.895C80.0527 51.0303 80.3327 51.2217 80.5613 51.469C80.79 51.7117 80.9627 52.0033 81.0793 52.344C81.2007 52.6847 81.2613 53.058 81.2613 53.464V58H80.4773C80.314 58 80.188 57.9767 80.0993 57.93C80.0107 57.8787 79.9407 57.7783 79.8893 57.629L79.7353 57.111C79.5533 57.2743 79.376 57.419 79.2033 57.545C79.0307 57.6663 78.851 57.769 78.6643 57.853C78.4777 57.937 78.277 58 78.0623 58.042C77.8523 58.0887 77.619 58.112 77.3623 58.112C77.059 58.112 76.779 58.0723 76.5223 57.993C76.2657 57.909 76.044 57.7853 75.8573 57.622C75.6707 57.4587 75.526 57.2557 75.4233 57.013C75.3207 56.7703 75.2693 56.488 75.2693 56.166C75.2693 55.984 75.2997 55.8043 75.3603 55.627C75.421 55.445 75.519 55.2723 75.6543 55.109C75.7943 54.9457 75.974 54.7917 76.1933 54.647C76.4127 54.5023 76.681 54.3763 76.9983 54.269C77.3203 54.1617 77.6937 54.0753 78.1183 54.01C78.543 53.94 79.0283 53.898 79.5743 53.884V53.464C79.5743 52.9833 79.4717 52.6287 79.2663 52.4C79.061 52.1667 78.7647 52.05 78.3773 52.05C78.0973 52.05 77.864 52.0827 77.6773 52.148C77.4953 52.2133 77.3343 52.288 77.1943 52.372C77.0543 52.4513 76.926 52.5237 76.8093 52.589C76.6973 52.6543 76.5713 52.687 76.4313 52.687C76.31 52.687 76.2073 52.6567 76.1233 52.596C76.0393 52.5307 75.9717 52.456 75.9203 52.372L75.6123 51.819ZM88.177 49.376V52.183H91.719V53.632H88.177V56.495H92.671V58H86.287V47.878H92.671V49.376H88.177ZM95.6494 47.598V58H93.9204V47.598H95.6494ZM101.859 53.583C101.859 53.359 101.826 53.149 101.761 52.953C101.7 52.7523 101.607 52.5773 101.481 52.428C101.355 52.2787 101.194 52.162 100.998 52.078C100.807 51.9893 100.583 51.945 100.326 51.945C99.8267 51.945 99.4324 52.0873 99.143 52.372C98.8584 52.6567 98.6764 53.0603 98.597 53.583H101.859ZM98.562 54.626C98.59 54.9947 98.6554 55.3143 98.758 55.585C98.8607 55.851 98.996 56.0727 99.164 56.25C99.332 56.4227 99.5304 56.5533 99.759 56.642C99.9924 56.726 100.249 56.768 100.529 56.768C100.809 56.768 101.049 56.7353 101.25 56.67C101.455 56.6047 101.633 56.5323 101.782 56.453C101.936 56.3737 102.069 56.3013 102.181 56.236C102.298 56.1707 102.41 56.138 102.517 56.138C102.662 56.138 102.769 56.1917 102.839 56.299L103.336 56.929C103.145 57.153 102.93 57.342 102.692 57.496C102.454 57.6453 102.204 57.7667 101.943 57.86C101.686 57.9487 101.423 58.0117 101.152 58.049C100.886 58.0863 100.627 58.105 100.375 58.105C99.8757 58.105 99.4114 58.0233 98.982 57.86C98.5527 57.692 98.1794 57.447 97.862 57.125C97.5447 56.7983 97.295 56.397 97.113 55.921C96.931 55.4403 96.84 54.885 96.84 54.255C96.84 53.765 96.9194 53.3053 97.078 52.876C97.2367 52.442 97.463 52.0663 97.757 51.749C98.0557 51.427 98.4174 51.1727 98.842 50.986C99.2714 50.7993 99.7544 50.706 100.291 50.706C100.744 50.706 101.161 50.7783 101.544 50.923C101.927 51.0677 102.256 51.28 102.531 51.56C102.806 51.8353 103.021 52.176 103.175 52.582C103.334 52.9833 103.413 53.443 103.413 53.961C103.413 54.2223 103.385 54.3997 103.329 54.493C103.273 54.5817 103.166 54.626 103.007 54.626H98.562ZM109.716 52.337C109.664 52.4023 109.613 52.4537 109.562 52.491C109.515 52.5283 109.445 52.547 109.352 52.547C109.263 52.547 109.177 52.5213 109.093 52.47C109.009 52.414 108.908 52.3533 108.792 52.288C108.675 52.218 108.535 52.1573 108.372 52.106C108.213 52.05 108.015 52.022 107.777 52.022C107.473 52.022 107.207 52.078 106.979 52.19C106.75 52.2973 106.559 52.4537 106.405 52.659C106.255 52.8643 106.143 53.114 106.069 53.408C105.994 53.6973 105.957 54.0263 105.957 54.395C105.957 54.7777 105.996 55.1183 106.076 55.417C106.16 55.7157 106.279 55.9677 106.433 56.173C106.587 56.3737 106.773 56.5277 106.993 56.635C107.212 56.7377 107.459 56.789 107.735 56.789C108.01 56.789 108.232 56.7563 108.4 56.691C108.572 56.621 108.717 56.5463 108.834 56.467C108.95 56.383 109.051 56.3083 109.135 56.243C109.223 56.173 109.321 56.138 109.429 56.138C109.569 56.138 109.674 56.1917 109.744 56.299L110.241 56.929C110.049 57.153 109.842 57.342 109.618 57.496C109.394 57.6453 109.16 57.7667 108.918 57.86C108.68 57.9487 108.432 58.0117 108.176 58.049C107.924 58.0863 107.672 58.105 107.42 58.105C106.976 58.105 106.559 58.0233 106.167 57.86C105.775 57.692 105.432 57.4493 105.138 57.132C104.844 56.8147 104.61 56.4273 104.438 55.97C104.27 55.508 104.186 54.983 104.186 54.395C104.186 53.8677 104.26 53.38 104.41 52.932C104.564 52.4793 104.788 52.0897 105.082 51.763C105.376 51.4317 105.74 51.1727 106.174 50.986C106.608 50.7993 107.107 50.706 107.672 50.706C108.208 50.706 108.677 50.7923 109.079 50.965C109.485 51.1377 109.849 51.385 110.171 51.707L109.716 52.337ZM118.429 58H116.7V52.113H113.368V56.005C113.368 56.229 113.422 56.404 113.529 56.53C113.641 56.656 113.793 56.719 113.984 56.719C114.092 56.719 114.18 56.7073 114.25 56.684C114.325 56.656 114.388 56.628 114.439 56.6C114.495 56.572 114.544 56.5463 114.586 56.523C114.628 56.495 114.67 56.481 114.712 56.481C114.764 56.481 114.806 56.495 114.838 56.523C114.871 56.5463 114.906 56.5837 114.943 56.635L115.461 57.475C115.209 57.685 114.92 57.8437 114.593 57.951C114.267 58.0583 113.928 58.112 113.578 58.112C112.953 58.112 112.472 57.937 112.136 57.587C111.805 57.2323 111.639 56.7447 111.639 56.124V52.113H110.904C110.811 52.113 110.732 52.0827 110.666 52.022C110.601 51.9613 110.568 51.8703 110.568 51.749V51.063L111.723 50.867L112.087 48.914C112.111 48.8207 112.155 48.7483 112.22 48.697C112.286 48.6457 112.37 48.62 112.472 48.62H113.368V50.881H118.429V58ZM118.73 48.697C118.73 48.8463 118.7 48.9887 118.639 49.124C118.579 49.2547 118.497 49.369 118.394 49.467C118.296 49.565 118.177 49.6443 118.037 49.705C117.902 49.761 117.757 49.789 117.603 49.789C117.454 49.789 117.314 49.761 117.183 49.705C117.053 49.6443 116.938 49.565 116.84 49.467C116.742 49.369 116.663 49.2547 116.602 49.124C116.546 48.9887 116.518 48.8463 116.518 48.697C116.518 48.543 116.546 48.4007 116.602 48.27C116.663 48.1347 116.742 48.018 116.84 47.92C116.938 47.8173 117.053 47.738 117.183 47.682C117.314 47.6213 117.454 47.591 117.603 47.591C117.757 47.591 117.902 47.6213 118.037 47.682C118.177 47.738 118.296 47.8173 118.394 47.92C118.497 48.018 118.579 48.1347 118.639 48.27C118.7 48.4007 118.73 48.543 118.73 48.697ZM123.232 50.706C123.764 50.706 124.247 50.7923 124.681 50.965C125.12 51.1377 125.493 51.3827 125.801 51.7C126.114 52.0173 126.354 52.4047 126.522 52.862C126.69 53.3193 126.774 53.8303 126.774 54.395C126.774 54.9643 126.69 55.4777 126.522 55.935C126.354 56.3923 126.114 56.782 125.801 57.104C125.493 57.426 125.12 57.6733 124.681 57.846C124.247 58.0187 123.764 58.105 123.232 58.105C122.696 58.105 122.208 58.0187 121.769 57.846C121.331 57.6733 120.955 57.426 120.642 57.104C120.334 56.782 120.094 56.3923 119.921 55.935C119.753 55.4777 119.669 54.9643 119.669 54.395C119.669 53.8303 119.753 53.3193 119.921 52.862C120.094 52.4047 120.334 52.0173 120.642 51.7C120.955 51.3827 121.331 51.1377 121.769 50.965C122.208 50.7923 122.696 50.706 123.232 50.706ZM123.232 56.775C123.83 56.775 124.271 56.5743 124.555 56.173C124.845 55.7717 124.989 55.1837 124.989 54.409C124.989 53.6343 124.845 53.044 124.555 52.638C124.271 52.232 123.83 52.029 123.232 52.029C122.626 52.029 122.175 52.2343 121.881 52.645C121.592 53.051 121.447 53.639 121.447 54.409C121.447 55.179 121.592 55.767 121.881 56.173C122.175 56.5743 122.626 56.775 123.232 56.775ZM129.57 51.7C129.715 51.5553 129.867 51.4223 130.025 51.301C130.189 51.175 130.359 51.07 130.536 50.986C130.718 50.8973 130.912 50.8297 131.117 50.783C131.323 50.7317 131.547 50.706 131.789 50.706C132.181 50.706 132.529 50.7737 132.832 50.909C133.136 51.0397 133.388 51.2263 133.588 51.469C133.794 51.707 133.948 51.994 134.05 52.33C134.158 52.6613 134.211 53.0277 134.211 53.429V58H132.482V53.429C132.482 52.9903 132.382 52.652 132.181 52.414C131.981 52.1713 131.675 52.05 131.264 52.05C130.966 52.05 130.686 52.1177 130.424 52.253C130.163 52.3883 129.916 52.5727 129.682 52.806V58H127.953V50.818H129.01C129.234 50.818 129.381 50.923 129.451 51.133L129.57 51.7Z" fill="#E2E2E3"/>
<path d="M227.844 257.868C229.453 258.405 275.41 257.791 277.134 256.68C277.824 256.258 278.131 249.551 278.246 241.463C278.246 241.361 278.246 241.272 278.246 241.195C278.284 239.509 278.323 237.822 278.323 236.059C278.323 235.829 278.323 235.586 278.323 235.331L276.099 211.49L245.36 211.797L248.388 235.446L248.426 236.366L248.618 241.233V241.77C248.618 241.77 231.14 249.857 229.377 251.276C227.614 252.732 226.234 257.37 227.844 257.868Z" fill="#AD6359"/>
<path d="M227.843 257.868C229.453 258.405 275.409 257.792 277.134 256.68C277.824 256.259 278.131 249.551 278.246 241.464C278.246 241.361 278.246 241.272 278.246 241.195C278.284 239.509 278.322 237.822 278.322 236.059C278.322 235.829 278.322 235.587 278.322 235.331L248.388 235.446L248.426 236.366L248.618 241.234V241.77C248.618 241.77 231.14 249.858 229.376 251.276C227.613 252.732 226.233 257.37 227.843 257.868Z" fill="#EBEBEB"/>
<path d="M227.843 257.867C228.687 258.136 241.182 258.136 253.37 257.867C255.823 257.829 258.276 257.752 260.576 257.714C269.277 257.484 276.483 257.101 277.134 256.679C277.786 256.258 278.092 249.742 278.246 241.769C278.246 241.667 278.246 241.565 278.246 241.463C278.246 241.36 278.246 241.271 278.246 241.194H278.207L248.618 241.233V241.769C248.618 241.769 231.14 249.857 229.377 251.275C227.613 252.731 226.234 257.369 227.843 257.867Z" fill="#FFC235"/>
<path d="M228.342 256.104C236.084 255.798 267.36 255.376 275.026 255.683C275.103 255.683 275.103 255.721 275.026 255.721C267.36 256.181 236.084 256.373 228.342 256.219C228.188 256.219 228.188 256.104 228.342 256.104Z" fill="#263238"/>
<path d="M245.321 241.387C248.349 240.773 252.067 241.195 254.443 243.341C254.52 243.418 254.405 243.533 254.328 243.495C251.3 242.613 248.464 242.038 245.321 241.77C245.091 241.732 245.091 241.425 245.321 241.387Z" fill="#263238"/>
<path d="M243.136 242.729C246.164 242.115 249.882 242.537 252.259 244.683C252.335 244.76 252.22 244.913 252.144 244.875C249.116 243.955 246.279 243.38 243.136 243.112C242.907 243.112 242.907 242.767 243.136 242.729Z" fill="#263238"/>
<path d="M240.952 244.069C243.98 243.494 247.736 243.878 250.074 246.024C250.151 246.139 250.036 246.254 249.959 246.216C246.931 245.296 244.095 244.721 240.952 244.453C240.722 244.453 240.722 244.146 240.952 244.069Z" fill="#263238"/>
<path d="M253.37 257.867C255.823 257.829 258.276 257.752 260.576 257.714C269.277 257.484 276.483 257.101 277.134 256.679C277.786 256.258 278.092 249.742 278.246 241.769C278.246 241.667 278.246 241.565 278.246 241.463C278.246 241.36 278.246 241.271 278.246 241.194H278.207C274.144 244.031 259.886 253.536 253.37 257.867Z" fill="#263238"/>
<path d="M246.586 241.349H279.664C279.664 241.349 273.033 164.078 273.263 162.737C273.608 160.974 285.95 112.641 288.326 103.48C291.891 89.797 294.651 79.1416 294.651 79.1416H266.632C266.632 79.1416 263.336 89.5287 259.235 102.982C252.527 124.906 243.558 155.071 242.677 162.392C241.22 174.235 246.586 241.349 246.586 241.349Z" fill="#455A64"/>
<path d="M248.043 235.714C253.102 235.599 251.645 235.561 256.705 235.523C259.196 235.484 275.448 235.331 277.747 235.714C277.786 235.753 277.786 235.829 277.747 235.829C275.448 236.212 259.196 236.059 256.705 236.059C251.645 235.983 253.102 235.944 248.043 235.868C247.966 235.868 247.966 235.714 248.043 235.714Z" fill="#263238"/>
<path d="M267.054 157.984C268.127 153.231 269.775 148.516 271.155 143.84C274.042 134.284 276.93 124.74 279.817 115.209C281.274 110.456 282.73 105.703 284.187 100.95C284.928 98.5484 285.669 96.1465 286.41 93.7445C287.138 91.3681 287.981 89.0684 288.671 86.692C288.939 85.7338 289.093 86.2321 288.748 87.4586C288.019 89.95 287.33 92.403 286.64 94.8561C285.209 99.7366 283.765 104.617 282.308 109.498C279.472 119.195 276.559 128.854 273.646 138.551C272.19 143.406 270.733 148.261 269.277 153.116C268.548 155.416 267.897 157.754 267.475 160.168C267.054 162.66 267.015 165.189 267.169 167.681C267.514 172.74 268.088 177.8 268.548 182.859C269.008 187.918 269.481 192.978 269.967 198.037C270.887 208.118 271.806 218.198 272.726 228.279C272.854 229.556 272.969 230.834 273.071 232.111C273.071 232.533 272.458 232.495 272.381 232.073C271.308 222.108 270.465 212.142 269.545 202.138C268.6 192.224 267.667 182.297 266.747 172.357C266.517 169.865 266.249 167.374 266.249 164.883C266.249 162.545 266.555 160.245 267.054 157.984Z" fill="#263238"/>
<path d="M269.813 79.1797C271.5 92.4798 273.915 137.133 274.413 158.06C277.594 145.373 286.372 111.069 288.326 103.48C291.623 90.87 294.229 80.8278 294.612 79.3713C294.612 79.3458 294.612 79.333 294.612 79.333C294.638 79.2819 294.651 79.2436 294.651 79.218C294.651 79.1925 294.651 79.1797 294.651 79.1797H269.813Z" fill="#263238"/>
<path d="M262.416 257.868C264.026 258.405 309.944 257.791 311.707 256.68C312.359 256.258 312.665 249.551 312.819 241.463C312.819 241.361 312.819 241.272 312.819 241.195C312.819 239.509 312.857 237.822 312.857 236.059C312.857 235.829 312.857 235.586 312.857 235.331L310.634 211.49L279.894 211.797L282.922 235.446L282.96 236.366L283.152 241.233L283.19 241.77C283.19 241.77 265.674 249.857 263.911 251.276C262.148 252.732 260.806 257.37 262.416 257.868Z" fill="#AD6359"/>
<path d="M262.416 257.868C264.026 258.405 309.944 257.792 311.707 256.68C312.359 256.259 312.665 249.551 312.819 241.464C312.819 241.361 312.819 241.272 312.819 241.195C312.819 239.509 312.857 237.822 312.857 236.059C312.857 235.829 312.857 235.587 312.857 235.331L282.922 235.446L282.96 236.366L283.152 241.234L283.19 241.77C283.19 241.77 265.674 249.858 263.911 251.276C262.148 252.732 260.806 257.37 262.416 257.868Z" fill="#EBEBEB"/>
<path d="M262.416 257.868C263.221 258.137 275.716 258.137 287.905 257.868C290.358 257.83 292.811 257.753 295.149 257.715C303.85 257.485 311.017 257.102 311.707 256.68C312.358 256.259 312.665 249.743 312.78 241.77C312.78 241.668 312.78 241.566 312.78 241.464C312.78 241.361 312.793 241.272 312.818 241.195H312.78L283.152 241.234V241.77C283.152 241.77 265.674 249.858 263.911 251.276C262.148 252.732 260.806 257.37 262.416 257.868Z" fill="#FFC235"/>
<path d="M262.914 256.105C270.657 255.799 301.894 255.377 309.56 255.684C309.637 255.684 309.637 255.722 309.56 255.722C301.894 256.182 270.657 256.374 262.914 256.22C262.722 256.22 262.722 256.105 262.914 256.105Z" fill="#263238"/>
<path d="M279.855 241.387C282.883 240.773 286.64 241.195 288.978 243.341C289.093 243.418 288.978 243.533 288.863 243.495C285.835 242.613 283.037 242.038 279.855 241.77C279.664 241.732 279.625 241.425 279.855 241.387Z" fill="#263238"/>
<path d="M277.67 242.729C280.698 242.115 284.455 242.537 286.793 244.683C286.908 244.76 286.793 244.913 286.678 244.875C283.65 243.955 280.852 243.38 277.709 243.112C277.479 243.112 277.441 242.767 277.67 242.729Z" fill="#263238"/>
<path d="M275.486 244.069C278.514 243.494 282.27 243.878 284.608 246.024C284.723 246.139 284.608 246.254 284.493 246.216C281.465 245.296 278.667 244.721 275.524 244.453C275.294 244.453 275.256 244.146 275.486 244.069Z" fill="#263238"/>
<path d="M267.514 79.1416C267.514 79.1416 268.166 92.595 271.232 103.212C271.487 104.081 271.756 104.937 272.037 105.78C272.037 105.78 271.615 105.435 276.483 108.425C276.483 108.425 274.605 161.778 274.528 164.96C274.26 176.88 282.922 241.847 282.922 241.847L316 241.962C316 241.962 304.195 168.333 304.233 163.963C304.271 156.949 308.449 126.439 307.184 103.825C306.379 89.912 300.438 79.1416 300.438 79.1416H267.514Z" fill="#455A64"/>
<path d="M284.034 235.945C289.093 235.868 287.636 235.83 292.696 235.791C295.187 235.791 311.439 235.715 313.738 236.098C313.777 236.098 313.777 236.213 313.738 236.213C311.439 236.558 295.187 236.366 292.696 236.328C287.636 236.251 289.093 236.213 284.034 236.098C283.957 236.098 283.957 235.945 284.034 235.945Z" fill="#263238"/>
<path d="M298.484 81.173C302.661 89.2221 304.233 98.3443 304.54 107.313C304.923 117.087 303.773 126.784 302.738 136.481C301.665 146.639 300.707 156.834 301.512 167.068C302.278 177.417 304.118 187.65 305.613 197.922C307.069 208.156 308.641 218.428 309.906 228.701C310.059 230.004 310.225 231.307 310.404 232.61C310.404 232.648 310.289 232.687 310.289 232.61C308.449 222.491 306.993 212.296 305.421 202.139C303.888 191.982 302.163 181.863 301.09 171.667C300.055 161.472 300.477 151.353 301.512 141.196C302.508 131.422 303.811 121.61 303.811 111.759C303.85 102.599 302.93 93.2466 299.71 84.5843C299.25 83.4344 298.79 82.2846 298.292 81.173C298.254 80.9814 298.407 80.9814 298.484 81.173Z" fill="#263238"/>
<path d="M270.657 104.975C273.954 106.278 277.097 108.08 280.124 109.92C280.239 109.996 280.163 110.188 280.01 110.111C276.828 108.578 273.57 107.083 270.466 105.358C270.236 105.205 270.427 104.86 270.657 104.975Z" fill="#263238"/>
<path d="M270.466 93.5916C270.695 94.7798 271.002 95.9296 271.232 97.1178C271.462 98.191 271.654 99.3026 271.922 100.414C272.229 101.449 272.689 102.407 273.493 103.174C273.915 103.557 274.375 103.902 274.835 104.285C275.103 104.477 275.372 104.669 275.602 104.86C275.576 104.707 275.55 104.554 275.525 104.4C275.448 103.966 275.372 103.519 275.295 103.059C275.142 102.062 274.988 101.066 274.835 100.069C274.528 98.1527 274.26 96.1596 273.838 94.2432C273.838 94.1665 273.953 94.1282 273.953 94.2049C274.452 96.1213 274.988 97.9994 275.41 99.9542C275.602 100.874 276.368 105.55 276.406 105.895C276.432 106.227 276.445 106.572 276.445 106.93C276.483 107.275 276.56 107.62 276.445 107.965C276.445 108.042 276.33 108.042 276.291 107.965C276.291 107.99 276.291 108.003 276.291 108.003C276.138 107.697 276.1 107.313 275.985 106.968C275.908 106.636 275.844 106.304 275.793 105.972C275.768 105.844 275.742 105.716 275.717 105.589C275.257 105.32 274.835 104.937 274.413 104.63C273.953 104.285 273.455 103.979 273.034 103.595C272.19 102.867 271.654 102.024 271.347 100.989C271.04 99.8775 270.925 98.7276 270.81 97.6161C270.657 96.2746 270.542 94.9331 270.351 93.6299C270.351 93.5533 270.466 93.5149 270.466 93.5916Z" fill="#263238"/>
<path d="M278.914 42.9197C278.99 48.9757 275.158 77.454 269.37 84.0465C261.742 92.7855 247.982 104.514 245.261 104.092C242.693 103.671 232.383 89.1059 234.299 87.0745C236.216 85.0431 253.387 73.8511 255.61 71.628C257.066 70.1715 265.69 53.3068 270.635 44.4912C275.119 36.5188 278.76 34.5641 278.914 42.9197Z" fill="#AD6359"/>
<path d="M277.189 60.3986L259.864 59.402C259.864 59.402 269.638 42.9973 273.893 39.0111C278.684 34.4883 279.949 37.9379 279.795 44.1471C279.68 50.3947 277.189 60.3986 277.189 60.3986Z" fill="#FFC235"/>
<path d="M262.47 56.4506C263.084 56.4123 268.488 56.6422 269.638 56.6805C270.826 56.7572 275.656 57.0255 276.844 57.2172C276.882 57.2172 276.882 57.2938 276.844 57.2938C275.617 57.3321 270.788 57.1022 269.6 57.0638C268.373 56.9872 263.045 56.6805 262.47 56.5272C262.394 56.5272 262.432 56.4506 262.47 56.4506Z" fill="#263238"/>
<path d="M279.795 44.1477C279.68 50.3953 277.189 60.3991 277.189 60.3991L267.032 59.8242L276.422 37.1719C279.144 36.022 279.91 39.2033 279.795 44.1477Z" fill="#263238"/>
<path d="M265.805 95.3925C266.571 96.1207 313.141 93.6677 313.371 93.3611C313.984 92.5562 297.694 43.6103 286.771 35.7529C284.433 34.0664 277.725 35.6762 276.115 37.3244C275.08 38.3209 272.896 44.7985 271.439 50.1262C268.526 60.7816 265.153 94.7026 265.805 95.3925Z" fill="#FFC235"/>
<path fill-rule="evenodd" clip-rule="evenodd" d="M294.168 46.1398C293.938 45.6799 293.823 45.1816 293.747 44.6834C293.747 44.6578 293.747 44.6195 293.747 44.5684C293.9 44.8239 294.053 45.0922 294.206 45.3733C294.206 45.6288 294.194 45.8843 294.168 46.1398ZM279.987 80.5591C280.063 81.0574 280.101 81.5556 280.025 82.0539C279.795 81.594 279.68 81.0957 279.603 80.5974C279.565 80.0991 279.527 79.6009 279.603 79.1026C279.833 79.5625 279.91 80.0608 279.987 80.5591ZM293.018 72.3567C293.095 72.8167 293.133 73.315 293.018 73.8516C292.827 73.3916 292.712 72.8933 292.635 72.3951C292.558 71.8968 292.52 71.3985 292.597 70.9002C292.827 71.3602 292.942 71.8585 293.018 72.3567ZM293.9 92.4027C293.938 92.901 293.976 93.3992 293.9 93.8975C293.67 93.4376 293.593 92.9393 293.517 92.441C293.44 91.9811 293.402 91.4828 293.478 90.9462C293.708 91.4061 293.823 91.9044 293.9 92.4027ZM308.043 83.702C308.12 84.2003 308.158 84.6986 308.081 85.1969C307.852 84.7369 307.737 84.2387 307.66 83.7787C307.622 83.2804 307.583 82.7822 307.66 82.2456C307.89 82.7438 307.967 83.2038 308.043 83.702ZM276.92 56.3353C276.997 56.8336 277.035 57.3318 276.959 57.8301C276.729 57.3702 276.614 56.8719 276.537 56.3736C276.499 55.8754 276.46 55.3771 276.537 54.8788C276.767 55.3388 276.844 55.837 276.92 56.3353ZM276.92 40.8121C276.997 41.3104 277.035 41.8087 276.959 42.3453C276.729 41.847 276.614 41.3871 276.537 40.8888C276.499 40.3905 276.46 39.8923 276.537 39.394C276.767 39.8539 276.844 40.3522 276.92 40.8121ZM300.684 61.3564C300.761 61.8546 300.799 62.3529 300.684 62.8895C300.492 62.3912 300.377 61.9313 300.301 61.433C300.224 60.9348 300.186 60.4365 300.262 59.9382C300.492 60.3981 300.607 60.8964 300.684 61.3564ZM288.189 50.6626C288.687 50.586 289.185 50.5477 289.684 50.6243C289.224 50.8543 288.725 50.9693 288.227 51.0459C287.729 51.0843 287.231 51.1226 286.732 51.0459C287.192 50.816 287.691 50.7393 288.189 50.6626ZM282.095 35.6761C282.593 35.5994 283.091 35.5611 283.628 35.6761C283.129 35.8677 282.67 35.9827 282.171 36.0594C281.673 36.136 281.175 36.1744 280.676 36.0977C281.136 35.8677 281.635 35.7527 282.095 35.6761ZM273.049 49.7044C272.551 49.9344 272.091 50.0494 271.593 50.126C271.541 50.126 271.49 50.126 271.439 50.126C271.465 49.9983 271.503 49.8705 271.554 49.7428C272.052 49.6661 272.512 49.6278 273.049 49.7044ZM275.962 65.0359C276.46 64.9593 276.959 64.9209 277.495 64.9976C276.997 65.2276 276.537 65.3426 276.039 65.4192C275.54 65.4959 275.042 65.4959 274.544 65.4192C275.004 65.2276 275.502 65.1126 275.962 65.0359ZM290.335 63.8094C290.834 63.7711 291.332 63.7328 291.83 63.8094C291.37 64.0394 290.872 64.116 290.374 64.1927C289.914 64.2694 289.415 64.3077 288.879 64.231C289.339 64.0011 289.837 63.8861 290.335 63.8094ZM286.694 87.1133C287.192 87.075 287.691 87.0367 288.189 87.1133C287.729 87.3433 287.231 87.4199 286.771 87.4966C286.272 87.5733 285.774 87.6116 285.238 87.5349C285.736 87.305 286.196 87.19 286.694 87.1133ZM301.182 76.7262C301.681 76.6879 302.179 76.6496 302.677 76.7262C302.217 76.9562 301.719 77.0328 301.221 77.1095C300.722 77.1862 300.224 77.2245 299.726 77.1478C300.186 76.9179 300.684 76.8029 301.182 76.7262ZM270.826 93.1309C271.324 93.0543 271.822 93.0159 272.321 93.0926C271.861 93.3226 271.363 93.4376 270.864 93.5142C270.404 93.5525 269.906 93.5909 269.369 93.5142C269.829 93.3226 270.328 93.2076 270.826 93.1309ZM269.753 80.904C270.213 80.8274 270.711 80.7891 271.248 80.8657C270.788 81.0957 270.289 81.2107 269.791 81.2873C269.293 81.3257 268.795 81.364 268.296 81.2873C268.756 81.0957 269.254 80.9807 269.753 80.904ZM286.349 41.9237C286.042 42.3453 285.697 42.6903 285.276 42.9969C285.468 42.5369 285.736 42.1153 286.042 41.6937C286.349 41.3104 286.656 40.9271 287.077 40.6205C286.924 41.1188 286.617 41.5404 286.349 41.9237ZM270.864 56.7569C270.673 57.2552 270.404 57.6385 270.098 58.0601C269.995 58.2134 269.88 58.3667 269.753 58.52C269.778 58.2645 269.817 58.009 269.868 57.7535C270.136 57.3702 270.481 57.0252 270.864 56.7569ZM295.011 56.3353C294.705 56.7186 294.36 57.1019 293.938 57.4085C294.13 56.9102 294.398 56.4886 294.705 56.067C295.011 55.6837 295.318 55.3004 295.74 54.9938C295.548 55.4921 295.28 55.9137 295.011 56.3353ZM282.555 70.2487C282.248 70.6319 281.941 71.0152 281.52 71.3219C281.673 70.8236 281.941 70.402 282.248 70.0187C282.555 69.6354 282.861 69.2521 283.283 68.9455C283.129 69.4054 282.861 69.827 282.555 70.2487ZM274.927 87.19C274.62 87.5733 274.314 87.9566 273.892 88.2632C274.046 87.7649 274.314 87.3433 274.62 86.96C274.927 86.5384 275.272 86.1551 275.694 85.8485C275.502 86.3467 275.234 86.7684 274.927 87.19ZM295.241 82.6672C294.935 83.0505 294.628 83.4337 294.206 83.7404C294.398 83.2421 294.666 82.8205 294.935 82.4372C295.241 82.0156 295.586 81.6706 296.008 81.364C295.816 81.8239 295.548 82.2456 295.241 82.6672ZM309.845 91.0612C309.538 91.4828 309.231 91.8278 308.81 92.1344C308.963 91.6744 309.231 91.2528 309.538 90.8312C309.845 90.4479 310.151 90.0646 310.573 89.758C310.42 90.2563 310.151 90.6779 309.845 91.0612ZM269.024 68.7922C268.769 68.6899 268.513 68.575 268.258 68.4472C268.283 68.3194 268.309 68.1917 268.335 68.0639C268.59 68.2939 268.82 68.5366 269.024 68.7922ZM300.071 68.6005C299.649 68.2939 299.266 67.9873 298.959 67.5656C299.458 67.719 299.879 67.9873 300.301 68.2939C300.684 68.6005 301.067 68.9455 301.374 69.3288C300.876 69.1754 300.454 68.9071 300.071 68.6005ZM301.259 88.8381C300.837 88.5315 300.492 88.1865 300.186 87.7649C300.646 87.9565 301.067 88.2248 301.489 88.5315C301.872 88.8381 302.256 89.1447 302.562 89.5664C302.064 89.413 301.642 89.1447 301.259 88.8381ZM279.948 48.7845C279.565 48.4779 279.182 48.1329 278.875 47.7113C279.373 47.903 279.795 48.1713 280.178 48.4779C280.561 48.7845 280.945 49.0912 281.251 49.5128C280.753 49.3595 280.331 49.0912 279.948 48.7845ZM286.886 77.9911C286.502 77.6844 286.119 77.3395 285.812 76.9179C286.311 77.1095 286.732 77.3778 287.116 77.6844C287.537 77.9911 287.882 78.2977 288.189 78.7193C287.729 78.566 287.307 78.2594 286.886 77.9911ZM267.261 89.1447C266.84 88.9914 266.456 88.7614 266.073 88.4931C266.099 88.3398 266.111 88.1865 266.111 88.0332C266.137 88.0588 266.163 88.0843 266.188 88.1099C266.61 88.4165 266.955 88.7231 267.261 89.1447ZM284.164 58.9417C283.781 58.635 283.398 58.2901 283.091 57.8684C283.589 58.0601 284.011 58.3284 284.394 58.5967C284.778 58.9033 285.161 59.2483 285.468 59.6699C284.969 59.4783 284.586 59.21 284.164 58.9417ZM273.777 74.2348C273.394 73.9282 273.011 73.5832 272.704 73.1616C273.202 73.3533 273.586 73.6216 274.007 73.9282C274.391 74.2348 274.774 74.5415 275.08 74.9631C274.582 74.8098 274.161 74.5415 273.777 74.2348ZM280.906 92.9393C280.523 92.671 280.14 92.326 279.833 91.9044C280.331 92.0961 280.753 92.3644 281.136 92.6327C281.558 92.9393 281.903 93.2842 282.21 93.7059C281.75 93.5142 281.328 93.2459 280.906 92.9393Z" fill="white"/>
<path d="M271.976 104.592L265.575 110.609L230.466 73.3155L236.867 67.2979L271.976 104.592Z" fill="#6C7074"/>
<path d="M291.447 122.031L281.788 131.115L257.258 105.09L266.955 95.9678L291.447 122.031Z" fill="#383E45"/>
<path fill-rule="evenodd" clip-rule="evenodd" d="M212.451 82.7446C190.527 85.2359 170.711 69.4061 168.258 47.4821C165.767 25.558 181.596 5.7037 203.521 3.25066C225.445 0.797614 245.261 16.6274 247.752 38.5515C250.205 60.4755 234.375 80.2915 212.451 82.7446ZM204.019 7.81178C184.624 9.99652 170.634 27.5511 172.781 46.9455C174.966 66.3782 192.559 80.3682 211.953 78.1834C231.347 76.037 245.376 58.4441 243.191 39.0497C241.006 19.6554 223.452 5.62704 204.019 7.81178Z" fill="#6C7074" stroke="#919397" stroke-width="6"/>
<g opacity="0.2">
<path d="M232.766 19.6939C245.644 33.3773 244.993 54.918 231.309 67.7965C217.626 80.675 196.085 80.0234 183.207 66.34C170.328 52.6566 170.98 31.1159 184.663 18.2374C198.346 5.35892 219.887 6.0105 232.766 19.6939Z" fill="white"/>
<path d="M238.323 27.5508C245.03 40.6976 242.577 57.1789 231.309 67.796C228.971 69.9807 226.403 71.7822 223.72 73.2004L238.323 27.5508Z" fill="#EBEBEB"/>
<path d="M209.423 8.99961L189.415 71.5138C187.192 70.0574 185.123 68.3326 183.206 66.3395C181.021 64.0397 179.258 61.4717 177.84 58.7887L192.597 12.6408C197.886 9.95783 203.674 8.76964 209.423 8.99961Z" fill="#EBEBEB"/>
<path d="M230.312 17.3556L211.263 76.8802C209.04 77.1101 206.817 77.0718 204.594 76.8802L224.869 13.4844C226.786 14.5576 228.6 15.848 230.312 17.3556Z" fill="#EBEBEB"/>
<path d="M214.061 9.53637L193.478 73.7754C193.095 73.6221 192.725 73.4432 192.367 73.2388L212.835 9.34473C213.243 9.39583 213.652 9.45971 214.061 9.53637Z" fill="#EBEBEB"/>
<path d="M183.436 19.4258L174.314 47.9424C174.161 46.9458 174.059 45.9365 174.008 44.9144L181.443 21.7255C182.082 20.9334 182.746 20.1668 183.436 19.4258Z" fill="#EBEBEB"/>
</g>
<path d="M294.858 41.9628C298.806 46.5239 315.326 68.9462 315.287 79.3333C315.249 85.6959 299.151 103.979 294.973 108.233C293.133 110.111 280.025 98.6894 280.14 95.8914C280.255 93.0934 296.046 76.957 296.775 75.0022C296.775 75.0022 291.14 56.8343 288.151 47.1755C285.314 38.0149 287.461 33.3771 294.858 41.9628Z" fill="#AD6359"/>
<path d="M270.213 108.654C267.798 110.839 262.815 111.759 263.889 113.944C264.809 115.898 268.181 114.94 268.181 114.94C268.181 114.94 264.732 117.278 266.342 119.08C267.913 120.919 271.439 119.08 271.439 119.08C271.439 119.08 268.45 120.881 270.175 122.606C271.899 124.292 275.157 123.258 275.157 123.258C275.157 123.258 274.659 124.369 276.422 125.021C278.952 125.941 283.896 122.913 286.081 120.728C288.304 118.543 294.743 108.884 295.701 107.351L281.711 93.0928C281.711 93.0928 276 95.2009 273.241 96.619C270.481 98.0372 262.624 105.243 264.272 107.313C265.958 109.344 271.401 104.17 273.011 103.212C274.621 102.215 275.119 102.445 274.736 103.442C274.467 104.093 271.286 107.658 270.213 108.654Z" fill="#AD6359"/>
<path d="M268.335 114.826C272.973 113.139 274.698 111.568 277.687 107.735C277.726 107.658 277.841 107.735 277.802 107.812C275.234 111.836 273.356 114.097 268.412 115.056C268.143 115.094 268.105 114.902 268.335 114.826Z" fill="#263238"/>
<path d="M271.21 119.119C275.886 116.934 277.764 115.247 281.175 111.453C281.213 111.414 281.328 111.491 281.29 111.529C278.262 115.554 276.307 117.739 271.363 119.31C271.133 119.387 271.018 119.195 271.21 119.119Z" fill="#263238"/>
<path d="M275.196 123.219C279.566 120.766 281.712 119.041 284.548 114.94C284.625 114.825 284.778 114.94 284.702 115.017C282.21 119.501 279.566 121.686 275.273 123.334C275.004 123.449 274.928 123.373 275.196 123.219Z" fill="#263238"/>
<path d="M290.795 60.3985L307.966 57.7921C307.966 57.7921 296.698 42.3839 292.06 38.8194C286.885 34.7565 285.966 38.2828 286.694 44.492C287.384 50.7013 290.795 60.3985 290.795 60.3985Z" fill="#FFC235"/>
<path d="M305.092 55.1094C304.479 55.1094 299.112 55.8376 297.963 56.0293C296.813 56.2209 292.06 56.9108 290.872 57.2175C290.795 57.2175 290.833 57.2941 290.872 57.2941C292.098 57.2175 296.889 56.5275 298.078 56.3742C299.266 56.2209 304.555 55.3777 305.13 55.186C305.168 55.186 305.13 55.1094 305.092 55.1094Z" fill="#263238"/>
<path d="M292.175 60.2065C291.638 60.2448 290.833 60.3215 290.833 60.3215C290.143 58.4434 287.537 48.5545 286.847 46.1782C286.847 46.1398 286.809 46.1398 286.809 46.1782C287.09 47.558 287.397 48.9251 287.729 50.2793C287.652 50.1005 287.575 49.9344 287.499 49.7811C287.269 49.2061 287 48.6312 286.77 48.0563C286.77 47.9796 286.694 48.0179 286.694 48.0563C286.885 48.6695 287.077 49.2828 287.307 49.8577C287.499 50.2793 287.69 50.6626 287.92 51.0459C288.074 51.8508 288.265 52.6174 288.457 53.384C289.109 55.7987 289.645 58.2901 290.45 60.5898C290.45 60.5898 291.6 60.5131 292.213 60.3215C292.252 60.2831 292.251 60.1682 292.175 60.2065Z" fill="#263238"/>
<path d="M232.459 88.9543C233.455 91.2157 235.64 90.9091 235.64 90.9091C235.64 90.9091 234.03 93.4388 235.41 95.5469C236.1 96.6201 238.438 96.4284 238.438 96.4284C238.438 96.4284 237.25 98.5365 238.591 100.3C239.664 101.718 241.849 101.335 241.849 101.335C241.849 101.335 241.619 103.903 243.191 104.976C246.334 107.199 259.442 99.3798 258.561 93.3238C258.177 90.4875 255.073 92.5956 255.073 92.5956C255.073 92.5956 258.791 88.4944 257.257 85.773C255.686 83.0134 251.853 85.9647 251.853 85.9647C251.853 85.9647 255.418 81.9785 253.539 79.2955C251.546 76.4975 248.212 80.1387 248.212 80.1387C248.212 80.1387 249.937 76.4208 248.02 74.696C244.839 71.8597 241.351 80.3303 238.055 81.4036L233.685 76.7274C233.685 76.7274 231.347 86.463 232.459 88.9543Z" fill="#AD6359"/>
<path d="M242.194 101.335C242.156 101.335 242.194 101.411 242.232 101.411C247.177 99.8782 252.121 96.6586 255.264 92.5191C255.341 92.3658 255.188 92.1358 255.034 92.2508C251.01 95.9304 247.139 98.8817 242.194 101.335Z" fill="#263238"/>
<path d="M238.4 96.5053C238.361 96.5053 238.4 96.6203 238.476 96.582C243.536 94.9722 249.017 91.2159 252.083 86.0032C252.16 85.8116 252.083 85.5816 251.968 85.7733C249.668 89.0695 242.846 94.3206 238.4 96.5053Z" fill="#263238"/>
<path d="M248.288 79.6785C245.184 84.5846 240.853 87.9958 235.87 90.8322C235.793 90.8705 235.87 90.9855 235.908 90.9472C238.745 90.2189 241.734 88.0725 243.881 86.1944C245.989 84.3929 247.522 82.3615 248.48 79.7935C248.518 79.6785 248.365 79.5635 248.288 79.6785Z" fill="#263238"/>
<path d="M276.997 36.1361C274.966 37.631 273.126 45.0284 277.764 46.1016C282.363 47.1365 286.656 39.854 287.307 37.4776C287.921 35.1013 281.366 32.8782 276.997 36.1361Z" fill="#37474F"/>
<path d="M278.338 44.6068C280.945 44.9518 284.931 40.5823 286.349 37.2477C286.426 37.0177 285.851 34.7563 285.276 31.9966C284.969 30.3102 284.624 28.4321 284.433 26.6689L273.816 30.4635C273.816 30.4635 275.272 33.9897 275.579 37.056C275.579 37.3116 275.579 37.5415 275.579 37.746C275.553 37.7971 275.54 37.8482 275.54 37.8993C275.464 39.2791 275.809 44.3002 278.338 44.6068Z" fill="#AD6359"/>
<path d="M283.935 26.8604C283.82 29.0834 282.977 37.0175 276.691 37.8224C276.282 37.8735 275.911 37.899 275.579 37.899C275.554 37.8479 275.554 37.7968 275.579 37.7457C275.579 37.5158 275.579 37.2858 275.579 37.0558C275.273 34.0278 273.816 30.4633 273.816 30.4633L283.935 26.8604Z" fill="#263238"/>
<path d="M284.356 14.7493C285.736 18.5822 284.241 29.8892 281.634 32.5339C277.802 36.3668 271.286 37.0567 267.951 32.4189C264.731 27.8961 266.916 13.1779 269.868 10.7248C274.237 7.16025 282.286 9.11501 284.356 14.7493Z" fill="#AD6359"/>
<path d="M274.39 21.9548C274.39 21.9165 274.429 21.9931 274.429 22.0314C274.314 22.7597 274.314 23.6796 274.965 23.9862C275.004 24.0245 274.965 24.0629 274.965 24.0629C274.122 23.8329 274.16 22.6447 274.39 21.9548Z" fill="#263238"/>
<path d="M275.157 21.226C276.422 21.3027 276.192 23.7557 275.042 23.7174C273.93 23.6407 274.122 21.1877 275.157 21.226Z" fill="#263238"/>
<path d="M269.983 21.5703C269.983 21.5703 269.906 21.6086 269.906 21.647C269.868 22.4135 269.714 23.2951 268.986 23.4868C268.948 23.4868 268.948 23.5251 268.986 23.5251C269.829 23.4867 270.059 22.3369 269.983 21.5703Z" fill="#263238"/>
<path d="M269.369 20.7275C268.143 20.5358 267.836 22.9889 268.947 23.1805C270.097 23.3721 270.404 20.8808 269.369 20.7275Z" fill="#263238"/>
<path d="M276.23 20.1904C275.923 20.0754 275.617 19.9221 275.31 19.7688C274.965 19.5771 274.658 19.5004 274.467 19.1555C274.352 18.9638 274.428 18.6572 274.582 18.5422C275.003 18.2356 275.463 18.3123 275.923 18.5039C276.383 18.6955 276.69 18.9638 276.92 19.4238C277.15 19.8454 276.69 20.3437 276.23 20.1904Z" fill="#263238"/>
<path d="M268.526 19.3858C268.871 19.3858 269.178 19.2708 269.522 19.2325C269.906 19.1558 270.212 19.1558 270.519 18.8492C270.672 18.6959 270.672 18.3892 270.519 18.2359C270.212 17.8143 269.714 17.8143 269.254 17.8526C268.756 17.9293 268.373 18.1209 268.028 18.5042C267.721 18.8492 268.066 19.4241 268.526 19.3858Z" fill="#263238"/>
<path d="M274.543 29.1211C274.352 29.2744 274.16 29.5427 273.853 29.5427C273.585 29.5044 273.278 29.3894 273.049 29.2744C273.049 29.2361 273.01 29.2744 273.01 29.3127C273.202 29.6194 273.585 29.811 273.968 29.811C274.313 29.7727 274.505 29.4661 274.62 29.1594C274.62 29.1211 274.582 29.1211 274.543 29.1211Z" fill="#263238"/>
<path d="M273.93 26.7837C273.47 27.3969 272.78 27.7036 272.09 27.7802C271.784 27.8186 271.477 27.7802 271.17 27.7419C271.094 27.7419 271.03 27.7291 270.979 27.7036C270.928 27.7036 270.877 27.6908 270.826 27.6652C270.711 27.6269 270.672 27.5503 270.672 27.4736C270.672 27.4481 270.672 27.4225 270.672 27.3969L270.711 27.3203C270.749 26.7454 270.864 25.8255 270.864 25.8255C270.634 25.9404 269.484 26.3237 269.561 26.0171C269.906 23.4874 270.327 20.6511 271.247 18.198C271.247 18.1214 271.4 18.1597 271.362 18.2364C271.094 20.6894 270.404 23.1041 270.136 25.5572C270.481 25.4422 271.055 25.2505 271.4 25.2889C271.477 25.3272 271.094 27.0137 271.094 27.282C272.09 27.5119 272.857 27.282 273.892 26.707C273.93 26.6687 274.007 26.707 273.93 26.7837Z" fill="#263238"/>
<path d="M271.592 27.6259C271.592 27.6259 272.129 28.3159 272.819 28.5458C273.087 28.6608 273.394 28.6992 273.662 28.6225C274.275 28.4692 274.314 27.8942 274.199 27.4343C274.084 27.0127 273.93 26.7061 273.93 26.7061C273.93 26.7061 273.01 27.511 271.592 27.6259Z" fill="#263238"/>
<path d="M272.819 28.5461C273.087 28.6611 273.394 28.6994 273.662 28.6228C274.275 28.4694 274.313 27.8945 274.198 27.4346C273.547 27.4729 272.895 27.9328 272.819 28.5844V28.5461Z" fill="#F392B9"/>
<path d="M284.739 25.2129C282.631 24.638 281.596 17.5471 281.596 17.5471C281.596 17.5471 281.596 20.5751 281.06 20.4984C280.485 20.4218 278.185 16.3206 277.955 13.4076C277.955 13.4076 275.272 15.2091 272.589 16.014C269.944 16.7806 266.993 16.5889 266.993 16.1673C266.993 14.7875 268.22 11.2995 270.059 10.0347C272.167 8.61653 275.195 7.2367 279.565 8.92316C283.896 10.5713 285.046 13.4076 285.659 15.554C286.311 17.7388 285.506 25.4429 284.739 25.2129Z" fill="#263238"/>
<path fill-rule="evenodd" clip-rule="evenodd" d="M275.042 26.5161C273.088 26.0178 271.899 23.9481 272.436 21.9933C272.973 20.0002 275.004 18.812 276.997 19.3486C278.952 19.8852 280.14 21.9167 279.604 23.9098C279.144 25.5962 277.61 26.6694 275.962 26.6694C275.656 26.6694 275.349 26.6183 275.042 26.5161ZM272.896 22.1083C272.436 23.8331 273.471 25.5962 275.196 26.0562C276.882 26.5161 278.645 25.4812 279.105 23.7948C279.565 22.07 278.569 20.3069 276.844 19.8469C276.588 19.7703 276.32 19.7319 276.039 19.7319C274.621 19.6936 273.279 20.6518 272.896 22.1083Z" fill="#455A64"/>
<path fill-rule="evenodd" clip-rule="evenodd" d="M267.262 25.4805C265.767 25.2889 264.732 23.4874 265 21.456C265.154 20.4594 265.537 19.6162 266.112 18.9646C266.725 18.313 267.492 18.0064 268.258 18.1214C268.986 18.2364 269.638 18.6963 270.06 19.5012C270.481 20.2294 270.635 21.1877 270.481 22.1459C270.251 24.1007 268.948 25.5188 267.53 25.5188C267.453 25.5188 267.364 25.506 267.262 25.4805ZM266.495 19.3096C265.958 19.8462 265.613 20.6511 265.498 21.4943C265.268 23.2574 266.112 24.8289 267.338 24.9822C268.565 25.1739 269.791 23.8707 270.021 22.1076C270.136 21.226 269.983 20.3828 269.638 19.7312C269.293 19.0796 268.756 18.6963 268.181 18.6196C268.105 18.6196 268.041 18.6196 267.99 18.6196C267.453 18.5813 266.955 18.8496 266.495 19.3096Z" fill="#455A64"/>
<path d="M272.513 22.4145L272.857 22.0695C272.359 21.5329 271.171 20.728 270.136 21.5712L270.443 21.9545C271.363 21.2263 272.436 22.3761 272.513 22.4145Z" fill="#455A64"/>
<path d="M286.579 25.3649L287.077 25.1732C286.962 24.9816 286.272 23.0652 285.199 22.7202C284.164 22.4519 279.68 22.3369 279.412 22.3369L279.373 22.8352C281.29 22.9118 284.279 22.9885 285.046 23.2185C285.736 23.4101 286.387 24.8283 286.579 25.3649Z" fill="#455A64"/>
<path d="M281.864 23.8329C281.864 23.8329 284.317 20.115 285.966 20.9965C287.652 21.8398 285.927 27.1675 284.011 27.934C282.094 28.7006 281.328 26.9758 281.328 26.9758L281.864 23.8329Z" fill="#AD6359"/>
<path d="M285.429 22.4912C285.467 22.4912 285.467 22.5295 285.467 22.5295C284.126 23.1428 283.436 24.4077 282.976 25.7492C283.359 25.2126 283.896 24.9443 284.586 25.4042C284.624 25.4042 284.586 25.4809 284.547 25.4809C284.011 25.3659 283.589 25.4809 283.244 25.9408C282.976 26.2474 282.823 26.669 282.631 27.014C282.593 27.129 282.363 27.0907 282.401 26.9374C282.401 26.9374 282.401 26.9246 282.401 26.899C282.324 25.1742 283.589 22.7212 285.429 22.4912Z" fill="#263238"/>
<path d="M272.819 8.69291C274.008 8.04132 275.426 7.38972 277.112 7.08309C278.799 6.77646 284.165 6.81479 285.506 7.81134C286.848 8.80789 287.538 13.829 287.614 14.5572C287.691 15.2855 287.653 19.7699 286.12 20.9581C284.586 22.108 283.935 14.5572 281.213 12.2191C278.492 9.88109 272.819 8.69291 272.819 8.69291Z" fill="#FFC235"/>
<path opacity="0.1" d="M272.819 8.69332C272.819 8.69332 278.492 9.88151 281.213 12.2196C283.935 14.5576 284.586 22.1084 286.12 20.9585C286.809 20.4219 287.116 19.6937 287.308 18.5055C286.848 16.3208 285.698 12.9478 283.705 10.6864C281.827 8.57833 278.799 7.62011 275.579 7.4668C274.544 7.81176 273.624 8.27171 272.819 8.69332Z" fill="black"/>
<path d="M285.966 25.4813C285.698 23.4499 283.283 18.1988 280.945 15.2475C278.569 12.2962 272.13 10.878 271.248 10.993C269.102 11.2613 268.45 11.9512 268.067 11.7979C267.722 11.6063 269.83 9.84316 270.405 9.45987C270.98 9.07658 272.551 8.11836 273.509 8.0417C274.429 8.00337 280.217 8.23334 282.478 10.5331C284.74 12.8328 288.151 19.5403 287.729 21.3418C287.614 21.7634 287.078 22.07 286.924 22.6833C286.733 23.4882 286.656 24.4081 286.426 24.983C286.273 25.443 286.005 25.6346 285.966 25.4813Z" fill="#FFC235"/>
<path d="M280.37 13.8674C280.83 13.5224 281.252 13.1774 281.674 12.7558C282.095 12.3725 282.479 11.9126 282.785 11.4143C282.823 11.376 282.862 11.4143 282.862 11.4526C282.594 11.9892 282.287 12.4875 281.865 12.9475C281.444 13.3691 280.945 13.7524 280.409 13.9823C280.332 14.0207 280.294 13.9057 280.37 13.8674Z" fill="#263238"/>
<path d="M285.851 23.4493C285.889 23.296 286.004 23.181 286.043 23.0277C286.119 22.8488 286.171 22.6699 286.196 22.4911C286.273 22.1844 286.234 21.8395 286.388 21.4945C286.464 21.2645 286.656 21.0346 286.809 20.8046C287.001 20.5746 287.154 20.3063 287.154 19.9614C287.154 19.923 287.193 19.923 287.231 19.9614C287.269 20.5746 286.886 21.0346 286.656 21.5712C286.503 21.9161 286.541 22.2611 286.426 22.6444C286.349 22.9127 286.234 23.3343 285.966 23.5259C285.928 23.5259 285.851 23.4876 285.851 23.4493Z" fill="#263238"/>
<path d="M285.008 21.303C285.2 21.0731 285.391 20.8431 285.545 20.5748C285.698 20.3448 285.826 20.0893 285.928 19.8082C286.043 19.5399 286.119 19.2716 286.234 19.0033C286.349 18.6967 286.503 18.3901 286.618 18.0834C286.656 18.0451 286.694 18.0451 286.694 18.0834C286.579 18.4284 286.503 18.7733 286.426 19.1183C286.324 19.3994 286.209 19.6805 286.081 19.9615C285.979 20.2171 285.838 20.4726 285.66 20.7281C285.506 20.9581 285.276 21.1881 285.046 21.3414C285.046 21.3414 285.008 21.3414 285.008 21.303Z" fill="#263238"/>
<path d="M284.165 19.3871C284.548 19.0038 284.893 18.5438 285.161 18.0839C285.43 17.5856 285.66 17.1257 285.89 16.6274C285.928 16.5891 285.966 16.5891 285.966 16.6274C285.813 17.2023 285.66 17.7389 285.391 18.2372C285.238 18.4672 285.085 18.6971 284.893 18.8888C284.701 19.1188 284.471 19.2721 284.203 19.4254C284.165 19.4637 284.127 19.4254 284.165 19.3871Z" fill="#263238"/>
<path d="M283.245 17.5472C283.475 17.3939 283.59 17.2023 283.743 16.9723C283.897 16.7423 284.05 16.4996 284.203 16.244C284.331 16.0141 284.472 15.7841 284.625 15.5541C284.778 15.3241 284.893 15.0558 284.932 14.7875C284.932 14.7492 285.008 14.7492 285.008 14.7875C285.008 15.0558 284.932 15.3241 284.817 15.5924C284.714 15.8735 284.587 16.1418 284.433 16.3973C284.28 16.6529 284.101 16.9084 283.897 17.1639C283.743 17.3556 283.552 17.5472 283.283 17.6239C283.245 17.6622 283.207 17.5855 283.245 17.5472Z" fill="#263238"/>
<path d="M282.516 15.2089C282.695 15.0045 282.861 14.8001 283.015 14.5957C283.168 14.3912 283.321 14.174 283.475 13.9441C283.628 13.7141 283.781 13.4841 283.896 13.2542C283.935 13.2158 283.973 13.2542 283.973 13.2925C283.858 13.5608 283.781 13.7908 283.628 14.0591C283.5 14.289 283.36 14.519 283.206 14.749C283.053 14.9534 282.874 15.1578 282.67 15.3622C282.517 15.5156 282.287 15.7455 282.057 15.8605C282.018 15.8605 281.98 15.8222 282.018 15.7839C282.133 15.5539 282.325 15.4006 282.516 15.2089Z" fill="#263238"/>
<path d="M278.722 12.8322C278.914 12.5639 279.105 12.3339 279.297 12.0656C279.501 11.8356 279.731 11.6057 279.987 11.3757C280.447 10.9541 280.907 10.5325 281.482 10.2258C281.482 10.1875 281.558 10.2258 281.52 10.2642C280.6 11.1457 279.68 11.989 278.799 12.8705C278.76 12.9088 278.722 12.8705 278.722 12.8322Z" fill="#263238"/>
<path d="M277.381 11.185C277.585 10.9295 277.802 10.6995 278.032 10.4951C278.531 10.0734 279.105 9.72849 279.719 9.42186C279.757 9.38354 279.795 9.4602 279.757 9.4602C279.259 9.84348 278.722 10.2268 278.262 10.6484C278.032 10.84 277.802 11.0317 277.572 11.2616C277.381 11.4916 277.189 11.7599 276.997 12.0282C276.997 12.0282 276.959 12.0282 276.959 11.9899C277.036 11.6833 277.227 11.415 277.381 11.185Z" fill="#263238"/>
<path d="M275.656 10.4948C275.835 10.2648 276.039 10.0349 276.269 9.8049C276.678 9.42161 277.151 9.1022 277.687 8.84668C277.726 8.84668 277.726 8.88501 277.687 8.92334C277.227 9.25552 276.793 9.61326 276.384 9.99654C276.18 10.201 275.975 10.4182 275.771 10.6481C275.579 10.8398 275.426 11.1081 275.196 11.2997C275.196 11.2997 275.157 11.2997 275.196 11.2614C275.311 10.9931 275.502 10.7631 275.656 10.4948Z" fill="#263238"/>
<path d="M274.391 9.57442C274.595 9.39555 274.8 9.21669 275.004 9.03782C275.234 8.8845 275.426 8.69286 275.694 8.6162C275.732 8.57787 275.732 8.65453 275.732 8.65453C275.323 9.01227 274.927 9.38278 274.544 9.76606C274.199 10.0727 273.969 10.5326 273.701 10.9159C273.663 10.9543 273.624 10.9159 273.663 10.9159C273.778 10.3793 274.008 9.95771 274.391 9.57442Z" fill="#263238"/>
<path d="M272.858 9.34469C273.203 8.96141 273.663 8.65478 274.161 8.4248C274.161 8.4248 274.199 8.46314 274.161 8.50147C273.739 8.73144 273.356 9.11473 273.011 9.49802C272.666 9.88131 272.398 10.3029 272.13 10.7629C272.091 10.7629 272.053 10.7629 272.091 10.7245C272.206 10.2263 272.513 9.76631 272.858 9.34469Z" fill="#263238"/>
<path d="M270.941 10.3798C270.967 10.2776 271.018 10.1754 271.095 10.0732C271.197 9.86876 271.325 9.67712 271.478 9.49825C271.823 9.11496 272.206 8.84666 272.589 8.54003C272.628 8.5017 272.666 8.57835 272.628 8.57835C272.244 8.88498 271.899 9.19161 271.593 9.5749C271.465 9.75377 271.337 9.94541 271.21 10.1498C271.158 10.2265 271.107 10.3159 271.056 10.4181C271.018 10.5331 270.98 10.6481 270.903 10.7248C270.903 10.7631 270.826 10.7248 270.826 10.7248C270.826 10.6098 270.903 10.4948 270.941 10.3798Z" fill="#263238"/>
<path d="M269.715 10.571C269.817 10.4177 269.932 10.2644 270.06 10.1111C270.188 9.95774 270.315 9.80443 270.443 9.65112C270.596 9.53613 270.75 9.38282 270.903 9.26783C270.903 9.2295 270.98 9.26783 270.941 9.30616C270.788 9.42115 270.673 9.61278 270.52 9.7661C270.418 9.89386 270.303 10.0344 270.175 10.1877C270.073 10.341 269.958 10.4944 269.83 10.6477C269.715 10.801 269.6 10.9543 269.485 11.1076C269.447 11.1459 269.447 11.1076 269.447 11.0693C269.485 10.916 269.638 10.7243 269.715 10.571Z" fill="#263238"/>
<circle cx="208" cy="43" r="35" stroke="white" stroke-width="2"/>
</svg>
