<svg width="805" height="573" viewBox="0 0 805 573" fill="none" xmlns="http://www.w3.org/2000/svg">
<path d="M530.661 294.773C544.319 294.773 555.391 283.626 555.391 269.875C555.391 256.125 544.319 244.978 530.661 244.978C517.003 244.978 505.931 256.125 505.931 269.875C505.931 283.626 517.003 294.773 530.661 294.773Z" fill="#FFC235"/>
<path fill-rule="evenodd" clip-rule="evenodd" d="M520.369 125.585C528.389 118.899 533.58 109.39 534.889 98.9894C536.198 88.5891 533.527 78.0771 527.417 69.5878C521.308 61.0985 512.218 55.2682 501.994 53.281C491.77 51.2937 481.178 53.2983 472.368 58.8878C471.147 55.2828 468.835 52.1532 465.757 49.9379C462.68 47.7225 458.991 46.5325 455.207 46.5348C452.447 46.521 449.721 47.1543 447.246 48.3848C444.77 49.6152 442.614 51.4089 440.946 53.6239C429.357 50.108 417.316 48.3316 405.211 48.352C383.222 48.3309 361.619 54.1707 342.597 65.278C323.576 76.3852 307.813 92.364 296.913 111.591C284.648 113.11 273.275 118.827 264.698 127.784C256.122 136.741 250.865 148.393 249.807 160.788C248.748 173.183 251.954 185.568 258.886 195.867C265.819 206.165 276.056 213.752 287.884 217.356C296.616 241.195 312.279 261.833 332.83 276.581C339.508 294.772 352.065 310.176 368.483 320.32C384.901 330.463 404.229 334.758 423.363 332.515C442.497 330.272 460.328 321.621 473.992 307.951C487.656 294.28 496.361 276.384 498.709 257.135C514.188 239.443 524.424 217.732 528.253 194.473C532.082 171.213 529.35 147.339 520.369 125.565M405.211 272.419C385.88 272.402 366.987 266.614 350.923 255.786C334.859 244.959 322.344 229.578 314.963 211.59C307.581 193.602 305.663 173.815 309.452 154.729C313.24 135.644 322.565 118.118 336.247 104.369C349.929 90.619 367.354 81.2628 386.318 77.4833C405.282 73.7039 424.933 75.6708 442.786 83.1355C460.64 90.6002 475.894 103.227 486.619 119.42C497.344 135.613 503.059 154.644 503.041 174.107C502.973 200.191 492.638 225.184 474.301 243.612C455.964 262.039 431.12 272.398 405.211 272.419Z" fill="#FFC235"/>
<path d="M275.073 112.318C282.849 112.318 289.152 105.972 289.152 98.1442C289.152 90.316 282.849 83.97 275.073 83.97C267.298 83.97 260.994 90.316 260.994 98.1442C260.994 105.972 267.298 112.318 275.073 112.318Z" fill="#FFC235"/>
<path d="M422.357 250.605C411.458 249.82 400.68 247.81 390.225 244.614C386.976 251.34 384.274 255.337 382.461 256.064C388.622 257.995 394.981 259.215 401.416 259.699H402.138C409.798 259.441 417.055 256.177 422.357 250.605Z" fill="#FFC235"/>
<path d="M402.138 259.698H403.404C403.205 259.789 402.989 259.836 402.771 259.836C402.553 259.836 402.337 259.789 402.138 259.698Z" fill="#FFC235"/>
<path d="M334.64 124.672C334.749 124.586 334.838 124.477 334.9 124.352C334.962 124.228 334.995 124.091 334.998 123.951C334.821 124.312 334.64 124.49 334.64 124.672Z" fill="#FFC235"/>
<path d="M447.446 249.159C448.715 248.478 449.923 247.687 451.056 246.795C443.464 249.732 435.359 251.09 427.231 250.789C421.235 256.417 413.404 259.648 405.21 259.875H406.11C418.574 259.861 430.889 257.136 442.21 251.887L442.571 251.707C444.019 250.976 445.824 250.066 447.446 249.159Z" fill="#FFC235"/>
<path d="M381.384 256.245C384.466 257.164 387.6 257.892 390.77 258.426C387.882 257.878 384.82 257.155 381.745 256.245H381.384Z" fill="#FFC235"/>
<path d="M379.76 255.701C380.252 255.852 380.734 256.034 381.204 256.244L379.938 255.881L379.76 255.701Z" fill="#FFC235"/>
<path d="M393.841 258.972C393.119 258.789 392.397 258.789 391.493 258.609C392.262 258.805 393.049 258.927 393.841 258.972Z" fill="#FFC235"/>
<path d="M331.748 129.222L333.375 126.494L331.748 129.222Z" fill="#FFC235"/>
<path d="M358.099 245.156C357.921 245.156 357.921 244.974 357.739 244.974C357.917 244.978 357.917 244.978 358.099 245.156Z" fill="#FFC235"/>
<path d="M368.568 251.152C366.207 250.088 363.916 248.874 361.709 247.518L360.987 247.158C366.538 250.631 372.475 253.437 378.676 255.517H378.838C375.248 254.064 371.817 252.794 368.568 251.152Z" fill="#FFC235"/>
<path d="M354.671 242.797C354.493 242.617 354.31 242.617 354.31 242.433C355.032 242.98 355.576 243.34 356.294 243.887C355.933 243.703 355.572 243.34 355.028 242.976C354.854 242.797 354.854 242.797 354.671 242.797Z" fill="#FFC235"/>
<path d="M401.417 259.698C400.868 259.727 400.319 259.665 399.79 259.514C400.873 259.514 401.956 259.698 403.039 259.698H401.413H401.417Z" fill="#FFC235"/>
<path d="M353.049 188.829C344.162 183.169 336.34 175.97 329.945 167.566C325.98 178.873 325.045 191.033 327.236 202.819C332.842 210.2 339.69 216.536 347.467 221.539C347.274 210.379 349.167 199.283 353.049 188.829Z" fill="#FFC235"/>
<path d="M352.324 227.714C352.283 231.072 352.899 234.406 354.138 237.524C355.377 240.642 357.214 243.483 359.544 245.886C362.173 247.485 364.885 248.941 367.669 250.248C371.363 251.997 375.162 253.515 379.042 254.793C381.172 250.888 382.982 246.815 384.457 242.615C378.113 240.449 371.904 237.9 365.864 234.983C361.181 232.894 356.656 230.465 352.324 227.714Z" fill="#FFC235"/>
<path d="M354.669 184.081C359.531 171.343 365.959 159.267 373.802 148.137C366.144 143.196 359.374 136.984 353.78 129.765C344.29 139.214 336.741 150.452 331.565 162.838C338.007 171.193 345.821 178.378 354.669 184.081Z" fill="#FFC235"/>
<path d="M355.751 123.225C366.085 114.425 377.961 107.645 390.768 103.236C389.825 101.877 389.205 100.318 388.955 98.6801C388.706 97.0417 388.833 95.3675 389.328 93.7866C376.423 95.3969 364.066 100 353.228 107.234C352.394 109.915 352.187 112.753 352.625 115.528C353.062 118.302 354.133 120.937 355.751 123.225Z" fill="#FFC235"/>
<path d="M479.579 170.652C471.848 173.776 463.526 175.14 455.21 174.646C454.974 188.279 452.785 201.807 448.712 214.812C458.333 215.366 467.955 213.752 476.878 210.087C480.756 197.322 481.68 183.832 479.579 170.652Z" fill="#FFC235"/>
<path d="M441.31 219.358C428.444 218.456 415.723 216.078 403.394 212.269C399.062 224.626 394.908 234.634 391.493 242.071C402.288 245.417 413.434 247.491 424.704 248.249C432.05 239.795 437.69 229.982 441.31 219.358Z" fill="#FFC235"/>
<path d="M357.558 126.132C362.908 133.164 369.447 139.192 376.874 143.941C384.426 133.4 393.281 123.871 403.226 115.584C398.878 112.737 395.034 109.177 391.853 105.052C379.236 109.906 367.612 117.051 357.558 126.132Z" fill="#FFC235"/>
<path d="M429.939 248.432C438.387 248.869 446.827 247.441 454.669 244.25C464.192 236.589 471.385 226.388 475.429 214.811C466.482 218.389 456.879 220 447.263 219.536C443.53 230.268 437.631 240.106 429.939 248.432Z" fill="#FFC235"/>
<path d="M418.75 163.381C429.042 166.487 439.63 168.495 450.339 169.372C450.769 156.298 449.494 143.224 446.547 130.484C440.248 129.974 434.018 128.817 427.953 127.029C425.43 137.94 422.36 150.297 418.75 163.381Z" fill="#FFC235"/>
<path d="M326.152 140.671C325.609 141.941 325.248 143.215 324.708 144.485L324.887 143.942L326.152 140.671Z" fill="#FFC235"/>
<path d="M478.679 165.747C475.944 152.377 470.668 139.666 463.14 128.313C458.724 130.057 453.996 130.862 449.256 130.677C452.969 143.306 454.913 156.395 455.032 169.565C463.095 170.025 471.163 168.723 478.679 165.747Z" fill="#FFC235"/>
<path d="M483.908 162.476C485.641 161.141 487.024 159.4 487.937 157.404C488.85 155.409 489.264 153.219 489.145 151.025C485.273 139.12 478.51 128.376 469.468 119.77C469.541 121.058 469.299 122.344 468.764 123.517C468.229 124.689 467.416 125.712 466.398 126.495C465.95 126.902 465.467 127.267 464.954 127.586C472.9 138.564 478.549 151.052 481.56 164.293C482.464 163.566 483.202 163.019 483.908 162.476Z" fill="#FFC235"/>
<path d="M358.465 192.278C354.698 202.664 352.566 213.579 352.146 224.628C356.478 227.172 360.992 229.716 366.03 232.26C372.293 235.286 378.745 237.897 385.345 240.076C388.233 232.624 392.026 222.448 396.358 210.091C388.86 207.483 381.516 204.448 374.361 201.001C368.888 198.428 363.579 195.514 358.465 192.278Z" fill="#FFC235"/>
<path d="M392.399 158.662C387.524 156.302 382.831 153.754 378.681 151.209C371.265 162.689 365.092 174.934 360.266 187.737C365.142 190.645 370.374 193.552 376.134 196.46C383.303 199.901 390.66 202.928 398.171 205.526C402.685 192.805 407.196 179.538 411.528 166.638C405.03 164.293 398.532 161.57 392.399 158.662Z" fill="#FFC235"/>
<path d="M450.154 174.471C439.013 173.622 427.998 171.55 417.304 168.292C413.511 181.376 409.37 194.824 405.03 207.544C417.356 211.348 430.073 213.722 442.934 214.621C447.069 201.612 449.496 188.114 450.154 174.471Z" fill="#FFC235"/>
<path d="M381.384 146.849C385.653 149.494 390.051 151.92 394.562 154.118C400.523 157.022 406.675 159.512 412.973 161.57C417.127 148.85 421.098 136.493 424.525 125.953C420.915 124.68 417.305 123.227 413.695 121.592C411.013 120.384 408.418 118.987 405.932 117.41C396.657 126.245 388.421 136.123 381.384 146.849Z" fill="#FFC235"/>
<path d="M486.797 203.909C485.739 206.716 483.926 209.17 481.56 210.998C480.671 211.765 479.703 212.435 478.672 212.995C474.389 224.64 467.024 234.883 457.373 242.617L459 241.527C473.091 230.479 483.433 215.305 488.602 198.094L487.336 201.912L486.797 203.909Z" fill="#FFC235"/>
<path d="M350.697 107.778C351.517 106.458 352.556 105.29 353.768 104.323C354.129 103.96 354.49 103.776 354.851 103.412L358.282 101.048C358.692 100.642 359.184 100.331 359.726 100.137C350.653 106.063 342.705 113.573 336.257 122.315C340.322 116.77 345.189 111.869 350.697 107.778Z" fill="#FFC235"/>
<path d="M329.399 159.206C334.468 146.78 342.168 135.618 351.963 126.496C350.3 124.124 349.209 121.395 348.773 118.524C348.338 115.654 348.572 112.721 349.456 109.958C341.2 116.399 334.374 124.509 329.419 133.765C328.336 135.946 327.253 138.31 326.348 140.307C325.343 143.476 325.095 146.84 325.625 150.124C326.155 153.408 327.448 156.52 329.399 159.206Z" fill="#FFC235"/>
<path d="M396.545 103.419C399.303 107.124 402.733 110.269 406.653 112.689C414.32 106.492 423.077 101.804 432.466 98.8701C420.309 97.8538 408.074 99.4031 396.545 103.419Z" fill="#FFC235"/>
<path d="M396.367 90.3318C395.688 90.7975 395.131 91.4207 394.741 92.1491C407.59 91.6489 420.395 93.9428 432.285 98.8747C423.824 92.5697 413.864 88.6203 403.405 87.4243C400.857 87.7963 398.44 88.795 396.367 90.3318Z" fill="#FFC235"/>
<path d="M327.597 163.912C325.796 161.331 324.573 158.387 324.012 155.284C323.452 152.182 323.566 148.993 324.348 145.939C321.508 154.744 320.046 163.94 320.016 173.197C320.002 179.8 320.729 186.384 322.182 192.823C322.866 195.233 323.836 197.552 325.07 199.728C322.707 187.777 323.58 175.406 327.597 163.912Z" fill="#FFC235"/>
<path d="M394.196 93.4221C393.761 94.8204 393.648 96.3004 393.868 97.7491C394.087 99.1978 394.632 100.577 395.462 101.781C407.47 98.2792 420.063 97.2897 432.466 98.8737C420.239 94.3391 407.192 92.4806 394.196 93.4221Z" fill="#FFC235"/>
<path d="M424.158 88.1496C423.797 88.1496 423.614 87.9659 423.257 87.9659C426.867 88.6927 430.116 92.3271 432.465 98.8691C436.257 94.3241 438.963 92.6906 440.399 93.4175C441.299 93.7809 442.382 94.3281 443.287 94.6915C440.76 93.6012 437.15 94.8752 432.274 98.8731C441.213 97.9024 450.231 99.7442 458.088 104.145C455.4 101.815 452.499 99.746 449.424 97.9665C449.241 97.9665 449.241 97.7867 449.063 97.7867C448.88 97.603 448.702 97.603 448.519 97.4233C447.976 97.2396 447.615 96.8761 447.075 96.6964L445.992 96.1493C438.615 92.2363 430.714 89.4194 422.535 87.7861H422.896L424.158 88.1496Z" fill="#FFC235"/>
<path d="M447.266 96.693C447.464 96.8845 447.716 97.0112 447.988 97.0565C447.444 96.693 446.905 96.5093 446.361 96.1459C446.722 96.5093 447.083 96.5093 447.262 96.693H447.266Z" fill="#FFC235"/>
<path d="M334.637 221.355C333.732 219.901 332.832 218.448 332.11 217.174L331.927 216.81C329.515 212.706 327.635 208.308 326.334 203.722C325.282 201.797 324.377 199.794 323.624 197.732C326.272 206.844 330.421 215.444 335.898 223.172C335.537 222.625 335.176 222.266 334.815 221.719C334.815 221.539 334.637 221.539 334.637 221.355Z" fill="#FFC235"/>
<path d="M408.82 86.3342H406.293C402.326 86.3342 398.529 86.6976 394.741 87.0611C397.127 86.6684 399.548 86.5465 401.961 86.6976C404.233 86.3806 406.527 86.259 408.82 86.3342Z" fill="#FFC235"/>
<path d="M357.381 101.598C356.171 102.558 355.132 103.72 354.31 105.032C365.001 98.0578 377.193 93.758 389.87 92.4916C390.375 91.743 390.982 91.0706 391.675 90.4947C393.935 88.7076 396.604 87.5198 399.439 87.04C395.621 87.025 391.811 87.3902 388.065 88.1303C389.87 87.7669 392.397 87.4034 394.202 87.04C381.918 88.7788 370.154 93.1815 359.725 99.9441L358.277 100.871C358.065 101.205 357.75 101.461 357.381 101.598Z" fill="#FFC235"/>
<path d="M420.376 87.4238C415.432 86.5375 410.388 86.3547 405.393 86.8807C415.31 88.2121 424.641 92.3692 432.289 98.8622C429.04 92.1486 424.887 88.3304 420.376 87.4238Z" fill="#FFC235"/>
<path d="M419.834 87.4243H420.195C418.211 87.0608 416.228 86.8771 414.058 86.6974C415.994 86.8388 417.922 87.0815 419.834 87.4243Z" fill="#FFC235"/>
<path d="M462.79 107.777C465.822 110.488 468.016 114.021 469.109 117.953C478.115 126.155 484.888 136.539 488.785 148.119C488.603 147.392 488.424 146.845 488.242 146.122C483.939 132.693 476.441 120.528 466.4 110.684L467.122 111.411C465.678 110.141 464.234 109.051 462.79 107.777Z" fill="#FFC235"/>
<path d="M416.037 117.957C419.286 119.411 422.535 120.864 425.784 121.951C428.672 112.501 431.021 104.506 432.465 98.8702C423.851 102.502 415.962 107.673 409.179 114.135C411.318 115.66 413.618 116.942 416.037 117.957Z" fill="#FFC235"/>
<path d="M451.604 99.2369C450.882 98.6897 449.978 98.3263 449.256 97.7831C449.28 97.7826 449.304 97.787 449.326 97.796C449.349 97.805 449.369 97.8185 449.386 97.8357C449.403 97.8529 449.417 97.8734 449.426 97.8959C449.434 97.9184 449.439 97.9426 449.438 97.9668C449.978 98.3263 450.7 98.6937 451.604 99.2369Z" fill="#FFC235"/>
<path d="M490.407 155.388C490.536 157.653 490.109 159.915 489.165 161.976C488.221 164.036 486.787 165.831 484.992 167.202C484.18 167.85 483.337 168.456 482.465 169.019C484.826 182.092 484.084 195.541 480.299 208.27C481.382 207.543 482.282 206.996 483.187 206.273C485.748 204.181 487.685 201.417 488.784 198.286C491.181 190.145 492.397 181.699 492.394 173.208C492.394 171.211 492.394 169.39 492.211 167.573C492.029 166.299 492.029 165.209 491.85 164.302C491.649 161.291 491.165 158.307 490.407 155.388Z" fill="#FFC235"/>
<path d="M492.034 165.019C492.034 164.472 491.851 163.745 491.851 163.202C491.823 163.575 491.886 163.949 492.034 164.293V165.019Z" fill="#FFC235"/>
<path d="M355.03 242.981C355.574 243.344 356.296 243.891 356.835 244.251C354.126 241.809 351.931 238.844 350.381 235.533C348.831 232.221 347.957 228.63 347.81 224.972C340.284 220.221 333.678 214.131 328.317 207C329.734 212.151 331.926 217.053 334.815 221.538C334.815 221.721 334.997 221.721 334.997 221.901L336.08 223.539C341.078 230.633 347.094 236.941 353.931 242.258C354.267 242.454 354.572 242.699 354.836 242.985C354.852 242.801 354.852 242.801 355.03 242.981Z" fill="#FFC235"/>
<path d="M459.903 105.775C451.599 100.887 442.079 98.495 432.467 98.8812C444.552 101.734 455.881 107.184 465.679 114.857C464.5 111.409 462.52 108.295 459.903 105.775Z" fill="#FFC235"/>
<path d="M445.287 126.134C442.77 116.333 438.353 107.131 432.291 99.0553C431.624 107.135 430.356 115.153 428.498 123.042C433.984 124.607 439.606 125.642 445.287 126.134Z" fill="#FFC235"/>
<path d="M460.266 124.136C452.743 113.888 443.223 105.292 432.287 98.8751C439.211 106.831 444.488 116.098 447.81 126.133C452.059 126.439 456.322 125.756 460.266 124.136Z" fill="#FFC235"/>
<path d="M453.768 100.693L455.395 101.783L453.768 100.693Z" fill="#FFC235"/>
<path d="M463.693 108.322L464.591 109.043C464.25 108.86 463.946 108.616 463.693 108.322Z" fill="#FFC235"/>
<path d="M461.89 123.238C462.342 122.978 462.766 122.673 463.156 122.327C464.064 121.632 464.786 120.72 465.258 119.675C465.73 118.629 465.937 117.482 465.861 116.336C456.158 108.088 444.75 102.122 432.467 98.8751C443.727 105.035 453.714 113.304 461.89 123.238Z" fill="#FFC235"/>
<path d="M334.64 221.355C334.64 221.538 334.821 221.538 334.821 221.716C334.821 221.538 334.64 221.538 334.64 221.355Z" fill="#FFC235"/>
<path d="M335.9 223.171C335.583 222.654 335.22 222.168 334.817 221.717C335.133 222.234 335.496 222.72 335.9 223.171Z" fill="#FFC235"/>
<path d="M776.662 569.021H805V464.031H776.662V569.021ZM776.662 445.767H805V422.567H776.662V445.767ZM721.685 517.094C721.685 534.024 715.639 548.479 701.846 548.479C689.186 548.479 681.065 535.546 681.065 515.192C681.065 496.741 687.675 484 701.468 484C715.826 484 721.685 498.267 721.685 512.722V517.094ZM723.383 569.021H750.209V421.234H721.68V477.152C718.964 471.988 714.831 467.719 709.773 464.852C704.715 461.986 698.946 460.643 693.151 460.983C671.802 460.983 651.589 477.152 651.589 515.573C651.589 550.569 668.197 571.303 693.342 571.303C699.685 571.616 705.968 569.933 711.317 566.487C716.666 563.041 720.816 558.003 723.192 552.074V569.004L723.383 569.021ZM601.905 569.021H630.243V464.031H601.905V569.021ZM601.905 445.767H630.243V422.567H601.905V445.767ZM481.566 569.021H509.904V515.953C509.904 495.792 518.407 485.902 530.498 485.902C542.211 485.902 547.692 494.262 547.692 508.918V569.213H576.03V503.973C576.03 476.584 565.45 460.795 542.589 460.795C535.859 460.492 529.187 462.164 523.385 465.608C517.582 469.053 512.898 474.121 509.904 480.196V421.234H481.566V569.021ZM426.003 526.604C426.003 542.2 416.179 552.103 404.466 552.103C402.579 552.203 400.692 551.903 398.928 551.221C397.164 550.539 395.561 549.492 394.225 548.147C392.889 546.801 391.849 545.188 391.171 543.412C390.494 541.636 390.196 539.736 390.295 537.836C390.295 529.656 395.585 525.296 408.053 523.001L426.19 519.577V526.617L426.003 526.604ZM458.497 569.021C454.905 560.46 454.528 554.946 454.528 539.157V499.788C454.528 473.348 442.624 460.795 413.53 460.795C390.669 460.795 374.613 468.784 366.109 477.152L379.52 495.963C383.349 491.682 388.046 488.279 393.294 485.982C398.541 483.685 404.217 482.549 409.939 482.649C419.194 482.649 425.999 485.312 425.999 497.677V501.673L402.951 505.289C379.334 508.905 363.277 517.462 363.277 538.957C363.277 558.357 375.734 572.432 397.096 572.432C413.156 572.432 423.358 564.443 427.701 554.173C428.047 559.231 429.064 564.221 430.724 569.008H458.497V569.021ZM247.094 569.021H275.432V515.953C275.432 495.792 283.936 485.902 296.026 485.902C307.739 485.902 313.22 494.262 313.22 508.918V569.213H341.558V503.973C341.558 476.584 330.978 460.795 308.117 460.795C301.388 460.492 294.716 462.164 288.913 465.608C283.11 469.053 278.426 474.121 275.432 480.196V421.234H247.094V569.021ZM138.293 556.672C149.819 566.943 165.498 572.269 184.203 572.269C204.984 572.269 226.898 561.045 226.898 537.46C226.898 500.181 170.787 508.169 170.787 490.479C170.787 484.012 176.455 481.537 182.878 481.537C193.562 481.793 203.86 485.606 212.163 492.381L225.196 473.57C213.251 464.696 198.652 460.199 183.821 460.825C162.471 460.825 142.067 470.907 142.067 493.731C142.067 532.724 198.365 521.692 198.365 541.281C198.365 548.508 190.431 551.552 183.061 551.552C177.167 551.421 171.358 550.109 165.973 547.693C160.588 545.276 155.736 541.803 151.7 537.477L138.293 556.672ZM0 517.475C0 540.298 7.55681 572.235 58.1872 572.235C108.818 572.235 116.374 540.466 116.374 517.475V421.234H85.948V515.765C85.948 536.687 75.7463 545.628 58.1747 545.628C40.6031 545.628 30.4015 536.687 30.4015 515.004V421.234H0V517.475Z" fill="white"/>
</svg>
