<svg version="1.1" xmlns="http://www.w3.org/2000/svg">
  <defs>
    <symbol id="default" viewBox="0 0 30 40">
      <path d="M15 0C6.7 0 0 6.7 0 15C0 21.8 9.1 34 13.1 39C14.1 40.2 15.8 40.2 16.8 39C20.8 34 29.9 21.8 29.9 15C30 6.7 23.3 0 15 0Z"/>
      <path d="M14.9809 19.4872C12.4547 19.4872 10.4008 17.3312 10.4008 14.6795C10.4008 12.0277 12.4547 9.87179 14.9809 9.87179C17.5071 9.87179 19.561 12.0277 19.561 14.6795C19.561 17.3312 17.5071 19.4872 14.9809 19.4872Z" fill="var(--marker-secondary-color, white)"/>
    </symbol>

    <symbol id="twitter" viewBox="0 0 30 40">
      <path d="M15 0C6.7 0 0 6.7 0 15C0 21.8 9.1 34 13.1 39C14.1 40.2 15.8 40.2 16.8 39C20.8 34 29.9 21.8 29.9 15C30 6.7 23.3 0 15 0Z"/>
      <path d="M11.9 22.7C13.2 22.7 14.4 22.5 15.6 22C16.8 21.5 17.8 20.8 18.7 19.9C19.6 19 20.3 17.9 20.8 16.8C21.3 15.6 21.5 14.4 21.5 13.1V12.7C22.2 12.2 22.7 11.6 23.2 11C22.6 11.3 21.9 11.4 21.3 11.5C22 11.1 22.5 10.4 22.8 9.59999C22.1 9.99999 21.4 10.3 20.7 10.4C20.2 9.89999 19.5 9.49999 18.8 9.39999C18.1 9.29999 17.3 9.39999 16.7 9.79999C16 10.2 15.5 10.7 15.2 11.4C14.9 12.1 14.8 12.8 15 13.6C13.7 13.5 12.3 13.2 11.1 12.6C9.79998 11.8 8.79998 11 7.89998 9.89999C7.49998 10.6 7.29998 11.5 7.49998 12.4C7.69998 13.2 8.19998 14 8.89998 14.4C8.39998 14.4 7.89998 14.2 7.39998 14C7.39998 14.8 7.69998 15.5 8.09998 16.1C8.59998 16.7 9.29998 17.1 9.99998 17.3C9.49998 17.4 8.99998 17.5 8.49998 17.4C8.69998 18.1 9.09998 18.6 9.69998 19.1C10.3 19.5 10.9 19.7 11.6 19.8C10.4 20.8 8.89998 21.3 7.39998 21.3C7.09998 21.3 6.89998 21.3 6.59998 21.2C8.29998 22.2 10.1 22.7 11.9 22.7Z" fill="var(--marker-secondary-color, white)"/>
    </symbol>

    <symbol id="sms" viewBox="0 0 30 40">
      <path d="M15 0C6.7 0 0 6.7 0 15C0 21.8 9.1 34 13.1 39C14.1 40.2 15.8 40.2 16.8 39C20.8 34 29.9 21.8 29.9 15C30 6.7 23.3 0 15 0Z"/>
      <path d="M21.5 8.60001C20.9 8.00001 20.1 7.70001 19.3 7.70001H10.6C9.7 7.70001 9 8.00001 8.4 8.60001C7.8 9.20001 7.5 10 7.5 10.8V22.2C7.5 22.4 7.6 22.6 7.8 22.7C7.9 22.7 7.9 22.7 8 22.7C8.1 22.7 8.3 22.6 8.4 22.6L11.8 19.2H19.5C20.3 19.2 21.1 18.9 21.7 18.3C22.3 17.7 22.6 16.9 22.6 16.1V10.9C22.5 10 22.1 9.20001 21.5 8.60001ZM11.9 13.5C11.9 13.8 11.7 14 11.4 14C11.1 14 10.9 13.8 10.9 13.5C10.9 13.2 11.1 13 11.4 13C11.7 13 11.9 13.2 11.9 13.5ZM15.5 13.5C15.5 13.8 15.3 14 15 14C14.7 14 14.5 13.8 14.5 13.5C14.5 13.2 14.7 13 15 13C15.3 13 15.5 13.2 15.5 13.5ZM19 13.5C19 13.8 18.8 14 18.5 14C18.2 14 18 13.8 18 13.5C18 13.2 18.2 13 18.5 13C18.8 13 19 13.2 19 13.5Z" fill="var(--marker-secondary-color, white)"/>
    </symbol>

    <symbol id="email" viewBox="0 0 30 40">
      <path d="M15 0C6.7 0 0 6.7 0 15C0 21.8 9.1 34 13.1 39C14.1 40.2 15.8 40.2 16.8 39C20.8 34 29.9 21.8 29.9 15C30 6.7 23.3 0 15 0Z"/>
      <path d="M20.8 7.89999H9.19998C7.99998 7.89999 6.99998 8.89999 6.99998 10.1V18.9C6.99998 20.1 7.99998 21.1 9.19998 21.1H20.9C22.1 21.1 23.1 20.1 23.1 18.9V10.1C23 8.89999 22 7.89999 20.8 7.89999ZM22.8 10.5L15.3 15.7C15.2 15.8 15.1 15.8 15 15.8C14.9 15.8 14.8 15.8 14.7 15.7L7.19998 10.5C6.99998 10.4 6.89998 10.1 7.09998 9.79999C7.29998 9.59999 7.59998 9.49999 7.79998 9.69999L15 14.7L22.2 9.69999C22.4 9.49999 22.7 9.59999 22.9 9.79999C23.1 10.1 23 10.4 22.8 10.5Z" fill="var(--marker-secondary-color, white)"/>
    </symbol>
  </defs>
</svg>

