<svg xmlns="http://www.w3.org/2000/svg" fill="currentColor" viewBox="0 0 32 32">
  <path d="M26.852 24.687a12.613 12.613 0 0 0-7.008-5.673 7.532 7.532 0 0 0 3.131-3.66 7.55 7.55 0 0 0-2.416-8.811 7.51 7.51 0 0 0-9.118 0 7.552 7.552 0 0 0-2.417 8.81 7.532 7.532 0 0 0 3.132 3.661 12.613 12.613 0 0 0-7.008 5.673.839.839 0 0 0 .934 1.276.834.834 0 0 0 .507-.438 10.885 10.885 0 0 1 3.98-3.982 10.856 10.856 0 0 1 14.842 3.982.837.837 0 1 0 1.441-.838ZM10.151 12.545c0-1.159.343-2.292.986-3.256a5.838 5.838 0 0 1 9-.888 5.866 5.866 0 0 1 1.267 6.388 5.858 5.858 0 0 1-2.154 2.63 5.84 5.84 0 0 1-7.386-.729 5.868 5.868 0 0 1-1.713-4.145Z"/>
</svg>