<svg viewBox="0 0 25 24" fill="currentColor" xmlns="http://www.w3.org/2000/svg">
<path d="M19.3875 8.17007C19.2798 8.06104 19.1352 8 18.9846 8C18.8341 8 18.6895 8.06104 18.5818 8.17007L12.5522 14.2613L6.52391 8.17007C6.4162 8.06104 6.27161 8 6.12105 8C5.97049 8 5.82591 8.06104 5.7182 8.17007C5.66568 8.22306 5.62394 8.28642 5.59543 8.35641C5.56693 8.4264 5.55225 8.5016 5.55225 8.57757C5.55225 8.65353 5.56693 8.72873 5.59543 8.79872C5.62394 8.86871 5.66568 8.93207 5.7182 8.98507L12.1313 15.4626C12.2439 15.5763 12.395 15.64 12.5522 15.64C12.7095 15.64 12.8606 15.5763 12.9732 15.4626L19.3863 8.98507C19.4388 8.93207 19.4806 8.86871 19.5091 8.79872C19.5376 8.72873 19.5522 8.65353 19.5522 8.57757C19.5522 8.5016 19.5376 8.4264 19.5091 8.35641C19.4806 8.28642 19.4388 8.22306 19.3863 8.17007H19.3875Z"/>
</svg>
