<svg xmlns="http://www.w3.org/2000/svg" fill="currentColor" viewBox="0 0 24 24">
  <path d="M5.745 11.894a2.188 2.188 0 1 0 0 4.376 2.188 2.188 0 0 0 0-4.376ZM16.19 5.461C15.22 5.166 13.883 5 12.528 5c-1.37 0-2.659.166-3.62.461-.908.281-1.227.6-1.227.7.005.004.01.009.01.014.024.104.314.433 1.336.728.947.275 2.193.428 3.506.428 1.355 0 2.692-.172 3.657-.462 1.037-.314 1.26-.637 1.26-.704 0-.066-.223-.39-1.26-.704Zm.28 2.309c-1.065.323-2.46.499-3.929.499-1.403 0-2.74-.162-3.771-.462a5.27 5.27 0 0 1-1.028-.395l.033 1.342c.533.2 1.037.485 1.484.842.01.004.024.004.038.01.914.232 2.065.356 3.24.356 1.355 0 2.691-.167 3.657-.462 1.032-.313 1.256-.642 1.256-.704 0-.095.024-.185.076-.266V7.341a4.686 4.686 0 0 1-1.056.428Zm-4.138 8.585a.49.49 0 0 1 0-.166c-.443-.005-.87-.029-1.28-.062a5.74 5.74 0 0 1-.913 1.565c.737.123 1.474.185 2.212.195l-.02-1.532Z"/>
  <path d="M10.386 13.125a4.734 4.734 0 0 0-1.56-2.64 4.63 4.63 0 0 0-1.683-.937 4.75 4.75 0 0 0-4.595 1.027 4.743 4.743 0 0 0-.314 6.697 4.739 4.739 0 0 0 6.697.314 4.705 4.705 0 0 0 1.55-3.505c0-.32-.033-.643-.095-.956Zm-4.642 4.09a3.14 3.14 0 0 1 0-6.278 3.148 3.148 0 0 1 3.14 3.139 3.142 3.142 0 0 1-3.14 3.139Zm6.578-1.985-.02-1.583a.77.77 0 0 1-.023-.1c-.3-.005-.59-.014-.87-.033a7.6 7.6 0 0 1 .023.56c0 .372-.038.748-.11 1.114.32.024.657.038 1 .043Zm9.384-2.567c-.966-.295-2.298-.452-3.658-.452h-.038c-1.275 0-2.488.143-3.42.404-.927.257-1.284.547-1.365.695a.407.407 0 0 1 .024.128c.114.162.5.442 1.394.685.932.252 2.145.395 3.405.395 1.356 0 2.645-.157 3.62-.447 1.056-.314 1.288-.643 1.293-.714v-.005c-.014-.08-.256-.385-1.255-.69Zm.257 4.946c-1.065.323-2.444.5-3.914.5-1.299 0-2.559-.144-3.558-.405a5.872 5.872 0 0 1-1.184-.428l.014 1.075.005.29v.01c0 .104.304.418 1.213.699.956.29 2.235.451 3.61.451 1.37 0 2.654-.166 3.624-.466 1.013-.314 1.223-.642 1.223-.708v-1.451c-.286.186-.685.328-1.033.433Zm-.032-2.624c-1.06.314-2.435.485-3.881.485-1.77 0-3.658-.266-4.78-.851l.019 1.503c.409.456 2.169 1.032 4.756 1.032 1.38 0 2.673-.162 3.648-.457 1.023-.314 1.242-.637 1.242-.704 0-.095.062-.18.066-.252v-1.189a5.183 5.183 0 0 1-1.07.433Zm-5.471-4.567c-1.066.324-2.46.5-3.929.5a17.2 17.2 0 0 1-2.154-.138c.38.537.67 1.136.846 1.77.41.032.847.051 1.308.051h.038c.333-.37.918-.675 1.755-.913.89-.252 2.007-.404 3.197-.437V9.98c-.338.185-.69.333-1.061.437Z"/>
</svg>