<svg width="52" height="52" viewBox="0 0 52 52" fill="none" xmlns="http://www.w3.org/2000/svg">
<path d="M24.6985 20.3637L24.6977 20.3645C24.1613 20.9021 23.5221 21.1667 22.7507 21.1667C21.9792 21.1667 21.34 20.9021 20.8036 20.3645L20.8028 20.3637C20.2652 19.8274 20.0007 19.1882 20.0007 18.4167C20.0007 17.6452 20.2652 17.006 20.8028 16.4696L20.8036 16.4688C21.34 15.9312 21.9792 15.6667 22.7507 15.6667C23.5221 15.6667 24.1613 15.9312 24.6977 16.4688L24.6985 16.4696C25.2361 17.006 25.5007 17.6452 25.5007 18.4167C25.5007 19.1882 25.2361 19.8274 24.6985 20.3637ZM20.3652 31.197L20.3644 31.1979C19.828 31.7354 19.1888 32 18.4173 32C17.6458 32 17.0066 31.7354 16.4703 31.1979L16.4695 31.197C15.9319 30.6607 15.6673 30.0215 15.6673 29.25C15.6673 28.4785 15.9319 27.8393 16.4695 27.303L16.4703 27.3021C17.0066 26.7646 17.6458 26.5 18.4173 26.5C19.1888 26.5 19.828 26.7646 20.3644 27.3021L20.3652 27.303C20.9028 27.8393 21.1673 28.4785 21.1673 29.25C21.1673 30.0215 20.9028 30.6607 20.3652 31.197ZM17.7489 45.5003L17.7486 45.5002C15.1682 44.3874 12.9285 42.8791 11.025 40.9756C9.12158 39.0722 7.61323 36.8325 6.50045 34.252L6.50036 34.2518C5.39034 31.681 4.83398 28.9321 4.83398 26C4.83398 23.1462 5.42401 20.3703 6.60764 17.6683L6.60769 17.6682C7.79095 14.9652 9.43317 12.5907 11.5361 10.5414L11.5362 10.5413C13.631 8.49867 16.1242 6.94656 19.0224 5.88623C21.8992 4.83374 25.0675 4.51315 28.5371 4.93762C28.9669 4.99543 29.2532 5.16443 29.449 5.42105C29.6581 5.69639 29.8013 6.10239 29.8344 6.68439C29.912 9.12067 30.8227 11.2159 32.5544 12.9462C34.2835 14.6768 36.3607 15.589 38.7639 15.6663C39.4401 15.6991 39.882 15.8884 40.1638 16.1702C40.4382 16.4447 40.6346 16.9156 40.6678 17.6801L40.6679 17.6821C40.7445 19.2906 41.2369 20.6499 42.1724 21.7239C43.0903 22.7795 44.3541 23.5621 45.9332 24.0893C46.3681 24.2454 46.6684 24.4584 46.8675 24.7107L46.8676 24.7109C47.059 24.9532 47.1673 25.2638 47.1673 25.675H47.1672L47.1675 25.687C47.238 28.6164 46.7266 31.381 45.6353 33.986C44.5392 36.6025 43.0387 38.8871 41.134 40.8439L41.1339 40.8441C39.2313 42.8001 36.9752 44.3437 34.3605 45.4744C31.7536 46.6017 28.9686 47.1667 26.0007 47.1667C23.0685 47.1667 20.3196 46.6103 17.7489 45.5003ZM31.3122 33.6897L31.3109 33.6885C30.9937 33.3724 30.834 32.9877 30.834 32.5C30.834 32.0123 30.9938 31.6265 31.3115 31.3087C31.6275 30.9927 32.0124 30.8333 32.5007 30.8333C32.9886 30.8333 33.3744 30.9926 33.6919 31.3087C34.0081 31.6263 34.1673 32.0121 34.1673 32.5C34.1673 32.9882 34.0079 33.3731 33.6919 33.6891C33.3741 34.0069 32.9884 34.1667 32.5007 34.1667C32.013 34.1667 31.6283 34.0069 31.3122 33.6897ZM38.061 39.1571L38.061 39.157C41.5739 36.0338 43.4991 32.0467 43.8328 27.2262L43.8571 26.8756L43.5354 26.734C41.7965 25.9689 40.4526 24.9355 39.4831 23.6418L39.4829 23.6415C38.4971 22.3281 37.8317 20.8604 37.4855 19.2334L37.4129 18.8919L37.0672 18.8425C34.3937 18.4606 32.1097 17.3186 30.2 15.4089C28.2877 13.4966 27.1084 11.2078 26.6562 8.52926L26.5876 8.12295L26.1756 8.11265C23.2181 8.03872 20.5956 8.57459 18.3237 9.73832L18.3236 9.73838C16.0845 10.8861 14.2072 12.362 12.6992 14.168C11.2001 15.963 10.0686 17.919 9.30837 20.0348C8.55183 22.1363 8.16732 24.1259 8.16732 26C8.16732 30.9345 9.90796 35.1519 13.3794 38.6234C16.8495 42.0935 21.0662 43.8333 26.0007 43.8333C30.5335 43.8333 34.5599 42.2685 38.061 39.1571Z" fill="#F5F5F5" stroke="#181B21"/>
</svg>
