<svg width="44" height="44" viewBox="0 0 44 44" fill="none" xmlns="http://www.w3.org/2000/svg">
<path d="M20.6985 16.3637L20.6977 16.3645C20.1613 16.9021 19.5221 17.1667 18.7507 17.1667C17.9792 17.1667 17.34 16.9021 16.8036 16.3645L16.8028 16.3637C16.2652 15.8274 16.0007 15.1882 16.0007 14.4167C16.0007 13.6452 16.2652 13.006 16.8028 12.4696L16.8036 12.4688C17.34 11.9312 17.9792 11.6667 18.7507 11.6667C19.5221 11.6667 20.1613 11.9312 20.6977 12.4688L20.6985 12.4696C21.2361 13.006 21.5007 13.6452 21.5007 14.4167C21.5007 15.1882 21.2361 15.8274 20.6985 16.3637ZM16.3652 27.197L16.3644 27.1979C15.828 27.7354 15.1888 28 14.4173 28C13.6458 28 13.0066 27.7354 12.4703 27.1979L12.4695 27.197C11.9319 26.6607 11.6673 26.0215 11.6673 25.25C11.6673 24.4785 11.9319 23.8393 12.4695 23.303L12.4703 23.3021C13.0066 22.7646 13.6458 22.5 14.4173 22.5C15.1888 22.5 15.828 22.7646 16.3644 23.3021L16.3652 23.303C16.9028 23.8393 17.1673 24.4785 17.1673 25.25C17.1673 26.0215 16.9028 26.6607 16.3652 27.197ZM13.7489 41.5003L13.7486 41.5002C11.1682 40.3874 8.9285 38.8791 7.02504 36.9756C5.12158 35.0722 3.61323 32.8325 2.50045 30.252L2.50036 30.2518C1.39034 27.681 0.833984 24.9321 0.833984 22C0.833984 19.1462 1.42401 16.3703 2.60764 13.6683L2.60769 13.6682C3.79095 10.9652 5.43317 8.59066 7.5361 6.54143L7.53622 6.54131C9.63099 4.49867 12.1242 2.94656 15.0224 1.88623C17.8992 0.833737 21.0675 0.513145 24.5371 0.937617C24.9669 0.995431 25.2532 1.16443 25.449 1.42105C25.6581 1.69639 25.8013 2.10239 25.8344 2.68439C25.912 5.12067 26.8227 7.21593 28.5544 8.94622C30.2835 10.6768 32.3607 11.589 34.7639 11.6663C35.4401 11.6991 35.882 11.8884 36.1638 12.1702C36.4382 12.4447 36.6346 12.9156 36.6678 13.6801L36.6679 13.6821C36.7445 15.2906 37.2369 16.6499 38.1724 17.7239C39.0903 18.7795 40.3541 19.5621 41.9332 20.0893C42.3681 20.2454 42.6684 20.4584 42.8675 20.7107L42.8676 20.7109C43.059 20.9532 43.1673 21.2638 43.1673 21.675H43.1672L43.1675 21.687C43.238 24.6164 42.7266 27.381 41.6353 29.986C40.5392 32.6025 39.0387 34.8871 37.134 36.8439L37.1339 36.8441C35.2313 38.8001 32.9752 40.3437 30.3605 41.4744C27.7536 42.6017 24.9686 43.1667 22.0007 43.1667C19.0685 43.1667 16.3196 42.6103 13.7489 41.5003ZM27.3122 29.6897L27.3109 29.6885C26.9937 29.3724 26.834 28.9877 26.834 28.5C26.834 28.0123 26.9938 27.6265 27.3115 27.3087C27.6275 26.9927 28.0124 26.8333 28.5007 26.8333C28.9886 26.8333 29.3744 26.9926 29.6919 27.3087C30.0081 27.6263 30.1673 28.0121 30.1673 28.5C30.1673 28.9882 30.0079 29.3731 29.6919 29.6891C29.3741 30.0069 28.9884 30.1667 28.5007 30.1667C28.013 30.1667 27.6283 30.0069 27.3122 29.6897ZM34.061 35.1571L34.061 35.157C37.5739 32.0338 39.4991 28.0467 39.8328 23.2262L39.8571 22.8756L39.5354 22.734C37.7965 21.9689 36.4526 20.9355 35.4831 19.6418L35.4829 19.6415C34.4971 18.3281 33.8317 16.8604 33.4855 15.2334L33.4129 14.8919L33.0672 14.8425C30.3937 14.4606 28.1097 13.3186 26.2 11.4089C24.2877 9.49658 23.1084 7.20785 22.6562 4.52926L22.5876 4.12295L22.1756 4.11265C19.2181 4.03872 16.5956 4.57459 14.3237 5.73832L14.3236 5.73838C12.0845 6.88608 10.2072 8.362 8.69921 10.168C7.20014 11.963 6.06861 13.919 5.30837 16.0348C4.55183 18.1363 4.16732 20.1259 4.16732 22C4.16732 26.9345 5.90796 31.1519 9.37943 34.6234C12.8495 38.0935 17.0662 39.8333 22.0007 39.8333C26.5335 39.8333 30.5599 38.2685 34.061 35.1571Z" fill="#F5F5F5" stroke="#181B21"/>
</svg>
