<svg xmlns="http://www.w3.org/2000/svg" fill="currentColor" viewBox="0 0 24 24">
  <path fill-rule="evenodd" d="M10 8.75c-.69 0-1.25.56-1.25 1.25v8c0 .69.56 1.25 1.25 1.25h8c.69 0 1.25-.56 1.25-1.25v-8c0-.69-.56-1.25-1.25-1.25h-8ZM7.25 10A2.75 2.75 0 0 1 10 7.25h8A2.75 2.75 0 0 1 20.75 10v8A2.75 2.75 0 0 1 18 20.75h-8A2.75 2.75 0 0 1 7.25 18v-8Z" clip-rule="evenodd"/>
  <path fill-rule="evenodd" d="M4.055 4.055A2.75 2.75 0 0 1 6 3.25h8A2.75 2.75 0 0 1 16.75 6v2a.75.75 0 0 1-1.5 0V6A1.25 1.25 0 0 0 14 4.75H6A1.25 1.25 0 0 0 4.75 6v8A1.25 1.25 0 0 0 6 15.25h2a.75.75 0 0 1 0 1.5H6A2.75 2.75 0 0 1 3.25 14V6c0-.73.29-1.429.805-1.945Z" clip-rule="evenodd"/>
</svg>