<svg xmlns="http://www.w3.org/2000/svg" fill="currentColor" viewBox="0 0 32 32">
  <path fill-rule="evenodd" d="M5.333 21.292c.76 0 1.375.615 1.375 1.375v2.666A1.292 1.292 0 0 0 8 26.625h16a1.292 1.292 0 0 0 1.292-1.292v-2.666a1.375 1.375 0 1 1 2.75 0v2.666A4.041 4.041 0 0 1 24 29.375H8a4.042 4.042 0 0 1-4.042-4.042v-2.666c0-.76.616-1.375 1.375-1.375Z" clip-rule="evenodd"/>
  <path fill-rule="evenodd" d="M8.361 13.694a1.375 1.375 0 0 1 1.945 0L16 19.39l5.694-5.695a1.375 1.375 0 0 1 1.945 1.945l-6.667 6.667a1.375 1.375 0 0 1-1.944 0L8.36 15.639a1.375 1.375 0 0 1 0-1.945Z" clip-rule="evenodd"/>
  <path fill-rule="evenodd" d="M16 3.958c.76 0 1.375.616 1.375 1.375v16a1.375 1.375 0 1 1-2.75 0v-16c0-.76.616-1.375 1.375-1.375Z" clip-rule="evenodd"/>
</svg>