<svg viewBox="0 0 24 24" fill="currentColor" xmlns="http://www.w3.org/2000/svg">
<path fill-rule="evenodd" clip-rule="evenodd" d="M14.3964 6.3368C14.9322 5.80101 15.6589 5.5 16.4167 5.5C17.1744 5.5 17.9011 5.80101 18.4369 6.3368C18.9727 6.8726 19.2737 7.59929 19.2737 8.35702C19.2737 9.11475 18.9727 9.84145 18.4369 10.3772L9.68689 19.1272C9.59312 19.221 9.46594 19.2737 9.33333 19.2737H6C5.72386 19.2737 5.5 19.0498 5.5 18.7737V15.4404C5.5 15.3077 5.55268 15.1806 5.64645 15.0868L14.3964 6.3368ZM16.4167 6.5C15.9242 6.5 15.4518 6.69565 15.1036 7.04391L6.5 15.6475V18.2737H9.12623L17.7298 9.67014C18.078 9.32188 18.2737 8.84954 18.2737 8.35702C18.2737 7.86451 18.078 7.39217 17.7298 7.04391C17.3815 6.69565 16.9092 6.5 16.4167 6.5Z"/>
</svg>
