<svg xmlns="http://www.w3.org/2000/svg" fill="currentColor" viewBox="0 0 32 32">
  <path fill-rule="evenodd" d="M5.142 9.142A4.042 4.042 0 0 1 8 7.958h6.667a1.375 1.375 0 1 1 0 2.75H8A1.291 1.291 0 0 0 6.708 12v12A1.292 1.292 0 0 0 8 25.292h12A1.292 1.292 0 0 0 21.292 24v-6.667a1.375 1.375 0 0 1 2.75 0V24A4.042 4.042 0 0 1 20 28.042H8A4.042 4.042 0 0 1 3.958 24V12c0-1.072.426-2.1 1.184-2.858Z" clip-rule="evenodd"/>
  <path fill-rule="evenodd" d="M27.639 4.361a1.375 1.375 0 0 1 0 1.945L14.306 19.639a1.375 1.375 0 1 1-1.945-1.945L25.694 4.361a1.375 1.375 0 0 1 1.945 0Z" clip-rule="evenodd"/>
  <path fill-rule="evenodd" d="M18.625 5.333c0-.76.616-1.375 1.375-1.375h6.667c.76 0 1.375.616 1.375 1.375V12a1.375 1.375 0 1 1-2.75 0V6.708H20c-.76 0-1.375-.615-1.375-1.375Z" clip-rule="evenodd"/>
</svg>