<svg viewBox="0 0 24 24" fill="currentColor" xmlns="http://www.w3.org/2000/svg">
    <path d="M4.30002 2.20001C4.00002 1.90001 3.50002 1.90001 3.20002 2.20001C2.90002 2.50001 2.90002 3.00001 3.20002 3.30001L6.20002 6.30001C4.70002 7.50001 3.30002 9.20001 2.10002 11.4C2.00002 11.6 2.00002 11.9 2.10002 12.1C4.90002 17 8.50002 19.5 12.8 19.5C14.7 19.5 16.4 19 18 18L21.2 21.2C21.3 21.3 21.5 21.4 21.7 21.4C21.9 21.4 22.1 21.3 22.2 21.2C22.5 20.9 22.5 20.4 22.2 20.1L4.30002 2.20001ZM11.5 11.6L12.9 13C12.5 13 12.1 12.9 11.9 12.7C11.7 12.5 11.5 12.1 11.5 11.8C11.5 11.7 11.5 11.6 11.5 11.6ZM12.7 18C9.10002 18 6.10002 16 3.60002 11.8C4.70002 9.90001 6.00002 8.40001 7.30002 7.40001L10.3 10.4C10.1 10.8 10 11.3 10 11.8C10 12.5 10.3 13.2 10.8 13.7C11.3 14.2 12 14.5 12.7 14.5C13.2 14.5 13.6 14.4 14 14.1L16.8 16.9C15.6 17.6 14.2 18 12.7 18Z"/>
    <path d="M23.4 11.4C20.6 6.5 17 4 12.8 4C11.8 4 10.8 4.1 9.9 4.4C9.5 4.5 9.3 4.9 9.4 5.3C9.5 5.7 9.9 6 10.3 5.8C11.1 5.6 11.9 5.5 12.7 5.5C16.3 5.5 19.3 7.5 21.8 11.7C21.1 12.8 20.4 13.8 19.6 14.7C19.3 15 19.3 15.5 19.6 15.8C19.7 15.9 19.9 16 20.1 16C20.3 16 20.5 15.9 20.7 15.8C21.6 14.8 22.5 13.6 23.3 12.2C23.5 11.9 23.5 11.6 23.4 11.4Z"/>
</svg>
