<svg xmlns="http://www.w3.org/2000/svg" fill="currentColor" viewBox="0 0 36 36">
  <path d="M23.625 4.36a1.125 1.125 0 0 1 1.125-1.126 8.466 8.466 0 0 1 7.313 4.22 1.113 1.113 0 0 1-.422 1.532.998.998 0 0 1-.563.155 1.125 1.125 0 0 1-.97-.563 6.187 6.187 0 0 0-5.358-3.094 1.125 1.125 0 0 1-1.125-1.125Zm8.578 19.659A12.375 12.375 0 0 1 9.534 27L3.628 16.762a3.952 3.952 0 0 1 1.435-5.371 4.008 4.008 0 0 1 1.659-.52l-.478-.816a3.924 3.924 0 0 1 1.448-5.372 3.811 3.811 0 0 1 2.981-.394c.6.159 1.155.457 1.618.872a4.135 4.135 0 0 1 1.392-1.35 3.952 3.952 0 0 1 5.386 1.448l2.433 4.22a3.951 3.951 0 0 1 6.651.266l2.813 4.88a12.26 12.26 0 0 1 1.237 9.394Zm-3.192-8.269-2.813-4.88a1.66 1.66 0 0 0-1.012-.773 1.673 1.673 0 0 0-1.898 2.46l1.406 2.448.042.098c.014.028.028.042.028.07v.029c.016.03.025.064.028.098.011.032.02.065.028.098v.296c-.014 0-.014.014-.014.028s-.014.056-.014.084h-.014a.267.267 0 0 1-.028.099v.028l-.028.07h-.014l-.042.084-.057.07-.07.071-.084.084h-.014l-.07.057-.1.056a4.5 4.5 0 0 0-1.644 6.145 1.125 1.125 0 0 1-1.941 1.125 6.764 6.764 0 0 1 1.533-8.578l-.886-1.547-4.219-7.298a1.69 1.69 0 0 0-2.925 1.687l3.656 6.329a1.125 1.125 0 0 1-1.011 1.686 1.111 1.111 0 0 1-.592-.196.942.942 0 0 1-.337-.366l-3.657-6.328h-.014l-1.11-1.842a1.758 1.758 0 0 0-1.027-.787 1.688 1.688 0 0 0-1.28.168A1.66 1.66 0 0 0 8.03 7.65a1.69 1.69 0 0 0 .168 1.28l2.25 3.895 3.094 5.358a1.139 1.139 0 0 1-.408 1.547l-.126.056h-.042l-.085.028h-.042l-.127.028h-.309l-.112-.028h-.014l-.127-.042h-.028l-.085-.042h-.042l-.098-.07h-.014l-.099-.085-.028-.028-.07-.07v-.029l-.084-.126-3.094-5.358a1.689 1.689 0 0 0-2.925 1.688l5.906 10.237a10.139 10.139 0 0 0 13.823 3.684 10.125 10.125 0 0 0 3.699-13.823ZM12.05 32.822a14.429 14.429 0 0 1-4.33-4.697 1.125 1.125 0 1 0-1.94 1.125 16.58 16.58 0 0 0 4.978 5.428c.192.126.417.194.647.197a1.153 1.153 0 0 0 .928-.478 1.139 1.139 0 0 0-.281-1.575Z"/>
</svg>
