<svg xmlns="http://www.w3.org/2000/svg" fill="currentColor" viewBox="0 0 32 32">
  <path fill-rule="evenodd" d="M16 21.352a.75.75 0 0 1 .75.75v.01a.75.75 0 0 1-1.5 0v-.01a.75.75 0 0 1 .75-.75Zm-4.211-9.254c.572-1.734 2.256-2.96 4.211-2.96 2.404 0 4.417 1.866 4.417 4.243 0 .94-.29 1.628-.749 2.174-.368.438-.844.773-1.236 1.05l-.163.114c-.45.322-.809.61-1.071 1.005-.251.379-.448.912-.448 1.768a.75.75 0 1 1-1.5 0c0-1.108.262-1.94.698-2.597.425-.641.982-1.063 1.45-1.396l.176-.126c.41-.29.711-.504.945-.783.23-.273.398-.62.398-1.209 0-1.48-1.271-2.742-2.917-2.742-1.329 0-2.424.83-2.787 1.93a.75.75 0 1 1-1.424-.47Z" clip-rule="evenodd"/>
  <path fill-rule="evenodd" d="M4.25 16C4.25 9.51 9.51 4.25 16 4.25S27.75 9.51 27.75 16 22.49 27.75 16 27.75 4.25 22.49 4.25 16ZM16 5.75C10.34 5.75 5.75 10.34 5.75 16c0 5.661 4.59 10.25 10.25 10.25 5.661 0 10.25-4.589 10.25-10.25 0-5.66-4.589-10.25-10.25-10.25Z" clip-rule="evenodd"/>
</svg>