<svg xmlns="http://www.w3.org/2000/svg" fill="currentColor" viewBox="0 0 32 32">
  <path fill-rule="evenodd" d="M10.667 15.417a4.583 4.583 0 1 0 0 9.166 4.583 4.583 0 0 0 0-9.166ZM4.583 20a6.083 6.083 0 1 1 12.167 0 6.083 6.083 0 0 1-12.167 0Z" clip-rule="evenodd"/>
  <path fill-rule="evenodd" d="M25.864 4.803a.75.75 0 0 1 0 1.06L14.997 16.73a.75.75 0 0 1-1.06-1.06L24.802 4.803a.75.75 0 0 1 1.06 0Z" clip-rule="evenodd"/>
  <path fill-rule="evenodd" d="M23.47 6.136a.75.75 0 0 1 1.06 0l2.667 2.667a.75.75 0 1 1-1.06 1.06L23.47 7.198a.75.75 0 0 1 0-1.06Zm-4 4a.75.75 0 0 1 1.06 0l2.667 2.667a.75.75 0 0 1-1.06 1.06l-2.667-2.666a.75.75 0 0 1 0-1.06Z" clip-rule="evenodd"/>
</svg>