<svg width="32" height="32" viewBox="0 0 32 32" fill="none" xmlns="http://www.w3.org/2000/svg">
<path d="M25.25 12.6513C25.25 13.6611 24.912 14.9343 24.3136 16.3732C23.7202 17.8 22.8955 19.3323 21.9781 20.843C20.1438 23.8634 17.9741 26.741 16.6458 28.4285C16.3055 28.8572 15.6945 28.8572 15.3542 28.4285C14.0259 26.741 11.8562 23.8634 10.0219 20.843C9.10449 19.3323 8.27976 17.8 7.6864 16.3732C7.08799 14.9343 6.75 13.6611 6.75 12.6513C6.75 7.45048 10.904 3.25 16 3.25C21.096 3.25 25.25 7.45048 25.25 12.6513ZM11.9167 12.6513C11.9167 14.9212 13.7367 16.785 16 16.785C18.2633 16.785 20.0833 14.9212 20.0833 12.6513C20.0833 10.3814 18.2633 8.51751 16 8.51751C13.7367 8.51751 11.9167 10.3814 11.9167 12.6513Z" stroke="currentColor" stroke-width="1.5"/>
</svg>
