<svg xmlns="http://www.w3.org/2000/svg" fill="currentColor" viewBox="0 0 32 32">
  <g clip-path="url(#a)">
    <path d="M16 30c-.5 0-.9-.2-1.2-.6-1.5-1.9-3.6-4.7-5.4-7.7-1-1.7-1.8-3.2-2.4-4.6-.7-1.6-1-2.9-1-4C6 7.6 10.5 3 16 3s10 4.6 10 10.2c0 1.1-.3 2.4-1 4-.6 1.4-1.4 2.9-2.4 4.6-1.8 3-3.9 5.8-5.4 7.7-.3.3-.7.5-1.2.5Zm0-25.5c-4.7 0-8.5 3.9-8.5 8.7 0 .9.3 2 .9 3.4.5 1.3 1.3 2.8 2.3 4.4 1.8 2.9 3.8 5.7 5.3 7.5l.7.5-.6-.5c1.4-1.8 3.5-4.6 5.3-7.5 1-1.6 1.8-3.1 2.3-4.4.6-1.4.9-2.6.9-3.4-.1-4.8-3.9-8.7-8.6-8.7ZM16 18c-2.7 0-4.8-2.2-4.8-4.9s2.1-4.8 4.8-4.8c2.7 0 4.8 2.2 4.8 4.9S18.7 18 16 18Zm0-8.2c-1.8 0-3.3 1.5-3.3 3.4s1.5 3.4 3.3 3.4c1.8 0 3.3-1.5 3.3-3.4S17.8 9.8 16 9.8Z"/>
  </g>
  <defs>
    <clipPath id="a">
      <path d="M0 0h20v27H0z" transform="translate(6 3)"/>
    </clipPath>
  </defs>
</svg>
