<svg xmlns="http://www.w3.org/2000/svg" fill="currentColor" viewBox="0 0 44 44">
  <path fill-rule="evenodd" d="M16.5 8.084a1.083 1.083 0 0 0-1.083 1.083A4.417 4.417 0 0 1 11 13.584H9.167a2.917 2.917 0 0 0-2.917 2.917V33a2.916 2.916 0 0 0 2.917 2.916h25.666A2.917 2.917 0 0 0 37.75 33V16.5a2.916 2.916 0 0 0-2.917-2.917H33a4.417 4.417 0 0 1-4.417-4.417A1.083 1.083 0 0 0 27.5 8.084h-11Zm-7.333 4a4.417 4.417 0 0 0-4.417 4.417V33a4.417 4.417 0 0 0 4.417 4.416h25.666A4.417 4.417 0 0 0 39.25 33V16.5a4.417 4.417 0 0 0-4.417-4.417H33a2.917 2.917 0 0 1-2.917-2.917A2.583 2.583 0 0 0 27.5 6.584h-11a2.583 2.583 0 0 0-2.583 2.583A2.917 2.917 0 0 1 11 12.084H9.167Z" clip-rule="evenodd"/>
  <path fill-rule="evenodd" d="M22 19.084a4.75 4.75 0 1 0 0 9.5 4.75 4.75 0 0 0 0-9.5Zm-6.25 4.75a6.25 6.25 0 1 1 12.5 0 6.25 6.25 0 0 1-12.5 0Z" clip-rule="evenodd"/>
</svg>
