<svg viewBox="0 0 32 32" fill="currentColor" xmlns="http://www.w3.org/2000/svg">
<path d="M26.9 16.1C26.8 16 26.8 15.9 26.7 15.8L19 8.3C18.6 7.9 17.9 7.9 17.5 8.3C17.3 8.5 17.2 8.8 17.2 9.1V12.2H17V12.4C15.3 12.5 12.4 13 9.8 14.6C6.6 16.6 5 19.7 5 23.9C5 24.1 5.1 24.3 5.2 24.5C5.3 24.7 5.5 24.8 5.7 24.9C5.9 25 6 25 6.1 25C6.2 25 6.3 25 6.4 25C6.6 24.9 6.8 24.8 6.9 24.6C8 23.3 9.5 22.3 11 21.6C12.6 20.9 14.3 20.6 16.1 20.6H17V23.9C17 24.1 17.1 24.3 17.2 24.5C17.3 24.7 17.5 24.8 17.7 24.9C17.9 25 18.1 25 18.3 25C18.5 25 18.7 24.9 18.9 24.7L26.6 17.3C26.7 17.2 26.8 17.1 26.8 17C27 16.8 27 16.6 27 16.5C27 16.3 27 16.2 26.9 16.1ZM19 19C18.8 18.8 18.6 18.7 18.3 18.6C17.6 18.5 16.9 18.5 16.3 18.5H16C13 18.5 10 19.5 7.5 21.2C8.2 18.4 10.1 16.4 13.1 15.3C15.4 14.4 17.7 14.4 18.2 14.4C18.5 14.4 18.8 14.3 19 14.1C19.2 13.9 19.3 13.6 19.3 13.3V11.6L24.3 16.5L19.3 21.4V19.7C19.3 19.4 19.2 19.2 19 19Z"/>
</svg>
