<svg viewBox="0 0 32 32" fill="currentColor" xmlns="http://www.w3.org/2000/svg">
<path d="M10.7819 7.22034C10.7123 7.1505 10.6295 7.09508 10.5384 7.05727C10.4473 7.01946 10.3496 7 10.2509 7C10.1523 7 10.0546 7.01946 9.9635 7.05727C9.87238 7.09508 9.78962 7.1505 9.71995 7.22034L5.21995 11.7203C5.07912 11.8612 5 12.0522 5 12.2513C5 12.4505 5.07912 12.6415 5.21995 12.7823C5.36078 12.9232 5.55178 13.0023 5.75095 13.0023C5.95011 13.0023 6.14112 12.9232 6.28195 12.7823L9.50095 9.56184V24.2513C9.50095 24.4503 9.57997 24.641 9.72062 24.7817C9.86127 24.9223 10.052 25.0013 10.2509 25.0013C10.4499 25.0013 10.6406 24.9223 10.7813 24.7817C10.9219 24.641 11.0009 24.4503 11.0009 24.2513V9.56184L14.2199 12.7823C14.3608 12.9232 14.5518 13.0023 14.7509 13.0023C14.9501 13.0023 15.1411 12.9232 15.2819 12.7823C15.4228 12.6415 15.5019 12.4505 15.5019 12.2513C15.5019 12.0522 15.4228 11.8612 15.2819 11.7203L10.7819 7.22034ZM20.2289 24.7913C20.3689 24.927 20.5561 25.0028 20.7509 25.0028C20.9458 25.0028 21.133 24.927 21.2729 24.7913L25.7729 20.4413C25.9162 20.3029 25.9985 20.1132 26.0019 19.9141C26.0053 19.7149 25.9294 19.5226 25.7909 19.3793C25.6525 19.2361 25.4628 19.1538 25.2637 19.1504C25.0645 19.147 24.8722 19.2229 24.7289 19.3613L21.5009 22.4828V7.75284C21.5009 7.55393 21.4219 7.36316 21.2813 7.22251C21.1406 7.08186 20.9499 7.00284 20.7509 7.00284C20.552 7.00284 20.3613 7.08186 20.2206 7.22251C20.08 7.36316 20.0009 7.55393 20.0009 7.75284V22.4828L16.7729 19.3628C16.7024 19.2934 16.6188 19.2386 16.527 19.2016C16.4352 19.1646 16.337 19.1462 16.238 19.1473C16.139 19.1485 16.0413 19.1692 15.9504 19.2084C15.8594 19.2475 15.7772 19.3042 15.7083 19.3753C15.6394 19.4464 15.5852 19.5304 15.549 19.6224C15.5127 19.7145 15.495 19.8129 15.4969 19.9119C15.4988 20.0108 15.5203 20.1084 15.5602 20.199C15.6 20.2897 15.6573 20.3715 15.7289 20.4398L20.2289 24.7898V24.7913Z"/>
</svg>
