<svg viewBox="0 0 32 32" fill="currentColor" xmlns="http://www.w3.org/2000/svg">
<path d="M16.5319 7.22034C16.4623 7.1505 16.3795 7.09508 16.2884 7.05727C16.1973 7.01946 16.0996 7 16.0009 7C15.9023 7 15.8046 7.01946 15.7135 7.05727C15.6224 7.09508 15.5396 7.1505 15.4699 7.22034L10.9699 11.7203C10.8291 11.8612 10.75 12.0522 10.75 12.2513C10.75 12.4505 10.8291 12.6415 10.9699 12.7823C11.1108 12.9232 11.3018 13.0023 11.5009 13.0023C11.7001 13.0023 11.8911 12.9232 12.0319 12.7823L15.2509 9.56184V24.2513C15.2509 24.4503 15.33 24.641 15.4706 24.7817C15.6113 24.9223 15.802 25.0013 16.0009 25.0013C16.1999 25.0013 16.3906 24.9223 16.5313 24.7817C16.6719 24.641 16.7509 24.4503 16.7509 24.2513V9.56184L19.9699 12.7823C20.1108 12.9232 20.3018 13.0023 20.5009 13.0023C20.7001 13.0023 20.8911 12.9232 21.0319 12.7823C21.1728 12.6415 21.2519 12.4505 21.2519 12.2513C21.2519 12.0522 21.1728 11.8612 21.0319 11.7203L16.5319 7.22034Z"/>
</svg>
