<svg viewBox="0 0 32 32" fill="currentColor" xmlns="http://www.w3.org/2000/svg">
<path d="M15.47 24.781C15.5397 24.8508 15.6224 24.9063 15.7136 24.9441C15.8047 24.9819 15.9024 25.0013 16.001 25.0013C16.0997 25.0013 16.1973 24.9819 16.2885 24.9441C16.3796 24.9063 16.4623 24.8508 16.532 24.781L21.032 20.281C21.1728 20.1402 21.252 19.9492 21.252 19.75C21.252 19.5508 21.1728 19.3598 21.032 19.219C20.8912 19.0782 20.7002 18.9991 20.501 18.9991C20.3018 18.9991 20.1108 19.0782 19.97 19.219L16.751 22.4395L16.751 7.75C16.751 7.55109 16.672 7.36032 16.5313 7.21967C16.3907 7.07902 16.1999 7 16.001 7C15.8021 7 15.6113 7.07902 15.4707 7.21967C15.33 7.36032 15.251 7.55109 15.251 7.75L15.251 22.4395L12.032 19.219C11.8912 19.0782 11.7002 18.9991 11.501 18.9991C11.3018 18.9991 11.1108 19.0782 10.97 19.219C10.8292 19.3598 10.7501 19.5508 10.7501 19.75C10.7501 19.9492 10.8292 20.1402 10.97 20.281L15.47 24.781Z"/>
</svg>
