<svg xmlns="http://www.w3.org/2000/svg" fill="currentColor" viewBox="0 0 32 32">
  <path fill-rule="evenodd" d="M6.917 6.917c.641-.64 1.51-1 2.416-1H12a.75.75 0 0 1 0 1.5H9.333a1.917 1.917 0 0 0-1.916 1.916v16a1.917 1.917 0 0 0 1.916 1.917h13.334a1.916 1.916 0 0 0 1.916-1.917v-16a1.916 1.916 0 0 0-1.916-1.916H20a.75.75 0 1 1 0-1.5h2.667a3.417 3.417 0 0 1 3.416 3.416v16a3.417 3.417 0 0 1-3.416 3.417H9.333a3.417 3.417 0 0 1-3.416-3.417v-16c0-.906.36-1.775 1-2.416Z" clip-rule="evenodd"/>
  <path fill-rule="evenodd" d="M14.667 4.75a1.917 1.917 0 1 0 0 3.833h2.666a1.917 1.917 0 1 0 0-3.833h-2.666ZM11.25 6.667a3.417 3.417 0 0 1 3.417-3.417h2.666a3.417 3.417 0 1 1 0 6.833h-2.666a3.417 3.417 0 0 1-3.417-3.416Zm9.28 8.803a.75.75 0 0 1 0 1.06l-5.333 5.334a.75.75 0 0 1-1.06 0l-2.667-2.667a.75.75 0 0 1 1.06-1.06l2.137 2.136 4.803-4.803a.75.75 0 0 1 1.06 0Z" clip-rule="evenodd"/>
</svg>
