<svg xmlns="http://www.w3.org/2000/svg" fill="currentColor" viewBox="0 0 32 32">
  <path fill-rule="evenodd" d="M6.667 6.083a.583.583 0 0 0-.583.584V12c0 .322.26.583.583.583H12a.583.583 0 0 0 .584-.583V6.667A.583.583 0 0 0 12 6.083H6.667Zm-2.083.584c0-1.151.932-2.084 2.083-2.084H12c1.15 0 2.084.933 2.084 2.084V12c0 1.15-.933 2.083-2.084 2.083H6.667A2.083 2.083 0 0 1 4.584 12V6.667ZM20 6.083a.583.583 0 0 0-.584.584V12c0 .322.262.583.584.583h5.333a.583.583 0 0 0 .584-.583V6.667a.583.583 0 0 0-.584-.584H20Zm-2.084.584c0-1.151.933-2.084 2.084-2.084h5.333c1.15 0 2.084.933 2.084 2.084V12c0 1.15-.933 2.083-2.084 2.083H20A2.083 2.083 0 0 1 17.916 12V6.667ZM6.667 19.417a.583.583 0 0 0-.583.583v5.333c0 .323.26.584.583.584H12a.583.583 0 0 0 .584-.584V20a.583.583 0 0 0-.584-.583H6.667ZM4.584 20c0-1.15.932-2.083 2.083-2.083H12c1.15 0 2.084.932 2.084 2.083v5.333A2.084 2.084 0 0 1 12 27.417H6.667a2.083 2.083 0 0 1-2.083-2.084V20ZM20 19.417a.583.583 0 0 0-.584.583v5.333c0 .323.262.584.584.584h5.333a.583.583 0 0 0 .584-.584V20a.583.583 0 0 0-.584-.583H20ZM17.916 20c0-1.15.933-2.083 2.084-2.083h5.333c1.15 0 2.084.932 2.084 2.083v5.333a2.084 2.084 0 0 1-2.084 2.084H20a2.083 2.083 0 0 1-2.084-2.084V20Z" clip-rule="evenodd"/>
</svg>