<svg width="33" height="32" viewBox="0 0 33 32" fill="none" xmlns="http://www.w3.org/2000/svg">
  <path d="M29.8346 5.34667C28.5013 6 27.1946 6.26534 25.8346 6.66667C24.34 4.98 22.124 4.88667 19.9946 5.684C17.8653 6.48134 16.4706 8.43067 16.5013 10.6667V12C12.1746 12.1107 8.3213 10.14 5.83464 6.66667C5.83464 6.66667 0.258635 16.5773 11.168 21.3333C8.67197 22.996 6.18264 24.1173 3.16797 24C7.57864 26.404 12.3853 27.2307 16.5466 26.0227C21.32 24.636 25.2426 21.0587 26.748 15.7C27.197 14.0702 27.42 12.3865 27.4106 10.696C27.408 10.364 29.424 7 29.8346 5.34534V5.34667Z" fill="#1DA1F2"/>
</svg>
